<svg xmlns="http://www.w3.org/2000/svg" xmlns:xlink="http://www.w3.org/1999/xlink" viewBox="0 0 1400 1400" class="responsive-svg">
<style type="text/css">
	.st0{fill:url(#SVGID_1_);}
	.st1{fill:url(#SVGID_2_);}
	.st2{fill:url(#SVGID_3_);}
	.st3{fill:url(#SVGID_4_);}
	.st4{opacity:0.15;}
	.st5{fill:url(#SVGID_5_);}
	.st6{fill:#6C247F;}
</style>
<linearGradient id="SVGID_1_" gradientUnits="userSpaceOnUse" x1="1169.5483" y1="357.8093" x2="1238.7761" y2="517.4799">
	<stop  offset="0.3242" style="stop-color:#6C247F;stop-opacity:0.1"/>
	<stop  offset="0.9693" style="stop-color:#FFFFFF;stop-opacity:0"/>
</linearGradient>
<linearGradient id="SVGID_2_" gradientUnits="userSpaceOnUse" x1="412.4055" y1="490.2253" x2="419.1031" y2="625.8529">
	<stop  offset="0" style="stop-color:#6C247F;stop-opacity:0.1"/>
	<stop  offset="1" style="stop-color:#FFFFFF;stop-opacity:0"/>
</linearGradient>
<linearGradient id="SVGID_3_" gradientUnits="userSpaceOnUse" x1="1194.8689" y1="171.3124" x2="1138.776" y2="484.428">
	<stop  offset="0" style="stop-color:#6C247F;stop-opacity:0.1"/>
	<stop  offset="1" style="stop-color:#FFFFFF;stop-opacity:0"/>
</linearGradient>
<linearGradient id="SVGID_4_" gradientUnits="userSpaceOnUse" x1="1195.4164" y1="270.6626" x2="1069.0134" y2="521.7943">
	<stop  offset="0" style="stop-color:#6C247F;stop-opacity:0.1"/>
	<stop  offset="1" style="stop-color:#FFFFFF;stop-opacity:0"/>
</linearGradient>
<linearGradient id="SVGID_5_" gradientUnits="userSpaceOnUse" x1="804.8035" y1="458.3308" x2="798.1058" y2="556.5632">
	<stop  offset="0.3242" style="stop-color:#6C247F;stop-opacity:0.1"/>
	<stop  offset="0.9693" style="stop-color:#FFFFFF;stop-opacity:0"/>
</linearGradient>
<g transform="translate(0 830)">
	<path class="st4 st6" d="M1216,510.2c-88.9,15.7-160.8,16.6-222.7,11.5c-39.7,7.9-88.5,14-147.7,14.5c-94.6,0.7-169.7-20.5-236.6-34.9
		c-98.1,22.2-216.8,59.8-309.1,59.8C155.5,561.1,0,530.8,0,530.8V570h1400V439C1400,439,1297.3,495.9,1216,510.2z"/>
	<path class="st4 st6" d="M845.6,536.2c59.3-0.5,108-6.6,147.7-14.5c-118.6-9.9-200.1-42.1-293.4-35.5c-26.7,1.9-57.6,7.6-90.9,15.1
		C675.9,515.7,751,536.9,845.6,536.2z"/>
	<path class="st6" d="M299.9,561.3C157.1,561.3,1.6,531.5,0,531.2v-0.5c1.6,0.3,157.2,30.1,299.9,30.1c69.3,0,152.3-20.9,232.7-41.2
		c62.2-15.7,121-30.5,167.3-33.8c54.5-3.8,103.8,5.4,161,16c91.4,17,195.1,36.3,355,8.1c80.4-14.2,183-70.6,184-71.2v0.6
		c-1,0.6-103.5,57-184,71.1c-71.3,12.6-138,16.8-203.8,12.8c-57.5-3.5-105.3-12.3-151.4-20.9c-57.1-10.6-106.5-19.8-160.9-16
		c-46.2,3.3-105,18.1-167.2,33.7C452.3,540.4,369.2,561.3,299.9,561.3z"/>
</g>
</svg>
