<svg version="1.2" xmlns="http://www.w3.org/2000/svg" viewBox="0 0 462 250" width="462" height="250">
	<title>logo masa</title>
	<style>
		.s0 { fill: #615f6a } 
		.s1 { fill: #ec1a37 } 
		.s2 { fill: #f16538 } 
		.s3 { fill: #04af73 } 
		.s4 { fill: #fcb712 } 
		.s5 { fill: #2162ae } 
		.s6 { fill: #6c2c8b } 
	</style>
	<g id="Calque 1">
		<path id="&lt;Path&gt;" class="s0" d="m356 13.1c-0.4 0.7-1.4 1-2.2 0.5-4.3-2.7-3.3-3.3-4.8-0.4-0.3 0.7-0.8 1.7-1.6 2.9-1.2 1.7-2.9 4-5.7 6.9-1.4 1.3-2.9 2.8-4.7 4.4-4.6 4.1-9.2 8.6-13.8 13.5q-1.2 1.2-2.3 2.4c-7.8 8.4-15.6 18-23.4 28.4q-1.3 1.7-2.6 3.5c-0.9 1.2-1.8 2.5-2.7 3.7q-0.4 0.6-0.8 1.2c-0.7 0.9-1.3 1.9-2 2.8-1.2 1.8-2.4 3.5-3.6 5.3q0 0 0 0.1-0.9-0.4-1.7-0.9c-0.1 0-0.2-0.1-0.3-0.2q-0.4-0.3-0.8-0.6c0.9-1.3 1.8-2.6 2.7-4 1-1.5 2.1-3 3.2-4.5q0.2-0.3 0.4-0.6 1.2-1.7 2.4-3.3 1.7-2.3 3.3-4.5c7.7-10.3 15.4-19.8 23.2-28.2q1.1-1.2 2.2-2.4c4.9-5.1 9.7-9.9 14.4-14.1q2.7-2.4 4.7-4.4c2.1-2 3.7-3.7 4.9-5.2 0.9-1 1.7-2 2.3-2.8 4.5-5.9 2.5-5.7 8.8-1.7 0.8 0.5 1 1.4 0.5 2.2z"/>
		<path id="&lt;Path&gt;" class="s0" d="m219.9 49c-0.4 1-0.7 2.1-1 3.3q-0.1 0.4-0.2 0.8c-1.6 8.1-0.8 19.8 2.2 33.7q-1.5 1-2.9 2.1c-0.4-1.5-0.6-2.9-0.9-4.4-2.1-11-2.8-20.4-2-27.8q0-0.4 0.1-0.9c0.2-2.5 0-1.9 0.6-4 0.4-1.2 2.4-2 4.1-2.8z"/>
		<path id="&lt;Path&gt;" class="s0" d="m219.9 48.8c0.9-2.3 2-4.2 3.5-5.5-0.7 1-0.3 2.5-1.4 4.2-0.3 0.5-1.2 1-2.1 1.5 0-0.1 0-0.1 0-0.2z"/>
		<path id="&lt;Path&gt;" class="s0" d="m224.4 42.4q0.1 0 0.1 0-0.6 0.4-1.1 0.9 0.1-0.1 0.1-0.2h0.1q0.2-0.3 0.5-0.5 0.2-0.1 0.3-0.2z"/>
		<path id="&lt;Path&gt;" class="s0" d="m226.9 43.6c-0.4-0.8-1.6-1.5-2.4-1.2 0.4-0.3 0.7-0.4 1.1-0.6 0.8-0.5 1.7 2.6 1.3 1.8z"/>
		<path id="&lt;Path&gt;" class="s0" d="m295.2 11.7c0.2 0.9-0.4 1.7-1.3 1.9-1 0.1-2-0.1-2.7 0.5-1 0.8-1.7 3.3-1.8 11 0 1-0.1 2.1-0.1 3.3 0 3 0.1 6.5 0.2 10.7 0.1 8.8 0.7 18.7 1.7 29.2q0.2 2.9 0.5 5.9c0.1 0.7 0.2 1.5 0.2 2.2q0.2 1.3 0.3 2.5 0.1 0.4 0.1 0.8 0.5 4.3 1 8.7c0 0.1 0 0.2 0 0.2q-0.5 0.1-1 0.1 0 0-0.1 0-1 0.3-2.1 0.3c0-0.1 0-0.1 0-0.2q-0.4-3-0.7-5.9c0-0.6-0.1-1.2-0.1-1.8q-0.2-1.6-0.4-3 0-0.2 0-0.4-0.5-4.8-0.9-9.3c-0.9-10.6-1.5-20.4-1.7-29.3q-0.2-6.8-0.3-11.6 0-1.8 0-3.3c0-4.8 0.2-7.7 0.7-9.3 0.6-1.4 1.4-1.7 2.6-1.3 1.1-1.9 2.5-2.9 4-3.2 0.9-0.1 1.8 0.4 1.9 1.3z"/>
		<path id="&lt;Path&gt;" class="s0" d="m455.7 121.6c0 1.1-0.7 1.8-2.9 3.2-0.6 0.4-1.4 0.9-2.5 1.5-5.9 3.6-14.6 7.8-25.9 12.6-4.3 1.8-8.9 3.7-13.8 5.5-2.5 1-5.1 2-7.8 3q-1.5 0.6-3 1.1-4.1 1.5-8.3 3c-0.3-0.6-0.6-1.2-0.9-1.8-0.1 0-0.1 0-0.1 0q-0.1-0.6-0.3-1.2 4.4-1.5 8.6-3 1.5-0.6 3-1.2c2.6-1 5.3-2 7.8-3 4.8-1.8 9.3-3.6 13.6-5.4 23-9.6 28.1-13.2 29-14.4 0.5-0.6 0-0.7 0-0.7-0.2-0.9 0.3-1.8 1.1-2 0.9-0.2 1.8 0.2 2 1.1 0 0 0 0.1 0.1 0.2 0.1 0.7 0.3 1.1 0.3 1.5z"/>
		<path id="&lt;Path&gt;" class="s0" d="m451.8 112.6c-0.7 0.3-1.5-0.1-1.9-0.8 0-0.1 0-0.1 0-0.1q-0.1 0-0.1-0.1c-1.6-4.7-4.2-11.9-6.2-17.2-0.1-0.2-0.2-0.3-0.2-0.5-1.5-3.8-2.5-6.5-2.5-6.5q-0.4-0.3-0.8-0.7c-0.2-0.2-0.4-0.4-0.6-0.6h-0.1c-9.6-8.6-22.8-15-38.8-18.7-12.5-2.9-26.1-4-40.2-3.4q-4.1 0.2-8.2 0.6-2 0.2-4.1 0.4-4.1 0.5-8.2 1.1c-11.5 1.8-23.2 4.7-34.8 8.7q-2.6 0.9-5.2 1.9-3.8 1.4-7.6 3-0.5 0.2-0.9 0.4-1.1 0.4-2.1 1c-1.2 0.4-2.4 1-3.6 1.5-1.5 0.7-3 1.4-4.5 2.1 0 0.1 0 0.1 0 0.1-0.7-0.9-1.1-1.9-1.5-2.9 0 0 0.1 0 0.1 0 2.9-1.5 6-2.9 9.1-4.2q0.2-0.1 0.4-0.2c0.9-0.4 1.8-0.8 2.6-1.1q1.5-0.7 3-1.2 2-0.8 4-1.5 2.5-1 5.2-1.9c11.8-4.1 23.8-7.1 35.5-8.9 1.8-0.3 3.6-0.6 5.5-0.8 1.4-0.2 2.8-0.3 4.1-0.5q5.5-0.6 10.9-0.8c14.5-0.6 28.4 0.5 41.3 3.5 13.2 3 24.5 7.9 33.7 14.3q3.3 2.3 6.2 4.8c0.1 0.1 0.5 0.4 0.6 0.6 0 0.2 7.8 17.5 10.9 26.6 0.3 0.8-0.1 1.7-1 2z"/>
		<path id="&lt;Path&gt;" class="s0" d="m203.3 67.3c14.1-22.3 35.3-39.5 61.5-49.5 33.1-12.5 70.1-11.9 104.2 1.8 34.1 13.8 61.3 39 76.4 71 15.2 32.1 16.6 67.1 3.8 98.7-0.3 0.8-1.2 1.2-2.1 0.9-0.8-0.3-1.2-1.3-0.8-2.1 25.5-63.5-9.7-137.7-78.5-165.5-68.8-27.7-145.6 1.4-171.2 65-0.4 0.8-1.3 1.2-2.1 0.8-0.8-0.3-1.2-1.2-0.9-2.1 2.7-6.6 6-13 9.7-19z"/>
		<path id="&lt;Path&gt;" class="s0" d="m409.3 202.2h-3.3c0 0 0.6-6.7 0.6-10.2 0-1.8 0-3.7 0-5.6-1.2-29.1-12.7-61.2-32.4-90.1-5.8-8.7-12.2-16.6-18.9-23.9-4.6-5-9.4-9.7-14.3-14-6.6-5.7-13.3-10.8-20.1-15.1q-1.3-0.9-2.7-1.8c-9.6-5.8-19.3-10.2-28.9-13.1-1.1-0.3-2.2-0.6-3.3-0.9-10.7-2.8-21.2-3.5-30.8-2q-1.1 0.2-2.1 0.4c-1 0.2-2 0.4-3 0.7-5.2 1.3-9.7 6.8-14.1 10.5-0.3 0.2-0.6 0.5-1 0.7-0.3 0.2-0.6 0.5-0.9 0.7-0.7 0.5-1.7 0.3-2.2-0.4-0.4-0.5-1.8 0.9-1.5 0.4 0.2-0.2 1.7-2.5 1.9-2.7 2.3-1.5 4.7-3.3 7.1-5.1 4.2-3 8.6-5.9 13.3-7.6q0 0 0.1 0 2.6-1 5.3-1.2 2.1-0.3 4.2-0.3c0.7-0.1 1.4-0.1 2-0.1 6.9-0.1 14.2 0.8 21.7 2.7q1.7 0.4 3.4 0.9 7 2 14.1 5.2c5.7 2.4 11.3 5.4 16.9 8.8 0.9 0.6 1.9 1.2 2.8 1.8 6.8 4.3 13.4 9.3 19.7 14.9 5.2 4.5 10.1 9.4 14.9 14.6 6.8 7.4 13.2 15.4 19.1 24.1 20 29.5 31.7 62 32.9 91.8q0.3 8.3-0.5 15.9z"/>
		<path id="&lt;Path&gt;" class="s0" d="m292.2 88.7q-1 0.1-2.1 0.1c-1.5 0-2.9-0.2-4.3-0.6q-0.8-0.3-1.7-0.8c-0.1-0.1-0.2-0.1-0.3-0.2"/>
		<path id="&lt;Path&gt;" class="s1" d="m300.1 78.6c0 5.8-4.7 10.4-10.4 10.4-5.8 0-10.4-4.6-10.4-10.4 0-5.7 4.6-10.4 10.4-10.4 5.7 0 10.4 4.7 10.4 10.4z"/>
		<path id="&lt;Path&gt;" class="s2" d="m228.8 84.8c0 5.7-4.6 10.4-10.4 10.4-5.7 0-10.4-4.7-10.4-10.4 0-5.8 4.7-10.5 10.4-10.5 5.8 0 10.4 4.7 10.4 10.5z"/>
		<path id="&lt;Path&gt;" class="s3" d="m358.8 14.9c0 5.7-4.7 10.4-10.5 10.4-5.7 0-10.4-4.7-10.4-10.4 0-5.8 4.7-10.4 10.4-10.4 5.8 0 10.5 4.6 10.5 10.4z"/>
		<path id="&lt;Path&gt;" class="s4" d="m360.4 63.5c0 5.7-4.6 10.4-10.4 10.4-5.7 0-10.4-4.7-10.4-10.4 0-5.8 4.7-10.5 10.4-10.5 5.8 0 10.4 4.7 10.4 10.5z"/>
		<path id="&lt;Path&gt;" class="s5" d="m410.8 146.2c0 5.8-4.7 10.4-10.4 10.4-5.8 0-10.5-4.6-10.5-10.4 0-5.8 4.7-10.4 10.5-10.4 5.7 0 10.4 4.6 10.4 10.4z"/>
		<g id="&lt;Group&gt;">
			<path id="&lt;Compound Path&gt;" class="s0" d="m15.7 239.9h-2.4v-19.9h-7.4v-2.4h17.2v2.4h-7.4z"/>
			<path id="&lt;Compound Path&gt;" fill-rule="evenodd" class="s0" d="m29.2 239.9q-2.2 0-4-1.1-1.8-1.1-2.9-2.9-1-1.8-1-4 0-2.2 1-4 1.1-1.8 2.9-2.9 1.8-1.1 4-1.1 3 0 5 1.9 1.9 1.9 2.3 5.2 0.1 0.5 0.1 2.1h-12.6q0.4 1.9 1.9 3.1 1.4 1.1 3.3 1.1 2.2 0 3.9-1.6l0.7-0.6 1.5 2.1-0.5 0.4q-2.5 2.3-5.6 2.3zm4.7-9.2q-0.4-2.1-1.6-3.2-1.2-1-3.1-1-1.9 0-3.3 1.1-1.5 1.2-1.9 3.1z"/>
			<path id="&lt;Compound Path&gt;" class="s0" d="m47.3 239.9q-2.2 0-4-1.1-1.8-1.1-2.9-2.9-1-1.8-1-4 0-2.2 1-4 1.1-1.8 2.9-2.9 1.8-1.1 4-1.1 3.3 0 5.7 2.4l0.5 0.5-1.6 2.1-0.6-0.7q-1.7-1.7-4-1.7-1.5 0-2.7 0.7-1.2 0.7-2 2-0.7 1.2-0.7 2.7 0 1.5 0.7 2.7 0.8 1.3 2 2 1.2 0.7 2.7 0.7 2.3 0 4.1-1.8l0.6-0.7 1.6 2.1-0.5 0.5q-2.4 2.5-5.8 2.5z"/>
			<path id="&lt;Compound Path&gt;" class="s0" d="m70 239.9h-2.4v-9.1q0-2-1-3.2-0.9-1.2-3-1.2-1.2 0-2.1 0.5-0.9 0.4-1.6 1.2-0.6 0.7-0.9 1.5-0.3 0.8-0.4 1.5v8.8h-2.5v-22.3h2.5v8.3q0.5-0.5 1.2-0.9 0.7-0.5 1.7-0.8 1-0.3 2.2-0.3 2.9 0 4.6 1.8 1.7 1.9 1.7 5z"/>
			<path id="&lt;Compound Path&gt;" class="s0" d="m86.7 239.9h-2.4v-9.1q0-2-1-3.2-0.9-1.2-3-1.2-1.2 0-2.2 0.5-0.9 0.4-1.5 1.2-0.6 0.7-0.9 1.5-0.4 0.8-0.4 1.5v8.8h-2.5v-16h2.5v2q0.4-0.5 1.1-0.9 0.8-0.5 1.7-0.8 1-0.3 2.3-0.3 2.9 0 4.6 1.8 1.7 1.9 1.7 5z"/>
			<path id="&lt;Compound Path&gt;" fill-rule="evenodd" class="s0" d="m97.5 239.9q-2.2 0-4-1.1-1.9-1.1-2.9-2.9-1.1-1.8-1.1-4 0-2.2 1.1-4 1-1.8 2.9-2.9 1.8-1.1 4-1.1 2.1 0 4 1.1 1.8 1.1 2.8 2.9 1.1 1.8 1.1 4 0 2.2-1.1 4-1 1.8-2.8 2.9-1.9 1.1-4 1.1zm0-2.6q1.5 0 2.7-0.7 1.2-0.7 2-2 0.7-1.2 0.7-2.7 0-1.5-0.7-2.7-0.8-1.3-2-2-1.2-0.7-2.7-0.7-1.5 0-2.8 0.7-1.2 0.7-1.9 2-0.8 1.2-0.8 2.7 0 1.5 0.8 2.7 0.7 1.3 1.9 2 1.3 0.7 2.8 0.7z"/>
			<path id="&lt;Compound Path&gt;" class="s0" d="m110.6 239.9h-2.4v-22.3h2.4z"/>
			<path id="&lt;Compound Path&gt;" fill-rule="evenodd" class="s0" d="m121.4 239.9q-2.2 0-4-1.1-1.8-1.1-2.9-2.9-1.1-1.8-1.1-4 0-2.2 1.1-4 1.1-1.8 2.9-2.9 1.8-1.1 4-1.1 2.2 0 4 1.1 1.8 1.1 2.9 2.9 1 1.8 1 4 0 2.2-1 4-1.1 1.8-2.9 2.9-1.8 1.1-4 1.1zm0-2.6q1.5 0 2.7-0.7 1.2-0.7 2-2 0.7-1.2 0.7-2.7 0-1.5-0.7-2.7-0.8-1.3-2-2-1.2-0.7-2.7-0.7-1.5 0-2.7 0.7-1.3 0.7-2 2-0.7 1.2-0.7 2.7 0 1.5 0.7 2.7 0.7 1.3 2 2 1.2 0.7 2.7 0.7z"/>
			<path id="&lt;Compound Path&gt;" fill-rule="evenodd" class="s0" d="m140.5 246.2q-2.1 0-3.5-0.6-1.4-0.6-2.3-1.5-0.9-0.9-1.5-1.9l-0.3-0.6 2.3-0.8 0.2 0.4q1.6 2.6 5.1 2.6 2.3 0 3.7-1.4 1.3-1.4 1.4-3.7v-1.1q-2.4 2.3-5.5 2.3-2.2 0-4-1.1-1.8-1.1-2.9-2.9-1.1-1.8-1.1-4 0-2.2 1.1-4 1.1-1.8 2.9-2.9 1.8-1.1 4-1.1 3.1 0 5.5 2.3v-2.3h2.4v14.8q0 3.2-2.1 5.4-2.3 2.1-5.4 2.1zm-0.4-8.9q1.5 0 2.7-0.7 1.2-0.7 2-2 0.7-1.2 0.7-2.7 0-1.5-0.7-2.7-0.8-1.3-2-2-1.2-0.7-2.7-0.7-1.5 0-2.8 0.7-1.2 0.7-1.9 2-0.8 1.2-0.8 2.7 0 1.5 0.8 2.7 0.7 1.3 1.9 2 1.3 0.7 2.8 0.7z"/>
			<path id="&lt;Compound Path&gt;" class="s0" d="m153.9 246.2l3.1-7.6-6.2-14.7h2.6l4.9 11.5 4.6-11.5h2.7l-9.1 22.3z"/>
			<path id="&lt;Compound Path&gt;" fill-rule="evenodd" class="s0" d="m182.5 239.9q-1.2 0-2.1-0.3-0.9-0.4-1.6-0.8-0.6-0.5-1-1-1.6-1.8-1.6-4 0-1.5 0.6-2.6 0.6-1.1 1.5-1.9 0.9-0.8 2-1.4-1.7-2.4-1.7-4.6 0-2.7 1.3-4.2 1.4-1.5 3.9-1.5 2 0 3.2 1.4 1.3 1.3 1.3 3.6 0 1.4-0.7 2.5-0.7 1.1-1.7 1.9-1 0.8-2 1.4l4.7 5.3q1.4-2.7 1.4-5.1v-0.6h2.5v0.6q0 1.6-0.6 3.5-0.6 1.8-1.7 3.4 2 2.2 3.4 3.7h-3l-1.9-1.9q-2.7 2.6-6.2 2.6zm0.5-2.5q0.9 0 1.7-0.3 0.8-0.2 1.4-0.7 0.6-0.4 1.1-0.9l-5.4-5.8q-0.9 0.5-1.6 1.1-0.7 0.5-1.1 1.2-0.4 0.6-0.4 1.4 0 1.7 1.2 3 1 1 3.1 1zm-0.6-10.7q1-0.5 1.8-1.1 0.8-0.6 1.2-1.3 0.4-0.7 0.4-1.6 0-1.4-0.5-2-0.5-0.7-1.7-0.7-1.4 0-2 0.8-0.6 0.7-0.6 2.2 0 2.1 1.4 3.7z"/>
			<path id="&lt;Compound Path&gt;" class="s0" d="m215.4 239.9q-3.1 0-5.6-1.5-2.5-1.5-4-4.1-1.6-2.5-1.6-5.6 0-3 1.6-5.6 1.5-2.5 4-4 2.5-1.5 5.6-1.5 2.3 0 4.3 0.8 2 0.9 3.6 2.5l0.4 0.4-1.5 2-0.5-0.5q-2.7-2.7-6.3-2.7-2.4 0-4.3 1.2-2 1.1-3.2 3.1-1.1 2-1.1 4.3 0 2.4 1.1 4.3 1.2 2 3.2 3.2 1.9 1.1 4.3 1.1 1.8 0 3.5-0.7 1.7-0.8 2.9-2.1l0.5-0.6 1.5 2.1q-0.9 1-1.8 1.7-0.9 0.7-2.1 1.2-2.2 1-4.5 1z"/>
			<path id="&lt;Compound Path&gt;" fill-rule="evenodd" class="s0" d="m233.3 239.9q-2.1 0-4-1.1-1.8-1.1-2.8-2.9-1.1-1.8-1.1-4 0-2.2 1.1-4 1-1.8 2.8-2.9 1.9-1.1 4-1.1 2.2 0 4 1.1 1.9 1.1 2.9 2.9 1.1 1.8 1.1 4 0 2.2-1.1 4-1 1.8-2.9 2.9-1.8 1.1-4 1.1zm0-2.6q1.5 0 2.8-0.7 1.2-0.7 1.9-2 0.8-1.2 0.8-2.7 0-1.5-0.8-2.7-0.7-1.3-1.9-2-1.3-0.7-2.8-0.7-1.4 0-2.7 0.7-1.2 0.7-1.9 2-0.8 1.2-0.8 2.7 0 1.5 0.8 2.7 0.7 1.3 1.9 2 1.3 0.7 2.7 0.7z"/>
			<path id="&lt;Compound Path&gt;" class="s0" d="m258 239.9h-2.5v-9.1q0-2-0.9-3.2-1-1.2-3.1-1.2-1.2 0-2.1 0.5-0.9 0.4-1.5 1.2-0.6 0.7-1 1.5-0.3 0.8-0.4 1.5v8.8h-2.4v-16h2.4v2q0.5-0.5 1.2-0.9 0.7-0.5 1.7-0.8 1-0.3 2.3-0.3 2.8 0 4.6 1.8 1.7 1.9 1.7 5z"/>
			<path id="&lt;Compound Path&gt;" class="s0" d="m266.1 239.9q-1.3 0-2.3-0.3-1.1-0.3-1.8-0.6-0.8-0.3-1-0.5-0.3-0.2-0.6-0.4l1-2.3 0.8 0.5q0.2 0.2 0.8 0.5 0.5 0.2 1.3 0.4 0.8 0.2 1.8 0.2 1.7 0 2.8-0.6 1-0.6 1-1.6 0-0.6-0.4-0.9-0.4-0.3-1.2-0.6-0.8-0.2-1.9-0.5-1-0.2-2-0.4-3.8-1.1-3.8-4.2 0-2.2 1.6-3.5 1.6-1.2 4.4-1.2 1.3 0 2.3 0.3 1.1 0.3 1.8 0.6 0.7 0.3 1 0.5l0.5 0.4-0.6 2.3-0.9-0.5q-2-1.2-4.1-1.2-1.8 0-2.6 0.6-0.9 0.6-0.9 1.7 0 0.7 0.5 1.1 0.4 0.5 1.3 0.7 0.9 0.3 2.1 0.6 0.9 0.1 1.8 0.4 3.6 1 3.6 3.8 0 1.4-0.8 2.5-0.9 1-2.3 1.6-1.4 0.6-3.2 0.6z"/>
			<path id="&lt;Compound Path&gt;" class="s0" d="m282.1 239.9h-0.5q-1.8 0-3.3-0.9-1.6-0.9-2.5-2.5-0.9-1.5-0.9-3.3v-9.3h2.5v9.2q0 1.8 1.2 3 1.3 1.3 3.1 1.3h0.4q1.8 0 3-1.3 1.3-1.2 1.3-3v-9.2h2.4v9.3q0 1.8-0.9 3.3-0.9 1.6-2.4 2.5-1.5 0.9-3.4 0.9z"/>
			<path id="&lt;Compound Path&gt;" class="s0" d="m294.1 239.9h-2.5v-22.3h2.5z"/>
			<path id="&lt;Compound Path&gt;" class="s0" d="m303.6 239.9q-2 0-3.4-1.3-1.6-1.6-1.6-4.9v-6.7h-1.8v-2.5h1.8v-6.9h2.4v6.9h4v2.5h-4v6.8q0 1.7 0.4 2.5 0.4 0.8 1.1 1 0.6 0.3 1.3 0.3 0.5 0 0.7 0 0.3-0.1 0.5-0.1l0.5-0.1 0.2 2.1q-0.6 0.2-1 0.3-0.5 0.1-1.1 0.1z"/>
			<path id="&lt;Compound Path&gt;" fill-rule="evenodd" class="s0" d="m322.1 239.9h-2.5v-2.3q-2.4 2.3-5.5 2.3-2.2 0-4-1.1-1.8-1.1-2.9-2.9-1-1.8-1-4 0-2.2 1-4 1.1-1.8 2.9-2.9 1.8-1.1 4-1.1 3.1 0 5.5 2.3v-2.3h2.5zm-8-2.5q1.5 0 2.8-0.7 1.2-0.8 1.9-2 0.8-1.2 0.8-2.7 0-1.5-0.8-2.8-0.7-1.2-1.9-1.9-1.3-0.8-2.8-0.8-1.5 0-2.7 0.8-1.2 0.7-2 1.9-0.7 1.3-0.7 2.8 0 1.5 0.7 2.7 0.8 1.2 2 2 1.2 0.7 2.7 0.7z"/>
			<path id="&lt;Compound Path&gt;" class="s0" d="m338.8 239.9h-2.5v-9.1q0-2-0.9-3.2-1-1.2-3.1-1.2-1.2 0-2.1 0.5-0.9 0.4-1.5 1.2-0.6 0.7-1 1.5-0.3 0.8-0.4 1.5v8.8h-2.4v-16h2.4v2q0.5-0.5 1.2-0.9 0.7-0.5 1.7-0.8 1-0.3 2.3-0.3 2.8 0 4.6 1.8 1.7 1.9 1.7 5z"/>
			<path id="&lt;Compound Path&gt;" class="s0" d="m349.5 239.9q-2.2 0-4-1.1-1.8-1.1-2.9-2.9-1.1-1.8-1.1-4 0-2.2 1.1-4 1.1-1.8 2.9-2.9 1.8-1.1 4-1.1 3.3 0 5.7 2.4l0.5 0.5-1.6 2.1-0.6-0.7q-1.7-1.7-4-1.7-1.5 0-2.7 0.7-1.3 0.7-2 2-0.7 1.2-0.7 2.7 0 1.5 0.7 2.7 0.7 1.3 2 2 1.2 0.7 2.7 0.7 2.3 0 4.1-1.8l0.6-0.7 1.6 2.1-0.5 0.5q-2.5 2.5-5.8 2.5z"/>
			<path id="&lt;Compound Path&gt;" class="s0" d="m360.4 246.2l3-7.6-6.2-14.7h2.7l4.8 11.5 4.7-11.5h2.6l-9 22.3z"/>
		</g>
		<path id="&lt;Path&gt;" class="s6" d="m89.5 127c-4.9-5.5-12.3-8.3-22.3-8.3h-36-26.1v20.4 62.8h20.5v-62.8c0 0 2.4 0 5.5 0 3.8 0 6.4 0.9 7.8 2.9 1 1.5 1.5 4.1 1.5 7.9v52h20.5v-62.8h6.2c3.9 0 6.5 0.9 7.8 2.9 1 1.5 1.6 4.1 1.6 7.9v52h20.5v-52.1c0-9.6-2.5-17.3-7.5-22.8z"/>
		<path id="&lt;Path&gt;" class="s6" d="m268.3 150.1c6.4 0 11.5 5.2 11.5 11.5v28.8c0 6.3-5.1 11.5-11.5 11.5h-63.4c-1.9 0-3.4-1.6-3.4-3.5v-13.6c0-1.9 1.5-3.5 3.4-3.5h50.9c3.4 0 6.1-2.7 6.1-6 0-3.3-2.7-6-6.1-6h-42.8c-6.4 0-11.5-5.2-11.5-11.5v-27.6c0-6.4 5.1-11.5 11.5-11.5h60.1c1.9 0 3.4 1.5 3.4 3.4v13.5c0 1.9-1.5 3.5-3.4 3.5h-48c-3.1 0-5.6 2.4-5.6 5.5 0 3 2.5 5.5 5.6 5.5z"/>
		<path id="&lt;Compound Path&gt;" fill-rule="evenodd" class="s6" d="m173 150v-0.1c0-6-4.8-10.8-10.8-10.8h-52.2c-1.9 0-3.5-1.6-3.5-3.5v-13.6c0-1.8 1.6-3.4 3.5-3.4h55.7c14.3 0 25.9 11.6 25.9 25.8v57.4h-18.6v-5.8q0 0.2-0.1 0.4c-1.7 3.4-5.2 5.4-9 5.4h-45.8c-6.4 0-11.5-5.1-11.5-11.5 0-5.7 0-12.1 0-15.2 0-1.6 0-7.8 0-13.6 0-6.3 5.1-11.5 11.5-11.5zm-3.7 25.9c0-3.1-2.5-5.6-5.6-5.6h-33.5c-3.1 0-5.6 2.5-5.6 5.6 0 3 2.5 5.6 5.6 5.6h33.5c3.1 0 5.6-2.6 5.6-5.6z"/>
		<path id="&lt;Compound Path&gt;" fill-rule="evenodd" class="s6" d="m354.8 150v-0.1c0-6-4.8-10.8-10.8-10.8h-52.2c-1.9 0-3.4-1.6-3.4-3.5v-13.6c0-1.8 1.5-3.4 3.4-3.4h55.7c14.3 0 25.9 11.6 25.9 25.8v57.4h-18.6v-5.8q0 0.2-0.1 0.4c-1.7 3.4-5.2 5.4-9 5.4h-45.8c-6.4 0-11.5-5.1-11.5-11.5 0-5.7 0-12.1 0-15.2 0-1.6 0-7.8 0-13.6 0-6.3 5.1-11.5 11.5-11.5zm-3.7 25.9c0-3.1-2.5-5.6-5.5-5.6h-33.5c-3.1 0-5.6 2.5-5.6 5.6 0 3 2.5 5.6 5.6 5.6h33.5c3 0 5.5-2.6 5.5-5.6z"/>
	</g>
</svg>