<svg id="Groupe_1092" data-name="Groupe 1092" xmlns="http://www.w3.org/2000/svg" xmlns:xlink="http://www.w3.org/1999/xlink" width="120.663" height="64.429" viewBox="0 0 120.663 64.429">
  <defs>
    <clipPath id="clip-path">
      <rect id="Rectangle_178" data-name="Rectangle 178" width="120.663" height="64.429" fill="none"/>
    </clipPath>
  </defs>
  <g id="Groupe_790" data-name="Groupe 790" clip-path="url(#clip-path)">
    <path id="Tracé_857" data-name="Tracé 857" d="M180.619,3.41a.418.418,0,0,1-.586.138c-1.156-.724-.9-.871-1.278-.114a5.59,5.59,0,0,1-.439.773,12.406,12.406,0,0,1-1.53,1.839c-.35.358-.757.757-1.245,1.188-1.213,1.074-2.442,2.279-3.679,3.589-.2.212-.4.423-.594.635a92.426,92.426,0,0,0-6.259,7.577c-.22.3-.448.611-.676.928-.244.326-.48.668-.724,1-.074.106-.147.2-.22.309-.171.244-.35.5-.521.749-.317.464-.643.928-.96,1.4-.008.008-.008.016-.017.024a2.217,2.217,0,0,1-.439-.22.649.649,0,0,1-.09-.065c-.073-.049-.147-.1-.212-.147v-.008c.244-.35.48-.708.725-1.058l.008-.008c.269-.407.554-.806.846-1.213a1.8,1.8,0,0,1,.106-.147v-.008h.008c.2-.3.415-.594.635-.887q.439-.61.879-1.2a91.2,91.2,0,0,1,6.169-7.5l.594-.643c1.3-1.375,2.588-2.637,3.85-3.76.48-.423.9-.814,1.253-1.172.537-.537.96-.993,1.3-1.392.236-.277.432-.529.6-.741,1.2-1.587.659-1.522,2.352-.455a.415.415,0,0,1,.138.578" transform="translate(-87.095 -1.113)" fill="#fff"/>
    <path id="Tracé_858" data-name="Tracé 858" d="M122.953,25.807a8.484,8.484,0,0,0-.261.9c-.016.065-.024.13-.04.2a24.235,24.235,0,0,0,.569,8.985c-.26.179-.521.366-.773.553-.09-.391-.163-.773-.236-1.155a26.774,26.774,0,0,1-.537-7.414c.008-.081.016-.163.024-.236a3.066,3.066,0,0,1,.179-1.066c.1-.326.635-.545,1.074-.765" transform="translate(-65.718 -13.947)" fill="#fff"/>
    <path id="Tracé_859" data-name="Tracé 859" d="M124.554,23.994a3.7,3.7,0,0,1,.944-1.481c-.187.285-.1.667-.382,1.123a1.417,1.417,0,0,1-.57.391c0-.008.008-.024.008-.033" transform="translate(-67.311 -12.167)" fill="#fff"/>
    <path id="Tracé_860" data-name="Tracé 860" d="M126.887,22.007c.008,0,.016-.008.024-.008a1.613,1.613,0,0,0-.293.236c.008-.017.016-.024.024-.041l.008-.008a.919.919,0,0,1,.139-.122.577.577,0,0,1,.1-.057" transform="translate(-68.431 -11.889)" fill="#fff"/>
    <path id="Tracé_861" data-name="Tracé 861" d="M127.9,22.111a.629.629,0,0,0-.643-.318,1.93,1.93,0,0,1,.277-.163c.212-.122.464.7.366.48" transform="translate(-68.776 -11.684)" fill="#fff"/>
    <path id="Tracé_862" data-name="Tracé 862" d="M165.346,3.8a.423.423,0,0,1-.342.489c-.285.049-.537-.025-.733.138-.268.22-.439.887-.472,2.938-.008.268-.016.569-.016.887-.008.781.008,1.717.033,2.832.049,2.36.2,4.981.455,7.78.041.513.09,1.042.147,1.571.017.2.041.4.057.594l.073.684c.008.065.017.13.025.2.081.765.171,1.538.26,2.319,0,.024.008.04.008.057l-.268.024h-.017a2.232,2.232,0,0,1-.562.081c0-.024-.008-.041-.008-.065-.065-.529-.122-1.05-.179-1.562-.016-.171-.041-.334-.049-.5-.033-.269-.065-.537-.09-.8,0-.033-.008-.065-.008-.1q-.134-1.27-.244-2.49c-.244-2.8-.4-5.42-.456-7.789-.033-1.212-.057-2.246-.065-3.1-.008-.318-.008-.61-.008-.879a8.741,8.741,0,0,1,.2-2.482c.139-.358.35-.456.676-.35a1.611,1.611,0,0,1,1.083-.839.423.423,0,0,1,.5.35" transform="translate(-88.033 -1.861)" fill="#fff"/>
    <path id="Tracé_863" data-name="Tracé 863" d="M240.781,67.04c0,.285-.179.48-.749.838-.179.122-.4.252-.667.415a57.624,57.624,0,0,1-6.91,3.345c-1.147.48-2.376.977-3.679,1.473-.676.261-1.367.529-2.083.79-.269.1-.537.2-.806.3-.716.261-1.448.529-2.2.79-.081-.163-.163-.309-.252-.464a.008.008,0,0,1-.008-.008,2.222,2.222,0,0,1-.081-.318c.781-.277,1.538-.545,2.279-.813.268-.106.537-.2.8-.3.708-.268,1.408-.529,2.084-.8,1.27-.489,2.482-.977,3.613-1.449,6.128-2.563,7.5-3.507,7.748-3.841v-.008c.114-.147,0-.171,0-.171a.444.444,0,0,1,.293-.545.424.424,0,0,1,.521.293c.008.016.008.04.017.065a1.548,1.548,0,0,1,.081.407" transform="translate(-120.709 -35.811)" fill="#fff"/>
    <path id="Tracé_864" data-name="Tracé 864" d="M205.126,46.427a.423.423,0,0,1-.521-.22.029.029,0,0,0-.008-.017c0-.008-.008-.016-.008-.024-.439-1.253-1.139-3.182-1.668-4.59-.017-.049-.041-.09-.057-.13-.375-1.009-.643-1.726-.643-1.726-.074-.065-.138-.13-.212-.2-.057-.057-.114-.106-.179-.163h-.008a23.386,23.386,0,0,0-10.344-4.981,39.342,39.342,0,0,0-10.719-.9c-.724.033-1.449.081-2.181.147-.366.033-.733.073-1.1.114h-.008q-1.086.122-2.173.293a54.834,54.834,0,0,0-9.27,2.328c-.464.163-.928.325-1.392.5-.684.252-1.359.513-2.027.8-.081.033-.163.065-.244.106a4.977,4.977,0,0,0-.57.252c-.318.122-.627.268-.936.415l-.008.008c-.407.171-.806.366-1.2.553a.008.008,0,0,1-.008.008,3.078,3.078,0,0,1-.391-.765.027.027,0,0,1,.016-.008c.79-.391,1.6-.765,2.425-1.107a.343.343,0,0,1,.114-.049v-.008l.008-.008c.228-.09.456-.2.692-.285.261-.114.529-.22.8-.317.35-.147.7-.277,1.05-.407.456-.179.92-.342,1.392-.5a56.307,56.307,0,0,1,9.465-2.368c.488-.074.969-.147,1.457-.2.366-.049.741-.09,1.107-.13.977-.106,1.937-.179,2.9-.22a40.723,40.723,0,0,1,11,.928,25.953,25.953,0,0,1,9,3.817,19.944,19.944,0,0,1,1.636,1.278,1.335,1.335,0,0,1,.163.146c0,.065,2.083,4.663,2.921,7.089a.434.434,0,0,1-.268.545" transform="translate(-86.071 -17.607)" fill="#fff"/>
    <path id="Tracé_865" data-name="Tracé 865" d="M111.867,18.125A32.948,32.948,0,0,1,128.235,4.939,38.877,38.877,0,0,1,176.381,24.33,32.5,32.5,0,0,1,177.4,50.636a.422.422,0,0,1-.554.239.436.436,0,0,1-.238-.564c6.815-16.929-2.562-36.7-20.906-44.1s-38.81.377-45.635,17.308a.424.424,0,0,1-.555.232.43.43,0,0,1-.243-.558,32.269,32.269,0,0,1,2.6-5.072" transform="translate(-59.037 -1.376)" fill="#fff"/>
    <path id="Tracé_866" data-name="Tracé 866" d="M178.327,58.046h-.871s.147-1.782.154-2.718v-.008c.008-.488,0-.977-.017-1.481-.3-7.772-3.361-16.309-8.611-24.025a54.224,54.224,0,0,0-5.037-6.356,50.184,50.184,0,0,0-3.833-3.743,44.277,44.277,0,0,0-5.331-4.029c-.244-.154-.5-.309-.741-.464a32.773,32.773,0,0,0-7.682-3.492c-.293-.089-.594-.17-.887-.252a20.094,20.094,0,0,0-8.212-.521c-.187.024-.375.057-.562.1-.268.049-.529.114-.79.179-1.383.35-2.58,1.823-3.76,2.8-.089.065-.17.138-.261.2s-.17.131-.252.187a.435.435,0,0,1-.594-.106c-.1-.146-.464.244-.383.106a8.475,8.475,0,0,1,.5-.708c.618-.415,1.253-.9,1.9-1.359a14,14,0,0,1,3.533-2.034c.008,0,.016-.008.024-.008a5.979,5.979,0,0,1,1.416-.325c.375-.041.749-.074,1.123-.081.179-.008.358-.017.529-.008a21.4,21.4,0,0,1,5.778.708c.3.073.611.154.912.244a29.7,29.7,0,0,1,3.76,1.375,36.619,36.619,0,0,1,4.5,2.36c.244.154.5.309.741.472a44.113,44.113,0,0,1,5.266,3.98,49.361,49.361,0,0,1,3.955,3.882,54.451,54.451,0,0,1,5.095,6.421c5.339,7.854,8.456,16.537,8.757,24.472a30.138,30.138,0,0,1-.122,4.24" transform="translate(-70.609 -5.343)" fill="#fff"/>
    <path id="Tracé_867" data-name="Tracé 867" d="M163.867,48.387c-.2.008-.382.016-.57.016a3.57,3.57,0,0,1-1.139-.163,3.2,3.2,0,0,1-.456-.2.9.9,0,0,1-.09-.057" transform="translate(-87.343 -25.931)" fill="#fff"/>
    <path id="Tracé_868" data-name="Tracé 868" d="M164.542,39.732a2.778,2.778,0,1,1-2.778-2.778,2.778,2.778,0,0,1,2.778,2.778" transform="translate(-85.925 -19.972)" fill="#fff"/>
    <path id="Tracé_869" data-name="Tracé 869" d="M123.213,43.3a2.778,2.778,0,1,1-2.778-2.778,2.778,2.778,0,0,1,2.778,2.778" transform="translate(-63.588 -21.902)" fill="#fff"/>
    <path id="Tracé_870" data-name="Tracé 870" d="M198.56,2.778A2.778,2.778,0,1,1,195.783,0a2.778,2.778,0,0,1,2.778,2.778" transform="translate(-104.31)" fill="#fff"/>
    <path id="Tracé_871" data-name="Tracé 871" d="M199.528,30.956a2.778,2.778,0,1,1-2.778-2.778,2.778,2.778,0,0,1,2.778,2.778" transform="translate(-104.833 -15.229)" fill="#fff"/>
    <path id="Tracé_872" data-name="Tracé 872" d="M228.73,78.928a2.778,2.778,0,1,1-2.778-2.778,2.778,2.778,0,0,1,2.778,2.778" transform="translate(-120.615 -41.155)" fill="#fff"/>
    <path id="Tracé_873" data-name="Tracé 873" d="M3.067,129.528h-.65v-5.285H.445v-.655H5.039v.655H3.067Z" transform="translate(-0.241 -66.793)" fill="#fff"/>
    <path id="Tracé_874" data-name="Tracé 874" d="M11.507,131.52a2.04,2.04,0,0,1-1.066-.288,2.183,2.183,0,0,1-.769-.768,2.137,2.137,0,0,1,0-2.136,2.161,2.161,0,0,1,.769-.768,2.055,2.055,0,0,1,1.066-.286,1.824,1.824,0,0,1,1.312.5,2.226,2.226,0,0,1,.636,1.375q.012.141.012.576H10.1a1.437,1.437,0,0,0,.509.807,1.4,1.4,0,0,0,.9.311,1.439,1.439,0,0,0,1.023-.422l.182-.178.4.555-.136.128a2.107,2.107,0,0,1-1.471.592m1.251-2.452a1.471,1.471,0,0,0-.431-.83,1.179,1.179,0,0,0-.821-.292,1.394,1.394,0,0,0-.9.312,1.446,1.446,0,0,0-.509.81Z" transform="translate(-5.073 -68.785)" fill="#fff"/>
    <path id="Tracé_875" data-name="Tracé 875" d="M22,131.52a2.038,2.038,0,0,1-1.069-.288,2.208,2.208,0,0,1-.768-.768,2.122,2.122,0,0,1,0-2.136,2.178,2.178,0,0,1,.768-.768A2.049,2.049,0,0,1,22,127.274a2.109,2.109,0,0,1,1.516.638l.132.136-.418.539-.178-.182a1.421,1.421,0,0,0-1.052-.46,1.4,1.4,0,0,0-.732.2,1.484,1.484,0,0,0-.523.526,1.461,1.461,0,0,0,0,1.458,1.466,1.466,0,0,0,.523.524,1.41,1.41,0,0,0,.732.195,1.454,1.454,0,0,0,1.077-.481l.178-.194.415.551-.125.133A2.1,2.1,0,0,1,22,131.52" transform="translate(-10.739 -68.785)" fill="#fff"/>
    <path id="Tracé_876" data-name="Tracé 876" d="M33.3,129.527h-.655v-2.415a1.342,1.342,0,0,0-.253-.858.964.964,0,0,0-.8-.319,1.228,1.228,0,0,0-.574.126,1.313,1.313,0,0,0-.405.321,1.576,1.576,0,0,0-.363.82v2.324H29.6v-5.94h.654v2.228a1.705,1.705,0,0,1,.319-.252,1.888,1.888,0,0,1,.451-.2,2.019,2.019,0,0,1,.6-.081,1.609,1.609,0,0,1,1.224.483,1.829,1.829,0,0,1,.458,1.311Z" transform="translate(-15.995 -66.793)" fill="#fff"/>
    <path id="Tracé_877" data-name="Tracé 877" d="M42.976,131.52h-.655V129.1a1.335,1.335,0,0,0-.255-.858.971.971,0,0,0-.806-.319,1.232,1.232,0,0,0-.572.126,1.307,1.307,0,0,0-.408.321,1.546,1.546,0,0,0-.253.412,1.411,1.411,0,0,0-.106.408v2.324h-.654v-4.246h.654v.534a1.6,1.6,0,0,1,.315-.252,1.9,1.9,0,0,1,.451-.2,2.025,2.025,0,0,1,.6-.081,1.615,1.615,0,0,1,1.226.483,1.822,1.822,0,0,1,.46,1.311Z" transform="translate(-21.222 -68.785)" fill="#fff"/>
    <path id="Tracé_878" data-name="Tracé 878" d="M51.064,131.52A2.04,2.04,0,0,1,50,131.232a2.2,2.2,0,0,1-.771-.768,2.122,2.122,0,0,1,0-2.136A2.177,2.177,0,0,1,50,127.56a2.132,2.132,0,0,1,2.133,0,2.157,2.157,0,0,1,.769.768,2.14,2.14,0,0,1,0,2.136,2.179,2.179,0,0,1-.769.768,2.04,2.04,0,0,1-1.066.288m0-.675a1.391,1.391,0,0,0,.727-.2,1.487,1.487,0,0,0,.524-.524,1.458,1.458,0,0,0,0-1.456,1.465,1.465,0,0,0-.524-.524,1.453,1.453,0,0,0-1.454,0,1.465,1.465,0,0,0-.524.524,1.461,1.461,0,0,0,0,1.456,1.487,1.487,0,0,0,.524.524,1.393,1.393,0,0,0,.727.2" transform="translate(-26.449 -68.785)" fill="#fff"/>
    <rect id="Rectangle_176" data-name="Rectangle 176" width="0.655" height="5.94" transform="translate(27.473 56.794)" fill="#fff"/>
    <path id="Tracé_879" data-name="Tracé 879" d="M64.937,131.52a2.04,2.04,0,0,1-1.067-.288,2.2,2.2,0,0,1-.771-.768,2.123,2.123,0,0,1,0-2.136,2.177,2.177,0,0,1,.771-.768,2.132,2.132,0,0,1,2.133,0,2.157,2.157,0,0,1,.769.768,2.14,2.14,0,0,1,0,2.136,2.179,2.179,0,0,1-.769.768,2.04,2.04,0,0,1-1.066.288m0-.675a1.391,1.391,0,0,0,.727-.2,1.487,1.487,0,0,0,.524-.524,1.458,1.458,0,0,0,0-1.456,1.465,1.465,0,0,0-.524-.524,1.453,1.453,0,0,0-1.454,0,1.465,1.465,0,0,0-.524.524,1.461,1.461,0,0,0,0,1.456,1.487,1.487,0,0,0,.524.524,1.393,1.393,0,0,0,.727.2" transform="translate(-33.947 -68.785)" fill="#fff"/>
    <path id="Tracé_880" data-name="Tracé 880" d="M75.881,133.21a2.307,2.307,0,0,1-.92-.164,2.038,2.038,0,0,1-.622-.4,2.143,2.143,0,0,1-.381-.489l-.1-.165.609-.228.071.116a1.454,1.454,0,0,0,1.342.7,1.3,1.3,0,0,0,.986-.379,1.426,1.426,0,0,0,.381-.988v-.286a2.1,2.1,0,0,1-1.471.592,2.038,2.038,0,0,1-1.066-.288,2.179,2.179,0,0,1-.769-.768,2.137,2.137,0,0,1,0-2.136,2.157,2.157,0,0,1,.769-.768,2.054,2.054,0,0,1,1.066-.286,2.1,2.1,0,0,1,1.471.592v-.592H77.9v3.939a1.989,1.989,0,0,1-.576,1.433,2.038,2.038,0,0,1-1.445.563m-.1-2.365a1.391,1.391,0,0,0,.729-.2,1.513,1.513,0,0,0,.524-.524,1.446,1.446,0,0,0,0-1.456,1.49,1.49,0,0,0-.524-.524,1.454,1.454,0,0,0-1.454,0,1.491,1.491,0,0,0-.524.524,1.446,1.446,0,0,0,0,1.456,1.514,1.514,0,0,0,.524.524,1.381,1.381,0,0,0,.725.2" transform="translate(-39.807 -68.785)" fill="#fff"/>
    <path id="Tracé_881" data-name="Tracé 881" d="M85.337,133.214l.82-2.034L84.5,127.274h.7l1.292,3.061,1.239-3.061h.7l-2.407,5.936Z" transform="translate(-45.668 -68.785)" fill="#fff"/>
    <path id="Tracé_882" data-name="Tracé 882" d="M100.923,129.528a1.8,1.8,0,0,1-.574-.083,1.551,1.551,0,0,1-.418-.207,1.6,1.6,0,0,1-.686-1.334,1.457,1.457,0,0,1,.156-.7,1.742,1.742,0,0,1,.4-.5,3.48,3.48,0,0,1,.522-.373,2.138,2.138,0,0,1-.46-1.222,1.623,1.623,0,0,1,.362-1.117,1.3,1.3,0,0,1,1.026-.408,1.117,1.117,0,0,1,.874.369,1.387,1.387,0,0,1,.332.965,1.232,1.232,0,0,1-.181.671,2.041,2.041,0,0,1-.447.5,5.005,5.005,0,0,1-.541.381l1.247,1.4a2.793,2.793,0,0,0,.389-1.351v-.161h.654v.161a2.971,2.971,0,0,1-.161.926,3.69,3.69,0,0,1-.443.909q.538.6.894.986h-.808l-.48-.51a2.324,2.324,0,0,1-1.657.692m.124-.654a1.329,1.329,0,0,0,.449-.073,1.583,1.583,0,0,0,.371-.186,1.873,1.873,0,0,0,.29-.242l-1.437-1.554a4.833,4.833,0,0,0-.409.288,1.364,1.364,0,0,0-.3.317.666.666,0,0,0-.112.373,1.132,1.132,0,0,0,.323.807,1.113,1.113,0,0,0,.824.269m-.166-2.85a3.922,3.922,0,0,0,.483-.3,1.306,1.306,0,0,0,.323-.338.778.778,0,0,0,.118-.429.846.846,0,0,0-.141-.547.579.579,0,0,0-.464-.165.647.647,0,0,0-.52.193.936.936,0,0,0-.164.611,1.506,1.506,0,0,0,.364.977" transform="translate(-53.637 -66.793)" fill="#fff"/>
    <path id="Tracé_883" data-name="Tracé 883" d="M118.46,129.527a2.859,2.859,0,0,1-1.494-.4,3.055,3.055,0,0,1-1.075-1.074,2.97,2.97,0,0,1,0-2.985,3.051,3.051,0,0,1,1.075-1.077,2.863,2.863,0,0,1,1.494-.4,2.93,2.93,0,0,1,1.149.23,2.965,2.965,0,0,1,.971.665l.1.1-.418.543-.133-.136a2.272,2.272,0,0,0-1.669-.721,2.216,2.216,0,0,0-1.154.309,2.349,2.349,0,0,0-.83.83,2.293,2.293,0,0,0,0,2.305,2.364,2.364,0,0,0,.83.83,2.205,2.205,0,0,0,1.154.311,2.244,2.244,0,0,0,.932-.2,2.314,2.314,0,0,0,.775-.563l.133-.145.414.551a4.3,4.3,0,0,1-.483.448,2.578,2.578,0,0,1-.574.331,2.924,2.924,0,0,1-1.2.253" transform="translate(-62.416 -66.793)" fill="#fff"/>
    <path id="Tracé_884" data-name="Tracé 884" d="M129.864,131.52a2.04,2.04,0,0,1-1.067-.288,2.2,2.2,0,0,1-.771-.768,2.123,2.123,0,0,1,0-2.136,2.177,2.177,0,0,1,.771-.768,2.132,2.132,0,0,1,2.133,0,2.158,2.158,0,0,1,.769.768,2.14,2.14,0,0,1,0,2.136,2.18,2.18,0,0,1-.769.768,2.04,2.04,0,0,1-1.066.288m0-.675a1.391,1.391,0,0,0,.727-.2,1.487,1.487,0,0,0,.524-.524,1.458,1.458,0,0,0,0-1.456,1.465,1.465,0,0,0-.524-.524,1.453,1.453,0,0,0-1.454,0,1.465,1.465,0,0,0-.524.524,1.461,1.461,0,0,0,0,1.456,1.487,1.487,0,0,0,.524.524,1.393,1.393,0,0,0,.727.2" transform="translate(-69.037 -68.785)" fill="#fff"/>
    <path id="Tracé_885" data-name="Tracé 885" d="M142.291,131.52h-.655V129.1a1.335,1.335,0,0,0-.255-.858.971.971,0,0,0-.806-.319,1.232,1.232,0,0,0-.572.126,1.307,1.307,0,0,0-.408.321,1.545,1.545,0,0,0-.253.412,1.411,1.411,0,0,0-.106.408v2.324h-.654v-4.246h.654v.534a1.6,1.6,0,0,1,.315-.252,1.9,1.9,0,0,1,.451-.2,2.024,2.024,0,0,1,.6-.081,1.615,1.615,0,0,1,1.226.483,1.822,1.822,0,0,1,.46,1.311Z" transform="translate(-74.897 -68.785)" fill="#fff"/>
    <path id="Tracé_886" data-name="Tracé 886" d="M149.578,131.52a2.476,2.476,0,0,1-.617-.073,2.979,2.979,0,0,1-.477-.159,1.6,1.6,0,0,1-.267-.141c-.048-.036-.1-.069-.143-.1l.249-.605.211.133a1.718,1.718,0,0,0,.222.118,2.2,2.2,0,0,0,.356.124,1.8,1.8,0,0,0,.466.056,1.463,1.463,0,0,0,.745-.164.493.493,0,0,0,.278-.437.286.286,0,0,0-.114-.238,1,1,0,0,0-.325-.153q-.211-.064-.506-.126-.261-.054-.517-.128-1.015-.286-1.015-1.106a1.094,1.094,0,0,1,.423-.924,1.872,1.872,0,0,1,1.164-.323,2.5,2.5,0,0,1,.622.072,3.035,3.035,0,0,1,.476.16,1.426,1.426,0,0,1,.269.145l.12.083-.153.617-.24-.132a2.133,2.133,0,0,0-1.094-.3,1.248,1.248,0,0,0-.7.157.506.506,0,0,0-.232.443.385.385,0,0,0,.124.3.955.955,0,0,0,.356.184q.232.072.555.143c.166.033.329.072.489.116q.953.265.953,1.007a1.054,1.054,0,0,1-.22.667,1.391,1.391,0,0,1-.6.433,2.312,2.312,0,0,1-.864.151" transform="translate(-80.027 -68.785)" fill="#fff"/>
    <path id="Tracé_887" data-name="Tracé 887" d="M158.4,131.52h-.141a1.721,1.721,0,0,1-.894-.24,1.806,1.806,0,0,1-.646-.646,1.731,1.731,0,0,1-.241-.9v-2.46h.655v2.436a1.122,1.122,0,0,0,.334.816,1.091,1.091,0,0,0,.809.34h.113a1.093,1.093,0,0,0,.807-.34,1.118,1.118,0,0,0,.336-.816v-2.436h.655v2.46a1.719,1.719,0,0,1-.243.9,1.829,1.829,0,0,1-.646.646,1.719,1.719,0,0,1-.9.24" transform="translate(-84.567 -68.785)" fill="#fff"/>
    <rect id="Rectangle_177" data-name="Rectangle 177" width="0.655" height="5.94" transform="translate(76.353 56.794)" fill="#fff"/>
    <path id="Tracé_888" data-name="Tracé 888" d="M170.99,129.527a1.275,1.275,0,0,1-.911-.348,1.74,1.74,0,0,1-.431-1.305v-1.781h-.472v-.65h.472v-1.856h.646v1.856h1.069v.65h-1.069V127.9a1.605,1.605,0,0,0,.106.669.549.549,0,0,0,.277.288.961.961,0,0,0,.367.07,1.131,1.131,0,0,0,.185-.011c.04-.006.083-.016.131-.027l.119-.029.071.571c-.11.034-.2.057-.282.073a1.462,1.462,0,0,1-.278.023" transform="translate(-91.431 -66.793)" fill="#fff"/>
    <path id="Tracé_889" data-name="Tracé 889" d="M178.839,131.52h-.654v-.592a2.1,2.1,0,0,1-1.471.592,2.038,2.038,0,0,1-1.066-.288,2.179,2.179,0,0,1-.769-.768,2.137,2.137,0,0,1,0-2.136,2.157,2.157,0,0,1,.769-.768,2.054,2.054,0,0,1,1.066-.286,2.1,2.1,0,0,1,1.471.592v-.592h.654Zm-2.125-.675a1.393,1.393,0,0,0,.727-.2,1.491,1.491,0,0,0,.524-.524,1.461,1.461,0,0,0,0-1.456,1.469,1.469,0,0,0-.524-.524,1.454,1.454,0,0,0-1.454,0,1.468,1.468,0,0,0-.524.524,1.458,1.458,0,0,0,0,1.456,1.49,1.49,0,0,0,.524.524,1.394,1.394,0,0,0,.727.2" transform="translate(-94.359 -68.785)" fill="#fff"/>
    <path id="Tracé_890" data-name="Tracé 890" d="M189.145,131.52h-.655V129.1a1.335,1.335,0,0,0-.255-.858.971.971,0,0,0-.806-.319,1.232,1.232,0,0,0-.572.126,1.307,1.307,0,0,0-.408.321,1.546,1.546,0,0,0-.253.412,1.412,1.412,0,0,0-.106.408v2.324h-.654v-4.246h.654v.534a1.6,1.6,0,0,1,.315-.252,1.9,1.9,0,0,1,.451-.2,2.025,2.025,0,0,1,.6-.081,1.615,1.615,0,0,1,1.226.483,1.822,1.822,0,0,1,.46,1.311Z" transform="translate(-100.22 -68.785)" fill="#fff"/>
    <path id="Tracé_891" data-name="Tracé 891" d="M197.233,131.52a2.038,2.038,0,0,1-1.069-.288,2.208,2.208,0,0,1-.768-.768,2.122,2.122,0,0,1,0-2.136,2.178,2.178,0,0,1,.768-.768,2.049,2.049,0,0,1,1.069-.286,2.109,2.109,0,0,1,1.516.638l.132.136-.418.539-.178-.182a1.421,1.421,0,0,0-1.052-.46,1.4,1.4,0,0,0-.732.2,1.483,1.483,0,0,0-.523.526,1.461,1.461,0,0,0,0,1.458,1.466,1.466,0,0,0,.523.524,1.41,1.41,0,0,0,.732.195,1.454,1.454,0,0,0,1.077-.481l.178-.194.415.551-.125.133a2.1,2.1,0,0,1-1.545.667" transform="translate(-105.446 -68.785)" fill="#fff"/>
    <path id="Tracé_892" data-name="Tracé 892" d="M205.04,133.214l.82-2.034-1.657-3.906h.7l1.292,3.061,1.239-3.061h.7l-2.407,5.936Z" transform="translate(-110.362 -68.785)" fill="#fff"/>
    <path id="Tracé_893" data-name="Tracé 893" d="M16.558,66.238H0V88.407H5.468V71.687H16.53a2.316,2.316,0,0,1,2.081.77,3.985,3.985,0,0,1,.409,2.1V88.407h5.47V74.537A8.8,8.8,0,0,0,22.5,68.461a7.606,7.606,0,0,0-5.942-2.223" transform="translate(0 -35.798)" fill="#fff"/>
    <path id="Tracé_894" data-name="Tracé 894" d="M6.948,66.238H0v5.449H6.92A2.316,2.316,0,0,1,9,72.457a3.985,3.985,0,0,1,.409,2.1V88.407h5.47V71.687a11.7,11.7,0,0,0-1.991-3.226,7.606,7.606,0,0,0-5.942-2.223" transform="translate(0 -35.798)" fill="#fff"/>
    <path id="Tracé_895" data-name="Tracé 895" d="M131.7,74.616a3.062,3.062,0,0,1,3.061,3.062l0,7.669a3.061,3.061,0,0,1-3.061,3.061H114.8a.912.912,0,0,1-.912-.912V83.851a.912.912,0,0,1,.912-.912h13.569a1.607,1.607,0,1,0,0-3.215H116.947a3.061,3.061,0,0,1-3.062-3.061V69.3a3.061,3.061,0,0,1,3.062-3.061h16.015a.912.912,0,0,1,.912.912v3.607a.912.912,0,0,1-.912.912H120.173a1.474,1.474,0,0,0,0,2.948Z" transform="translate(-61.549 -35.799)" fill="#fff"/>
    <path id="Tracé_896" data-name="Tracé 896" d="M61.9,74.565a3.061,3.061,0,0,0-3.061,3.065c0,1.547.005,3.186.008,3.616.007.816,0,2.521,0,4.058a3.059,3.059,0,0,0,3.061,3.068l12.217,0a2.639,2.639,0,0,0,2.384-1.449c.017-.034.03-.065.04-.092v1.541h4.94V73.073A6.883,6.883,0,0,0,74.6,66.19L59.747,66.2a.912.912,0,0,0-.911.912V70.73a.912.912,0,0,0,.912.912h13.91a2.893,2.893,0,0,1,2.893,2.893v.029ZM74.1,82.94H65.166a1.49,1.49,0,1,1,0-2.979H74.1a1.49,1.49,0,1,1,0,2.979" transform="translate(-31.798 -35.772)" fill="#fff"/>
    <path id="Tracé_897" data-name="Tracé 897" d="M167.338,74.565a3.061,3.061,0,0,0-3.061,3.065c0,1.547.005,3.186.008,3.616.007.816,0,2.521,0,4.058a3.059,3.059,0,0,0,3.061,3.068l12.217,0a2.639,2.639,0,0,0,2.384-1.449c.017-.034.03-.065.04-.092v1.541h4.94V73.073a6.883,6.883,0,0,0-6.886-6.883l-14.857.006a.912.912,0,0,0-.911.912V70.73a.912.912,0,0,0,.912.912h13.91a2.893,2.893,0,0,1,2.893,2.893v.029Zm12.194,8.375H170.6a1.49,1.49,0,1,1,0-2.979h8.929a1.49,1.49,0,1,1,0,2.979" transform="translate(-88.781 -35.772)" fill="#fff"/>
  </g>
</svg>
