<svg xmlns="http://www.w3.org/2000/svg" xmlns:xlink="http://www.w3.org/1999/xlink" width="84.211" height="82.656" viewBox="0 0 84.211 82.656">
  <defs>
    <clipPath id="clip-path">
      <rect id="Rectangle_184" data-name="Rectangle 184" width="84.211" height="82.656" fill="#00a367"/>
    </clipPath>
  </defs>
  <g id="Groupe_1306" data-name="Groupe 1306" transform="translate(0 0)">
    <g id="Groupe_802" data-name="Groupe 802" transform="translate(0 0)" clip-path="url(#clip-path)">
      <path id="Tracé_1250" data-name="Tracé 1250" d="M28.863,2.98A2.98,2.98,0,1,1,25.884,0a2.98,2.98,0,0,1,2.98,2.98" transform="translate(2.627 0)" fill="#00a367"/>
      <path id="Tracé_1251" data-name="Tracé 1251" d="M5.96,2.98A2.98,2.98,0,1,1,2.981,0,2.98,2.98,0,0,1,5.96,2.98" transform="translate(0 0)" fill="#00a367"/>
      <path id="Tracé_1252" data-name="Tracé 1252" d="M28.863,25.916a2.98,2.98,0,1,1-2.98-2.98,2.98,2.98,0,0,1,2.98,2.98" transform="translate(2.627 2.63)" fill="#00a367"/>
      <path id="Tracé_1253" data-name="Tracé 1253" d="M5.96,25.916a2.98,2.98,0,1,1-2.98-2.98,2.98,2.98,0,0,1,2.98,2.98" transform="translate(0 2.63)" fill="#00a367"/>
      <path id="Tracé_1254" data-name="Tracé 1254" d="M28.863,48.851a2.98,2.98,0,1,1-2.98-2.98,2.98,2.98,0,0,1,2.98,2.98" transform="translate(2.627 5.26)" fill="#00a367"/>
      <path id="Tracé_1255" data-name="Tracé 1255" d="M5.96,48.851a2.98,2.98,0,1,1-2.98-2.98,2.98,2.98,0,0,1,2.98,2.98" transform="translate(0 5.26)" fill="#00a367"/>
      <path id="Tracé_1256" data-name="Tracé 1256" d="M28.863,71.786a2.98,2.98,0,1,1-2.98-2.98,2.98,2.98,0,0,1,2.98,2.98" transform="translate(2.627 7.891)" fill="#00a367"/>
      <path id="Tracé_1257" data-name="Tracé 1257" d="M5.96,71.786a2.98,2.98,0,1,1-2.98-2.98,2.98,2.98,0,0,1,2.98,2.98" transform="translate(0 7.891)" fill="#00a367"/>
      <path id="Tracé_1258" data-name="Tracé 1258" d="M76.16,2.98A2.98,2.98,0,1,1,73.181,0a2.98,2.98,0,0,1,2.98,2.98" transform="translate(8.051 0)" fill="#00a367"/>
      <path id="Tracé_1259" data-name="Tracé 1259" d="M53.257,2.98A2.98,2.98,0,1,1,50.278,0a2.98,2.98,0,0,1,2.98,2.98" transform="translate(5.424 0)" fill="#00a367"/>
      <path id="Tracé_1260" data-name="Tracé 1260" d="M76.16,25.916a2.98,2.98,0,1,1-2.98-2.98,2.98,2.98,0,0,1,2.98,2.98" transform="translate(8.051 2.63)" fill="#00a367"/>
      <path id="Tracé_1261" data-name="Tracé 1261" d="M53.257,25.916a2.98,2.98,0,1,1-2.98-2.98,2.98,2.98,0,0,1,2.98,2.98" transform="translate(5.424 2.63)" fill="#00a367"/>
      <path id="Tracé_1262" data-name="Tracé 1262" d="M76.16,48.851a2.98,2.98,0,1,1-2.98-2.98,2.98,2.98,0,0,1,2.98,2.98" transform="translate(8.051 5.26)" fill="#00a367"/>
      <path id="Tracé_1263" data-name="Tracé 1263" d="M53.257,48.851a2.98,2.98,0,1,1-2.98-2.98,2.98,2.98,0,0,1,2.98,2.98" transform="translate(5.424 5.26)" fill="#00a367"/>
      <path id="Tracé_1264" data-name="Tracé 1264" d="M76.16,71.786a2.98,2.98,0,1,1-2.98-2.98,2.98,2.98,0,0,1,2.98,2.98" transform="translate(8.051 7.891)" fill="#00a367"/>
      <path id="Tracé_1265" data-name="Tracé 1265" d="M53.257,71.786a2.98,2.98,0,1,1-2.98-2.98,2.98,2.98,0,0,1,2.98,2.98" transform="translate(5.424 7.891)" fill="#00a367"/>
    </g>
  </g>
</svg>
