<svg xmlns="http://www.w3.org/2000/svg" xmlns:xlink="http://www.w3.org/1999/xlink" width="223.87" height="181.868" viewBox="0 0 223.87 181.868">
  <defs>
    <clipPath id="clip-path">
      <rect id="Rectangle_180" data-name="Rectangle 180" width="181.868" height="223.87" fill="none"/>
    </clipPath>
  </defs>
  <g id="Groupe_1105" data-name="Groupe 1105" transform="translate(223.87) rotate(90)">
    <g id="Groupe_792" data-name="Groupe 792" clip-path="url(#clip-path)">
      <path id="Tracé_898" data-name="Tracé 898" d="M26.839,2.871A2.87,2.87,0,1,1,23.968,0a2.871,2.871,0,0,1,2.871,2.871" transform="translate(3.492)" fill="#da001e"/>
      <path id="Tracé_899" data-name="Tracé 899" d="M5.74,2.871A2.87,2.87,0,1,1,2.869,0,2.871,2.871,0,0,1,5.74,2.871" fill="#da001e"/>
      <path id="Tracé_900" data-name="Tracé 900" d="M26.839,24a2.87,2.87,0,1,1-2.871-2.871A2.871,2.871,0,0,1,26.839,24" transform="translate(3.492 3.497)" fill="#da001e"/>
      <path id="Tracé_901" data-name="Tracé 901" d="M5.74,24a2.87,2.87,0,1,1-2.871-2.871A2.871,2.871,0,0,1,5.74,24" transform="translate(0 3.497)" fill="#da001e"/>
      <path id="Tracé_902" data-name="Tracé 902" d="M26.839,45.128a2.87,2.87,0,1,1-2.871-2.871,2.871,2.871,0,0,1,2.871,2.871" transform="translate(3.492 6.993)" fill="#da001e"/>
      <path id="Tracé_903" data-name="Tracé 903" d="M5.74,45.128a2.87,2.87,0,1,1-2.871-2.871A2.871,2.871,0,0,1,5.74,45.128" transform="translate(0 6.993)" fill="#da001e"/>
      <path id="Tracé_904" data-name="Tracé 904" d="M26.839,66.257a2.87,2.87,0,1,1-2.871-2.871,2.871,2.871,0,0,1,2.871,2.871" transform="translate(3.492 10.49)" fill="#da001e"/>
      <path id="Tracé_905" data-name="Tracé 905" d="M5.74,66.257a2.87,2.87,0,1,1-2.871-2.871A2.871,2.871,0,0,1,5.74,66.257" transform="translate(0 10.49)" fill="#da001e"/>
      <path id="Tracé_906" data-name="Tracé 906" d="M26.839,86.385a2.87,2.87,0,1,1-2.871-2.871,2.871,2.871,0,0,1,2.871,2.871" transform="translate(3.492 13.821)" fill="#da001e"/>
      <path id="Tracé_907" data-name="Tracé 907" d="M5.74,86.385a2.87,2.87,0,1,1-2.871-2.871A2.871,2.871,0,0,1,5.74,86.385" transform="translate(0 13.821)" fill="#da001e"/>
      <path id="Tracé_908" data-name="Tracé 908" d="M70.411,2.871A2.87,2.87,0,1,1,67.54,0a2.871,2.871,0,0,1,2.871,2.871" transform="translate(10.703)" fill="#da001e"/>
      <path id="Tracé_909" data-name="Tracé 909" d="M49.312,2.871A2.87,2.87,0,1,1,46.441,0a2.871,2.871,0,0,1,2.871,2.871" transform="translate(7.211)" fill="#da001e"/>
      <path id="Tracé_910" data-name="Tracé 910" d="M70.411,24a2.87,2.87,0,1,1-2.871-2.871A2.871,2.871,0,0,1,70.411,24" transform="translate(10.703 3.497)" fill="#da001e"/>
      <path id="Tracé_911" data-name="Tracé 911" d="M49.312,24a2.87,2.87,0,1,1-2.871-2.871A2.871,2.871,0,0,1,49.312,24" transform="translate(7.211 3.497)" fill="#da001e"/>
      <path id="Tracé_912" data-name="Tracé 912" d="M70.411,45.128a2.87,2.87,0,1,1-2.871-2.871,2.871,2.871,0,0,1,2.871,2.871" transform="translate(10.703 6.993)" fill="#da001e"/>
      <path id="Tracé_913" data-name="Tracé 913" d="M49.312,45.128a2.87,2.87,0,1,1-2.871-2.871,2.871,2.871,0,0,1,2.871,2.871" transform="translate(7.211 6.993)" fill="#da001e"/>
      <path id="Tracé_914" data-name="Tracé 914" d="M70.411,66.257a2.87,2.87,0,1,1-2.871-2.871,2.871,2.871,0,0,1,2.871,2.871" transform="translate(10.703 10.49)" fill="#da001e"/>
      <path id="Tracé_915" data-name="Tracé 915" d="M49.312,66.257a2.87,2.87,0,1,1-2.871-2.871,2.871,2.871,0,0,1,2.871,2.871" transform="translate(7.211 10.49)" fill="#da001e"/>
      <path id="Tracé_916" data-name="Tracé 916" d="M70.411,86.385a2.87,2.87,0,1,1-2.871-2.871,2.871,2.871,0,0,1,2.871,2.871" transform="translate(10.703 13.821)" fill="#da001e"/>
      <path id="Tracé_917" data-name="Tracé 917" d="M49.312,86.385a2.87,2.87,0,1,1-2.871-2.871,2.871,2.871,0,0,1,2.871,2.871" transform="translate(7.211 13.821)" fill="#da001e"/>
      <path id="Tracé_918" data-name="Tracé 918" d="M113.288,2.871A2.87,2.87,0,1,1,110.417,0a2.871,2.871,0,0,1,2.871,2.871" transform="translate(17.798)" fill="#da001e"/>
      <path id="Tracé_919" data-name="Tracé 919" d="M92.189,2.871A2.87,2.87,0,1,1,89.318,0a2.871,2.871,0,0,1,2.871,2.871" transform="translate(14.307)" fill="#da001e"/>
      <path id="Tracé_920" data-name="Tracé 920" d="M113.288,24a2.87,2.87,0,1,1-2.871-2.871A2.871,2.871,0,0,1,113.288,24" transform="translate(17.798 3.497)" fill="#da001e"/>
      <path id="Tracé_921" data-name="Tracé 921" d="M92.189,24a2.87,2.87,0,1,1-2.871-2.871A2.871,2.871,0,0,1,92.189,24" transform="translate(14.307 3.497)" fill="#da001e"/>
      <path id="Tracé_922" data-name="Tracé 922" d="M113.288,45.128a2.87,2.87,0,1,1-2.871-2.871,2.871,2.871,0,0,1,2.871,2.871" transform="translate(17.798 6.993)" fill="#da001e"/>
      <path id="Tracé_923" data-name="Tracé 923" d="M92.189,45.128a2.87,2.87,0,1,1-2.871-2.871,2.871,2.871,0,0,1,2.871,2.871" transform="translate(14.307 6.993)" fill="#da001e"/>
      <path id="Tracé_924" data-name="Tracé 924" d="M113.288,66.257a2.87,2.87,0,1,1-2.871-2.871,2.871,2.871,0,0,1,2.871,2.871" transform="translate(17.798 10.49)" fill="#da001e"/>
      <path id="Tracé_925" data-name="Tracé 925" d="M92.189,66.257a2.87,2.87,0,1,1-2.871-2.871,2.871,2.871,0,0,1,2.871,2.871" transform="translate(14.307 10.49)" fill="#da001e"/>
      <path id="Tracé_926" data-name="Tracé 926" d="M113.288,86.385a2.87,2.87,0,1,1-2.871-2.871,2.871,2.871,0,0,1,2.871,2.871" transform="translate(17.798 13.821)" fill="#da001e"/>
      <path id="Tracé_927" data-name="Tracé 927" d="M92.189,86.385a2.87,2.87,0,1,1-2.871-2.871,2.871,2.871,0,0,1,2.871,2.871" transform="translate(14.307 13.821)" fill="#da001e"/>
      <path id="Tracé_928" data-name="Tracé 928" d="M156.859,2.871A2.87,2.87,0,1,1,153.988,0a2.871,2.871,0,0,1,2.871,2.871" transform="translate(25.009)" fill="#da001e"/>
      <path id="Tracé_929" data-name="Tracé 929" d="M135.76,2.871A2.87,2.87,0,1,1,132.889,0a2.871,2.871,0,0,1,2.871,2.871" transform="translate(21.517)" fill="#da001e"/>
      <path id="Tracé_930" data-name="Tracé 930" d="M156.859,24a2.87,2.87,0,1,1-2.871-2.871A2.871,2.871,0,0,1,156.859,24" transform="translate(25.009 3.497)" fill="#da001e"/>
      <path id="Tracé_931" data-name="Tracé 931" d="M135.76,24a2.87,2.87,0,1,1-2.871-2.871A2.871,2.871,0,0,1,135.76,24" transform="translate(21.517 3.497)" fill="#da001e"/>
      <path id="Tracé_932" data-name="Tracé 932" d="M156.859,45.128a2.87,2.87,0,1,1-2.871-2.871,2.871,2.871,0,0,1,2.871,2.871" transform="translate(25.009 6.993)" fill="#da001e"/>
      <path id="Tracé_933" data-name="Tracé 933" d="M135.76,45.128a2.87,2.87,0,1,1-2.871-2.871,2.871,2.871,0,0,1,2.871,2.871" transform="translate(21.517 6.993)" fill="#da001e"/>
      <path id="Tracé_934" data-name="Tracé 934" d="M156.859,66.257a2.87,2.87,0,1,1-2.871-2.871,2.871,2.871,0,0,1,2.871,2.871" transform="translate(25.009 10.49)" fill="#da001e"/>
      <path id="Tracé_935" data-name="Tracé 935" d="M135.76,66.257a2.87,2.87,0,1,1-2.871-2.871,2.871,2.871,0,0,1,2.871,2.871" transform="translate(21.517 10.49)" fill="#da001e"/>
      <path id="Tracé_936" data-name="Tracé 936" d="M156.859,86.385a2.87,2.87,0,1,1-2.871-2.871,2.871,2.871,0,0,1,2.871,2.871" transform="translate(25.009 13.821)" fill="#da001e"/>
      <path id="Tracé_937" data-name="Tracé 937" d="M135.76,86.385a2.87,2.87,0,1,1-2.871-2.871,2.871,2.871,0,0,1,2.871,2.871" transform="translate(21.517 13.821)" fill="#da001e"/>
      <path id="Tracé_938" data-name="Tracé 938" d="M26.839,106.513a2.87,2.87,0,1,1-2.871-2.871,2.871,2.871,0,0,1,2.871,2.871" transform="translate(3.492 17.152)" fill="#da001e"/>
      <path id="Tracé_939" data-name="Tracé 939" d="M5.74,106.513a2.87,2.87,0,1,1-2.871-2.871,2.871,2.871,0,0,1,2.871,2.871" transform="translate(0 17.152)" fill="#da001e"/>
      <path id="Tracé_940" data-name="Tracé 940" d="M26.839,127.642a2.87,2.87,0,1,1-2.871-2.871,2.871,2.871,0,0,1,2.871,2.871" transform="translate(3.492 20.649)" fill="#da001e"/>
      <path id="Tracé_941" data-name="Tracé 941" d="M5.74,127.642a2.87,2.87,0,1,1-2.871-2.871,2.871,2.871,0,0,1,2.871,2.871" transform="translate(0 20.649)" fill="#da001e"/>
      <path id="Tracé_942" data-name="Tracé 942" d="M26.839,148.77a2.87,2.87,0,1,1-2.871-2.871,2.871,2.871,0,0,1,2.871,2.871" transform="translate(3.492 24.145)" fill="#da001e"/>
      <path id="Tracé_943" data-name="Tracé 943" d="M5.74,148.77A2.87,2.87,0,1,1,2.869,145.9,2.871,2.871,0,0,1,5.74,148.77" transform="translate(0 24.145)" fill="#da001e"/>
      <path id="Tracé_944" data-name="Tracé 944" d="M26.839,169.9a2.87,2.87,0,1,1-2.871-2.871,2.871,2.871,0,0,1,2.871,2.871" transform="translate(3.492 27.642)" fill="#da001e"/>
      <path id="Tracé_945" data-name="Tracé 945" d="M5.74,169.9a2.87,2.87,0,1,1-2.871-2.871A2.871,2.871,0,0,1,5.74,169.9" transform="translate(0 27.642)" fill="#da001e"/>
      <path id="Tracé_946" data-name="Tracé 946" d="M26.839,190.027a2.87,2.87,0,1,1-2.871-2.871,2.871,2.871,0,0,1,2.871,2.871" transform="translate(3.492 30.973)" fill="#da001e"/>
      <path id="Tracé_947" data-name="Tracé 947" d="M5.74,190.027a2.87,2.87,0,1,1-2.871-2.871,2.871,2.871,0,0,1,2.871,2.871" transform="translate(0 30.973)" fill="#da001e"/>
      <path id="Tracé_948" data-name="Tracé 948" d="M70.411,106.513a2.87,2.87,0,1,1-2.871-2.871,2.871,2.871,0,0,1,2.871,2.871" transform="translate(10.703 17.152)" fill="#da001e"/>
      <path id="Tracé_949" data-name="Tracé 949" d="M49.312,106.513a2.87,2.87,0,1,1-2.871-2.871,2.871,2.871,0,0,1,2.871,2.871" transform="translate(7.211 17.152)" fill="#da001e"/>
      <path id="Tracé_950" data-name="Tracé 950" d="M70.411,127.642a2.87,2.87,0,1,1-2.871-2.871,2.871,2.871,0,0,1,2.871,2.871" transform="translate(10.703 20.649)" fill="#da001e"/>
      <path id="Tracé_951" data-name="Tracé 951" d="M49.312,127.642a2.87,2.87,0,1,1-2.871-2.871,2.871,2.871,0,0,1,2.871,2.871" transform="translate(7.211 20.649)" fill="#da001e"/>
      <path id="Tracé_952" data-name="Tracé 952" d="M70.411,148.77A2.87,2.87,0,1,1,67.54,145.9a2.871,2.871,0,0,1,2.871,2.871" transform="translate(10.703 24.145)" fill="#da001e"/>
      <path id="Tracé_953" data-name="Tracé 953" d="M49.312,148.77a2.87,2.87,0,1,1-2.871-2.871,2.871,2.871,0,0,1,2.871,2.871" transform="translate(7.211 24.145)" fill="#da001e"/>
      <path id="Tracé_954" data-name="Tracé 954" d="M70.411,169.9a2.87,2.87,0,1,1-2.871-2.871,2.871,2.871,0,0,1,2.871,2.871" transform="translate(10.703 27.642)" fill="#da001e"/>
      <path id="Tracé_955" data-name="Tracé 955" d="M49.312,169.9a2.87,2.87,0,1,1-2.871-2.871,2.871,2.871,0,0,1,2.871,2.871" transform="translate(7.211 27.642)" fill="#da001e"/>
      <path id="Tracé_956" data-name="Tracé 956" d="M70.411,190.027a2.87,2.87,0,1,1-2.871-2.871,2.871,2.871,0,0,1,2.871,2.871" transform="translate(10.703 30.973)" fill="#da001e"/>
      <path id="Tracé_957" data-name="Tracé 957" d="M49.312,190.027a2.87,2.87,0,1,1-2.871-2.871,2.871,2.871,0,0,1,2.871,2.871" transform="translate(7.211 30.973)" fill="#da001e"/>
      <path id="Tracé_958" data-name="Tracé 958" d="M113.288,106.513a2.87,2.87,0,1,1-2.871-2.871,2.871,2.871,0,0,1,2.871,2.871" transform="translate(17.798 17.152)" fill="#da001e"/>
      <path id="Tracé_959" data-name="Tracé 959" d="M92.189,106.513a2.87,2.87,0,1,1-2.871-2.871,2.871,2.871,0,0,1,2.871,2.871" transform="translate(14.307 17.152)" fill="#da001e"/>
      <path id="Tracé_960" data-name="Tracé 960" d="M113.288,127.642a2.87,2.87,0,1,1-2.871-2.871,2.871,2.871,0,0,1,2.871,2.871" transform="translate(17.798 20.649)" fill="#da001e"/>
      <path id="Tracé_961" data-name="Tracé 961" d="M92.189,127.642a2.87,2.87,0,1,1-2.871-2.871,2.871,2.871,0,0,1,2.871,2.871" transform="translate(14.307 20.649)" fill="#da001e"/>
      <path id="Tracé_962" data-name="Tracé 962" d="M113.288,148.77a2.87,2.87,0,1,1-2.871-2.871,2.871,2.871,0,0,1,2.871,2.871" transform="translate(17.798 24.145)" fill="#da001e"/>
      <path id="Tracé_963" data-name="Tracé 963" d="M92.189,148.77a2.87,2.87,0,1,1-2.871-2.871,2.871,2.871,0,0,1,2.871,2.871" transform="translate(14.307 24.145)" fill="#da001e"/>
      <path id="Tracé_964" data-name="Tracé 964" d="M113.288,169.9a2.87,2.87,0,1,1-2.871-2.871,2.871,2.871,0,0,1,2.871,2.871" transform="translate(17.798 27.642)" fill="#da001e"/>
      <path id="Tracé_965" data-name="Tracé 965" d="M92.189,169.9a2.87,2.87,0,1,1-2.871-2.871,2.871,2.871,0,0,1,2.871,2.871" transform="translate(14.307 27.642)" fill="#da001e"/>
      <path id="Tracé_966" data-name="Tracé 966" d="M113.288,190.027a2.87,2.87,0,1,1-2.871-2.871,2.871,2.871,0,0,1,2.871,2.871" transform="translate(17.798 30.973)" fill="#da001e"/>
      <path id="Tracé_967" data-name="Tracé 967" d="M92.189,190.027a2.87,2.87,0,1,1-2.871-2.871,2.871,2.871,0,0,1,2.871,2.871" transform="translate(14.307 30.973)" fill="#da001e"/>
      <path id="Tracé_968" data-name="Tracé 968" d="M156.859,106.513a2.87,2.87,0,1,1-2.871-2.871,2.871,2.871,0,0,1,2.871,2.871" transform="translate(25.009 17.152)" fill="#da001e"/>
      <path id="Tracé_969" data-name="Tracé 969" d="M135.76,106.513a2.87,2.87,0,1,1-2.871-2.871,2.871,2.871,0,0,1,2.871,2.871" transform="translate(21.517 17.152)" fill="#da001e"/>
      <path id="Tracé_970" data-name="Tracé 970" d="M156.859,127.642a2.87,2.87,0,1,1-2.871-2.871,2.871,2.871,0,0,1,2.871,2.871" transform="translate(25.009 20.649)" fill="#da001e"/>
      <path id="Tracé_971" data-name="Tracé 971" d="M135.76,127.642a2.87,2.87,0,1,1-2.871-2.871,2.871,2.871,0,0,1,2.871,2.871" transform="translate(21.517 20.649)" fill="#da001e"/>
      <path id="Tracé_972" data-name="Tracé 972" d="M156.859,148.77a2.87,2.87,0,1,1-2.871-2.871,2.871,2.871,0,0,1,2.871,2.871" transform="translate(25.009 24.145)" fill="#da001e"/>
      <path id="Tracé_973" data-name="Tracé 973" d="M135.76,148.77a2.87,2.87,0,1,1-2.871-2.871,2.871,2.871,0,0,1,2.871,2.871" transform="translate(21.517 24.145)" fill="#da001e"/>
      <path id="Tracé_974" data-name="Tracé 974" d="M156.859,169.9a2.87,2.87,0,1,1-2.871-2.871,2.871,2.871,0,0,1,2.871,2.871" transform="translate(25.009 27.642)" fill="#da001e"/>
      <path id="Tracé_975" data-name="Tracé 975" d="M135.76,169.9a2.87,2.87,0,1,1-2.871-2.871,2.871,2.871,0,0,1,2.871,2.871" transform="translate(21.517 27.642)" fill="#da001e"/>
      <path id="Tracé_976" data-name="Tracé 976" d="M156.859,190.027a2.87,2.87,0,1,1-2.871-2.871,2.871,2.871,0,0,1,2.871,2.871" transform="translate(25.009 30.973)" fill="#da001e"/>
      <path id="Tracé_977" data-name="Tracé 977" d="M135.76,190.027a2.87,2.87,0,1,1-2.871-2.871,2.871,2.871,0,0,1,2.871,2.871" transform="translate(21.517 30.973)" fill="#da001e"/>
    </g>
  </g>
</svg>
