<svg xmlns="http://www.w3.org/2000/svg" xmlns:xlink="http://www.w3.org/1999/xlink" width="110" height="110" viewBox="0 0 110 110">
  <defs>
    <clipPath id="clip-path">
      <rect id="Rectangle_426" data-name="Rectangle 426" width="46.965" height="32.109" fill="#fff"/>
    </clipPath>
  </defs>
  <g id="Groupe_1355" data-name="Groupe 1355" transform="translate(-1282 -1317)">
    <circle id="Ellipse_29" data-name="Ellipse 29" cx="55" cy="55" r="55" transform="translate(1282 1317)" fill="#6c247f"/>
    <g id="Groupe_1338" data-name="Groupe 1338" transform="translate(1313.518 1355.945)">
      <g id="Groupe_1337" data-name="Groupe 1337" clip-path="url(#clip-path)">
        <path id="Tracé_1469" data-name="Tracé 1469" d="M130.374,10.679a10.8,10.8,0,0,1,7.16,3.187,10.617,10.617,0,0,1,.143,14.874,10.629,10.629,0,0,1-18.187-5.562,16.966,16.966,0,0,1,1.188-9.333c3.067-7.633,8.71-12.16,16.813-13.6.84-.149,1.7-.154,2.556-.24.425-.043.6.082.589.549-.026,1.784-.02,3.569,0,5.354,0,.384-.092.521-.5.536a14.338,14.338,0,0,0-6.97,2.008c-1.01.608-1.935,1.358-2.9,2.044l.11.18" transform="translate(-93.681 0)" fill="#fff"/>
        <path id="Tracé_1470" data-name="Tracé 1470" d="M21.315.1V6.452a15,15,0,0,0-10.221,4.1,24.8,24.8,0,0,1,3.779,1.065,10.213,10.213,0,0,1,6.44,9.653,10,10,0,0,1-5.98,9.719,10.561,10.561,0,0,1-15.2-8.155,17.691,17.691,0,0,1,1-8.267A21.167,21.167,0,0,1,13.229,1.647,20.794,20.794,0,0,1,20.56.047c.178-.008.357,0,.535,0A1.455,1.455,0,0,1,21.315.1" transform="translate(0 -0.034)" fill="#fff"/>
      </g>
    </g>
  </g>
</svg>
