<svg version="1.2" xmlns="http://www.w3.org/2000/svg" viewBox="0 0 1008 576" width="1008" height="576">
	<title>12572886_SL-073119-22070-01</title>
	<defs>
		<clipPath clipPathUnits="userSpaceOnUse" id="cp1">
			<path d="m0 534.79v-534.88h1009.31v534.88z"/>
		</clipPath>
	</defs>
	<style>
		.s0 { fill: #9a9da3 } 
		.s1 { fill: #dbdbdb } 
		.s2 { fill: #005eff } 
		.s3 { fill: #0071d6 } 
		.s4 { fill: #009bf4 } 
		.s5 { fill: #c7c7c7 } 
	</style>
	<g id="_Artboards_">
	</g>
	<g id="Layer 1">
		<g id="&lt;Group&gt;">
			<g id="&lt;Group&gt;">
				<g id="&lt;Clip Group&gt;" clip-path="url(#cp1)">
					<g id="&lt;Group&gt;">
						<path id="&lt;Path&gt;" fill-rule="evenodd" class="s0" d="m949 334.1c-4.9 0-8.8-3.6-8.8-8.1 0-4.5 3.9-8.2 8.8-8.2 4.8 0 8.7 3.7 8.7 8.2 0 4.5-3.9 8.1-8.7 8.1z"/>
						<path id="&lt;Path&gt;" fill-rule="evenodd" class="s0" d="m1024 314.7c-2.3 0-4.3-1.8-4.3-4 0-2.2 2-3.9 4.3-3.9 2.4 0 4.3 1.7 4.3 3.9 0 2.2-1.9 4-4.3 4z"/>
						<path id="&lt;Path&gt;" fill-rule="evenodd" class="s0" d="m840.8 143.4c-1.6 0-2.9-1.2-2.9-2.6 0-1.5 1.3-2.7 2.9-2.7 1.5 0 2.8 1.2 2.8 2.7 0 1.4-1.3 2.6-2.8 2.6z"/>
						<path id="&lt;Path&gt;" fill-rule="evenodd" class="s0" d="m1036.6 240.9c-2.4 0-4.4-1.8-4.4-4 0-2.2 2-4 4.4-4 2.4 0 4.3 1.8 4.3 4 0 2.2-1.9 4-4.3 4z"/>
						<path id="&lt;Path&gt;" fill-rule="evenodd" class="s0" d="m931.9 488.1c-3.2 0-5.8-2.4-5.8-5.3 0-3 2.6-5.4 5.8-5.4 3.2 0 5.7 2.4 5.7 5.4 0 2.9-2.5 5.3-5.7 5.3z"/>
						<path id="&lt;Path&gt;" fill-rule="evenodd" class="s0" d="m507.5 49.8c-1.5 0-2.6-1-2.6-2.4 0-1.3 1.1-2.4 2.6-2.4 1.4 0 2.5 1.1 2.5 2.4 0 1.4-1.1 2.4-2.5 2.4z"/>
						<path id="&lt;Path&gt;" fill-rule="evenodd" class="s0" d="m641.2 115.3c-3.1 0-5.6-2.3-5.6-5.2 0-2.9 2.5-5.2 5.6-5.2 3.1 0 5.6 2.3 5.6 5.2 0 2.9-2.5 5.2-5.6 5.2z"/>
						<path id="&lt;Path&gt;" fill-rule="evenodd" class="s1" d="m1020.6 396.6c-4.5 0-8.1-3.4-8.1-7.5 0-4.2 3.6-7.5 8.1-7.5 4.5 0 8.1 3.3 8.1 7.5 0 4.1-3.6 7.5-8.1 7.5z"/>
						<path id="&lt;Path&gt;" fill-rule="evenodd" class="s1" d="m785.4 343c-3.7 0-6.6-2.7-6.6-6.1 0-3.4 2.9-6.2 6.6-6.2 3.7 0 6.6 2.8 6.6 6.2 0 3.4-2.9 6.1-6.6 6.1z"/>
						<path id="&lt;Path&gt;" fill-rule="evenodd" class="s1" d="m784.1 7.1c-1.5 0-2.7-1.1-2.7-2.5 0-1.4 1.2-2.6 2.7-2.6 1.5 0 2.8 1.2 2.8 2.6 0 1.4-1.3 2.5-2.8 2.5z"/>
						<path id="&lt;Path&gt;" fill-rule="evenodd" class="s1" d="m454.1 11.1c-3.5 0-6.3-2.6-6.3-5.8 0-3.3 2.8-5.9 6.3-5.9 3.5 0 6.3 2.6 6.3 5.9 0 3.2-2.8 5.8-6.3 5.8z"/>
						<path id="&lt;Path&gt;" fill-rule="evenodd" class="s1" d="m976.8 49.8c-2.9 0-5.2-2.1-5.2-4.8 0-2.6 2.3-4.8 5.2-4.8 2.9 0 5.2 2.2 5.2 4.8 0 2.7-2.3 4.8-5.2 4.8z"/>
						<path id="&lt;Path&gt;" fill-rule="evenodd" class="s1" d="m745.7 218.4c-2.1 0-3.8-1.6-3.8-3.6 0-1.9 1.7-3.5 3.8-3.5 2.1 0 3.8 1.6 3.8 3.5 0 2-1.7 3.6-3.8 3.6z"/>
						<path id="&lt;Path&gt;" fill-rule="evenodd" class="s1" d="m309.6 11c-1.8 0-3.3-1.4-3.3-3.1 0-1.7 1.5-3.1 3.3-3.1 1.9 0 3.4 1.4 3.4 3.1 0 1.7-1.5 3.1-3.4 3.1z"/>
						<path id="&lt;Path&gt;" fill-rule="evenodd" class="s2" d="m725.8 284.4c-1.5 0-2.7-1.2-2.7-2.6 0-1.4 1.2-2.5 2.7-2.5 1.5 0 2.7 1.1 2.7 2.5 0 1.4-1.2 2.6-2.7 2.6z"/>
						<path id="&lt;Path&gt;" fill-rule="evenodd" class="s2" d="m937.2 239.4c-4.4 0-8-3.4-8-7.5 0-4.1 3.6-7.4 8-7.4 4.5 0 8 3.3 8 7.4 0 4.1-3.5 7.5-8 7.5z"/>
						<path id="&lt;Path&gt;" fill-rule="evenodd" class="s2" d="m643.4 222.9c-4.2 0-7.5-3.1-7.5-6.9 0-3.8 3.3-6.9 7.5-6.9 4.1 0 7.4 3.1 7.4 6.9 0 3.8-3.3 6.9-7.4 6.9z"/>
						<path id="&lt;Path&gt;" fill-rule="evenodd" class="s2" d="m449.7 120.9c-2 0-3.6-1.5-3.6-3.4 0-1.8 1.6-3.3 3.6-3.3 2 0 3.6 1.5 3.6 3.3 0 1.9-1.6 3.4-3.6 3.4z"/>
						<path id="&lt;Path&gt;" fill-rule="evenodd" class="s2" d="m866.5 342.9c-2.5 0-4.5-1.9-4.5-4.2 0-2.3 2-4.2 4.5-4.2 2.5 0 4.5 1.9 4.5 4.2 0 2.3-2 4.2-4.5 4.2z"/>
						<path id="&lt;Path&gt;" fill-rule="evenodd" class="s2" d="m859.8 52.7c-4.7 0-8.4-3.5-8.4-7.8 0-4.3 3.7-7.8 8.4-7.8 4.6 0 8.4 3.5 8.4 7.8 0 4.3-3.8 7.8-8.4 7.8z"/>
						<path id="&lt;Path&gt;" fill-rule="evenodd" class="s2" d="m1041.9 147.3c-3 0-5.4-2.3-5.4-5.1 0-2.8 2.4-5.1 5.4-5.1 3 0 5.5 2.3 5.5 5.1 0 2.8-2.5 5.1-5.5 5.1z"/>
						<path id="&lt;Path&gt;" fill-rule="evenodd" class="s3" d="m959.8 141.3c-2.2 0-4.1-1.7-4.1-3.9 0-2.1 1.9-3.8 4.1-3.8 2.3 0 4.2 1.7 4.2 3.8 0 2.2-1.9 3.9-4.2 3.9z"/>
						<path id="&lt;Path&gt;" fill-rule="evenodd" class="s3" d="m731.2 147.9c-2.8 0-5-2-5-4.5 0-2.6 2.2-4.6 5-4.6 2.7 0 4.9 2 4.9 4.6 0 2.5-2.2 4.5-4.9 4.5z"/>
						<path id="&lt;Path&gt;" fill-rule="evenodd" class="s3" d="m374.8 40.8c-4 0-7.2-3-7.2-6.6 0-3.7 3.2-6.7 7.2-6.7 4 0 7.2 3 7.2 6.7 0 3.6-3.2 6.6-7.2 6.6z"/>
						<path id="&lt;Path&gt;" fill-rule="evenodd" class="s3" d="m698.7 21.8c-1.7 0-3.1-1.3-3.1-2.9 0-1.6 1.4-2.9 3.1-2.9 1.7 0 3.1 1.3 3.1 2.9 0 1.6-1.4 2.9-3.1 2.9z"/>
						<path id="&lt;Path&gt;" fill-rule="evenodd" class="s3" d="m989.7 465.9c-1.7 0-3.2-1.3-3.2-3 0-1.6 1.5-3 3.2-3 1.8 0 3.3 1.4 3.3 3 0 1.7-1.5 3-3.3 3z"/>
						<path id="&lt;Path&gt;" fill-rule="evenodd" class="s3" d="m794.4 415.6c-2.3 0-4.2-1.7-4.2-3.8 0-2.1 1.9-3.9 4.2-3.9 2.3 0 4.1 1.8 4.1 3.9 0 2.1-1.8 3.8-4.1 3.8z"/>
						<path id="&lt;Path&gt;" fill-rule="evenodd" class="s3" d="m556.9 21.2c-4.3 0-7.9-3.3-7.9-7.3 0-4 3.6-7.3 7.9-7.3 4.3 0 7.8 3.3 7.8 7.3 0 4-3.5 7.3-7.8 7.3z"/>
						<path id="&lt;Path&gt;" fill-rule="evenodd" class="s4" d="m549.5 125.9c-1.6 0-2.9-1.2-2.9-2.6 0-1.5 1.3-2.7 2.9-2.7 1.5 0 2.8 1.2 2.8 2.7 0 1.4-1.3 2.6-2.8 2.6z"/>
						<path id="&lt;Path&gt;" fill-rule="evenodd" class="s4" d="m551.6 211.3c-2.1 0-3.9-1.6-3.9-3.6 0-2 1.8-3.6 3.9-3.6 2.1 0 3.9 1.6 3.9 3.6 0 2-1.8 3.6-3.9 3.6z"/>
						<path id="&lt;Path&gt;" fill-rule="evenodd" class="s4" d="m666.3 319.4c-2.9 0-5.1-2.1-5.1-4.7 0-2.6 2.2-4.7 5.1-4.7 2.8 0 5.1 2.1 5.1 4.7 0 2.6-2.3 4.7-5.1 4.7z"/>
						<path id="&lt;Path&gt;" fill-rule="evenodd" class="s4" d="m757.8 81.8c-3.4 0-6.1-2.5-6.1-5.6 0-3.1 2.7-5.6 6.1-5.6 3.3 0 6 2.5 6 5.6 0 3.1-2.7 5.6-6 5.6z"/>
						<path id="&lt;Path&gt;" fill-rule="evenodd" class="s4" d="m897.2 412.9c-1.3 0-2.3-0.9-2.3-2.1 0-1.1 1-2.1 2.3-2.1 1.2 0 2.2 1 2.2 2.1 0 1.2-1 2.1-2.2 2.1z"/>
						<path id="&lt;Path&gt;" fill-rule="evenodd" class="s4" d="m614.6 34.1c-2.6 0-4.7-2-4.7-4.4 0-2.4 2.1-4.3 4.7-4.3 2.6 0 4.6 1.9 4.6 4.3 0 2.4-2 4.4-4.6 4.4z"/>
						<path id="&lt;Path&gt;" fill-rule="evenodd" class="s4" d="m839.1 234.6c-2.5 0-4.5-1.9-4.5-4.2 0-2.2 2-4.1 4.5-4.1 2.4 0 4.4 1.9 4.4 4.1 0 2.3-2 4.2-4.4 4.2z"/>
					</g>
					<g id="&lt;Group&gt;" style="mix-blend-mode: multiply">
						<g id="&lt;Group&gt;">
							<path id="&lt;Compound Path&gt;" fill-rule="evenodd" class="s5" d="m1017.5 488q0.1 0.1 0.1 0.2l-1.2 90q0 0.1-0.2 0.2-0.1 0-0.2-0.1l-93.1-73.7q-0.2-0.1-0.1-0.2 0-0.1 0.2-0.2l94.3-16.3q0 0 0 0 0.1 0 0.2 0.1zm-1.6 89.7l1.2-89.3-93.5 16.2z"/>
						</g>
						<g id="&lt;Group&gt;">
							<path id="&lt;Compound Path&gt;" fill-rule="evenodd" class="s5" d="m832.1 399.3l81.1 11.6q0.2 0.1 0.2 0.2 0.1 0.1 0 0.2l-46.2 56.4q-0.1 0.1-0.2 0.1-0.2 0-0.2-0.1l-34.9-68.1q-0.1-0.1 0-0.3 0.1 0 0.2 0 0 0 0 0zm80.6 12l-80.2-11.5 34.6 67.4z"/>
						</g>
						<g id="&lt;Group&gt;">
							<path id="&lt;Compound Path&gt;" fill-rule="evenodd" class="s5" d="m913.2 410.9l80 8.7q0.2 0 0.2 0.1 0.1 0.2 0 0.3l-70.2 84.6q-0.1 0.1-0.2 0.1-0.2-0.1-0.2-0.2l-9.9-93.3q0-0.1 0.1-0.2 0.1-0.1 0.2-0.1 0 0 0 0zm79.6 9.1l-79.3-8.6 9.7 92.4z"/>
						</g>
						<g id="&lt;Group&gt;">
							<path id="&lt;Compound Path&gt;" fill-rule="evenodd" class="s5" d="m913.3 410.9q0.1 0.1 0.1 0.2l9.9 93.3q0 0.2-0.2 0.2-0.1 0.1-0.2 0l-56-36.8q-0.1-0.1-0.1-0.2 0-0.1 0-0.1l46.2-56.5q0.1-0.1 0.2-0.1 0 0 0.1 0zm9.4 93.1l-9.7-92.2-45.6 55.7z"/>
						</g>
						<g id="&lt;Group&gt;">
							<path id="&lt;Compound Path&gt;" fill-rule="evenodd" class="s5" d="m1055.7 413.7q0 0.2 0 0.3l-38.2 74.3q0 0.1-0.2 0.1-0.2 0-0.2-0.2l-24.1-68.3q-0.1-0.1 0-0.2 0.1-0.1 0.2-0.1l62.2-6q0 0 0.1 0 0.1 0.1 0.2 0.1zm-38.3 73.8l37.6-73.3-61.4 5.8z"/>
						</g>
						<g id="&lt;Group&gt;">
							<path id="&lt;Compound Path&gt;" fill-rule="evenodd" class="s5" d="m993.3 419.6q0.1 0 0.2 0.2l24.1 68.3q0 0.1-0.1 0.2 0 0.1-0.1 0.1l-94.3 16.3q-0.2 0-0.3-0.1-0.1-0.2 0-0.3l70.2-84.6q0.1-0.1 0.2-0.1 0 0 0.1 0zm23.7 68.4l-23.9-67.7-69.5 83.8z"/>
						</g>
						<g id="&lt;Group&gt;">
							<path id="&lt;Compound Path&gt;" fill-rule="evenodd" class="s5" d="m861 364.5q0.1 0.1 0 0.3l-28.7 34.8c-0.1 0.1-0.2 0.1-0.3 0.1l-40.7-21.6q-0.2-0.1-0.1-0.3 0-0.1 0.2-0.2l69.4-13.2q0 0 0 0 0.2 0 0.2 0.1zm-29 34.7l28.2-34.2-68.1 13z"/>
						</g>
						<g id="&lt;Group&gt;">
							<path id="&lt;Compound Path&gt;" fill-rule="evenodd" class="s5" d="m860.9 364.4l68.4 8.6q0.2 0 0.2 0.1 0.1 0.1 0 0.2l-16.1 37.9q0 0.2-0.2 0.2-0.1 0-0.2-0.1l-52.3-46.5q-0.2-0.1-0.1-0.3 0.1-0.1 0.2-0.1 0.1 0 0.1 0zm68.1 9l-67.4-8.5 51.5 45.8z"/>
						</g>
						<g id="&lt;Group&gt;">
							<path id="&lt;Compound Path&gt;" fill-rule="evenodd" class="s5" d="m861 364.4l52.4 46.6q0.1 0.1 0 0.3-0.1 0.1-0.3 0.1l-81.1-11.7q-0.1 0-0.1-0.1-0.1-0.2 0-0.3l28.7-34.8q0.1-0.1 0.2-0.1 0 0 0 0 0.1 0 0.2 0zm51.4 46.4l-51.5-45.8-28.4 34.3z"/>
						</g>
						<g id="&lt;Group&gt;">
							<path id="&lt;Compound Path&gt;" fill-rule="evenodd" class="s5" d="m953 364l40.4 55.7c0.1 0.1 0.1 0.2 0 0.3-0.1 0.1-0.2 0.1-0.3 0l-63.9-46.6q-0.2-0.1-0.1-0.2 0-0.2 0.1-0.2l23.5-9.1q0 0 0.1 0 0.1 0 0.2 0.1zm39.1 54.7l-39.4-54.3-22.9 8.9z"/>
						</g>
						<g id="&lt;Group&gt;">
							<path id="&lt;Compound Path&gt;" fill-rule="evenodd" class="s5" d="m929.5 373l63.9 46.6c0.1 0.1 0.1 0.2 0 0.3 0 0.1-0.1 0.2-0.2 0.2l-80-8.7q-0.2 0-0.2-0.1-0.1-0.1 0-0.2l16.1-38q0-0.1 0.1-0.1 0.1 0 0.1 0 0.1 0 0.2 0zm62.9 46.5l-63-45.9-15.9 37.4z"/>
						</g>
						<g id="&lt;Group&gt;">
							<path id="&lt;Compound Path&gt;" fill-rule="evenodd" class="s5" d="m952.8 363.9l78.4 1.3q0.1 0 0.2 0.2l24.3 48.4q0.1 0.1-0.1 0.2-0.1 0.2-0.3 0.1l-102.7-49.7c-0.1-0.1-0.1-0.2-0.1-0.3 0-0.1 0.1-0.2 0.3-0.2q0 0 0 0zm78.2 1.8l-77.2-1.3 101.1 49z"/>
						</g>
						<g id="&lt;Group&gt;">
							<path id="&lt;Compound Path&gt;" fill-rule="evenodd" class="s5" d="m952.9 363.9l102.7 49.8q0.1 0.1 0.1 0.2 0 0.2-0.2 0.2l-62.3 6q-0.1 0-0.2-0.1l-40.5-55.7c0-0.1 0-0.2 0.1-0.3q0-0.1 0.2-0.1 0 0 0.1 0zm101.7 49.8l-101.1-48.9 39.8 54.8z"/>
						</g>
						<g id="&lt;Group&gt;">
							<path id="&lt;Compound Path&gt;" fill-rule="evenodd" class="s5" d="m758.9 280.2q0.1 0.1 0.1 0.2l32.6 97.4q0.1 0.2-0.1 0.3-0.1 0.1-0.2 0l-103.8-72.5q-0.1-0.1-0.1-0.2 0-0.1 0.1-0.2l71.2-25q0 0 0.1 0 0 0 0.1 0zm32 97.1l-32.3-96.6-70.5 24.8z"/>
						</g>
						<g id="&lt;Group&gt;">
							<path id="&lt;Compound Path&gt;" fill-rule="evenodd" class="s5" d="m758.9 280.2l66.8 19.8q0.1 0.1 0.1 0.1l35.3 64.4c0 0.1 0 0.2-0.1 0.3-0.1 0.1-0.2 0.1-0.3 0l-102.1-84.2c-0.1-0.1-0.1-0.2 0-0.3q0-0.1 0.2-0.1 0 0 0.1 0zm66.5 20.2l-65.6-19.4 100.2 82.6z"/>
						</g>
						<g id="&lt;Group&gt;">
							<path id="&lt;Compound Path&gt;" fill-rule="evenodd" class="s5" d="m759 280.3l102 84.1q0.1 0.1 0.1 0.3-0.1 0.1-0.2 0.1l-69.4 13.3c-0.2 0-0.3 0-0.3-0.2l-32.7-97.4c0-0.1 0.1-0.2 0.2-0.3q0 0 0.1 0 0.1 0 0.2 0.1zm101.3 84.2l-101-83.3 32.3 96.4z"/>
						</g>
						<g id="&lt;Group&gt;">
							<path id="&lt;Compound Path&gt;" fill-rule="evenodd" class="s5" d="m897.9 294.8l31.6 78.3q0.1 0.2 0 0.3c-0.1 0-0.3 0-0.3 0l-103.8-73q-0.1-0.1-0.1-0.2 0.1-0.2 0.3-0.2l72.1-5.3q0 0 0 0 0.2 0 0.2 0.1zm30.9 77.7l-31.3-77.3-71.2 5.2z"/>
						</g>
						<g id="&lt;Group&gt;">
							<path id="&lt;Compound Path&gt;" fill-rule="evenodd" class="s5" d="m825.7 300.1l103.8 72.9c0.1 0.1 0.1 0.2 0 0.3q0 0.1-0.2 0.1l-68.5-8.6q-0.1 0-0.2-0.1l-35.2-64.4c-0.1 0-0.1-0.2 0-0.2q0.1-0.1 0.2-0.1 0.1 0 0.1 0.1zm102.7 72.7l-102.1-71.8 34.7 63.4z"/>
						</g>
						<g id="&lt;Group&gt;">
							<path id="&lt;Compound Path&gt;" fill-rule="evenodd" class="s5" d="m939 268.9q0.1 0 0.1 0.2l13.9 95c0 0.1 0 0.2-0.2 0.3-0.1 0-0.2 0-0.2-0.1l-55.1-69.2q0-0.1 0-0.2 0-0.1 0.1-0.2l41.1-25.8q0.1-0.1 0.2-0.1 0 0 0.1 0.1zm13.4 94.4l-13.7-93.8-40.6 25.5z"/>
						</g>
						<g id="&lt;Group&gt;">
							<path id="&lt;Compound Path&gt;" fill-rule="evenodd" class="s5" d="m897.9 294.8l55.1 69.2q0 0.1 0 0.2 0 0.1-0.1 0.2l-23.5 9q-0.1 0-0.2 0-0.1 0-0.1-0.1l-31.6-78.3c-0.1-0.1 0-0.2 0.1-0.3q0.1 0 0.1 0 0.1 0 0.2 0.1zm54.5 69.3l-53.8-67.7 30.9 76.5z"/>
						</g>
						<g id="&lt;Group&gt;">
							<path id="&lt;Compound Path&gt;" fill-rule="evenodd" class="s5" d="m938.9 268.9l132.9 39.9q0.1 0 0.2 0.1 0 0.1 0 0.2l-40.6 56.5q-0.1 0.1-0.2 0.1-0.1 0-0.2-0.1l-92.3-96.4c-0.1 0-0.1-0.2 0-0.2q0-0.1 0.2-0.2 0 0 0 0.1zm132.5 40.2l-131.7-39.5 91.5 95.5z"/>
						</g>
						<g id="&lt;Group&gt;">
							<path id="&lt;Compound Path&gt;" fill-rule="evenodd" class="s5" d="m939 268.9l92.4 96.4q0.1 0.1 0 0.3c0 0-0.1 0.1-0.2 0.1l-78.4-1.3c-0.2 0-0.3-0.1-0.3-0.2l-13.9-95.1q0-0.2 0.2-0.2 0-0.1 0.1-0.1 0.1 0.1 0.1 0.1zm91.6 96.3l-91.4-95.4 13.8 94.1z"/>
						</g>
						<g id="&lt;Group&gt;">
							<path id="&lt;Compound Path&gt;" fill-rule="evenodd" class="s5" d="m611.9 184.3l67.7 35.7q0.1 0 0.1 0.1l8.2 85.3c0 0.1-0.1 0.2-0.2 0.3-0.1 0-0.2 0-0.3-0.1l-75.8-121c-0.1-0.1 0-0.2 0-0.3q0.1 0 0.2 0 0.1 0 0.1 0zm67.3 36l-66.7-35.2 74.8 119.3z"/>
						</g>
						<g id="&lt;Group&gt;">
							<path id="&lt;Compound Path&gt;" fill-rule="evenodd" class="s5" d="m743 197.8q0.1 0.1 0.1 0.2l15.9 82.4q0.1 0.1-0.1 0.2-0.1 0.1-0.3 0l-79.3-60.3q-0.1 0-0.1-0.2 0-0.1 0.1-0.2l63.5-22.1q0 0 0.1 0 0 0 0.1 0zm15.4 82l-15.7-81.4-62.8 21.8z"/>
						</g>
						<g id="&lt;Group&gt;">
							<path id="&lt;Compound Path&gt;" fill-rule="evenodd" class="s5" d="m679.6 220l79.3 60.2q0.2 0.1 0.1 0.3 0 0.1-0.1 0.1l-71.2 25.1q-0.1 0-0.2-0.1-0.1 0-0.1-0.1l-8.2-85.3q0-0.2 0.1-0.2 0.1-0.1 0.1-0.1 0.1 0 0.2 0.1zm78.7 60.4l-78.6-59.7 8.2 84.4z"/>
						</g>
						<g id="&lt;Group&gt;">
							<path id="&lt;Compound Path&gt;" fill-rule="evenodd" class="s5" d="m743 197.9l61.3 45.3q0.1 0.1 0.1 0.1l21.4 56.9c0.1 0.1 0 0.2-0.1 0.2-0.1 0.1-0.2 0.1-0.3 0l-82.7-102.2c-0.1-0.1-0.1-0.2 0-0.3q0.1-0.1 0.2-0.1 0.1 0 0.1 0.1zm60.9 45.6l-59.6-44.1 80.5 99.5z"/>
						</g>
						<g id="&lt;Group&gt;">
							<path id="&lt;Compound Path&gt;" fill-rule="evenodd" class="s5" d="m743.1 197.9l82.7 102.2q0.1 0.1 0 0.3-0.1 0.1-0.3 0.1l-66.8-19.9q-0.1 0-0.2-0.1l-15.9-82.4c0-0.1 0.1-0.2 0.2-0.3q0 0 0.1 0 0.1 0 0.2 0.1zm81.8 101.9l-81.6-100.8 15.7 81.2z"/>
						</g>
						<g id="&lt;Group&gt;">
							<path id="&lt;Compound Path&gt;" fill-rule="evenodd" class="s5" d="m918.1 241.5q0 0.1 0 0.2l-20.2 53.3q0 0.1-0.1 0.1-0.1 0.1-0.2 0l-93.6-51.5c-0.1-0.1-0.1-0.2-0.1-0.3 0-0.1 0.1-0.1 0.3-0.1l113.7-1.8q0 0 0 0 0.1 0 0.2 0.1zm-20.5 53.1l19.9-52.8-112.5 1.8z"/>
						</g>
						<g id="&lt;Group&gt;">
							<path id="&lt;Compound Path&gt;" fill-rule="evenodd" class="s5" d="m804.3 243.2l93.5 51.5q0.2 0.1 0.2 0.3-0.1 0.1-0.3 0.2l-72.1 5.3q-0.2 0-0.3-0.2l-21.4-56.8q0-0.2 0.1-0.3 0.1 0 0.2 0 0 0 0.1 0zm92.6 51.5l-92.3-50.8 21.1 56.1z"/>
						</g>
						<g id="&lt;Group&gt;">
							<path id="&lt;Compound Path&gt;" fill-rule="evenodd" class="s5" d="m967.7 237q0.1 0.1 0 0.2l-28.6 32q-0.1 0.1-0.2 0.1-0.2 0-0.2-0.1l-21-27.5q-0.1-0.1-0.1-0.2 0.1-0.1 0.2-0.1l49.7-4.6q0 0 0 0 0.1 0 0.2 0.2zm-28.8 31.7l28-31.3-48.6 4.4z"/>
						</g>
						<g id="&lt;Group&gt;">
							<path id="&lt;Compound Path&gt;" fill-rule="evenodd" class="s5" d="m918.1 241.5l21 27.4q0 0.1 0 0.2 0 0.1-0.1 0.2l-41.1 25.8c-0.1 0.1-0.3 0.1-0.3 0q-0.2-0.1-0.1-0.3l20.1-53.3q0.1-0.1 0.2-0.1 0 0 0.1 0 0.1 0 0.2 0.1zm20.4 27.5l-20.6-26.9-19.7 52.2z"/>
						</g>
						<g id="&lt;Group&gt;">
							<path id="&lt;Compound Path&gt;" fill-rule="evenodd" class="s5" d="m967.5 236.8l60.8 10.5q0.1 0 0.2 0.1l43.5 61.5c0 0.1 0 0.2-0.1 0.3-0.1 0-0.2 0-0.3 0l-104.2-71.9c-0.1-0.1-0.2-0.2-0.1-0.3q0-0.2 0.2-0.2 0 0 0 0zm60.6 10.9l-59.6-10.2 102.3 70.5z"/>
						</g>
						<g id="&lt;Group&gt;">
							<path id="&lt;Compound Path&gt;" fill-rule="evenodd" class="s5" d="m967.7 236.9l104.2 71.9c0.1 0.1 0.1 0.2 0.1 0.3-0.1 0.1-0.2 0.1-0.3 0.1l-132.9-39.9q-0.1 0-0.2-0.2 0-0.1 0.1-0.2l28.6-32q0.1-0.1 0.2-0.1 0.1 0 0.2 0.1zm102.7 71.4l-102.9-70.9-28.2 31.6z"/>
						</g>
						<g id="&lt;Group&gt;">
							<path id="&lt;Compound Path&gt;" fill-rule="evenodd" class="s5" d="m537.6 138.6l108.4 14.3q0.2 0 0.2 0.1 0.1 0.2 0 0.3l-34.2 31.4c-0.1 0-0.2 0-0.3 0l-74.3-45.7c-0.1 0-0.1-0.2-0.1-0.3q0.1-0.1 0.3-0.1 0 0 0 0zm107.9 14.7l-106.9-14.1 73.2 45z"/>
						</g>
						<g id="&lt;Group&gt;">
							<path id="&lt;Compound Path&gt;" fill-rule="evenodd" class="s5" d="m646.1 152.9l49.6 12.7c0.1 0.1 0.2 0.2 0.1 0.3l-16.1 54.3q-0.1 0.2-0.3 0.2-0.1 0-0.2-0.1l-33.4-67.1q-0.1-0.1 0-0.2 0.1-0.1 0.2-0.1 0 0 0.1 0zm49.2 13.1l-48.8-12.5 32.9 66z"/>
						</g>
						<g id="&lt;Group&gt;">
							<path id="&lt;Compound Path&gt;" fill-rule="evenodd" class="s5" d="m646 152.9q0.2 0 0.2 0.1l33.5 67.1q0 0.1-0.1 0.2c-0.1 0.1-0.2 0.1-0.3 0.1l-67.6-35.7q-0.1-0.1-0.1-0.2-0.1-0.1 0-0.2l34.2-31.3q0.1-0.1 0.2-0.1 0 0 0 0zm32.9 66.7l-33-66.1-33.7 30.9z"/>
						</g>
						<g id="&lt;Group&gt;">
							<path id="&lt;Compound Path&gt;" fill-rule="evenodd" class="s5" d="m780.1 149.9q0 0.2-0.1 0.3l-36.9 48q-0.1 0.1-0.2 0.1-0.1 0-0.2-0.1l-47.3-32.2q-0.1-0.1-0.1-0.2 0.1-0.2 0.2-0.2l84.3-15.8q0 0 0 0 0.2 0 0.3 0.1zm-37.3 47.8l36.5-47.3-83.1 15.6z"/>
						</g>
						<g id="&lt;Group&gt;">
							<path id="&lt;Compound Path&gt;" fill-rule="evenodd" class="s5" d="m695.7 165.7l47.3 32.2q0.1 0 0.1 0.2 0 0.1-0.1 0.2l-63.5 22.1q-0.1 0-0.2-0.1-0.1-0.1-0.1-0.2l16.1-54.3q0.1-0.1 0.2-0.2 0 0 0.1 0 0.1 0 0.1 0.1zm46.7 32.3l-46.7-31.8-15.9 53.6z"/>
						</g>
						<g id="&lt;Group&gt;">
							<path id="&lt;Compound Path&gt;" fill-rule="evenodd" class="s5" d="m779.9 149.8l14.1 4.6q0.2 0.1 0.2 0.2l10.2 88.8c0 0.1-0.1 0.2-0.2 0.2-0.1 0-0.3 0-0.3-0.1l-24.3-93.4q0-0.1 0.1-0.2 0.1-0.1 0.1-0.1 0.1 0 0.1 0zm13.8 5l-13.5-4.4 23.3 89.5z"/>
						</g>
						<g id="&lt;Group&gt;">
							<path id="&lt;Compound Path&gt;" fill-rule="evenodd" class="s5" d="m779.9 149.8q0.1 0.1 0.2 0.2l24.3 93.3q0 0.2-0.1 0.3-0.2 0.1-0.3 0l-61.3-45.4c-0.1 0-0.1-0.2 0-0.3l36.9-48q0.1-0.1 0.2-0.1 0.1 0 0.1 0zm23.8 93l-24-92.2-36.5 47.4z"/>
						</g>
						<g id="&lt;Group&gt;">
							<path id="&lt;Compound Path&gt;" fill-rule="evenodd" class="s5" d="m903.4 145.4l14.7 96.2q0 0.1-0.1 0.2-0.1 0.1-0.3 0l-123.9-87q-0.1-0.1-0.1-0.2 0.1-0.2 0.2-0.2l109.2-9.2q0 0 0.1 0c0.1 0 0.2 0.1 0.2 0.2zm14.1 95.7l-14.6-95.4-108.3 9.1z"/>
						</g>
						<g id="&lt;Group&gt;">
							<path id="&lt;Compound Path&gt;" fill-rule="evenodd" class="s5" d="m794.1 154.4l123.9 87q0.2 0.1 0.1 0.3-0.1 0.1-0.2 0.1l-113.7 1.8c-0.2 0-0.3-0.1-0.3-0.2l-10.2-88.7q0-0.2 0.1-0.3 0.1 0 0.2 0 0 0 0.1 0zm123 87l-122.8-86.3 10.1 88.1z"/>
						</g>
						<g id="&lt;Group&gt;">
							<path id="&lt;Compound Path&gt;" fill-rule="evenodd" class="s5" d="m903.2 145.2l56 4c0.1 0 0.2 0.1 0.2 0.2l8.4 87.7c0 0.1-0.1 0.2-0.2 0.2-0.1 0-0.2 0-0.3-0.1l-64.4-91.7q0-0.1 0-0.2 0.1-0.1 0.3-0.1 0 0 0 0zm55.7 4.5l-55.3-4 63.6 90.5z"/>
						</g>
						<g id="&lt;Group&gt;">
							<path id="&lt;Compound Path&gt;" fill-rule="evenodd" class="s5" d="m903.4 145.3l64.3 91.6q0.1 0.2 0 0.3 0 0.1-0.2 0.1l-49.6 4.5c-0.1 0-0.3 0-0.3-0.2l-14.7-96.2c0-0.1 0.1-0.2 0.2-0.2q0 0 0.1 0 0.1 0 0.2 0.1zm63.7 91.6l-63.5-90.5 14.5 94.9z"/>
						</g>
						<g id="&lt;Group&gt;">
							<path id="&lt;Compound Path&gt;" fill-rule="evenodd" class="s5" d="m1033.9 134q0.1 0.1 0.1 0.2l-5.5 113.3q0 0.2-0.2 0.2-0.1 0-0.2-0.1l-69.2-98q0-0.1 0-0.2 0.1-0.1 0.2-0.2l74.6-15.2q0 0 0.1 0 0 0 0.1 0zm-5.8 112.8l5.4-112.3-73.9 15.1z"/>
						</g>
						<g id="&lt;Group&gt;">
							<path id="&lt;Compound Path&gt;" fill-rule="evenodd" class="s5" d="m959.4 149.3l69.1 98.1q0.1 0.1 0 0.2-0.1 0.1-0.3 0.1l-60.7-10.4c-0.2 0-0.2-0.1-0.2-0.2l-8.4-87.6c0-0.1 0.1-0.2 0.2-0.3q0 0 0 0 0.2 0 0.3 0.1zm68.3 97.9l-68.2-96.8 8.2 86.5z"/>
						</g>
						<g id="&lt;Group&gt;">
							<path id="&lt;Compound Path&gt;" fill-rule="evenodd" class="s5" d="m491.8 77.5l79.1 12q0.1 0.1 0.2 0.2 0.1 0.1 0 0.2l-33.3 49q-0.1 0.1-0.2 0.2-0.2-0.1-0.2-0.1l-45.9-61.2q0-0.1 0-0.2 0.1-0.1 0.3-0.1 0 0 0 0zm78.7 12.4l-78.2-11.9 45.2 60.4z"/>
						</g>
						<g id="&lt;Group&gt;">
							<path id="&lt;Compound Path&gt;" fill-rule="evenodd" class="s5" d="m609.4 87.9l36.8 65.1c0.1 0.1 0.1 0.2 0 0.3-0.1 0.1-0.3 0.1-0.4 0l-75.1-63.4q-0.1-0.1-0.1-0.2 0.1-0.1 0.3-0.2l38.2-1.7q0.1 0 0.1 0 0.1 0 0.2 0.1zm35.7 64.2l-36.1-63.8-37.5 1.7z"/>
						</g>
						<g id="&lt;Group&gt;">
							<path id="&lt;Compound Path&gt;" fill-rule="evenodd" class="s5" d="m571 89.6l75.2 63.3q0.1 0.2 0 0.3c0 0.1-0.1 0.2-0.2 0.2l-108.5-14.4q-0.1 0-0.2-0.1 0-0.1 0-0.2l33.4-49q0-0.1 0.1-0.2 0.1 0 0.1 0 0.1 0 0.1 0.1zm74.2 63.2l-74.3-62.7-32.9 48.5z"/>
						</g>
						<g id="&lt;Group&gt;">
							<path id="&lt;Compound Path&gt;" fill-rule="evenodd" class="s5" d="m609.2 87.8l106.2 23q0.2 0 0.2 0.1 0.1 0.1 0 0.2l-19.8 54.8q0 0.1-0.2 0.2-0.1 0-0.2-0.1l-86.4-77.8c-0.1-0.1-0.1-0.2-0.1-0.3q0.1-0.1 0.3-0.1 0 0 0 0zm105.9 23.4l-105.1-22.8 85.5 77z"/>
						</g>
						<g id="&lt;Group&gt;">
							<path id="&lt;Compound Path&gt;" fill-rule="evenodd" class="s5" d="m609.3 87.8l86.5 77.9c0 0 0.1 0.2 0 0.3-0.1 0-0.2 0.1-0.3 0.1l-49.6-12.8q-0.1 0-0.1-0.1l-36.9-65.1c0-0.1 0-0.2 0.1-0.3q0.1 0 0.2 0 0.1 0 0.1 0zm85.4 77.6l-84.6-76.2 36.1 63.7z"/>
						</g>
						<g id="&lt;Group&gt;">
							<path id="&lt;Compound Path&gt;" fill-rule="evenodd" class="s5" d="m765.6 79.6q0.1 0.1 0.1 0.2l14.4 70.2q0 0.2-0.1 0.3-0.2 0-0.3 0l-64.4-39.1q-0.2-0.1-0.2-0.2 0-0.1 0.2-0.2l50-31.1q0.1-0.1 0.2-0.1 0 0 0.1 0zm13.9 70l-14.2-69.4-49.5 30.8z"/>
						</g>
						<g id="&lt;Group&gt;">
							<path id="&lt;Compound Path&gt;" fill-rule="evenodd" class="s5" d="m715.5 110.8l64.5 39.1q0.1 0.1 0.1 0.2 0 0.2-0.2 0.2l-84.3 15.8q-0.1 0-0.2-0.1-0.1-0.1 0-0.2l19.8-54.9q0-0.1 0.1-0.1 0.1 0 0.1 0 0.1 0 0.1 0zm63.7 39.2l-63.7-38.7-19.5 54.2z"/>
						</g>
						<g id="&lt;Group&gt;">
							<path id="&lt;Compound Path&gt;" fill-rule="evenodd" class="s5" d="m853.1 57.2q0.1 0.2 0 0.3l-58.9 97.2q-0.1 0.2-0.3 0.2-0.1-0.1-0.2-0.2l-28.5-74.8q0-0.1 0.1-0.1 0-0.1 0.1-0.2l87.4-22.4q0.1 0 0.1 0 0.1 0 0.2 0zm-59.1 96.9l58.4-96.3-86.6 22.2z"/>
						</g>
						<g id="&lt;Group&gt;">
							<path id="&lt;Compound Path&gt;" fill-rule="evenodd" class="s5" d="m765.7 79.8l28.5 74.7q0 0.2-0.1 0.3-0.1 0.1-0.2 0l-14.1-4.5q-0.2-0.1-0.2-0.2l-14.4-70.2c0-0.1 0.1-0.2 0.2-0.3q0 0 0.1 0 0.1 0 0.2 0.2zm27.8 74.4l-27.2-71.4 13.8 67.1z"/>
						</g>
						<g id="&lt;Group&gt;">
							<path id="&lt;Compound Path&gt;" fill-rule="evenodd" class="s5" d="m853 57.2l38.4 14.9q0.1 0.1 0.1 0.2l11.9 73.1c0 0.1 0 0.2-0.2 0.2-0.1 0.1-0.2 0-0.3-0.1l-50.2-88q-0.1-0.1 0-0.3 0.1 0 0.2 0 0.1 0 0.1 0zm38 15.3l-37.5-14.6 49.2 86.2z"/>
						</g>
						<g id="&lt;Group&gt;">
							<path id="&lt;Compound Path&gt;" fill-rule="evenodd" class="s5" d="m853.1 57.3l50.3 88q0 0.1 0 0.2-0.1 0.1-0.2 0.1l-109.2 9.3q-0.2 0-0.3-0.1 0-0.2 0-0.3l59-97.2q0.1-0.1 0.2-0.1c0.1-0.1 0.2 0 0.2 0.1zm49.7 87.9l-49.9-87.3-58.5 96.5z"/>
						</g>
						<g id="&lt;Group&gt;">
							<path id="&lt;Compound Path&gt;" fill-rule="evenodd" class="s5" d="m891.3 72.1l115.7 19.7q0.1 0 0.2 0.1 0 0.1 0 0.3l-47.9 57.4q0 0.1-0.1 0.1c-0.1 0-0.2 0-0.2-0.1l-67.9-77.1q-0.1-0.1 0-0.3 0-0.1 0.2-0.1 0 0 0 0zm115.2 20.1l-114.6-19.5 67.2 76.4z"/>
						</g>
						<g id="&lt;Group&gt;">
							<path id="&lt;Compound Path&gt;" fill-rule="evenodd" class="s5" d="m891.5 72.2l67.8 77.1q0.1 0.1 0.1 0.3-0.1 0.1-0.3 0.1l-56-4.1c-0.1 0-0.2-0.1-0.2-0.2l-11.9-73c0-0.1 0.1-0.2 0.2-0.2q0-0.1 0.1-0.1 0.1 0 0.2 0.1zm67.1 77l-66.9-76 11.7 72z"/>
						</g>
						<g id="&lt;Group&gt;">
							<path id="&lt;Compound Path&gt;" fill-rule="evenodd" class="s5" d="m1019.1 83.7q0.2 0 0.2 0.1l14.7 50.3c0 0.1 0 0.3-0.1 0.3-0.2 0-0.3 0-0.4-0.1l-26.8-42.2c0-0.1 0-0.2 0.1-0.3l12.1-8.1q0.1 0 0.2 0 0 0 0 0zm13.9 48.9l-14.1-48.3-11.6 7.8z"/>
						</g>
						<g id="&lt;Group&gt;">
							<path id="&lt;Compound Path&gt;" fill-rule="evenodd" class="s5" d="m1007 91.8q0.1 0 0.2 0.1l26.8 42.2q0 0.1 0 0.2-0.1 0.1-0.2 0.1l-74.6 15.3c-0.1 0-0.2 0-0.3-0.1q0-0.2 0-0.3l47.9-57.4q0-0.1 0.2-0.1 0 0 0 0zm26.4 42.2l-26.5-41.6-47.1 56.7z"/>
						</g>
						<g id="&lt;Group&gt;">
							<path id="&lt;Compound Path&gt;" fill-rule="evenodd" class="s5" d="m419 20.9l109.5 20.1q0.1 0 0.2 0l42.4 48.6c0 0.1 0.1 0.2 0 0.3-0.1 0.1-0.2 0.1-0.3 0.1l-152-68.6c-0.1-0.1-0.1-0.2-0.1-0.3q0.1-0.2 0.2-0.2 0.1 0 0.1 0zm109.3 20.5l-107.5-19.7 149.2 67.4z"/>
						</g>
						<g id="&lt;Group&gt;">
							<path id="&lt;Compound Path&gt;" fill-rule="evenodd" class="s5" d="m419 20.9l152 68.7q0 0 0.1 0c0 0.1 0.1 0.2 0 0.3q-0.1 0.1-0.3 0.1l-79.1-12.1q-0.1 0-0.1 0l-72.8-56.6c-0.1 0-0.1-0.2-0.1-0.3q0.1-0.1 0.2-0.1 0.1 0 0.1 0zm150.2 68.4l-148.5-67.1 71.2 55.3z"/>
						</g>
						<g id="&lt;Group&gt;">
							<path id="&lt;Compound Path&gt;" fill-rule="evenodd" class="s5" d="m630.2 38.2q0 0.1 0 0.2l-20.8 49.7q-0.1 0.1-0.2 0.1-0.1 0.1-0.2 0l-80.7-46.8q-0.1-0.1-0.1-0.3c0-0.1 0.1-0.1 0.3-0.2l101.4-2.8q0.1 0 0.1 0 0.1 0 0.2 0.1zm-21.2 49.5l20.6-49.1-100.3 2.8z"/>
						</g>
						<g id="&lt;Group&gt;">
							<path id="&lt;Compound Path&gt;" fill-rule="evenodd" class="s5" d="m528.6 41l80.7 46.8q0.1 0.1 0.1 0.3-0.1 0.1-0.2 0.1l-38.3 1.8q-0.1 0-0.2-0.1l-42.4-48.6c-0.1-0.1-0.1-0.2 0-0.3q0-0.1 0.2-0.1 0 0 0.1 0.1zm79.7 46.8l-78.7-45.7 41.4 47.4z"/>
						</g>
						<g id="&lt;Group&gt;">
							<path id="&lt;Compound Path&gt;" fill-rule="evenodd" class="s5" d="m682 2.9q0.1 0 0.2 0.2l33.4 107.8c0.1 0.1 0 0.2-0.1 0.3-0.1 0-0.2 0-0.3 0l-85.4-72.7q-0.1-0.1-0.1-0.2 0-0.1 0.1-0.2l52-35.2q0 0 0.1 0 0.1 0 0.1 0zm32.9 107.4l-33.1-106.8-51.4 34.8z"/>
						</g>
						<g id="&lt;Group&gt;">
							<path id="&lt;Compound Path&gt;" fill-rule="evenodd" class="s5" d="m630.1 38.1l85.5 72.7c0 0.1 0.1 0.2 0 0.3 0 0.1-0.2 0.1-0.3 0.1l-106.2-23q-0.1 0-0.2-0.1 0-0.1 0-0.2l20.8-49.7q0.1-0.1 0.2-0.1 0 0 0.1 0 0.1 0 0.1 0zm84.4 72.5l-84.4-71.9-20.6 49.2z"/>
						</g>
						<g id="&lt;Group&gt;">
							<path id="&lt;Compound Path&gt;" fill-rule="evenodd" class="s5" d="m682.1 2.9l68.7 43q0 0 0.1 0.1l14.8 33.8c0.1 0.1 0 0.2-0.1 0.3-0.1 0-0.2 0-0.3-0.1l-83.6-76.7c0-0.1-0.1-0.2 0-0.3q0.1-0.1 0.2-0.1 0.1 0 0.2 0zm68.3 43.3l-66.4-41.5 80.8 74.2z"/>
						</g>
						<g id="&lt;Group&gt;">
							<path id="&lt;Compound Path&gt;" fill-rule="evenodd" class="s5" d="m682.1 3l83.6 76.7q0 0.1 0 0.2 0 0.1-0.1 0.2l-50.1 31.1q-0.1 0-0.2 0-0.1 0-0.1-0.1l-33.5-107.9c-0.1-0.1 0-0.2 0.1-0.3q0.1 0 0.1 0 0.1 0 0.2 0.1zm83 76.8l-82.7-75.9 33.1 106.7z"/>
						</g>
						<g id="&lt;Group&gt;">
							<path id="&lt;Compound Path&gt;" fill-rule="evenodd" class="s5" d="m796.7-8.7l56.4 65.9q0.1 0.2 0 0.3-0.1 0.1-0.2 0.1l-102.3-11.3q-0.1 0-0.2-0.1 0-0.2 0-0.3l45.9-54.6q0-0.1 0.2-0.1 0 0 0 0 0.1 0 0.2 0.1zm55.6 65.8l-55.8-65.3-45.4 54.1z"/>
						</g>
						<g id="&lt;Group&gt;">
							<path id="&lt;Compound Path&gt;" fill-rule="evenodd" class="s5" d="m750.7 45.9l102.2 11.3c0.2 0 0.2 0.1 0.3 0.2 0 0.1-0.1 0.2-0.2 0.2l-87.5 22.5c-0.1 0-0.2 0-0.3-0.2l-14.8-33.7q0-0.2 0-0.3 0.1 0 0.2-0.1 0 0 0.1 0.1zm100.9 11.6l-100.6-11.1 14.6 33.2z"/>
						</g>
						<g id="&lt;Group&gt;">
							<path id="&lt;Compound Path&gt;" fill-rule="evenodd" class="s5" d="m796.5-8.8l112.8 28.3q0.1 0.1 0.1 0.2 0.1 0 0 0.1l-17.9 52.6q0 0.2-0.2 0.2-0.1 0-0.2-0.1l-94.8-80.9c-0.1-0.1-0.1-0.2-0.1-0.3q0.1-0.1 0.3-0.1 0 0 0 0zm112.4 28.7l-111.5-28 93.7 80z"/>
						</g>
						<g id="&lt;Group&gt;">
							<path id="&lt;Compound Path&gt;" fill-rule="evenodd" class="s5" d="m796.6-8.8l94.8 81c0.1 0.1 0.1 0.2 0.1 0.3-0.1 0.1-0.2 0.1-0.3 0.1l-38.4-15q-0.1 0-0.1-0.1l-56.4-65.9c-0.1-0.1-0.1-0.3 0-0.4q0.1 0 0.2 0 0.1 0 0.1 0zm93.4 80.4l-91.3-78 54.4 63.6z"/>
						</g>
						<g id="&lt;Group&gt;">
							<path id="&lt;Compound Path&gt;" fill-rule="evenodd" class="s5" d="m909.3 19.5l49 12.6q0.1 0 0.1 0l48.8 59.8c0 0.1 0 0.2-0.1 0.3-0.1 0.1-0.2 0.1-0.3 0l-97.7-72.2c-0.1-0.1-0.2-0.2-0.1-0.3q0.1-0.2 0.2-0.2 0 0 0.1 0zm48.8 13l-47.8-12.2 95.3 70.4z"/>
						</g>
						<g id="&lt;Group&gt;">
							<path id="&lt;Compound Path&gt;" fill-rule="evenodd" class="s5" d="m909.4 19.6l97.7 72.2c0.1 0.1 0.1 0.2 0.1 0.3-0.1 0.1-0.2 0.2-0.3 0.1l-115.7-19.6q-0.1 0-0.1-0.1-0.1-0.1-0.1-0.2l18-52.6q0-0.1 0.1-0.2 0.1 0 0.1 0 0.1 0 0.2 0.1zm96.6 72l-96.7-71.4-17.7 52z"/>
						</g>
						<g id="&lt;Group&gt;">
							<path id="&lt;Compound Path&gt;" fill-rule="evenodd" class="s5" d="m958.3 32l88.7 2.9q0.2 0 0.3 0.1 0 0.1 0 0.3l-28 48.7q-0.1 0.1-0.2 0.1-0.1 0-0.2 0l-60.8-51.6q-0.1-0.2-0.1-0.3 0.1-0.1 0.2-0.2 0 0 0.1 0zm88.3 3.4l-87.7-2.9 60.1 51z"/>
						</g>
						<g id="&lt;Group&gt;">
							<path id="&lt;Compound Path&gt;" fill-rule="evenodd" class="s5" d="m958.4 32.1l60.8 51.6q0.1 0.1 0.1 0.2 0 0.1-0.1 0.2l-12.1 8.1c-0.1 0.1-0.3 0.1-0.3 0l-48.8-59.8c0-0.1 0-0.2 0.1-0.3q0-0.1 0.1-0.1 0.1 0 0.2 0.1zm60.3 51.8l-58.6-49.7 46.9 57.5z"/>
						</g>
						<g id="&lt;Group&gt;">
							<path id="&lt;Compound Path&gt;" fill-rule="evenodd" class="s5" d="m446.3-76.9q0.2 0 0.1 0.2l-27.2 97.9q-0.1 0.1-0.2 0.2-0.1 0-0.2-0.1l-71.5-51.6q-0.1 0-0.1-0.2 0-0.1 0.1-0.1l98.8-46.4q0 0 0.1 0 0.1 0 0.1 0.1zm-27.5 97.7l27-97.1-97.9 45.9z"/>
						</g>
						<g id="&lt;Group&gt;">
							<path id="&lt;Compound Path&gt;" fill-rule="evenodd" class="s5" d="m446.2-77l86.1 20.5c0.2 0.1 0.2 0.2 0.2 0.3l-3.8 97.4q0 0.2-0.2 0.2-0.1 0-0.3-0.1l-82.2-117.9q-0.1-0.2 0-0.3 0.1-0.1 0.2-0.1 0 0 0 0zm85.8 20.9l-85.3-20.3 81.5 116.8z"/>
						</g>
						<g id="&lt;Group&gt;">
							<path id="&lt;Compound Path&gt;" fill-rule="evenodd" class="s5" d="m446.4-76.9l82.3 118q0.1 0.1 0 0.2-0.1 0.1-0.3 0.1l-109.5-20q-0.1 0-0.2-0.1 0-0.1 0-0.2l27.2-97.9q0.1-0.2 0.2-0.2 0.1 0 0.1 0 0.1 0 0.2 0.1zm81.5 117.7l-81.6-117-27.1 97.2z"/>
						</g>
						<g id="&lt;Group&gt;">
							<path id="&lt;Compound Path&gt;" fill-rule="evenodd" class="s5" d="m532.3-56.5l113.9 28.5c0.1 0.1 0.2 0.2 0.2 0.3l-16.2 66.1q0 0.1-0.2 0.1-0.1 0.1-0.2 0l-97.7-94.6c-0.1-0.1-0.1-0.2 0-0.3q0-0.1 0.2-0.1 0 0 0 0zm113.5 28.9l-112.7-28.2 96.7 93.6z"/>
						</g>
						<g id="&lt;Group&gt;">
							<path id="&lt;Compound Path&gt;" fill-rule="evenodd" class="s5" d="m532.5-56.4l97.6 94.6q0.1 0.1 0.1 0.2-0.1 0.1-0.2 0.1l-101.5 2.9q-0.1 0-0.2-0.1-0.1 0-0.1-0.1l3.8-97.5q0-0.1 0.2-0.2 0 0 0.1 0 0.1 0 0.2 0.1zm96.9 94.5l-96.9-93.8-3.8 96.6z"/>
						</g>
						<g id="&lt;Group&gt;">
							<path id="&lt;Compound Path&gt;" fill-rule="evenodd" class="s5" d="m659.6-42.4q0.1 0 0.2 0.1l22.3 45.3c0.1 0.1 0.1 0.2 0 0.3-0.1 0.1-0.3 0.1-0.4 0l-35.7-30.9c-0.1-0.1-0.1-0.2-0.1-0.3l13.4-14.4q0.1-0.1 0.2-0.1 0 0 0.1 0zm21.6 44.6l-21.7-43.9-13 13.9z"/>
						</g>
						<g id="&lt;Group&gt;">
							<path id="&lt;Compound Path&gt;" fill-rule="evenodd" class="s5" d="m646.3-27.9l35.8 30.8q0.1 0.1 0.1 0.2 0 0.1-0.1 0.2l-52 35.2q-0.1 0.1-0.3 0-0.1-0.1-0.1-0.2l16.2-66.1q0-0.1 0.2-0.2 0 0 0 0 0.1 0 0.2 0.1zm35.2 31l-35.2-30.4-16 65.1z"/>
						</g>
						<g id="&lt;Group&gt;">
							<path id="&lt;Compound Path&gt;" fill-rule="evenodd" class="s5" d="m659.5-42.4l102 6.9q0.1 0 0.2 0.1 0 0.1 0 0.2l-10.8 81.3q0 0.2-0.2 0.2-0.1 0-0.2-0.1l-91.2-88.2q-0.1-0.1 0-0.3 0.1-0.1 0.2-0.1 0 0 0 0zm101.7 7.4l-101-6.9 90.3 87.5z"/>
						</g>
						<g id="&lt;Group&gt;">
							<path id="&lt;Compound Path&gt;" fill-rule="evenodd" class="s5" d="m659.7-42.3l91.1 88.2c0.1 0.1 0.1 0.2 0 0.3-0.1 0.1-0.2 0.1-0.3 0.1l-68.7-43q-0.1 0-0.1-0.1l-22.4-45.3c0-0.1 0-0.2 0.1-0.3q0.1 0 0.1 0 0.1 0 0.2 0.1zm89.1 87l-88.4-85.7 21.7 44z"/>
						</g>
						<g id="&lt;Group&gt;">
							<path id="&lt;Compound Path&gt;" fill-rule="evenodd" class="s5" d="m811.1-59q0.1 0.1 0.1 0.3l-14.5 50.2q0 0.1-0.2 0.1-0.1 0.1-0.2 0l-35-26.7q-0.1-0.1-0.1-0.2 0-0.1 0.2-0.2l49.4-23.5q0.1 0 0.1 0 0.1 0 0.2 0zm-14.8 50l14.2-49.4-48.6 23.2z"/>
						</g>
						<g id="&lt;Group&gt;">
							<path id="&lt;Compound Path&gt;" fill-rule="evenodd" class="s5" d="m761.6-35.4l35 26.6c0.1 0.1 0.1 0.3 0.1 0.4l-45.9 54.6c0 0.1-0.2 0.1-0.3 0.1-0.1 0-0.1-0.1-0.1-0.2l10.8-81.4q0-0.1 0.2-0.2 0 0 0.1 0 0.1 0 0.1 0.1zm34.5 26.8l-34.4-26.2-10.7 80.1z"/>
						</g>
						<g id="&lt;Group&gt;">
							<path id="&lt;Compound Path&gt;" fill-rule="evenodd" class="s5" d="m810.9-59l103.6 2q0.2 0 0.2 0.1 0.1 0 0.1 0.1l-5.3 76.6q-0.1 0.1-0.2 0.2-0.1 0-0.3-0.1l-98.2-78.5q-0.2-0.1-0.1-0.3 0.1-0.1 0.2-0.1 0 0 0 0zm103.4 2.4l-102.7-1.9 97.4 77.8z"/>
						</g>
						<g id="&lt;Group&gt;">
							<path id="&lt;Compound Path&gt;" fill-rule="evenodd" class="s5" d="m811.1-59l98.3 78.6c0.1 0.1 0.1 0.2 0 0.3 0 0.1-0.1 0.1-0.3 0.1l-112.7-28.4c-0.1 0-0.2-0.1-0.2-0.2l14.5-50.3q0-0.1 0.2-0.1 0 0 0 0 0.1 0 0.2 0zm97.1 78.3l-97.1-77.7-14.3 49.6z"/>
						</g>
						<g id="&lt;Group&gt;">
							<path id="&lt;Compound Path&gt;" fill-rule="evenodd" class="s5" d="m914.6-57l47 10.8c0.1 0 0.2 0.1 0.2 0.2l-3.3 78.3c0 0.1-0.1 0.2-0.2 0.2-0.1 0-0.2 0-0.3-0.1l-43.7-89.1q0-0.1 0-0.2 0.1-0.1 0.2-0.1 0.1 0 0.1 0zm46.6 11.2l-46.2-10.6 43 87.7z"/>
						</g>
						<g id="&lt;Group&gt;">
							<path id="&lt;Compound Path&gt;" fill-rule="evenodd" class="s5" d="m914.8-56.9l43.7 89.1q0 0.1-0.1 0.2-0.1 0.1-0.2 0.1l-49.1-12.5c-0.1 0-0.2-0.1-0.1-0.2l5.3-76.6c0-0.1 0.1-0.2 0.2-0.2q0 0 0 0 0.2 0 0.3 0.1zm43 88.8l-43.1-87.7-5.2 75.4z"/>
						</g>
					</g>
				</g>
			</g>
		</g>
	</g>
</svg>