<svg version="1.2" xmlns="http://www.w3.org/2000/svg" viewBox="0 0 1000 1000" width="1000" height="1000">
	<title>12217755_4912365</title>
	<style>
		.s0 { fill: #f5f5f5 } 
		.s1 { fill: #e6e6e6 } 
		.s2 { fill: #ffffff } 
		.s3 { fill: #ebebeb } 
		.s4 { fill: #e0e0e0 } 
		.s5 { fill: #000000 } 
		.s6 { fill: #04af73 } 
		.s7 { opacity: .2;fill: #000000 } 
		.s8 { opacity: .2;fill: #ffffff } 
		.s9 { opacity: .1;fill: #000000 } 
		.s10 { fill: #37474f } 
		.s11 { fill: #455a64 } 
		.s12 { fill: #ba68c8 } 
		.s13 { opacity: .3;fill: #ba68c8 } 
		.s14 { opacity: .2;fill: #ba68c8 } 
		.s15 { opacity: .3;fill: #ffffff } 
		.s16 { opacity: .4;fill: #ffffff } 
		.s17 { fill: #ffa8a7 } 
		.s18 { opacity: .21;fill: #000000 } 
		.s19 { fill: #263238 } 
		.s20 { opacity: .3;fill: #000000 } 
		.s21 { fill: #fafafa } 
		.s22 { fill: #f28f8f } 
		.s23 { opacity: .3;fill: #455a64 } 
	</style>
	<g id="Floor">
		<path id="&lt;Path&gt;" class="s0" d="m818.1 510.2c-176.8-102.1-462.6-102.1-638.3 0-175.6 102.1-174.7 267.6 2.1 369.7 176.8 102.1 462.6 102.1 638.3 0 175.6-102.1 174.7-267.6-2.1-369.7z"/>
	</g>
	<g id="Shadows">
		<path id="&lt;Path&gt;" class="s1" d="m877.5 666c-13.1-7.5-34.2-7.5-47.2 0-13 7.6-12.9 19.8 0.2 27.4 13 7.5 34.2 7.5 47.2 0 13-7.6 12.9-19.8-0.2-27.4z"/>
		<path id="&lt;Path&gt;" class="s1" d="m471.5 706c-64.3-37.1-168.3-37.1-232.2 0-63.9 37.2-63.5 97.4 0.8 134.5 64.3 37.2 168.3 37.2 232.2 0 63.9-37.1 63.5-97.3-0.8-134.5z"/>
		<path id="&lt;Path&gt;" class="s1" d="m739.8 626.5c-41.1-23.7-107.5-23.7-148.3 0-40.8 23.7-40.6 62.1 0.5 85.9 41.1 23.7 107.5 23.7 148.3 0 40.8-23.8 40.6-62.2-0.5-85.9z"/>
	</g>
	<g id="Plant">
		<g id="&lt;Group&gt;">
			<g id="&lt;Group&gt;">
				<path id="&lt;Path&gt;" class="s2" d="m885.7 622.6l-31.7 0.9-31.7-0.9c-1.3 21.4 2.8 43.2 8.6 53.8 1 2.3 3.1 4.6 6.3 6.4 9.3 5.4 24.4 5.4 33.7 0 3.2-1.9 5.3-4.2 6.3-6.6 5.7-10.7 9.8-32.3 8.5-53.6z"/>
				<g id="&lt;Group&gt;">
					<path id="&lt;Path&gt;" class="s3" d="m876.3 609.6c12.4 7.2 12.5 18.8 0.2 26-12.4 7.1-32.4 7.1-44.8 0-12.4-7.2-12.5-18.8-0.2-26 12.4-7.1 32.4-7.1 44.8 0z"/>
				</g>
				<g id="&lt;Group&gt;">
					<path id="&lt;Path&gt;" class="s4" d="m871.4 612.5c9.7 5.6 9.7 14.6 0.1 20.2-9.6 5.6-25.2 5.6-34.9 0-9.7-5.6-9.7-14.6-0.1-20.2 9.6-5.6 25.2-5.6 34.9 0z"/>
				</g>
				<g id="&lt;Group&gt;" style="opacity: .15">
					<path id="&lt;Path&gt;" class="s5" d="m871.4 612.5c9.7 5.6 9.7 14.6 0.1 20.2-9.6 5.6-25.2 5.6-34.9 0-9.7-5.6-9.7-14.6-0.1-20.2 9.6-5.6 25.2-5.6 34.9 0z"/>
				</g>
			</g>
			<g id="&lt;Group&gt;">
				<path id="&lt;Path&gt;" class="s6" d="m906.1 487.5c-71.4 23.3-72.1 71.1-56 105.1 4.1 6.9 16.4 10.5 27.1-31.7l-18.8 2.4 21.9-11.1 5.6-17-18.2 1.4 23.1-9.7c8.6-25.8 15.3-39.4 15.3-39.4z"/>
				<path id="&lt;Path&gt;" class="s7" d="m906.1 487.5c-71.4 23.3-72.1 71.1-56 105.1 4.1 6.9 16.4 10.5 27.1-31.7l-18.8 2.4 21.9-11.1 5.6-17-18.2 1.4 23.1-9.7c8.6-25.8 15.3-39.4 15.3-39.4z"/>
				<path id="&lt;Path&gt;" class="s8" d="m906.1 487.5c-71.4 23.3-72.1 71.1-56 105.1 4.1 6.9 16.4 10.5 27.1-31.7l-18.8 2.4 21.9-11.1 5.6-17-18.2 1.4 23.1-9.7c8.6-25.8 15.3-39.4 15.3-39.4z"/>
				<path id="&lt;Path&gt;" class="s2" d="m885.9 499.4c-37.7 28.6-41.1 61.3-30.4 95.5-3.8-30.1-7.9-60.5 30.4-95.5z"/>
			</g>
			<g id="&lt;Group&gt;">
				<path id="&lt;Path&gt;" class="s6" d="m785.2 536c70.3 9.9 78.9 54.2 69.5 88.6-2.6 7-13.4 12.5-30.4-25.1l17.9-0.9-22.2-6.6-8.1-14.9 17.2-1.8-23.2-5.2c-12.2-22.6-20.7-34.1-20.7-34.1z"/>
				<path id="&lt;Path&gt;" class="s8" d="m785.2 536c70.3 9.9 78.9 54.2 69.5 88.6-2.6 7-13.4 12.5-30.4-25.1l17.9-0.9-22.2-6.6-8.1-14.9 17.2-1.8-23.2-5.2c-12.2-22.6-20.7-34.1-20.7-34.1z"/>
				<path id="&lt;Path&gt;" class="s9" d="m785.2 536c70.3 9.9 78.9 54.2 69.5 88.6-2.6 7-13.4 12.5-30.4-25.1l17.9-0.9-22.2-6.6-8.1-14.9 17.2-1.8-23.2-5.2c-12.2-22.6-20.7-34.1-20.7-34.1z"/>
				<path id="&lt;Path&gt;" class="s2" d="m806 543.7c39.8 20.4 48.4 50.3 44.1 83.9-1.5-28.6-2.7-57.7-44.1-83.9z"/>
			</g>
			<g id="&lt;Group&gt;">
				<path id="&lt;Path&gt;" class="s6" d="m926.6 552.6c-64.5 1-77.1 40.1-72.5 72.1 1.5 6.6 10.7 12.8 30.2-19.2l-16-2.8 20.7-3.5 9-12.5-15.3-3.5 21.4-2.1c13.6-19 22.5-28.5 22.5-28.5z"/>
				<path id="&lt;Path&gt;" class="s2" d="m907 557.3c-38.1 13.8-49.2 39.9-49.2 70.6 4.6-25.6 9-51.7 49.2-70.6z"/>
				<path id="&lt;Path&gt;" class="s8" d="m926.6 552.6c-64.5 1-77.1 40.1-72.5 72.1 1.5 6.6 10.7 12.8 30.2-19.2l-16-2.8 20.7-3.5 9-12.5-15.3-3.5 21.4-2.1c13.6-19 22.5-28.5 22.5-28.5z"/>
			</g>
		</g>
	</g>
	<g id="Gears">
		<g id="&lt;Group&gt;">
			<g id="&lt;Group&gt;">
				<path id="&lt;Path&gt;" class="s4" d="m204.2 258.7l-1.6 2 15.6 9.1-3.3-12.2c-3.8 1.1-7.4 1.4-10.7 1.1z"/>
				<path id="&lt;Path&gt;" class="s4" d="m266 169.2l12.2-3.4-15.6-9.1-1.1 2.8c2 2.7 3.5 5.9 4.5 9.7z"/>
				<path id="&lt;Path&gt;" class="s4" d="m245.3 190.1q-0.1-0.7-0.2-1.4-0.1-0.4-0.2-0.8-0.1-0.5-0.3-1.1-0.1-0.4-0.3-0.7-0.2-0.6-0.4-1-0.1-0.4-0.3-0.7-0.3-0.5-0.5-0.9-0.2-0.3-0.5-0.6-0.2-0.3-0.5-0.7-0.3-0.3-0.6-0.5-0.3-0.3-0.6-0.6-0.3-0.2-0.6-0.4c-3.1-2.2-7.4-2.5-12.3-0.4q0.2 1.3 0.2 2.8 0 1.1-0.1 2.2 0 0.3-0.1 0.7 0 0.7-0.1 1.5-0.2 0.8-0.3 1.6-0.1 0.5-0.2 1.1-0.1 0.5-0.3 1-0.2 0.7-0.4 1.4-0.1 0.5-0.2 0.9-0.3 0.8-0.6 1.6-0.1 0.3-0.2 0.6-0.4 1.2-0.9 2.3 0 0.1-0.1 0.2-0.4 1-0.9 2-0.2 0.3-0.3 0.6-0.5 0.9-1 1.8-0.1 0.2-0.2 0.4-0.6 1-1.3 2-0.2 0.3-0.4 0.6-0.5 0.7-1 1.5-0.3 0.3-0.5 0.7-0.5 0.6-1 1.2-0.3 0.5-0.7 0.9-0.4 0.5-0.8 0.9-0.7 0.7-1.4 1.4-0.4 0.5-0.8 0.9-0.3 0.3-0.7 0.6-0.5 0.5-1.1 1-0.4 0.3-0.7 0.6-0.6 0.5-1.3 0.9-0.3 0.3-0.6 0.5-0.9 0.6-1.9 1.2-0.9 0.5-1.9 1-0.2 0.1-0.4 0.2-0.2 0.1-0.4 0.1c0.6 4.9 2.6 8.5 5.7 10.2q0 0 0.1 0 0.6 0.4 1.2 0.6 0.2 0.1 0.3 0.1 0.1 0 0.1 0.1 0.5 0.1 1.1 0.3 0.2 0 0.3 0 0 0 0.1 0 0.7 0.2 1.4 0.2 0.2 0 0.3 0 0 0 0.1 0 0.6 0 1.2 0 0.3 0 0.6-0.1 0 0 0 0 0.6 0 1.1-0.1 0.4-0.1 0.8-0.2 0 0 0 0 0.5-0.1 0.9-0.3 0.7-0.2 1.4-0.4 0 0 0 0 0.5-0.2 1-0.4 0.3-0.1 0.5-0.3 0.9-0.4 1.8-0.9 1-0.6 2-1.2 0.3-0.2 0.6-0.5 0.3-0.2 0.6-0.4 0.3-0.3 0.6-0.5 0.4-0.3 0.7-0.6 0.3-0.3 0.6-0.5 0.3-0.3 0.6-0.5 0.3-0.3 0.6-0.6 0.5-0.4 0.9-0.9 0.7-0.7 1.3-1.4 0.4-0.4 0.8-0.9 0 0 0 0 0.4-0.5 0.8-0.9 0 0 0 0 0.5-0.6 0.9-1.2 0 0 0 0 0.3-0.4 0.6-0.8 0 0 0 0 0.5-0.7 1-1.4 0 0 0 0 0.2-0.3 0.4-0.6 0.6-1 1.2-2.1 0.1-0.1 0.2-0.3 0.5-0.9 1-1.8 0 0 0 0 0.2-0.3 0.3-0.6 0.5-1 0.9-2 0 0 0 0 0.1-0.1 0.2-0.3 0 0 0 0 0.4-1.1 0.8-2.2 0.2-0.3 0.3-0.6 0.3-0.8 0.5-1.7 0 0 0 0 0.2-0.4 0.3-0.8 0.2-0.7 0.4-1.4 0 0 0 0 0.1-0.5 0.2-1.1 0 0 0 0 0.1-0.5 0.2-1.1 0 0 0 0 0.2-0.8 0.3-1.6 0 0 0 0 0.1-0.7 0.2-1.4 0-0.4 0.1-0.7 0-1.2 0-2.3 0-1.2-0.1-2.3 0-0.3-0.1-0.7z"/>
				<path id="&lt;Path&gt;" class="s4" d="m176.5 242.7l-4 1.1-1.7-1-5.2 13.5 17.3 10 6.3-16.2z"/>
				<path id="&lt;Path&gt;" class="s4" d="m233.5 143.4l13 7.5 10.9-13.6-17.3-10.1-9.3 11.6 1.8 1z"/>
				<path id="&lt;Path&gt;" class="s4" d="m184.8 240.4l-8.3 2.3 12.7 7.4c-1.9-2.7-3.5-5.9-4.4-9.7z"/>
				<path id="&lt;Path&gt;" class="s4" d="m235.8 152c2.5-0.7 4.9-1.1 7.2-1.1q0.2-0.1 0.4-0.1 0 0 0 0 0.7 0 1.5 0 0 0 0 0 0.6 0.1 1.1 0.1 0.3 0 0.5 0l-13-7.5z"/>
				<path id="&lt;Path&gt;" class="s4" d="m185.1 214q0 0 0 0 0.4-1.5 0.8-3 0 0 0 0 0.2-0.7 0.4-1.5 0 0 0 0 1.2-4.1 2.8-8.2l-17.4-10.1q-0.1 0.4-0.2 0.8-0.3 0.6-0.5 1.2-0.4 1.1-0.8 2.2-0.1 0.3-0.2 0.5-0.1 0.6-0.3 1.1-0.4 1.2-0.7 2.5-0.2 0.3-0.3 0.6-0.1 0.4-0.2 0.9-0.4 1.5-0.7 3-0.1 0.4-0.2 0.9-0.1 0.5-0.3 1.1l17.4 10.1q0.2-1 0.4-2.1z"/>
				<path id="&lt;Path&gt;" class="s4" d="m204 175.5q2.2-2.8 4.5-5.3 0.3-0.3 0.5-0.5 0 0 0 0 0.9-0.9 1.8-1.8 0.3-0.4 0.7-0.7 1.5-1.6 3.2-3l-17.4-10.1q-1.6 1.4-3.2 3-0.1 0.1-0.2 0.2-0.8 0.8-1.5 1.5-0.4 0.4-0.7 0.8-1.3 1.3-2.4 2.6-0.1 0.1-0.1 0.1-1.3 1.5-2.5 3.1z"/>
				<path id="&lt;Path&gt;" class="s4" d="m184.7 216.1l-17.4-10.1-12.1 10.8 17.3 10.1z"/>
				<path id="&lt;Path&gt;" class="s4" d="m172.5 226.9l-17.3-10.1v16.9l15.6 9.1 1.7 1z"/>
				<path id="&lt;Path&gt;" class="s4" d="m217.8 148.3l-17.3-10.1-3.2 15.9 17.4 10.1z"/>
				<path id="&lt;Path&gt;" class="s4" d="m232.6 139.8l-1.8-1-15.6-9.1-14.7 8.5 17.3 10.1z"/>
				<path id="&lt;Path&gt;" class="s4" d="m182.7 192.4l-17.4-10.1 6.4 8.9 17.4 10.1z"/>
				<path id="&lt;Path&gt;" class="s4" d="m204 175.5l-17.3-10.1-11-1 17.4 10z"/>
				<path id="&lt;Path&gt;" class="s4" d="m193.1 174.4l-17.4-10-10.4 17.9 17.4 10.1z"/>
				<path id="&lt;Compound Path&gt;" fill-rule="evenodd" class="s4" d="m261.6 208.3l6.4 8.9-10.3 17.9-11-0.9c-3.3 4.1-6.8 7.9-10.6 11.2l-3.2 15.9-14.7 8.5-3.3-12.2c-3.8 1.1-7.4 1.4-10.7 1.1l-1.6 2-9.3 11.6-10.4-6 6.3-16.2c-1.9-2.7-3.5-5.9-4.4-9.7l-8.3 2.3-4 1.1v-16.9l12.2-10.8q0.2-1 0.4-2.1 0.4-1.5 0.8-3 0.2-0.7 0.4-1.5 1.2-4.1 2.8-8.2l-6.4-8.9 10.4-18 10.9 1.1q2.2-2.8 4.5-5.3 0.3-0.3 0.5-0.5 0.9-0.9 1.8-1.8 0.3-0.4 0.7-0.7 1.5-1.6 3.2-3l3.1-15.9 14.8-8.5 0.9 3.6 2.3 8.6c2.5-0.7 4.9-1.1 7.2-1.1q0.2-0.1 0.4-0.1 0.7 0 1.5 0 0.6 0.1 1.1 0.1 0.3 0 0.5 0l10.9-13.6 10.4 6-5.2 13.4-1.1 2.8c2 2.7 3.5 5.9 4.5 9.7l12.2-3.4v16.9l-12.1 10.8c-1 4.9-2.5 9.9-4.5 14.8zm-16.1-15.2q0-1.2-0.1-2.3 0-0.3-0.1-0.7-0.1-0.7-0.2-1.4-0.1-0.4-0.2-0.8-0.1-0.5-0.3-1.1-0.1-0.4-0.3-0.7-0.2-0.6-0.4-1-0.1-0.4-0.3-0.7-0.3-0.5-0.5-0.9-0.2-0.3-0.5-0.6-0.2-0.3-0.5-0.7-0.3-0.3-0.6-0.5-0.3-0.3-0.6-0.6-0.3-0.2-0.6-0.4c-3.1-2.2-7.4-2.5-12.3-0.4q-1.3 0.5-2.7 1.3c-11.1 6.4-20.2 22.1-20.1 34.8q0 1.5 0.2 2.8c0.6 4.9 2.6 8.5 5.7 10.2q0 0 0.1 0 0.6 0.4 1.2 0.6 0.2 0.1 0.4 0.2 0.5 0.1 1.1 0.3 0.2 0 0.4 0 0.7 0.2 1.4 0.2 0.2 0 0.4 0 0.6 0 1.2 0 0.3 0 0.6-0.1 0.6 0 1.1-0.1 0.4-0.1 0.8-0.2 0.5-0.1 0.9-0.3 0.7-0.2 1.4-0.4 0.5-0.2 1-0.4 1.2-0.5 2.3-1.2 1-0.6 2-1.2 0.3-0.2 0.6-0.5 0.3-0.2 0.6-0.4 1-0.8 1.9-1.6 0.3-0.3 0.6-0.5 0.3-0.3 0.6-0.6 0.5-0.4 0.9-0.9 0.7-0.7 1.3-1.4 0.4-0.4 0.8-0.9 0.4-0.5 0.8-0.9 0.5-0.6 0.9-1.2 0.3-0.4 0.6-0.8 0.5-0.7 1-1.4 0.2-0.3 0.4-0.6 0.6-1 1.2-2.1 0.1-0.1 0.2-0.3 0.5-0.9 1-1.8 0.2-0.3 0.3-0.6 0.5-1 0.9-2 0.1-0.1 0.2-0.3 0.4-1.1 0.8-2.2 0.2-0.3 0.3-0.6 0.3-0.8 0.5-1.7 0.2-0.4 0.3-0.8 0.2-0.7 0.4-1.4 0.1-0.5 0.2-1.1 0.1-0.5 0.2-1.1 0.2-0.8 0.3-1.6 0.1-0.7 0.2-1.4 0.1-1.5 0.1-3z"/>
				<path id="&lt;Path&gt;" class="s7" d="m204.2 258.7l-1.6 2 15.6 9.1-3.3-12.2c-3.8 1.1-7.4 1.4-10.7 1.1z"/>
				<path id="&lt;Path&gt;" class="s7" d="m266 169.2l12.2-3.4-15.6-9.1-1.1 2.8c2 2.7 3.5 5.9 4.5 9.7z"/>
				<path id="&lt;Path&gt;" class="s7" d="m245.3 190.1q-0.1-0.7-0.2-1.4-0.1-0.4-0.2-0.8-0.1-0.5-0.3-1.1-0.1-0.4-0.3-0.7-0.2-0.6-0.4-1-0.1-0.4-0.3-0.7-0.3-0.5-0.5-0.9-0.2-0.3-0.5-0.6-0.2-0.3-0.5-0.7-0.3-0.3-0.6-0.5-0.3-0.3-0.6-0.6-0.3-0.2-0.6-0.4c-3.1-2.2-7.4-2.5-12.3-0.4q0.2 1.3 0.2 2.8 0 1.1-0.1 2.2 0 0.3-0.1 0.7 0 0.7-0.1 1.5-0.2 0.8-0.3 1.6-0.1 0.5-0.2 1.1-0.1 0.5-0.3 1-0.2 0.7-0.4 1.4-0.1 0.5-0.2 0.9-0.3 0.8-0.6 1.6-0.1 0.3-0.2 0.6-0.4 1.2-0.9 2.3 0 0.1-0.1 0.2-0.4 1-0.9 2-0.2 0.3-0.3 0.6-0.5 0.9-1 1.8-0.1 0.2-0.2 0.4-0.6 1-1.3 2-0.2 0.3-0.4 0.6-0.5 0.7-1 1.5-0.3 0.3-0.5 0.7-0.5 0.6-1 1.2-0.3 0.5-0.7 0.9-0.4 0.5-0.8 0.9-0.7 0.7-1.4 1.4-0.4 0.5-0.8 0.9-0.3 0.3-0.7 0.6-0.5 0.5-1.1 1-0.4 0.3-0.7 0.6-0.6 0.5-1.3 0.9-0.3 0.3-0.6 0.5-0.9 0.6-1.9 1.2-0.9 0.5-1.9 1-0.2 0.1-0.4 0.2-0.2 0.1-0.4 0.1c0.6 4.9 2.6 8.5 5.7 10.2q0 0 0.1 0 0.6 0.4 1.2 0.6 0.2 0.1 0.3 0.1 0.1 0 0.1 0.1 0.5 0.1 1.1 0.3 0.2 0 0.3 0 0 0 0.1 0 0.7 0.2 1.4 0.2 0.2 0 0.3 0 0 0 0.1 0 0.6 0 1.2 0 0.3 0 0.6-0.1 0 0 0 0 0.6 0 1.1-0.1 0.4-0.1 0.8-0.2 0 0 0 0 0.5-0.1 0.9-0.3 0.7-0.2 1.4-0.4 0 0 0 0 0.5-0.2 1-0.4 0.3-0.1 0.5-0.3 0.9-0.4 1.8-0.9 1-0.6 2-1.2 0.3-0.2 0.6-0.5 0.3-0.2 0.6-0.4 0.3-0.3 0.6-0.5 0.4-0.3 0.7-0.6 0.3-0.3 0.6-0.5 0.3-0.3 0.6-0.5 0.3-0.3 0.6-0.6 0.5-0.4 0.9-0.9 0.7-0.7 1.3-1.4 0.4-0.4 0.8-0.9 0 0 0 0 0.4-0.5 0.8-0.9 0 0 0 0 0.5-0.6 0.9-1.2 0 0 0 0 0.3-0.4 0.6-0.8 0 0 0 0 0.5-0.7 1-1.4 0 0 0 0 0.2-0.3 0.4-0.6 0.6-1 1.2-2.1 0.1-0.1 0.2-0.3 0.5-0.9 1-1.8 0 0 0 0 0.2-0.3 0.3-0.6 0.5-1 0.9-2 0 0 0 0 0.1-0.1 0.2-0.3 0 0 0 0 0.4-1.1 0.8-2.2 0.2-0.3 0.3-0.6 0.3-0.8 0.5-1.7 0 0 0 0 0.2-0.4 0.3-0.8 0.2-0.7 0.4-1.4 0 0 0 0 0.1-0.5 0.2-1.1 0 0 0 0 0.1-0.5 0.2-1.1 0 0 0 0 0.2-0.8 0.3-1.6 0 0 0 0 0.1-0.7 0.2-1.4 0-0.4 0.1-0.7 0-1.2 0-2.3 0-1.2-0.1-2.3 0-0.3-0.1-0.7z"/>
				<path id="&lt;Path&gt;" class="s7" d="m176.5 242.7l-4 1.1-1.7-1-5.2 13.5 17.3 10 6.3-16.2z"/>
				<path id="&lt;Path&gt;" class="s7" d="m184.8 240.4l-8.3 2.3 12.7 7.4c-1.9-2.7-3.5-5.9-4.4-9.7z"/>
				<path id="&lt;Path&gt;" class="s7" d="m235.8 152c2.5-0.7 4.9-1.1 7.2-1.1q0.2-0.1 0.4-0.1 0 0 0 0 0.7 0 1.5 0 0 0 0 0 0.6 0.1 1.1 0.1 0.3 0 0.5 0l-13-7.5z"/>
				<path id="&lt;Path&gt;" class="s7" d="m185.1 214q0 0 0 0 0.4-1.5 0.8-3 0 0 0 0 0.2-0.7 0.4-1.5 0 0 0 0 1.2-4.1 2.8-8.2l-17.4-10.1q-0.1 0.4-0.2 0.8-0.3 0.6-0.5 1.2-0.4 1.1-0.8 2.2-0.1 0.3-0.2 0.5-0.1 0.6-0.3 1.1-0.4 1.2-0.7 2.5-0.2 0.3-0.3 0.6-0.1 0.4-0.2 0.9-0.4 1.5-0.7 3-0.1 0.4-0.2 0.9-0.1 0.5-0.3 1.1l17.4 10.1q0.2-1 0.4-2.1z"/>
				<path id="&lt;Path&gt;" class="s7" d="m172.5 226.9l-17.3-10.1v16.9l15.6 9.1 1.7 1z"/>
				<path id="&lt;Path&gt;" class="s7" d="m217.8 148.3l-17.3-10.1-3.2 15.9 17.4 10.1z"/>
				<path id="&lt;Path&gt;" class="s7" d="m182.7 192.4l-17.4-10.1 6.4 8.9 17.4 10.1z"/>
				<path id="&lt;Path&gt;" class="s7" d="m204 175.5l-17.3-10.1-11-1 17.4 10z"/>
				<path id="&lt;Path&gt;" class="s8" d="m233.5 143.4l13 7.5 10.9-13.6-17.3-10.1-9.3 11.6 1.8 1z"/>
				<path id="&lt;Path&gt;" class="s8" d="m204 175.5q2.2-2.8 4.5-5.3 0.3-0.3 0.5-0.5 0 0 0 0 0.9-0.9 1.8-1.8 0.3-0.4 0.7-0.7 1.5-1.6 3.2-3l-17.4-10.1q-1.6 1.4-3.2 3-0.1 0.1-0.2 0.2-0.8 0.8-1.5 1.5-0.4 0.4-0.7 0.8-1.3 1.3-2.4 2.6-0.1 0.1-0.1 0.1-1.3 1.5-2.5 3.1z"/>
				<path id="&lt;Path&gt;" class="s8" d="m184.7 216.1l-17.4-10.1-12.1 10.8 17.3 10.1z"/>
				<path id="&lt;Path&gt;" class="s8" d="m232.6 139.8l-1.8-1-15.6-9.1-14.7 8.5 17.3 10.1z"/>
				<path id="&lt;Path&gt;" class="s8" d="m193.1 174.4l-17.4-10-10.4 17.9 17.4 10.1z"/>
			</g>
			<g id="&lt;Group&gt;">
				<path id="&lt;Path&gt;" class="s4" d="m326.3 200l-1.2 1.5 11 6.4-2.3-8.6c-2.6 0.7-5.2 1-7.5 0.7z"/>
				<path id="&lt;Path&gt;" class="s4" d="m370 136.7l8.6-2.4-11-6.4-0.8 2q2.1 2.8 3.2 6.8z"/>
				<path id="&lt;Path&gt;" class="s4" d="m355.3 151.5q0-0.5-0.1-1-0.1-0.2-0.1-0.5-0.1-0.4-0.3-0.8 0-0.3-0.2-0.5-0.1-0.4-0.2-0.8-0.2-0.2-0.3-0.4-0.2-0.3-0.3-0.6-0.2-0.3-0.4-0.5-0.1-0.2-0.4-0.5-0.1-0.2-0.3-0.3-0.2-0.3-0.5-0.5-0.2-0.1-0.4-0.3c-2.2-1.5-5.3-1.7-8.7-0.2q0.1 0.9 0.1 1.9 0 0.8 0 1.6-0.1 0.3-0.1 0.5 0 0.5-0.1 1-0.1 0.6-0.2 1.2-0.1 0.4-0.2 0.8 0 0.3-0.1 0.7-0.2 0.5-0.3 1-0.1 0.3-0.2 0.6-0.2 0.6-0.4 1.1 0 0.3-0.1 0.5-0.3 0.8-0.7 1.6 0 0.1 0 0.2-0.4 0.6-0.7 1.3-0.1 0.3-0.2 0.5-0.4 0.6-0.7 1.2-0.1 0.2-0.2 0.3-0.4 0.7-0.9 1.5-0.1 0.2-0.2 0.4-0.4 0.5-0.7 1-0.2 0.3-0.4 0.5-0.4 0.5-0.7 0.9-0.3 0.3-0.5 0.6-0.3 0.4-0.6 0.7-0.4 0.5-0.9 1-0.3 0.3-0.6 0.6-0.3 0.2-0.5 0.4-0.4 0.4-0.8 0.7-0.3 0.2-0.5 0.4-0.5 0.4-0.9 0.7-0.2 0.2-0.4 0.3-0.7 0.5-1.4 0.9-0.7 0.4-1.3 0.7-0.2 0-0.3 0.1-0.2 0.1-0.3 0.1c0.4 3.5 1.9 6 4.1 7.2q0 0 0 0 0.4 0.3 0.9 0.5 0.1 0 0.2 0 0 0 0 0 0.4 0.2 0.8 0.3 0.1 0 0.2 0 0.1 0 0.1 0 0.5 0.1 1 0.1 0.1 0 0.2 0 0 0 0.1 0 0.4 0.1 0.8 0 0.2 0 0.4 0 0.1 0 0.1 0 0.3-0.1 0.7-0.1 0.3-0.1 0.6-0.2 0 0 0 0 0.3 0 0.6-0.1 0.5-0.2 1-0.4 0 0 0 0 0.4-0.1 0.7-0.3 0.2 0 0.4-0.1 0.6-0.3 1.3-0.7 0.7-0.4 1.3-0.9 0.2-0.1 0.5-0.3 0.2-0.1 0.4-0.3 0.2-0.2 0.5-0.3 0.2-0.2 0.4-0.4 0.3-0.2 0.5-0.4 0.2-0.2 0.4-0.4 0.2-0.2 0.4-0.4 0.3-0.3 0.6-0.6 0.5-0.5 1-1 0.3-0.3 0.5-0.6 0 0 0 0 0.3-0.4 0.6-0.7 0 0 0 0 0.3-0.4 0.6-0.8 0 0 0 0 0.2-0.3 0.4-0.6 0 0 0 0 0.4-0.5 0.7-1 0 0 0 0 0.2-0.2 0.3-0.4 0 0 0 0 0.5-0.7 0.9-1.5 0.1-0.1 0.2-0.2 0.3-0.7 0.6-1.3 0 0 0 0 0.2-0.2 0.3-0.4 0.3-0.7 0.6-1.4 0 0 0 0 0.1-0.1 0.1-0.2 0.3-0.8 0.6-1.6 0.1-0.2 0.2-0.4 0.2-0.6 0.4-1.2 0 0 0 0 0.1-0.3 0.2-0.6 0.1-0.5 0.2-1 0 0 0 0 0.1-0.4 0.2-0.7 0 0 0 0 0.1-0.4 0.2-0.8 0 0 0 0 0.1-0.6 0.2-1.1 0 0 0 0 0-0.6 0.1-1.1 0-0.2 0-0.5 0.1-0.8 0.1-1.5 0-0.9-0.1-1.7 0-0.2-0.1-0.5z"/>
				<path id="&lt;Path&gt;" class="s4" d="m306.6 188.7l-2.7 0.8-1.3-0.7-3.7 9.5 12.3 7.1 4.5-11.4z"/>
				<path id="&lt;Path&gt;" class="s4" d="m347 118.5l9.2 5.3 7.7-9.6-12.3-7.2-6.5 8.2 1.2 0.7z"/>
				<path id="&lt;Path&gt;" class="s4" d="m312.5 187.1l-5.9 1.6 9.1 5.3q-2.1-2.9-3.2-6.9z"/>
				<path id="&lt;Path&gt;" class="s4" d="m348.6 124.5q2.7-0.7 5.1-0.8 0.1 0 0.3 0 0.5 0 1 0 0 0 0 0 0.4 0.1 0.9 0.1 0.1 0 0.3 0l-9.2-5.3z"/>
				<path id="&lt;Path&gt;" class="s4" d="m312.8 168.4q0 0 0 0 0.2-1 0.5-2.1 0 0 0 0 0.1-0.5 0.3-1 0 0 0 0 0.8-3 2-5.9l-12.3-7.1q-0.1 0.3-0.2 0.5-0.2 0.5-0.3 0.9-0.3 0.8-0.6 1.6-0.1 0.2-0.1 0.3-0.1 0.4-0.2 0.8-0.3 0.9-0.6 1.7-0.1 0.3-0.1 0.5-0.1 0.3-0.2 0.6-0.3 1.1-0.5 2.1-0.1 0.3-0.1 0.6-0.1 0.5-0.2 0.9l12.2 7.1q0.2-0.7 0.4-1.5z"/>
				<path id="&lt;Path&gt;" class="s4" d="m326.1 141.1q1.6-1.9 3.2-3.7 0.2-0.2 0.4-0.3 0-0.1 0-0.1 0.6-0.6 1.2-1.2 0.2-0.3 0.5-0.5 1.1-1.1 2.3-2.1l-12.3-7.2q-1.2 1.1-2.3 2.1-0.1 0.1-0.2 0.2-0.5 0.5-1 1.1-0.2 0.2-0.5 0.5-0.9 0.9-1.7 1.9 0 0 0 0-1 1.1-1.9 2.2z"/>
				<path id="&lt;Path&gt;" class="s4" d="m312.4 169.9l-12.2-7.1-8.6 7.6 12.2 7.1z"/>
				<path id="&lt;Path&gt;" class="s4" d="m303.8 177.5l-12.2-7.1v11.9l11 6.5 1.3 0.7z"/>
				<path id="&lt;Path&gt;" class="s4" d="m335.9 121.9l-12.3-7.1-2.2 11.2 12.3 7.2z"/>
				<path id="&lt;Path&gt;" class="s4" d="m346.3 115.9l-1.2-0.7-11.1-6.4-10.4 6 12.3 7.1z"/>
				<path id="&lt;Path&gt;" class="s4" d="m311 153.1l-12.2-7.1 4.5 6.3 12.3 7.1z"/>
				<path id="&lt;Path&gt;" class="s4" d="m326.1 141.1l-12.3-7.1-7.7-0.7 12.3 7.1z"/>
				<path id="&lt;Path&gt;" class="s7" d="m326.3 200l-1.2 1.5 11 6.4-2.3-8.6c-2.6 0.7-5.2 1-7.5 0.7z"/>
				<path id="&lt;Path&gt;" class="s7" d="m370 136.7l8.6-2.4-11-6.4-0.8 2q2.1 2.8 3.2 6.8z"/>
				<path id="&lt;Path&gt;" class="s7" d="m355.3 151.5q0-0.5-0.1-1-0.1-0.2-0.1-0.5-0.1-0.4-0.3-0.8 0-0.3-0.2-0.5-0.1-0.4-0.2-0.8-0.2-0.2-0.3-0.4-0.2-0.3-0.3-0.6-0.2-0.3-0.4-0.5-0.1-0.2-0.4-0.5-0.1-0.2-0.3-0.3-0.2-0.3-0.5-0.5-0.2-0.1-0.4-0.3c-2.2-1.5-5.3-1.7-8.7-0.2q0.1 0.9 0.1 1.9 0 0.8 0 1.6-0.1 0.3-0.1 0.5 0 0.5-0.1 1-0.1 0.6-0.2 1.2-0.1 0.4-0.2 0.8 0 0.3-0.1 0.7-0.2 0.5-0.3 1-0.1 0.3-0.2 0.6-0.2 0.6-0.4 1.1 0 0.3-0.1 0.5-0.3 0.8-0.7 1.6 0 0.1 0 0.2-0.4 0.6-0.7 1.3-0.1 0.3-0.2 0.5-0.4 0.6-0.7 1.2-0.1 0.2-0.2 0.3-0.4 0.7-0.9 1.5-0.1 0.2-0.2 0.4-0.4 0.5-0.7 1-0.2 0.3-0.4 0.5-0.4 0.5-0.7 0.9-0.3 0.3-0.5 0.6-0.3 0.4-0.6 0.7-0.4 0.5-0.9 1-0.3 0.3-0.6 0.6-0.3 0.2-0.5 0.4-0.4 0.4-0.8 0.7-0.3 0.2-0.5 0.4-0.5 0.4-0.9 0.7-0.2 0.2-0.4 0.3-0.7 0.5-1.4 0.9-0.7 0.4-1.3 0.7-0.2 0-0.3 0.1-0.2 0.1-0.3 0.1c0.4 3.5 1.9 6 4.1 7.2q0 0 0 0 0.4 0.3 0.9 0.5 0.1 0 0.2 0 0 0 0 0 0.4 0.2 0.8 0.3 0.1 0 0.2 0 0.1 0 0.1 0 0.5 0.1 1 0.1 0.1 0 0.2 0 0 0 0.1 0 0.4 0.1 0.8 0 0.2 0 0.4 0 0.1 0 0.1 0 0.3-0.1 0.7-0.1 0.3-0.1 0.6-0.2 0 0 0 0 0.3 0 0.6-0.1 0.5-0.2 1-0.4 0 0 0 0 0.4-0.1 0.7-0.3 0.2 0 0.4-0.1 0.6-0.3 1.3-0.7 0.7-0.4 1.3-0.9 0.2-0.1 0.5-0.3 0.2-0.1 0.4-0.3 0.2-0.2 0.5-0.3 0.2-0.2 0.4-0.4 0.3-0.2 0.5-0.4 0.2-0.2 0.4-0.4 0.2-0.2 0.4-0.4 0.3-0.3 0.6-0.6 0.5-0.5 1-1 0.3-0.3 0.5-0.6 0 0 0 0 0.3-0.4 0.6-0.7 0 0 0 0 0.3-0.4 0.6-0.8 0 0 0 0 0.2-0.3 0.4-0.6 0 0 0 0 0.4-0.5 0.7-1 0 0 0 0 0.2-0.2 0.3-0.4 0 0 0 0 0.5-0.7 0.9-1.5 0.1-0.1 0.2-0.2 0.3-0.7 0.6-1.3 0 0 0 0 0.2-0.2 0.3-0.4 0.3-0.7 0.6-1.4 0 0 0 0 0.1-0.1 0.1-0.2 0.3-0.8 0.6-1.6 0.1-0.2 0.2-0.4 0.2-0.6 0.4-1.2 0 0 0 0 0.1-0.3 0.2-0.6 0.1-0.5 0.2-1 0 0 0 0 0.1-0.4 0.2-0.7 0 0 0 0 0.1-0.4 0.2-0.8 0 0 0 0 0.1-0.6 0.2-1.1 0 0 0 0 0-0.6 0.1-1.1 0-0.2 0-0.5 0.1-0.8 0.1-1.5 0-0.9-0.1-1.7 0-0.2-0.1-0.5z"/>
				<path id="&lt;Path&gt;" class="s7" d="m306.6 188.7l-2.7 0.8-1.3-0.7-3.7 9.5 12.3 7.1 4.5-11.4z"/>
				<path id="&lt;Path&gt;" class="s7" d="m312.5 187.1l-5.9 1.6 9.1 5.3q-2.1-2.9-3.2-6.9z"/>
				<path id="&lt;Path&gt;" class="s7" d="m348.6 124.5q2.7-0.7 5.1-0.8 0.1 0 0.3 0 0.5 0 1 0 0 0 0 0 0.4 0.1 0.9 0.1 0.1 0 0.3 0l-9.2-5.3z"/>
				<path id="&lt;Path&gt;" class="s7" d="m312.8 168.4q0 0 0 0 0.2-1 0.5-2.1 0 0 0 0 0.1-0.5 0.3-1 0 0 0 0 0.8-3 2-5.9l-12.3-7.1q-0.1 0.3-0.2 0.5-0.2 0.5-0.3 0.9-0.3 0.8-0.6 1.6-0.1 0.2-0.1 0.3-0.1 0.4-0.2 0.8-0.3 0.9-0.6 1.7-0.1 0.3-0.1 0.5-0.1 0.3-0.2 0.6-0.3 1.1-0.5 2.1-0.1 0.3-0.1 0.6-0.1 0.5-0.2 0.9l12.2 7.1q0.2-0.7 0.4-1.5z"/>
				<path id="&lt;Path&gt;" class="s7" d="m303.8 177.5l-12.2-7.1v11.9l11 6.5 1.3 0.7z"/>
				<path id="&lt;Path&gt;" class="s7" d="m335.9 121.9l-12.3-7.1-2.2 11.2 12.3 7.2z"/>
				<path id="&lt;Path&gt;" class="s7" d="m311 153.1l-12.2-7.1 4.5 6.3 12.3 7.1z"/>
				<path id="&lt;Path&gt;" class="s7" d="m326.1 141.1l-12.3-7.1-7.7-0.7 12.3 7.1z"/>
				<path id="&lt;Path&gt;" class="s4" d="m318.4 140.4l-12.3-7.1-7.3 12.7 12.2 7.1z"/>
				<path id="&lt;Path&gt;" class="s8" d="m347 118.5l9.2 5.3 7.7-9.6-12.3-7.2-6.5 8.2 1.2 0.7z"/>
				<path id="&lt;Path&gt;" class="s8" d="m326.1 141.1q1.6-1.9 3.2-3.7 0.2-0.2 0.4-0.3 0-0.1 0-0.1 0.6-0.6 1.2-1.2 0.2-0.3 0.5-0.5 1.1-1.1 2.3-2.1l-12.3-7.2q-1.2 1.1-2.3 2.1-0.1 0.1-0.2 0.2-0.5 0.5-1 1.1-0.2 0.2-0.5 0.5-0.9 0.9-1.7 1.9 0 0 0 0-1 1.1-1.9 2.2z"/>
				<path id="&lt;Path&gt;" class="s8" d="m312.4 169.9l-12.2-7.1-8.6 7.6 12.2 7.1z"/>
				<path id="&lt;Path&gt;" class="s8" d="m346.3 115.9l-1.2-0.7-11.1-6.4-10.4 6 12.3 7.1z"/>
				<path id="&lt;Path&gt;" class="s8" d="m318.4 140.4l-12.3-7.1-7.3 12.7 12.2 7.1z"/>
				<path id="&lt;Compound Path&gt;" fill-rule="evenodd" class="s4" d="m366.9 164.4l4.5 6.3-7.3 12.7-7.8-0.7c-2.3 2.9-4.8 5.6-7.5 7.9l-2.2 11.3-10.5 6-2.3-8.6c-2.6 0.7-5.2 1-7.5 0.7l-1.2 1.5-6.5 8.1-7.4-4.2 4.5-11.4q-2.1-2.9-3.2-6.9l-5.9 1.6-2.7 0.8-0.1-12 8.6-7.6q0.2-0.7 0.4-1.5 0.2-1 0.5-2.1 0.1-0.5 0.3-1 0.8-3 2-5.9l-4.6-6.3 7.4-12.7 7.7 0.7q1.6-1.9 3.2-3.7 0.2-0.2 0.4-0.4 0.6-0.6 1.2-1.2 0.2-0.3 0.5-0.5 1.1-1.1 2.3-2.1l2.2-11.3 10.4-6 0.7 2.6 1.6 6q2.7-0.7 5.1-0.8 0.1 0 0.3 0 0.5 0 1 0 0.4 0 0.9 0.1 0.1 0 0.3 0l7.7-9.6 7.4 4.2-3.7 9.5-0.8 2q2.1 2.8 3.2 6.8l8.6-2.4v12l-8.6 7.6c-0.7 3.5-1.7 7-3.1 10.5zm-11.4-10.7q0-0.9-0.1-1.7 0-0.2-0.1-0.5 0-0.5-0.1-1-0.1-0.2-0.1-0.5-0.1-0.4-0.3-0.8 0-0.3-0.2-0.5-0.1-0.4-0.2-0.8-0.2-0.2-0.3-0.4-0.2-0.3-0.3-0.6-0.2-0.3-0.4-0.5-0.1-0.2-0.4-0.5-0.1-0.2-0.3-0.3-0.2-0.3-0.5-0.5-0.2-0.1-0.4-0.3c-2.2-1.5-5.3-1.7-8.7-0.2q-0.9 0.3-1.9 0.9c-7.9 4.5-14.3 15.6-14.3 24.6q0.1 1.1 0.2 2c0.4 3.5 1.9 6 4.1 7.2q0 0 0 0 0.4 0.3 0.9 0.5 0.1 0 0.2 0 0.4 0.2 0.8 0.3 0.1 0 0.3 0 0.5 0.1 1 0.1 0.1 0 0.3 0 0.4 0.1 0.8 0 0.3 0 0.5 0 0.3-0.1 0.7-0.1 0.3-0.1 0.6-0.2 0.3 0 0.6-0.1 0.5-0.2 1-0.4 0.4-0.1 0.7-0.3 0.8-0.3 1.7-0.8 0.7-0.4 1.3-0.9 0.2-0.1 0.5-0.3 0.2-0.1 0.4-0.3 0.7-0.5 1.4-1.1 0.2-0.2 0.4-0.4 0.2-0.2 0.4-0.4 0.3-0.3 0.6-0.6 0.5-0.5 1-1 0.3-0.3 0.5-0.6 0.3-0.4 0.6-0.7 0.3-0.4 0.6-0.8 0.2-0.3 0.4-0.6 0.4-0.5 0.7-1 0.2-0.2 0.3-0.4 0.5-0.7 0.9-1.5 0.1-0.1 0.2-0.2 0.3-0.7 0.6-1.3 0.2-0.2 0.3-0.4 0.3-0.7 0.6-1.4 0.1-0.1 0.1-0.2 0.3-0.8 0.6-1.6 0.1-0.2 0.2-0.4 0.2-0.6 0.4-1.2 0.1-0.3 0.2-0.6 0.1-0.5 0.2-1 0.1-0.4 0.2-0.7 0.1-0.4 0.2-0.8 0.1-0.6 0.2-1.1 0-0.6 0.1-1.1 0.1-1 0.1-2z"/>
			</g>
		</g>
	</g>
	<g id="Light bulb 2">
		<g id="freepik--light-bulb--inject-77 2 ">
			<g id="freepik--Idea--inject-77 2 ">
				<g id="freepik--light--inject-77 2 ">
					<path id="&lt;Path&gt;" class="s10" d="m602.6 180.2c0.1 3.9-3 7.1-6.9 7.2-3.9 0.1-7.1-3-7.2-6.9 0-3.9 3.1-7.1 7-7.2 3.9-0.1 7.1 3 7.1 6.9q0 0 0 0z"/>
					<path id="&lt;Path&gt;" class="s11" d="m587 181c-4.7-2.6-4.8-7-0.1-9.8 5.3-2.8 11.6-2.9 17-0.3 4.7 2.7 4.7 7 0.1 9.8-5.3 2.8-11.6 2.9-17 0.3z"/>
					<path id="&lt;Path&gt;" class="s10" d="m586.7 178.4c-4.8-2.7-4.9-7.2-0.1-10.1 5.4-2.8 11.9-2.9 17.5-0.2 4.8 2.7 4.9 7.2 0.1 10-5.4 2.9-11.9 3-17.5 0.3z"/>
					<path id="&lt;Path&gt;" class="s11" d="m586.4 175.8c-5-2.8-5-7.4-0.1-10.2 5.6-3 12.3-3.1 18-0.3 5 2.8 5.1 7.4 0.2 10.4-5.7 2.9-12.4 3-18.1 0.1z"/>
					<path id="&lt;Path&gt;" class="s10" d="m586.1 173.1c-5.2-2.9-5.2-7.7-0.2-10.7 5.8-3.1 12.7-3.2 18.6-0.3 5.2 2.9 5.3 7.7 0.2 10.7-5.8 3-12.7 3.2-18.6 0.3z"/>
					<path id="&lt;Path&gt;" class="s11" d="m585.8 170.3c-5.3-3.1-5.4-7.9-0.2-11 6-3.1 13-3.2 19-0.3 5.3 3 5.4 7.9 0.2 11-5.9 3.1-13 3.2-19 0.3z"/>
					<path id="&lt;Path&gt;" class="s12" d="m594 87.7c-18.5 0.2-33.4 15.5-33.1 34q0 0.1 0 0.2c0.4 26.7 22.5 30.8 22.7 41.6 0.2 2.1 1.5 3.8 3.5 4.7 5.2 2.5 11.3 2.4 16.4-0.3 1.9-0.9 3.1-2.7 3.3-4.8-0.2-10.7 21.8-15.5 21.3-42.3-0.2-18.5-15.4-33.4-34-33.1q0 0-0.1 0z"/>
					<g id="&lt;Group&gt;" style="opacity: .6">
						<path id="&lt;Path&gt;" class="s2" d="m594 87.7c-18.5 0.2-33.4 15.5-33.1 34q0 0.1 0 0.2c0.4 26.7 22.5 30.8 22.7 41.6 0.2 2.1 1.5 3.8 3.5 4.7 5.2 2.5 11.3 2.4 16.4-0.3 1.9-0.9 3.1-2.7 3.3-4.8-0.2-10.7 21.8-15.5 21.3-42.3-0.2-18.5-15.4-33.4-34-33.1q0 0-0.1 0z"/>
					</g>
					<path id="&lt;Path&gt;" class="s12" d="m589.1 166.8c-3.3-2-3.5-5.1-0.2-7.1 3.9-2.1 8.5-2.1 12.4-0.2 3.3 1.9 3.5 5.1 0.1 7.1-3.9 2-8.4 2.1-12.3 0.2z"/>
					<path id="&lt;Compound Path&gt;" fill-rule="evenodd" class="s2" d="m599.7 162.2c-0.6 0-1.1-0.5-1.1-1.1-0.1-6.5 0.6-12.9 2-19.2q0.6-2.8 1.6-5.4-1.5-0.6-2.9-1.4c-1.7-1.1-3.3-2.3-4.6-3.8q-1.9 2.2-4.4 3.8-1.4 0.9-2.9 1.5 1.1 2.6 1.8 5.3c1.6 6.3 2.5 12.7 2.6 19.2 0 0.7-0.5 1.2-1.1 1.2-0.7-0.1-1.2-0.6-1.2-1.2-0.1-6.3-1-12.5-2.6-18.6q-0.6-2.7-1.7-5.3c-2.3 0.5-4.7-0.2-6.4-1.8-1.4-1.2-1.6-3.2-0.6-4.7 0.7-1 1.9-1.6 3.1-1.3 2.4 0.8 4.3 2.7 5.1 5.1q1.4-0.5 2.6-1.3c1.6-1 3.1-2.3 4.3-3.7-1.5-1.8-2.1-4.2-1.8-6.4 0.3-1.4 1.6-2.4 3-2.4 1.5 0 2.8 0.9 3.1 2.3 0.4 2.2-0.1 4.6-1.5 6.4 1.2 1.4 2.7 2.7 4.3 3.6q1.3 0.8 2.7 1.2c0.8-2.4 2.6-4.3 4.9-5.3 1.3-0.2 2.5 0.3 3.2 1.4 1 1.4 0.8 3.4-0.5 4.7-1.6 1.6-4 2.4-6.3 2q-1 2.6-1.6 5.3c-1.4 6.2-2.1 12.4-2 18.7 0 0.6-0.5 1.2-1.1 1.2zm-19-30.5c-0.3 0-0.5 0.1-0.6 0.4-0.6 0.7 0.1 1.6 0.3 1.8 1 0.9 2.3 1.3 3.7 1.1-0.6-1.5-1.8-2.7-3.2-3.4zm24.7 3.2c1.4 0.1 2.7-0.4 3.7-1.3 0.2-0.2 0.8-1.1 0.3-1.8-0.4-0.5-0.7-0.5-0.9-0.4-0.7 0.1-1.9 1.2-3.1 3.5zm-10.8-11.7c-0.4 0-0.8 0.2-0.9 0.7q0 0 0 0c-0.1 1.3 0.2 2.6 0.9 3.7 0.8-1.1 1-2.5 0.9-3.8-0.1-0.4-0.5-0.7-0.9-0.6q0 0 0 0z"/>
				</g>
				<path id="&lt;Path&gt;" class="s4" d="m594 74.9q-0.2 0.1-0.5 0.1c-1.3 0-2.3-0.9-2.3-2.1l-0.2-11.5c-0.1-1.2 0.9-2.2 2.1-2.2q0 0 0 0c1.2-0.1 2.2 0.9 2.3 2.1l0.2 11.5c0 1-0.6 1.8-1.6 2.1z"/>
				<path id="&lt;Path&gt;" class="s4" d="m569.7 82c-0.9 0.3-2-0.1-2.5-0.9l-5.9-9.8c-0.6-1.1-0.2-2.4 0.9-3 1-0.5 2.2-0.2 2.8 0.7l6 9.8c0.6 1 0.3 2.4-0.8 3q-0.2 0.2-0.5 0.2z"/>
				<path id="&lt;Path&gt;" class="s4" d="m552.2 100.3c-0.5 0.2-1.2 0.2-1.7-0.1l-10-5.6c-1.1-0.5-1.5-1.9-0.9-2.9 0.6-1.1 1.9-1.5 3-0.9l10 5.5c1.1 0.6 1.5 1.9 0.9 3-0.3 0.5-0.7 0.9-1.3 1z"/>
				<path id="&lt;Path&gt;" class="s4" d="m546.2 124.9q-0.2 0.2-0.5 0.3l-11.5 0.2c-1.2 0-2.2-0.9-2.2-2.1q0 0 0 0c-0.1-1.2 0.9-2.3 2.1-2.3q0 0 0 0l11.5-0.4c1.2 0 2.2 1 2.1 2.3 0 0.9-0.6 1.7-1.5 2z"/>
				<path id="&lt;Path&gt;" class="s4" d="m655.5 122.5q-0.2 0.2-0.5 0.2l-11.5 0.2c-1.2 0-2.2-1-2.3-2.2 0-1.2 1-2.2 2.2-2.2l11.5-0.3c1.2 0 2.2 1 2.1 2.3 0 0.9-0.6 1.7-1.5 2z"/>
				<path id="&lt;Path&gt;" class="s4" d="m637 98.5c-1.2 0.3-2.4-0.4-2.8-1.6-0.2-0.9 0.2-1.9 1-2.4l9.8-6c1-0.6 2.4-0.3 3 0.7q0 0 0 0.1c0.6 1 0.3 2.3-0.7 3q0 0 0 0l-9.8 5.9q-0.3 0.2-0.5 0.3z"/>
				<path id="&lt;Path&gt;" class="s4" d="m618.7 80.9c-1.2 0.4-2.4-0.3-2.8-1.4-0.1-0.6-0.1-1.2 0.2-1.7l5.6-10c0.6-1 2-1.2 3-0.6 0.9 0.6 1.2 1.8 0.8 2.8l-5.5 10c-0.3 0.5-0.8 0.8-1.3 0.9z"/>
			</g>
		</g>
	</g>
	<g id="Light bulb 1">
		<g id="&lt;Group&gt;">
			<g id="&lt;Group&gt;">
				<g id="&lt;Group&gt;">
					<g id="&lt;Group&gt;">
						<g id="&lt;Group&gt;">
							<path id="&lt;Path&gt;" class="s12" d="m159 497.5q0 0-0.1 0c-1.1-0.1-1.9-0.9-2-2l-7.1-92.4 4.3-0.3 5.9 77.8 30.8-141.4c0.2-0.8 0.9-1.5 1.8-1.6 0.9-0.2 1.7 0.2 2.2 1l56.4 93.2 37.5-171.5c0.2-0.9 1-1.5 1.9-1.6 0.9-0.2 1.8 0.4 2.2 1.2l54.9 118.7 35.6-105.9 4.1 1.4-37.3 111c-0.3 0.9-1.1 1.5-1.9 1.5-0.9 0.1-1.7-0.4-2.1-1.2l-54.6-117.9-37.3 170.5c-0.2 0.9-0.8 1.6-1.7 1.7-0.9 0.1-1.8-0.3-2.2-1l-56.4-93.3-32.8 150.4c-0.2 1-1.1 1.7-2.1 1.7z"/>
						</g>
						<g id="&lt;Group&gt;" style="opacity: .2">
							<path id="&lt;Path&gt;" class="s5" d="m159 497.5q0 0-0.1 0c-1.1-0.1-1.9-0.9-2-2l-7.1-92.4 4.3-0.3 5.9 77.8 30.8-141.4c0.2-0.8 0.9-1.5 1.8-1.6 0.9-0.2 1.7 0.2 2.2 1l56.4 93.2 37.5-171.5c0.2-0.9 1-1.5 1.9-1.6 0.9-0.2 1.8 0.4 2.2 1.2l54.9 118.7 35.6-105.9 4.1 1.4-37.3 111c-0.3 0.9-1.1 1.5-1.9 1.5-0.9 0.1-1.7-0.4-2.1-1.2l-54.6-117.9-37.3 170.5c-0.2 0.9-0.8 1.6-1.7 1.7-0.9 0.1-1.8-0.3-2.2-1l-56.4-93.3-32.8 150.4c-0.2 1-1.1 1.7-2.1 1.7z"/>
						</g>
					</g>
					<path id="&lt;Path&gt;" class="s12" d="m300.9 263.7c0 5.6-4.5 10.1-10.1 10.1-5.6 0-10.1-4.5-10.1-10.1 0-5.5 4.5-10.1 10.1-10.1 5.6 0 10.1 4.6 10.1 10.1z"/>
					<path id="&lt;Path&gt;" class="s13" d="m290.8 282.5c-10.3 0-18.7-8.4-18.7-18.8 0-10.3 8.4-18.7 18.7-18.7 10.3 0 18.7 8.4 18.7 18.7 0 10.4-8.4 18.8-18.7 18.8z"/>
					<g id="&lt;Group&gt;">
						<g id="&lt;Group&gt;">
							<path id="&lt;Path&gt;" class="s12" d="m496.2 457q-0.1 0-0.2 0c-0.4-0.1-0.8-0.5-0.8-0.9l-13.2-124-43.8 101.7c-0.2 0.5-0.7 0.7-1.2 0.7-0.4-0.1-0.8-0.5-0.9-1l-11.6-132.9 2.2-0.1 11.2 128.5 43.8-101.6c0.2-0.4 0.6-0.7 1.1-0.6 0.5 0.1 0.9 0.5 0.9 0.9l13.3 124.8 44-78.3 1.8 1.1-45.6 81.2c-0.2 0.3-0.6 0.5-1 0.5z"/>
						</g>
						<g id="&lt;Group&gt;">
							<path id="&lt;Path&gt;" class="s12" d="m430.2 300.6c0 2.5-2 4.6-4.6 4.6-2.6 0-4.7-2.1-4.7-4.6 0-2.6 2.1-4.7 4.7-4.7 2.6 0 4.6 2.1 4.6 4.7z"/>
							<path id="&lt;Path&gt;" class="s7" d="m430.2 300.6c0 2.5-2 4.6-4.6 4.6-2.6 0-4.7-2.1-4.7-4.6 0-2.6 2.1-4.7 4.7-4.7 2.6 0 4.6 2.1 4.6 4.7z"/>
						</g>
						<g id="&lt;Group&gt;">
							<path id="&lt;Path&gt;" class="s12" d="m486.6 329.5c0 2.6-2 4.6-4.6 4.6-2.6 0-4.6-2-4.6-4.6 0-2.6 2-4.7 4.6-4.7 2.6 0 4.6 2.1 4.6 4.7z"/>
							<path id="&lt;Path&gt;" class="s7" d="m486.6 329.5c0 2.6-2 4.6-4.6 4.6-2.6 0-4.6-2-4.6-4.6 0-2.6 2-4.7 4.6-4.7 2.6 0 4.6 2.1 4.6 4.7z"/>
						</g>
						<g id="&lt;Group&gt;">
							<path id="&lt;Path&gt;" class="s12" d="m547.5 375.3c0 2.6-2.1 4.6-4.7 4.6-2.5 0-4.6-2-4.6-4.6 0-2.6 2.1-4.7 4.6-4.7 2.6 0 4.7 2.1 4.7 4.7z"/>
							<path id="&lt;Path&gt;" class="s7" d="m547.5 375.3c0 2.6-2.1 4.6-4.7 4.6-2.5 0-4.6-2-4.6-4.6 0-2.6 2.1-4.7 4.6-4.7 2.6 0 4.7 2.1 4.7 4.7z"/>
						</g>
					</g>
					<g id="&lt;Group&gt;">
						<g id="&lt;Group&gt;">
							<path id="&lt;Path&gt;" class="s12" d="m527.4 502.5q-0.1 0-0.3 0c-1-0.1-1.8-0.9-1.9-1.9l-13.8-145.5-30.5 87.3c-0.3 0.9-1.2 1.5-2.2 1.4-1-0.1-1.8-0.8-1.9-1.8l-18.3-134.2-45.5 113.8c-0.3 0.9-1.3 1.5-2.2 1.4-1-0.2-1.8-1-1.9-2l-11.4-111.9 4.3-0.4 10.5 103.2 45.2-113.3c0.4-0.9 1.3-1.4 2.3-1.3 0.9 0.1 1.7 0.8 1.8 1.8l18.2 133.4 30.8-88.1c0.3-0.9 1.2-1.5 2.2-1.4 1 0.1 1.8 0.9 1.9 1.9l13.8 144.9 29.1-90.6 4.1 1.4-32.3 100.4c-0.3 0.9-1.1 1.5-2 1.5z"/>
						</g>
						<g id="&lt;Group&gt;" style="opacity: .2">
							<path id="&lt;Path&gt;" class="s5" d="m527.4 502.5q-0.1 0-0.3 0c-1-0.1-1.8-0.9-1.9-1.9l-13.8-145.5-30.5 87.3c-0.3 0.9-1.2 1.5-2.2 1.4-1-0.1-1.8-0.8-1.9-1.8l-18.3-134.2-45.5 113.8c-0.3 0.9-1.3 1.5-2.2 1.4-1-0.2-1.8-1-1.9-2l-11.4-111.9 4.3-0.4 10.5 103.2 45.2-113.3c0.4-0.9 1.3-1.4 2.3-1.3 0.9 0.1 1.7 0.8 1.8 1.8l18.2 133.4 30.8-88.1c0.3-0.9 1.2-1.5 2.2-1.4 1 0.1 1.8 0.9 1.9 1.9l13.8 144.9 29.1-90.6 4.1 1.4-32.3 100.4c-0.3 0.9-1.1 1.5-2 1.5z"/>
						</g>
					</g>
					<path id="&lt;Path&gt;" class="s13" d="m459.1 318.7c-10 0-18.1-8.2-18.1-18.1 0-10 8.1-18.2 18.1-18.2 10 0 18.1 8.2 18.1 18.2 0 9.9-8.1 18.1-18.1 18.1z"/>
					<path id="&lt;Path&gt;" class="s12" d="m469.2 300.6c0 5.5-4.5 10.1-10.1 10.1-5.6 0-10.1-4.6-10.1-10.1 0-5.6 4.5-10.2 10.1-10.2 5.6 0 10.1 4.6 10.1 10.2z"/>
					<g id="&lt;Group&gt;">
						<g id="&lt;Group&gt;">
							<path id="&lt;Path&gt;" class="s12" d="m193 448.9c-0.5 0-0.9-0.2-1-0.6l-29.1-63.9 2-0.9 27.8 61.2 38-134.3c0.1-0.4 0.4-0.7 0.8-0.8 0.4-0.1 0.8 0 1 0.3l66.9 72.4 42.8-100.9c0.2-0.4 0.5-0.7 1-0.7 0.3 0 0.8 0.2 1 0.6l37.5 76.8-1.9 0.9-36.5-74.6-42.6 100.3c-0.2 0.3-0.5 0.6-0.8 0.6-0.4 0.1-0.7 0-1-0.3l-66.7-72.2-38.2 135.3c-0.1 0.5-0.5 0.8-1 0.8q0 0 0 0z"/>
						</g>
						<path id="&lt;Path&gt;" class="s12" d="m168.8 383.5c0 2.5-2.1 4.6-4.7 4.6-2.5 0-4.6-2.1-4.6-4.6 0-2.6 2.1-4.7 4.6-4.7 2.6 0 4.7 2.1 4.7 4.7z"/>
						<path id="&lt;Path&gt;" class="s14" d="m164.1 392.4c-4.9 0-8.9-4-8.9-8.9 0-5 4-9 8.9-9 5 0 9 4 9 9 0 4.9-4 8.9-9 8.9z"/>
						<path id="&lt;Path&gt;" class="s7" d="m168.8 383.5c0 2.5-2.1 4.6-4.7 4.6-2.5 0-4.6-2.1-4.6-4.6 0-2.6 2.1-4.7 4.6-4.7 2.6 0 4.7 2.1 4.7 4.7z"/>
						<path id="&lt;Path&gt;" class="s12" d="m197.6 446.8c0 2.5-2.1 4.6-4.6 4.6-2.6 0-4.7-2.1-4.7-4.6 0-2.6 2.1-4.7 4.7-4.7 2.5 0 4.6 2.1 4.6 4.7z"/>
						<path id="&lt;Path&gt;" class="s14" d="m193 455.7c-5 0-9-4-9-8.9 0-5 4-9 9-9 4.9 0 8.9 4 8.9 9 0 4.9-4 8.9-8.9 8.9z"/>
						<path id="&lt;Path&gt;" class="s7" d="m197.6 446.8c0 2.5-2.1 4.6-4.6 4.6-2.6 0-4.7-2.1-4.7-4.6 0-2.6 2.1-4.7 4.7-4.7 2.5 0 4.6 2.1 4.6 4.7z"/>
						<path id="&lt;Path&gt;" class="s12" d="m235.8 311.4c0 2.6-2 4.7-4.6 4.7-2.6 0-4.6-2.1-4.6-4.7 0-2.5 2-4.6 4.6-4.6 2.6 0 4.6 2.1 4.6 4.6z"/>
						<path id="&lt;Path&gt;" class="s14" d="m231.2 320.4c-4.9 0-8.9-4-8.9-9 0-4.9 4-8.9 8.9-8.9 4.9 0 9 4 9 8.9 0 5-4.1 9-9 9z"/>
						<path id="&lt;Path&gt;" class="s7" d="m235.8 311.4c0 2.6-2 4.7-4.6 4.7-2.6 0-4.6-2.1-4.6-4.7 0-2.5 2-4.6 4.6-4.6 2.6 0 4.6 2.1 4.6 4.6z"/>
						<path id="&lt;Path&gt;" class="s12" d="m347.8 281.9c0 2.6-2 4.7-4.6 4.7-2.6 0-4.6-2.1-4.6-4.7 0-2.6 2-4.6 4.6-4.6 2.6 0 4.6 2 4.6 4.6z"/>
						<path id="&lt;Path&gt;" class="s14" d="m343.2 290.9c-4.9 0-9-4.1-9-9 0-4.9 4.1-8.9 9-8.9 4.9 0 8.9 4 8.9 8.9 0 4.9-4 9-8.9 9z"/>
						<path id="&lt;Path&gt;" class="s7" d="m347.8 281.9c0 2.6-2 4.7-4.6 4.7-2.6 0-4.6-2.1-4.6-4.7 0-2.6 2-4.6 4.6-4.6 2.6 0 4.6 2 4.6 4.6z"/>
					</g>
					<g id="&lt;Group&gt;">
						<g id="freepik--light-bulb--inject-77 1 ">
							<g id="freepik--Idea--inject-77 1 ">
								<g id="freepik--light--inject-77 1 ">
									<path id="&lt;Path&gt;" class="s10" d="m387.6 651.1c0.3 16.6-13 30.3-29.6 30.6-16.6 0.2-30.3-13-30.5-29.6-0.3-16.6 12.9-30.3 29.5-30.5 16.6-0.3 30.3 12.9 30.6 29.5q0 0 0 0z"/>
									<path id="&lt;Path&gt;" class="s11" d="m321.1 654.3c-20.1-11.2-20.4-29.8-0.6-41.7 22.5-11.9 49.4-12.3 72.2-1.1 20.1 11.2 20.4 29.9 0.7 41.7-22.6 11.8-49.4 12.3-72.3 1.1z"/>
									<path id="&lt;Path&gt;" class="s10" d="m319.8 643.5c-20.7-11.6-21.1-30.8-0.7-43 23.2-12.2 50.9-12.7 74.5-1.2 20.8 11.6 21.1 30.8 0.6 43-23.1 12.3-50.8 12.7-74.4 1.2z"/>
									<path id="&lt;Path&gt;" class="s11" d="m318.5 632.5c-21.3-12-21.6-31.7-0.4-43.8 23.8-12.6 52.2-13 76.5-1.2 21.4 11.9 21.7 31.7 0.8 44.3-24.1 12.4-52.6 12.7-76.9 0.7z"/>
									<path id="&lt;Path&gt;" class="s10" d="m317.1 620.7c-22-12.2-22.3-32.7-0.6-45.6 24.6-13 54-13.5 79-1.3 22.1 12.3 22.4 32.7 0.7 45.7-24.7 13-54 13.4-79.1 1.2z"/>
									<path id="&lt;Path&gt;" class="s11" d="m315.9 608.8c-22.7-13-22.9-33.4-0.7-46.7 25.1-13.3 55.2-13.8 80.7-1.2 22.5 12.4 22.9 33.3 0.7 46.5-25.1 13.3-55.1 13.8-80.7 1.4z"/>
									<path id="&lt;Path&gt;" class="s12" d="m350.8 256.9c-79 1-142.3 66-141.2 145q0 0.4 0 0.7c1.8 113.9 95.9 131.3 96.8 177.1 1 8.9 6.6 16.5 14.8 20 22.2 10.8 48.2 10.5 70-1 8-3.8 13.3-11.6 13.9-20.4-0.7-45.8 92.9-66.2 91.1-180.2-1-79.1-65.9-142.3-145-141.2q-0.2 0-0.4 0z"/>
									<g id="&lt;Group&gt;" style="opacity: .6">
										<path id="&lt;Path&gt;" class="s2" d="m350.8 256.9c-79 1-142.3 66-141.2 145q0 0.4 0 0.7c1.8 113.9 95.9 131.3 96.8 177.1 1 8.9 6.6 16.5 14.8 20 22.2 10.8 48.2 10.5 70-1 8-3.8 13.3-11.6 13.9-20.4-0.7-45.8 92.9-66.2 91.1-180.2-1-79.1-65.9-142.3-145-141.2q-0.2 0-0.4 0z"/>
									</g>
									<path id="&lt;Path&gt;" class="s12" d="m330 593.7c-14.3-8.3-15-21.6-1-30.2 16.5-8.6 36-8.9 52.7-0.7 14.3 8.3 14.9 21.7 0.5 30.3-16.3 8.5-35.7 8.7-52.2 0.6z"/>
									<path id="&lt;Compound Path&gt;" fill-rule="evenodd" class="s2" d="m375.1 574.3c-2.7 0-4.8-2.1-5-4.7-0.2-27.6 2.7-55.1 8.9-82q2.6-11.7 6.8-22.9c-4.4-1.5-8.7-3.5-12.6-6-7.3-4.3-13.8-9.7-19.5-16.1-5.4 6.4-11.7 11.8-18.7 16.3-3.9 2.5-8.1 4.6-12.4 6.3q4.5 11.1 7.6 22.7c7 26.7 10.8 54.2 11.3 81.8-0.1 2.7-2.3 4.8-4.9 4.8-2.7 0-4.8-2.2-4.8-4.9-0.6-26.8-4.4-53.4-11.1-79.3-2-7.7-4.5-15.2-7.6-22.5-9.8 2.1-20-0.7-27.3-7.6-5.6-5.2-6.6-13.6-2.4-20 2.8-4.4 8-6.7 13.2-5.8 10.2 3.8 18.2 11.8 21.9 21.9 3.9-1.4 7.7-3.3 11.2-5.6 6.8-4.3 12.9-9.7 18-15.9-6.2-7.7-8.9-17.5-7.6-27.2 1.4-6 6.8-10.1 12.9-9.9 6.1-0.4 11.6 3.6 13.2 9.4 1.7 9.7-0.7 19.7-6.6 27.5 5.3 6.1 11.5 11.3 18.4 15.4 3.6 2.1 7.4 3.9 11.4 5.2 3.4-10.3 11.2-18.5 21.2-22.6 5.2-1 10.4 1.3 13.3 5.8 4.4 6.2 3.6 14.7-1.8 20-7.1 7.1-17.2 10.2-27 8.5-2.9 7.4-5.2 15-7 22.7-5.9 26.2-8.7 52.9-8.4 79.7 0.1 2.7-2 4.9-4.7 5zm-80.9-130.1c-1.2 0.1-2.2 0.8-2.7 1.8-2.3 3.3 0.5 6.8 1.4 7.7 4.3 3.9 10 5.6 15.7 4.8-2.6-6.3-7.5-11.4-13.7-14.4zm105.5 13.4c5.7 0.5 11.4-1.5 15.5-5.5 0.8-1 3.6-4.5 1.2-7.8-1.4-1.8-2.5-1.8-3.5-1.6-3.2 0.6-8.2 5.2-13.2 14.9zm-46.2-49.6c-1.8-0.3-3.5 0.9-3.8 2.6q0 0.1 0 0.1c-0.6 5.6 0.9 11.2 4.1 15.8 3-4.7 4.2-10.4 3.4-16-0.3-1.7-1.9-2.9-3.7-2.6q0 0-0.1 0z"/>
								</g>
							</g>
						</g>
						<g id="&lt;Group&gt;" style="opacity: .3">
							<path id="&lt;Path&gt;" class="s2" d="m447.4 343.5c0 30.4-24.7 55-55.1 55-30.4 0-55.1-24.6-55.1-55 0-30.5 24.7-55.1 55.1-55.1 30.4 0 55.1 24.6 55.1 55.1z"/>
							<path id="&lt;Path&gt;" class="s2" d="m468.3 432.8c0 15-12.1 27.1-27 27.1-14.9 0-27-12.1-27-27.1 0-14.9 12.1-27 27-27 14.9 0 27 12.1 27 27z"/>
						</g>
					</g>
					<g id="&lt;Group&gt;">
						<g id="&lt;Group&gt;">
							<path id="&lt;Path&gt;" class="s12" d="m329.7 628.1l-39.4-121-76.8 47.1c-0.6 0.3-1.2 0.4-1.8 0.2-0.6-0.2-1.1-0.7-1.4-1.3l-58.4-145.3 4-1.6 57.5 143 77-47.2c0.6-0.3 1.2-0.4 1.9-0.2 0.6 0.3 1.1 0.8 1.3 1.4l40.2 123.6z"/>
						</g>
						<g id="&lt;Group&gt;" style="opacity: .1">
							<path id="&lt;Path&gt;" class="s5" d="m329.7 628.1l-39.4-121-76.8 47.1c-0.6 0.3-1.2 0.4-1.8 0.2-0.6-0.2-1.1-0.7-1.4-1.3l-58.4-145.3 4-1.6 57.5 143 77-47.2c0.6-0.3 1.2-0.4 1.9-0.2 0.6 0.3 1.1 0.8 1.3 1.4l40.2 123.6z"/>
						</g>
					</g>
					<g id="&lt;Group&gt;">
						<g id="&lt;Group&gt;">
							<path id="&lt;Path&gt;" class="s12" d="m374.1 640.5l-4.2-0.7 21.7-124.4c0.1-0.8 0.7-1.4 1.4-1.7 0.7-0.2 1.6 0 2.1 0.5l73 65.6 18.6-96c0.2-0.8 0.8-1.4 1.5-1.6 0.8-0.3 1.6-0.1 2.1 0.4l54.6 51.9 19.4-98.4 4.2 0.9-20.2 102.1c-0.1 0.8-0.7 1.4-1.4 1.7-0.8 0.2-1.6 0-2.2-0.5l-54.5-51.8-18.6 95.9c-0.2 0.7-0.7 1.4-1.4 1.6-0.8 0.3-1.6 0.1-2.2-0.4l-72.8-65.6z"/>
						</g>
						<g id="&lt;Group&gt;" style="opacity: .1">
							<path id="&lt;Path&gt;" class="s5" d="m374.1 640.5l-4.2-0.7 21.7-124.4c0.1-0.8 0.7-1.4 1.4-1.7 0.7-0.2 1.6 0 2.1 0.5l73 65.6 18.6-96c0.2-0.8 0.8-1.4 1.5-1.6 0.8-0.3 1.6-0.1 2.1 0.4l54.6 51.9 19.4-98.4 4.2 0.9-20.2 102.1c-0.1 0.8-0.7 1.4-1.4 1.7-0.8 0.2-1.6 0-2.2-0.5l-54.5-51.8-18.6 95.9c-0.2 0.7-0.7 1.4-1.4 1.6-0.8 0.3-1.6 0.1-2.2-0.4l-72.8-65.6z"/>
						</g>
					</g>
					<path id="&lt;Path&gt;" class="s12" d="m162 403c0 5.5-4.5 10.1-10.1 10.1-5.6 0-10.1-4.6-10.1-10.1 0-5.6 4.5-10.2 10.1-10.2 5.6 0 10.1 4.6 10.1 10.2z"/>
					<path id="&lt;Path&gt;" class="s12" d="m168.8 495.4c0 5.5-4.5 10.1-10.1 10.1-5.6 0-10.1-4.6-10.1-10.1 0-5.6 4.5-10.2 10.1-10.2 5.6 0 10.1 4.6 10.1 10.2z"/>
					<path id="&lt;Path&gt;" class="s12" d="m203.1 342.6c0 5.6-4.6 10.1-10.1 10.1-5.6 0-10.2-4.5-10.2-10.1 0-5.6 4.6-10.1 10.2-10.1 5.5 0 10.1 4.5 10.1 10.1z"/>
					<path id="&lt;Path&gt;" class="s12" d="m522.3 346.3c0 5.6-4.5 10.1-10.1 10.1-5.6 0-10.1-4.5-10.1-10.1 0-5.6 4.5-10.1 10.1-10.1 5.6 0 10.1 4.5 10.1 10.1z"/>
					<path id="&lt;Path&gt;" class="s12" d="m569.4 401c0 5.6-4.6 10.1-10.1 10.1-5.6 0-10.1-4.5-10.1-10.1 0-5.5 4.5-10.1 10.1-10.1 5.5 0 10.1 4.6 10.1 10.1z"/>
					<path id="&lt;Path&gt;" class="s12" d="m222.4 552.3c0 5.6-4.5 10.1-10.1 10.1-5.5 0-10.1-4.5-10.1-10.1 0-5.5 4.6-10.1 10.1-10.1 5.6 0 10.1 4.6 10.1 10.1z"/>
					<path id="&lt;Path&gt;" class="s12" d="m302.9 505.5c0 5.5-4.6 10.1-10.1 10.1-5.6 0-10.1-4.6-10.1-10.1 0-5.6 4.5-10.1 10.1-10.1 5.5 0 10.1 4.5 10.1 10.1z"/>
					<path id="&lt;Path&gt;" class="s12" d="m341.9 627.9c0 5.6-4.5 10.1-10.1 10.1-5.6 0-10.1-4.5-10.1-10.1 0-5.6 4.5-10.1 10.1-10.1 5.6 0 10.1 4.5 10.1 10.1z"/>
					<path id="&lt;Path&gt;" class="s12" d="m382.1 640.2c0 5.5-4.5 10.1-10.1 10.1-5.6 0-10.1-4.6-10.1-10.1 0-5.6 4.5-10.1 10.1-10.1 5.6 0 10.1 4.5 10.1 10.1z"/>
					<path id="&lt;Path&gt;" class="s12" d="m404.4 517.2c0 5.6-4.6 10.1-10.1 10.1-5.6 0-10.1-4.5-10.1-10.1 0-5.6 4.5-10.1 10.1-10.1 5.5 0 10.1 4.5 10.1 10.1z"/>
					<path id="&lt;Path&gt;" class="s12" d="m478.3 583.7c0 5.6-4.5 10.1-10.1 10.1-5.6 0-10.1-4.5-10.1-10.1 0-5.6 4.5-10.1 10.1-10.1 5.6 0 10.1 4.5 10.1 10.1z"/>
					<path id="&lt;Path&gt;" class="s12" d="m498.7 488c0 5.6-4.5 10.1-10.1 10.1-5.6 0-10.1-4.5-10.1-10.1 0-5.6 4.5-10.1 10.1-10.1 5.6 0 10.1 4.5 10.1 10.1z"/>
					<path id="&lt;Path&gt;" class="s12" d="m556.9 538.3c0 5.6-4.6 10.2-10.1 10.2-5.6 0-10.2-4.6-10.2-10.2 0-5.5 4.6-10.1 10.2-10.1 5.5 0 10.1 4.6 10.1 10.1z"/>
					<path id="&lt;Path&gt;" class="s13" d="m151.9 421.7c-10.3 0-18.7-8.4-18.7-18.7 0-10.4 8.4-18.8 18.7-18.8 10.3 0 18.7 8.4 18.7 18.8 0 10.3-8.4 18.7-18.7 18.7z"/>
					<path id="&lt;Path&gt;" class="s13" d="m158.7 514.1c-10.3 0-18.7-8.4-18.7-18.7 0-10.4 8.4-18.8 18.7-18.8 10.3 0 18.7 8.4 18.7 18.8 0 10.3-8.4 18.7-18.7 18.7z"/>
					<path id="&lt;Path&gt;" class="s13" d="m193 361.3c-10.4 0-18.8-8.4-18.8-18.7 0-10.3 8.4-18.7 18.8-18.7 10.3 0 18.7 8.4 18.7 18.7 0 10.3-8.4 18.7-18.7 18.7z"/>
					<path id="&lt;Path&gt;" class="s13" d="m512.2 365c-10.4 0-18.8-8.4-18.8-18.7 0-10.3 8.4-18.7 18.8-18.7 10.3 0 18.7 8.4 18.7 18.7 0 10.3-8.4 18.7-18.7 18.7z"/>
					<path id="&lt;Path&gt;" class="s13" d="m559.3 419.8c-10.4 0-18.8-8.4-18.8-18.8 0-10.3 8.4-18.7 18.8-18.7 10.3 0 18.7 8.4 18.7 18.7 0 10.4-8.4 18.8-18.7 18.8z"/>
					<path id="&lt;Path&gt;" class="s13" d="m212.3 571.1c-10.3 0-18.7-8.4-18.7-18.8 0-10.3 8.4-18.7 18.7-18.7 10.4 0 18.8 8.4 18.8 18.7 0 10.4-8.4 18.8-18.8 18.8z"/>
					<path id="&lt;Path&gt;" class="s13" d="m292.8 524.2c-10.4 0-18.8-8.4-18.8-18.7 0-10.4 8.4-18.8 18.8-18.8 10.3 0 18.7 8.4 18.7 18.8 0 10.3-8.4 18.7-18.7 18.7z"/>
					<path id="&lt;Path&gt;" class="s13" d="m331.8 646.6c-10.4 0-18.8-8.4-18.8-18.7 0-10.3 8.4-18.7 18.8-18.7 10.3 0 18.7 8.4 18.7 18.7 0 10.3-8.4 18.7-18.7 18.7z"/>
					<path id="&lt;Path&gt;" class="s13" d="m372 658.9c-10.3 0-18.7-8.4-18.7-18.7 0-10.4 8.4-18.8 18.7-18.8 10.3 0 18.7 8.4 18.7 18.8 0 10.3-8.4 18.7-18.7 18.7z"/>
					<path id="&lt;Path&gt;" class="s13" d="m394.3 535.9c-10.4 0-18.8-8.3-18.8-18.7 0-10.3 8.4-18.7 18.8-18.7 10.3 0 18.7 8.4 18.7 18.7 0 10.4-8.4 18.7-18.7 18.7z"/>
					<path id="&lt;Path&gt;" class="s13" d="m468.2 602.4c-10.3 0-18.7-8.4-18.7-18.7 0-10.3 8.4-18.7 18.7-18.7 10.3 0 18.7 8.4 18.7 18.7 0 10.3-8.4 18.7-18.7 18.7z"/>
					<path id="&lt;Path&gt;" class="s13" d="m488.6 506.7c-10.3 0-18.7-8.4-18.7-18.7 0-10.3 8.4-18.7 18.7-18.7 10.3 0 18.7 8.4 18.7 18.7 0 10.3-8.4 18.7-18.7 18.7z"/>
					<path id="&lt;Path&gt;" class="s13" d="m546.8 557.1c-10.4 0-18.8-8.4-18.8-18.8 0-10.3 8.4-18.7 18.8-18.7 10.3 0 18.7 8.4 18.7 18.7 0 10.4-8.4 18.8-18.7 18.8z"/>
					<path id="&lt;Path&gt;" class="s13" d="m566.1 455c-10.3 0-18.7-8.4-18.7-18.7 0-10.4 8.4-18.8 18.7-18.8 10.4 0 18.8 8.4 18.8 18.8 0 10.3-8.4 18.7-18.8 18.7z"/>
					<path id="&lt;Path&gt;" class="s12" d="m576.2 436.3c0 5.5-4.5 10.1-10.1 10.1-5.5 0-10.1-4.6-10.1-10.1 0-5.6 4.6-10.1 10.1-10.1 5.6 0 10.1 4.5 10.1 10.1z"/>
					<g id="&lt;Group&gt;">
						<g id="&lt;Group&gt;">
							<path id="&lt;Path&gt;" class="s12" d="m277.8 613.6q-0.1 0-0.2 0c-0.4-0.1-0.8-0.5-0.9-0.9l-17.2-116.2-28.8 12.4c-0.3 0.1-0.6 0.1-0.9 0-0.3-0.2-0.5-0.5-0.6-0.8l-12.6-62.3-44.3 61.2c-0.3 0.5-1 0.6-1.5 0.2-0.4-0.3-0.5-1-0.2-1.5l45.7-63.1c0.3-0.4 0.7-0.5 1.1-0.4 0.4 0 0.8 0.4 0.8 0.8l12.9 63.4 28.8-12.4c0.3-0.1 0.7-0.1 1 0.1 0.3 0.1 0.5 0.4 0.5 0.7l17 114.3 37.9-73.1c0.2-0.3 0.5-0.5 0.9-0.5 0.4 0 0.8 0.2 1 0.5l38.6 63.7c0.3 0.5 0.1 1.1-0.4 1.5-0.5 0.3-1.1 0.1-1.5-0.4l-37.6-62.1-38.6 74.3c-0.1 0.4-0.5 0.6-0.9 0.6z"/>
						</g>
						<g id="&lt;Group&gt;">
							<g id="&lt;Group&gt;">
								<path id="&lt;Path&gt;" class="s13" d="m171.1 516.1c-5 0-9-4-9-9 0-4.9 4-8.9 9-8.9 4.9 0 8.9 4 8.9 8.9 0 5-4 9-8.9 9z"/>
								<path id="&lt;Path&gt;" class="s12" d="m175.7 507.1c0 2.6-2.1 4.7-4.6 4.7-2.6 0-4.7-2.1-4.7-4.7 0-2.5 2.1-4.6 4.7-4.6 2.5 0 4.6 2.1 4.6 4.6z"/>
								<path id="&lt;Path&gt;" class="s13" d="m171.1 516.1c-5 0-9-4-9-9 0-4.9 4-8.9 9-8.9 4.9 0 8.9 4 8.9 8.9 0 5-4 9-8.9 9z"/>
								<path id="&lt;Path&gt;" class="s7" d="m175.7 507.1c0 2.6-2.1 4.7-4.6 4.7-2.6 0-4.7-2.1-4.7-4.7 0-2.5 2.1-4.6 4.7-4.6 2.5 0 4.6 2.1 4.6 4.6z"/>
							</g>
							<g id="&lt;Group&gt;">
								<path id="&lt;Path&gt;" class="s13" d="m217.2 452.2c-5 0-9-4.1-9-9 0-4.9 4-8.9 9-8.9 4.9 0 8.9 4 8.9 8.9 0 4.9-4 9-8.9 9z"/>
								<path id="&lt;Path&gt;" class="s12" d="m221.8 443.2c0 2.6-2 4.7-4.6 4.7-2.6 0-4.7-2.1-4.7-4.7 0-2.6 2.1-4.6 4.7-4.6 2.6 0 4.6 2 4.6 4.6z"/>
								<path id="&lt;Path&gt;" class="s13" d="m217.2 452.2c-5 0-9-4.1-9-9 0-4.9 4-8.9 9-8.9 4.9 0 8.9 4 8.9 8.9 0 4.9-4 9-8.9 9z"/>
								<path id="&lt;Path&gt;" class="s7" d="m221.8 443.2c0 2.6-2 4.7-4.6 4.7-2.6 0-4.7-2.1-4.7-4.7 0-2.6 2.1-4.6 4.7-4.6 2.6 0 4.6 2 4.6 4.6z"/>
							</g>
							<g id="&lt;Group&gt;">
								<path id="&lt;Path&gt;" class="s13" d="m230.5 516.4c-4.9 0-8.9-4-8.9-8.9 0-5 4-9 8.9-9 5 0 9 4 9 9 0 4.9-4 8.9-9 8.9z"/>
								<path id="&lt;Path&gt;" class="s12" d="m235.2 507.5c0 2.5-2.1 4.6-4.7 4.6-2.6 0-4.6-2.1-4.6-4.6 0-2.6 2-4.7 4.6-4.7 2.6 0 4.7 2.1 4.7 4.7z"/>
								<path id="&lt;Path&gt;" class="s13" d="m230.5 516.4c-4.9 0-8.9-4-8.9-8.9 0-5 4-9 8.9-9 5 0 9 4 9 9 0 4.9-4 8.9-9 8.9z"/>
								<path id="&lt;Path&gt;" class="s7" d="m235.2 507.5c0 2.5-2.1 4.6-4.7 4.6-2.6 0-4.6-2.1-4.6-4.6 0-2.6 2-4.7 4.6-4.7 2.6 0 4.7 2.1 4.7 4.7z"/>
							</g>
							<g id="&lt;Group&gt;">
								<path id="&lt;Path&gt;" class="s13" d="m260.2 504.3c-4.9 0-8.9-4-8.9-8.9 0-5 4-9 8.9-9 4.9 0 9 4 9 9 0 4.9-4.1 8.9-9 8.9z"/>
								<path id="&lt;Path&gt;" class="s12" d="m264.9 495.4c0 2.5-2.1 4.6-4.7 4.6-2.6 0-4.6-2.1-4.6-4.6 0-2.6 2-4.7 4.6-4.7 2.6 0 4.7 2.1 4.7 4.7z"/>
								<path id="&lt;Path&gt;" class="s13" d="m260.2 504.3c-4.9 0-8.9-4-8.9-8.9 0-5 4-9 8.9-9 4.9 0 9 4 9 9 0 4.9-4.1 8.9-9 8.9z"/>
								<path id="&lt;Path&gt;" class="s7" d="m264.9 495.4c0 2.5-2.1 4.6-4.7 4.6-2.6 0-4.6-2.1-4.6-4.6 0-2.6 2-4.7 4.6-4.7 2.6 0 4.7 2.1 4.7 4.7z"/>
							</g>
							<g id="&lt;Group&gt;">
								<path id="&lt;Path&gt;" class="s13" d="m278 620.1c-4.9 0-8.9-4.1-8.9-9 0-4.9 4-9 8.9-9 4.9 0 9 4.1 9 9 0 4.9-4.1 9-9 9z"/>
								<path id="&lt;Path&gt;" class="s12" d="m282.7 611.1c0 2.6-2.1 4.6-4.7 4.6-2.6 0-4.6-2-4.6-4.6 0-2.6 2-4.6 4.6-4.6 2.6 0 4.7 2 4.7 4.6z"/>
								<path id="&lt;Path&gt;" class="s13" d="m278 620.1c-4.9 0-8.9-4.1-8.9-9 0-4.9 4-9 8.9-9 4.9 0 9 4.1 9 9 0 4.9-4.1 9-9 9z"/>
								<path id="&lt;Path&gt;" class="s7" d="m282.7 611.1c0 2.6-2.1 4.6-4.7 4.6-2.6 0-4.6-2-4.6-4.6 0-2.6 2-4.6 4.6-4.6 2.6 0 4.7 2 4.7 4.6z"/>
							</g>
							<g id="&lt;Group&gt;">
								<path id="&lt;Path&gt;" class="s13" d="m317.3 547.7c-4.9 0-8.9-4-8.9-9 0-4.9 4-8.9 8.9-8.9 5 0 9 4 9 8.9 0 5-4 9-9 9z"/>
								<path id="&lt;Path&gt;" class="s12" d="m322 538.7c0 2.6-2.1 4.7-4.7 4.7-2.6 0-4.6-2.1-4.6-4.7 0-2.5 2-4.6 4.6-4.6 2.6 0 4.7 2.1 4.7 4.6z"/>
								<path id="&lt;Path&gt;" class="s13" d="m317.3 547.7c-4.9 0-8.9-4-8.9-9 0-4.9 4-8.9 8.9-8.9 5 0 9 4 9 8.9 0 5-4 9-9 9z"/>
								<path id="&lt;Path&gt;" class="s7" d="m322 538.7c0 2.6-2.1 4.7-4.7 4.7-2.6 0-4.6-2.1-4.6-4.7 0-2.5 2-4.6 4.6-4.6 2.6 0 4.7 2.1 4.7 4.6z"/>
							</g>
							<g id="&lt;Group&gt;">
								<path id="&lt;Path&gt;" class="s13" d="m356.4 610.1c-4.9 0-8.9-4-8.9-8.9 0-5 4-9 8.9-9 5 0 9 4 9 9 0 4.9-4 8.9-9 8.9z"/>
								<path id="&lt;Path&gt;" class="s12" d="m361.1 601.2c0 2.5-2.1 4.6-4.7 4.6-2.5 0-4.6-2.1-4.6-4.6 0-2.6 2.1-4.7 4.6-4.7 2.6 0 4.7 2.1 4.7 4.7z"/>
								<path id="&lt;Path&gt;" class="s13" d="m356.4 610.1c-4.9 0-8.9-4-8.9-8.9 0-5 4-9 8.9-9 5 0 9 4 9 9 0 4.9-4 8.9-9 8.9z"/>
								<path id="&lt;Path&gt;" class="s7" d="m361.1 601.2c0 2.5-2.1 4.6-4.7 4.6-2.5 0-4.6-2.1-4.6-4.6 0-2.6 2.1-4.7 4.6-4.7 2.6 0 4.7 2.1 4.7 4.7z"/>
							</g>
						</g>
					</g>
					<g id="&lt;Group&gt;">
						<g id="&lt;Group&gt;">
							<path id="&lt;Path&gt;" class="s12" d="m413 602.1c-0.3 0-0.5-0.1-0.8-0.3l-50.4-52.6c-0.4-0.4-0.4-1.1 0-1.5 0.5-0.4 1.1-0.4 1.6 0l49 51.1 18.6-89.8c0.1-0.4 0.3-0.7 0.7-0.8 0.4-0.1 0.8 0 1.1 0.2l62.7 57 20-114c0.1-0.4 0.4-0.7 0.8-0.8 0.4-0.1 0.8 0 1.1 0.3l53.3 58.7c0.4 0.5 0.4 1.2-0.1 1.6-0.4 0.4-1.1 0.3-1.5-0.1l-51.8-57.1-20 113.7c0 0.4-0.3 0.7-0.7 0.8-0.4 0.1-0.8 0.1-1.1-0.2l-62.8-57-18.6 90c-0.1 0.4-0.4 0.7-0.8 0.8q-0.1 0-0.3 0z"/>
						</g>
						<g id="&lt;Group&gt;">
							<g id="&lt;Group&gt;">
								<path id="&lt;Path&gt;" class="s13" d="m362.6 557c-5 0-9-4-9-9 0-4.9 4-8.9 9-8.9 4.9 0 8.9 4 8.9 8.9 0 5-4 9-8.9 9z"/>
								<path id="&lt;Path&gt;" class="s12" d="m367.2 548c0 2.6-2.1 4.7-4.6 4.7-2.6 0-4.7-2.1-4.7-4.7 0-2.5 2.1-4.6 4.7-4.6 2.5 0 4.6 2.1 4.6 4.6z"/>
								<path id="&lt;Path&gt;" class="s13" d="m362.6 557c-5 0-9-4-9-9 0-4.9 4-8.9 9-8.9 4.9 0 8.9 4 8.9 8.9 0 5-4 9-8.9 9z"/>
								<path id="&lt;Path&gt;" class="s7" d="m367.2 548c0 2.6-2.1 4.7-4.6 4.7-2.6 0-4.7-2.1-4.7-4.7 0-2.5 2.1-4.6 4.7-4.6 2.5 0 4.6 2.1 4.6 4.6z"/>
							</g>
							<g id="&lt;Group&gt;">
								<path id="&lt;Path&gt;" class="s13" d="m413 610c-4.9 0-8.9-4-8.9-8.9 0-5 4-9 8.9-9 5 0 9 4 9 9 0 4.9-4 8.9-9 8.9z"/>
								<path id="&lt;Path&gt;" class="s12" d="m417.7 601.1c0 2.5-2.1 4.6-4.7 4.6-2.5 0-4.6-2.1-4.6-4.6 0-2.6 2.1-4.7 4.6-4.7 2.6 0 4.7 2.1 4.7 4.7z"/>
								<path id="&lt;Path&gt;" class="s13" d="m413 610c-4.9 0-8.9-4-8.9-8.9 0-5 4-9 8.9-9 5 0 9 4 9 9 0 4.9-4 8.9-9 8.9z"/>
								<path id="&lt;Path&gt;" class="s7" d="m417.7 601.1c0 2.5-2.1 4.6-4.7 4.6-2.5 0-4.6-2.1-4.6-4.6 0-2.6 2.1-4.7 4.6-4.7 2.6 0 4.7 2.1 4.7 4.7z"/>
							</g>
							<g id="&lt;Group&gt;">
								<path id="&lt;Path&gt;" class="s13" d="m431.4 519.3c-4.9 0-9-4-9-8.9 0-5 4.1-9 9-9 4.9 0 8.9 4 8.9 9 0 4.9-4 8.9-8.9 8.9z"/>
								<path id="&lt;Path&gt;" class="s12" d="m436 510.4c0 2.5-2 4.6-4.6 4.6-2.6 0-4.7-2.1-4.7-4.6 0-2.6 2.1-4.7 4.7-4.7 2.6 0 4.6 2.1 4.6 4.7z"/>
								<path id="&lt;Path&gt;" class="s13" d="m431.4 519.3c-4.9 0-9-4-9-8.9 0-5 4.1-9 9-9 4.9 0 8.9 4 8.9 9 0 4.9-4 8.9-8.9 8.9z"/>
								<path id="&lt;Path&gt;" class="s7" d="m436 510.4c0 2.5-2 4.6-4.6 4.6-2.6 0-4.7-2.1-4.7-4.6 0-2.6 2.1-4.7 4.7-4.7 2.6 0 4.6 2.1 4.6 4.7z"/>
							</g>
							<g id="&lt;Group&gt;">
								<path id="&lt;Path&gt;" class="s13" d="m496.6 576.2c-4.9 0-8.9-4-8.9-8.9 0-4.9 4-9 8.9-9 5 0 9 4.1 9 9 0 4.9-4 8.9-9 8.9z"/>
								<path id="&lt;Path&gt;" class="s12" d="m501.3 567.3c0 2.6-2.1 4.6-4.7 4.6-2.5 0-4.6-2-4.6-4.6 0-2.6 2.1-4.7 4.6-4.7 2.6 0 4.7 2.1 4.7 4.7z"/>
								<path id="&lt;Path&gt;" class="s13" d="m496.6 576.2c-4.9 0-8.9-4-8.9-8.9 0-4.9 4-9 8.9-9 5 0 9 4.1 9 9 0 4.9-4 8.9-9 8.9z"/>
								<path id="&lt;Path&gt;" class="s7" d="m501.3 567.3c0 2.6-2.1 4.6-4.7 4.6-2.5 0-4.6-2-4.6-4.6 0-2.6 2.1-4.7 4.6-4.7 2.6 0 4.7 2.1 4.7 4.7z"/>
							</g>
							<g id="&lt;Group&gt;">
								<path id="&lt;Path&gt;" class="s13" d="m516 462.4c-5 0-9-4-9-9 0-4.9 4-8.9 9-8.9 4.9 0 8.9 4 8.9 8.9 0 5-4 9-8.9 9z"/>
								<path id="&lt;Path&gt;" class="s12" d="m520.6 453.4c0 2.6-2.1 4.7-4.6 4.7-2.6 0-4.7-2.1-4.7-4.7 0-2.5 2.1-4.6 4.7-4.6 2.5 0 4.6 2.1 4.6 4.6z"/>
								<path id="&lt;Path&gt;" class="s13" d="m516 462.4c-5 0-9-4-9-9 0-4.9 4-8.9 9-8.9 4.9 0 8.9 4 8.9 8.9 0 5-4 9-8.9 9z"/>
								<path id="&lt;Path&gt;" class="s7" d="m520.6 453.4c0 2.6-2.1 4.7-4.6 4.7-2.6 0-4.7-2.1-4.7-4.7 0-2.5 2.1-4.6 4.7-4.6 2.5 0 4.6 2.1 4.6 4.6z"/>
							</g>
							<g id="&lt;Group&gt;">
								<path id="&lt;Path&gt;" class="s13" d="m570.8 519.3c-5 0-9-4-9-8.9 0-5 4-9 9-9 4.9 0 8.9 4 8.9 9 0 4.9-4 8.9-8.9 8.9z"/>
								<path id="&lt;Path&gt;" class="s12" d="m575.4 510.4c0 2.5-2.1 4.6-4.6 4.6-2.6 0-4.7-2.1-4.7-4.6 0-2.6 2.1-4.7 4.7-4.7 2.5 0 4.6 2.1 4.6 4.7z"/>
								<path id="&lt;Path&gt;" class="s13" d="m570.8 519.3c-5 0-9-4-9-8.9 0-5 4-9 9-9 4.9 0 8.9 4 8.9 9 0 4.9-4 8.9-8.9 8.9z"/>
								<path id="&lt;Path&gt;" class="s7" d="m575.4 510.4c0 2.5-2.1 4.6-4.6 4.6-2.6 0-4.7-2.1-4.7-4.6 0-2.6 2.1-4.7 4.7-4.7 2.5 0 4.6 2.1 4.6 4.7z"/>
							</g>
						</g>
					</g>
				</g>
				<path id="&lt;Compound Path&gt;" fill-rule="evenodd" class="s8" d="m579.7 510.4c0 4.9-4 8.9-8.9 8.9-5 0-9-4-9-8.9 0-2 0.7-3.9 1.8-5.4l-7-7.7-4.6 23.1c7.8 2.3 13.5 9.5 13.5 17.9 0 10.4-8.4 18.8-18.7 18.8-10.4 0-18.8-8.4-18.8-18.8 0-3.9 1.3-7.6 3.4-10.7l-23.2-22-9.3 53.1c3.8 1 6.7 4.5 6.7 8.6 0 4.9-4 8.9-9 8.9-4.9 0-8.9-4-8.9-8.9 0-1.8 0.5-3.4 1.4-4.8l-11.3-10.3-2.7 14.1c6.9 2.8 11.8 9.5 11.8 17.4 0 10.3-8.4 18.7-18.7 18.7-10.3 0-18.7-8.4-18.7-18.7 0-4.3 1.4-8.2 3.9-11.4l-28.1-25.2-9.4 45.5c3.5 1.2 6.1 4.5 6.1 8.5 0 4.9-4 8.9-9 8.9-0.7 0-1.4-0.1-2.1-0.3 0 2.7-0.6 5.3-1.8 8 0.7 3.6 0.1 7.4-1.5 11 1.8 8.6-2.9 17.7-14.2 24.5-2 1-4.1 1.9-6.1 2.8-2.2 14.3-14.3 25.4-29.3 25.7-14.8 0.2-27.3-10.4-30-24.5-2.3-0.8-4.6-1.8-6.9-2.9-11.6-6.4-16.6-15.3-15-24-1.9-3.8-2.5-7.7-1.7-11.6-1.9-3.8-2.4-7.8-1.7-11.7-2.1-4.2-2.8-8.6-1.9-12.9-3.8-7.8-2.4-16.2 4.1-23.7q-0.7-2.2-1.7-4.4l-19.8 38c2.2 1.7 3.6 4.2 3.6 7.1 0 4.9-4.1 9-9 9-4.9 0-8.9-4.1-8.9-9 0-4 2.6-7.3 6.1-8.5l-11.7-79.1-34.2 21c1.1 2.4 1.8 5 1.8 7.8 0 10.4-8.4 18.8-18.8 18.8-10.3 0-18.7-8.4-18.7-18.8 0-7.1 4-13.2 9.8-16.4l-18.5-46.2-7.9 10.8c1.9 1.6 3 4 3 6.6 0 5-4 9-8.9 9-2.6 0-5-1.2-6.6-2.9-1.8 0.5-3.8 0.9-5.8 0.9-10.3 0-18.7-8.4-18.7-18.7 0-9.3 6.7-16.9 15.4-18.5l-4.2-55.3c-10-0.3-18-8.6-18-18.6 0-10.4 8.4-18.8 18.7-18.8q1.7 0 3.4 0.4c0-0.4-0.1-0.7-0.1-1.1 0-5 4-9 8.9-9 5 0 9 4 9 9 0 3.4-1.9 6.3-4.7 7.8l7.5 16.5 10.4-47.7c-7-2.7-12.1-9.5-12.1-17.5 0-10.3 8.4-18.7 18.8-18.7 10.3 0 18.7 8.4 18.7 18.7 0 5.5-2.4 10.4-6.1 13.8l7.4 12.4c2.1-9.1 4.9-17.7 8.5-26l6.5-23c-3.3-1.3-5.7-4.5-5.7-8.4 0-4.9 4-8.9 8.9-8.9 4.9 0 9 4 9 8.9q-0.1 0.1-0.1 0.3c10.6-13.5 23.6-25 38.3-34-3.9-3.4-6.3-8.4-6.3-14 0-10.3 8.4-18.7 18.7-18.7 10.3 0 18.6 8.3 18.7 18.5 13.1-4.1 26.9-6.5 41.3-6.6q0.2 0 0.4 0c35.4-0.5 68 12 93.3 33 3.3-4.5 8.6-7.5 14.6-7.5 10 0 18.1 8.2 18.1 18.2 0 6.4-3.3 12-8.4 15.2q4.7 6.3 8.6 13.2c0.3-2.3 2.2-4.2 4.6-4.2 2.6 0 4.6 2.1 4.6 4.7 0 1.7-0.9 3.2-2.3 4l1.4 12.5c5.2 12.9 8.7 26.7 9.9 41.2l8.4-24.1c-6.2-3-10.6-9.4-10.6-16.8 0-10.3 8.4-18.7 18.8-18.7 10.3 0 18.7 8.4 18.7 18.7 0 8.8-6.1 16.2-14.3 18.2l4.3 45.4 18.1-32.1c-0.5-0.7-0.8-1.6-0.8-2.5 0-2.6 2.1-4.7 4.6-4.7 2.6 0 4.7 2.1 4.7 4.7 0 2.6-2.1 4.6-4.7 4.6-0.8 0-1.5-0.2-2.2-0.6l-19.3 34.4 4.4 46.3 9.1 10.1 16.8-52c-6.5-3-11.1-9.5-11.1-17.1 0-10.3 8.4-18.7 18.8-18.7 10.3 0 18.7 8.4 18.7 18.7 0 7.2-4.1 13.5-10.1 16.6 9.5 0.9 17 8.9 17 18.7 0 10.3-8.4 18.7-18.8 18.7q-0.5 0-1.1-0.1l-7.9 39.8 8 8.8c1.6-1.3 3.5-2.1 5.7-2.1 4.9 0 8.9 4 8.9 9zm-24-91l-0.6 1.8q1.1-0.9 2.4-1.5-0.9-0.1-1.8-0.3zm-17.5 54.4l15.3 16.9 7.2-36.5c-5.8-1.8-10.4-6.3-12.3-12.1zm14.8 19.6l-15.6-17.2-8 24.9c-0.3 0.9-1.1 1.5-2 1.5q-0.2 0-0.3-0.1c-1-0.1-1.8-0.9-1.9-1.9l-3.8-40.1c-1.5 1.2-3.4 1.9-5.4 1.9q-0.1 0-0.2 0l-6.7 38.1 25.2 23.9c3.3-2.9 7.7-4.8 12.4-4.8q0.6 0.1 1.1 0.1zm-35.4-73.1l-20.4 36.3c-0.2 0.3-0.6 0.5-1 0.5q-0.1 0-0.2 0c-0.4-0.1-0.8-0.5-0.8-0.9l-2.2-20.4c-2.6 13.1-6.7 24.7-11.7 35 2.2-0.9 4.7-1.5 7.3-1.5 10.3 0 18.7 8.4 18.7 18.8 0 3.1-0.8 6.1-2.2 8.7l2.1 2 6.5-36.7c-3.9-1-6.7-4.4-6.7-8.6 0-4.9 4-8.9 9-8.9 1.4 0 2.7 0.3 4 1zm-290.6 120.5l34.4-21c-5.4-5.3-10.7-11-15.9-17.2l-6.4 2.7c0.2 0.7 0.4 1.4 0.4 2.2 0 4.9-4.1 8.9-9 8.9-4.9 0-9-4-9-8.9 0-3.8 2.5-7.1 5.9-8.4l-8.7-43q-0.7-1.9-1.3-3.9-0.1 0-0.2 0c-1.6 0-3.1-0.5-4.3-1.2l-25.1 34.6 19.6 48.7c1.6-0.4 3.2-0.7 4.9-0.7 6 0 11.3 2.9 14.7 7.2zm-43-94c0-3.1 1.5-5.8 3.9-7.4l-9.8-21.5-6.1 28.2 14.9 37.1 24.2-33.4c-1.8-1.7-2.9-4-2.9-6.6 0-3.4 2-6.3 4.8-7.8-2-10-3.2-20.9-3.4-32.8q0-0.3 0-0.7c-0.1-3.3 0.1-6.6 0.2-9.8l-13.1 46.6c3 1.4 5.2 4.5 5.2 8.1 0 4.9-4 9-9 9-4.9 0-8.9-4.1-8.9-9zm261.3 73.1l29.3 26.5 7.9-40.7c-6.7-2.3-11.6-8.2-12.5-15.4-7.7 11.3-16.3 20.9-24.7 29.6zm62.8-155.3l-11.9 33.9c0.2 10.6-0.5 20.4-1.9 29.5l2.6 24.5 20.3-36-4.9-51.5q-0.1 0-0.1 0-2.1 0-4.1-0.4zm-25.9-30.5q-0.1 0-0.2 0.1-0.4 0-0.8-0.1l-0.5 1q1.1 2.2 2.1 4.4zm-255.4-2.3q3.4-6.2 7.3-12c-0.9 0.3-1.9 0.5-2.9 0.5-0.4 0-0.8 0-1.1-0.1zm-48 82.5l11 24.1c0.9-0.4 2-0.6 3.1-0.6q0.8 0 1.6 0.2l16.4-57.8c0.2-1.7 0.5-3.5 0.8-5.2l-9.7-16.1c-2.7 1.5-5.8 2.4-9.1 2.4q-1.3 0-2.5-0.2zm-3.7-3l-4.6-10.1q0 0.8 0 1.7c0 7-3.8 13.1-9.4 16.3l7.9 19.7zm-14.2 65.5l6.6-30.3-10.3-25.6q-0.9 0.3-1.7 0.5l4.2 55.3q0.6 0 1.2 0.1zm23 10.6l-13.6-33.8-5.2 24.2c7.2 2.6 12.3 9.5 12.3 17.6q0 0.5 0 1zm54.4 15.9l5.8-2.5c-7.9-9.6-15.1-20.6-21-33.6l6.4 31.5c0.3-0.1 0.6-0.1 1-0.1 3.4 0 6.3 1.9 7.8 4.7zm63.7 60.3c-6.9-13.1-21.1-24.9-36.3-39.5l11.6 78.2c0.2-0.1 0.5-0.1 0.7-0.1 1.3 0 2.5 0.3 3.5 0.7zm121.5-18.1l-1.6-1.4c-7.4 8.2-13.1 16.2-15.5 24.8 6.5 7 8.3 15.1 5.2 22.8q0.1 0.3 0.2 0.6c0.4-0.1 0.8-0.1 1.3-0.1 0.2 0 0.5 0 0.7 0zm50.7 3.5l-30.3-27.5c-5.9 6-11.6 11.6-16.7 16.9l-0.8 3.9 30 27c3.2-2.6 7.4-4.2 11.9-4.2q1.4 0 2.7 0.2zm32.2-45.1l-3.6-3.5c-3.5 4-8.5 6.5-14.1 6.5q-1 0-1.9-0.1l-8.4 43.1 12.2 11.1c1.6-1.6 3.7-2.5 6.1-2.5q0.1 0 0.2 0zm19.6-40.2l2.5 26.2 5.6-17.3z"/>
			</g>
			<g id="&lt;Group&gt;">
				<g id="&lt;Group&gt;">
					<g id="&lt;Group&gt;">
						<path id="&lt;Path&gt;" class="s4" d="m423.9 758.7l-58.9 34.2c-3.2 1.9-8.4 1.9-11.6 0l-59.3-34.2c-1.6-0.9-2.4-2.1-2.4-3.3v14c0 1.2 0.8 2.4 2.4 3.3l59.3 34.3c3.2 1.8 8.4 1.8 11.6 0l58.9-34.3c1.6-0.9 2.4-2.1 2.4-3.3v-14c0 1.2-0.8 2.4-2.4 3.3z"/>
						<path id="&lt;Path&gt;" class="s7" d="m423.9 758.7l-58.9 34.2c-3.2 1.9-8.4 1.9-11.6 0l-59.3-34.2c-1.6-0.9-2.4-2.1-2.4-3.3v14c0 1.2 0.8 2.4 2.4 3.3l59.3 34.3c3.2 1.8 8.4 1.8 11.6 0l58.9-34.3c1.6-0.9 2.4-2.1 2.4-3.3v-14c0 1.2-0.8 2.4-2.4 3.3z"/>
						<path id="&lt;Path&gt;" class="s4" d="m294.1 758.7l59.3 34.2c3.2 1.9 8.4 1.9 11.6 0l58.9-34.2c1.6-0.9 2.4-2.1 2.4-3.3 0-1.3-0.8-2.5-2.4-3.4l-59.3-34.2c-3.2-1.9-8.4-1.9-11.6 0l-58.9 34.2c-1.6 0.9-2.4 2.1-2.4 3.4 0 1.2 0.8 2.4 2.4 3.3z"/>
						<path id="&lt;Path&gt;" class="s9" d="m294.1 758.7l59.3 34.2c3.2 1.9 8.4 1.9 11.6 0l58.9-34.2c1.6-0.9 2.4-2.1 2.4-3.3 0-1.3-0.8-2.5-2.4-3.4l-59.3-34.2c-3.2-1.9-8.4-1.9-11.6 0l-58.9 34.2c-1.6 0.9-2.4 2.1-2.4 3.4 0 1.2 0.8 2.4 2.4 3.3z"/>
					</g>
					<g id="&lt;Group&gt;">
						<path id="&lt;Path&gt;" class="s4" d="m400.6 749l-37.7 21.9c-2.1 1.2-5.4 1.2-7.5 0l-37.9-21.9c-1-0.6-1.5-1.3-1.5-2.1v8.9c0 0.8 0.5 1.6 1.5 2.2l37.9 21.9c2.1 1.2 5.4 1.2 7.5 0l37.7-21.9c1-0.6 1.5-1.4 1.5-2.2v-8.9c0 0.8-0.5 1.5-1.5 2.1z"/>
						<path id="&lt;Path&gt;" class="s7" d="m400.6 749l-37.7 21.9c-2.1 1.2-5.4 1.2-7.5 0l-37.9-21.9c-1-0.6-1.5-1.3-1.5-2.1v8.9c0 0.8 0.5 1.6 1.5 2.2l37.9 21.9c2.1 1.2 5.4 1.2 7.5 0l37.7-21.9c1-0.6 1.5-1.4 1.5-2.2v-8.9c0 0.8-0.5 1.5-1.5 2.1z"/>
						<path id="&lt;Path&gt;" class="s11" d="m316 746.9q0 0 0 0z"/>
						<path id="&lt;Compound Path&gt;" fill-rule="evenodd" class="s4" d="m316 746.9q0 0 0 0c0-0.8 0.5-1.6 1.5-2.2l37.7-21.9c2-1.2 5.3-1.2 7.4 0l37.9 21.9c1.1 0.6 1.6 1.4 1.6 2.2 0 0.8-0.5 1.5-1.5 2.1l-37.7 21.9c-2.1 1.2-5.4 1.2-7.5 0l-37.9-21.9c-1-0.6-1.5-1.3-1.5-2.1zm14.2 0l29 16.7 28.7-16.7-29-16.7z"/>
						<path id="&lt;Path&gt;" class="s2" d="m330.2 746.9l29 16.7 28.7-16.7-29-16.7z"/>
					</g>
				</g>
				<path id="&lt;Path&gt;" class="s15" d="m330.2 746.9l-190.2-257.3 216.4 124.5 2.8 149.5z"/>
				<path id="&lt;Path&gt;" class="s15" d="m387.9 746.9l189.6-260.5-221.1 127.7 2.8 149.5z"/>
			</g>
		</g>
	</g>
	<g id="Speech bubble">
		<g id="&lt;Group&gt;">
			<g id="&lt;Group&gt;">
				<g id="&lt;Group&gt;">
					<path id="&lt;Path&gt;" class="s12" d="m763.1 158.2l58.3 33.4c1.8 1.1 3.3 2.6 4.2 4.3 1 1.7 1.5 3.6 1.5 5.6v42.5c0 7.6-6.5 12.8-15 7.9l-8.1-4.6-1.7-1-0.4-0.2-10.9-6.2-37.3-21.3c-3.5-2-5.7-5.8-5.7-9.9v-42.6c0-8.2 9.9-10.9 15.1-7.9z"/>
					<path id="&lt;Path&gt;" class="s16" d="m818.3 201c-0.7-1.5-1.7-2.8-3-3.9q0 0 0 0-0.7-0.5-1.4-0.9l-58.4-33.5c-2.5-1.4-5.7 0.4-5.7 3.3 0-8.2 10-10.9 15.1-7.9l58.4 33.4c1.8 1.1 3.2 2.6 4.2 4.3z"/>
					<path id="&lt;Path&gt;" class="s8" d="m819.6 248.5v-42.4q0-0.7-0.1-1.4c-0.2-1.3-0.6-2.6-1.2-3.7l9.2-5.2c0.9 1.7 1.5 3.6 1.5 5.6v42.5c0 7.6-6.5 12.8-15.1 7.9 2.6 1.5 5.7-0.3 5.7-3.3z"/>
					<path id="&lt;Path&gt;" class="s12" d="m805.8 247.2l-1.6-1z"/>
					<path id="&lt;Path&gt;" class="s12" d="m742.3 186.7l7.5-4.4v2.2z"/>
					<path id="&lt;Path&gt;" class="s16" d="m742.3 186.7l7.5-4.4v2.2z"/>
					<path id="&lt;Path&gt;" class="s12" d="m751.2 184.1l-8.5 2.4c-1.4 0.4-1.8 2.1-0.7 3.1l8.8 8.2z"/>
				</g>
			</g>
			<g id="&lt;Group&gt;">
				<g id="&lt;Group&gt;">
					<path id="&lt;Compound Path&gt;" fill-rule="evenodd" class="s2" d="m804.3 220.1l0.5 1-0.5 0.4c-5.2 5.1-12.1 5.5-19.5 1.2-7.4-4.2-14.3-12.7-19.5-23.7l-0.4-1 0.4-0.4c5.2-5.1 12.2-5.5 19.6-1.2 7.3 4.2 14.3 12.6 19.4 23.7zm-19.5 0.2c6.5 3.7 12.6 3.5 17.3-0.7-4.6-9.7-10.8-17.1-17.3-20.8-6.4-3.7-12.6-3.5-17.3 0.7 4.7 9.7 10.8 17 17.3 20.8z"/>
				</g>
				<g id="&lt;Group&gt;">
					<path id="&lt;Path&gt;" class="s2" d="m785.2 202.6c3.3 1.9 6 6.6 6 10.5 0 3.8-2.7 5.4-6 3.5-3.4-2-6.1-6.7-6.1-10.5 0-3.9 2.7-5.4 6.1-3.5z"/>
				</g>
				<g id="&lt;Group&gt;">
					<path id="&lt;Path&gt;" class="s12" d="m782.9 203.1c1.1 0.6 1.9 2.1 1.9 3.3 0 1.3-0.9 1.8-1.9 1.2-1.1-0.7-2-2.2-2-3.4 0-1.2 0.9-1.7 2-1.1z"/>
				</g>
				<g id="&lt;Group&gt;">
					<path id="&lt;Path&gt;" class="s12" d="m781.7 207.6c0.6 0.4 1 1.1 1 1.8 0 0.6-0.4 0.9-1 0.6-0.6-0.4-1-1.2-1-1.8 0-0.6 0.4-0.9 1-0.6z"/>
				</g>
			</g>
		</g>
	</g>
	<g id="Character">
		<g id="&lt;Group&gt;">
			<g id="&lt;Group&gt;">
				<path id="&lt;Path&gt;" class="s17" d="m648.2 243.1c-7.7 1-14.2 6.2-16.8 13.5l-19.5 54.6-42.9-26.3c-2.6-1.9-4.6-4.6-5.7-7.6l-2-5.5c-1.3-3.7-3.8-7-7-9.3-8.1-6.1-12.8-12.4-12.8-12.4-2.5 2.7-2.8 6.8-0.6 9.8 2.3 3.1 5.1 5.9 5.1 5.9l-4.6 0.3c-3.3 0.2-6.6-0.6-9.5-2.4l-11.7-7.1c-1.5-0.9-3.4 0.1-3.4 1.8-0.1 5.9 1.7 12.2 3.4 17 1.9 5.2 6 9.3 11.2 11.3 6.2 2.4 12.2 4.4 15.7 5.6q3 1 5.5 2.9l3.5 2.5 46.5 45.2c10.1 8.2 25.2 5 31-6.6l15.2-30.5 8.9-63.9z"/>
				<path id="&lt;Path&gt;" class="s12" d="m647.8 242.9c-8.9 0.9-16.5 6.9-19.6 15.3l-14.2 38.8-3.9 10.1-12.4-7.2-17.4 23.5 19.5 19.7c10.7 10.8 28.9 7.9 35.5-5.8l10.4-21 8.4-14.8 3.6-59.6z"/>
				<path id="&lt;Path&gt;" class="s8" d="m647.8 242.9c-8.9 0.9-16.5 6.9-19.6 15.3l-14.2 38.8-3.9 10.1-12.4-7.2-17.4 23.5 19.5 19.7c10.7 10.8 28.9 7.9 35.5-5.8l10.4-21 8.4-14.8 3.6-59.6z"/>
				<path id="&lt;Path&gt;" class="s18" d="m610.1 307.1l13 8.8c-2-11.9-10.6-14.9-10.6-14.9z"/>
				<path id="&lt;Path&gt;" class="s12" d="m587.3 296.1l2.5 1.5c-1.6 12.1-14.5 18.8-14.5 18.8l-2.1-2c-1.1 2.8-0.5 6 1.5 8.3l1.1 1.3c2.7 3.1 7.2 3.9 10.8 1.9 6.5-3.6 12.4-11.2 14.8-18.3 1.4-4.1-0.4-8.6-4.2-10.6l-1.7-1c-2-1-4.4-1.2-6.6-0.5z"/>
				<path id="&lt;Path&gt;" class="s16" d="m587.3 296.1l2.5 1.5c-1.6 12.1-14.5 18.8-14.5 18.8l-2.1-2c-1.1 2.8-0.5 6 1.5 8.3l1.1 1.3c2.7 3.1 7.2 3.9 10.8 1.9 6.5-3.6 12.4-11.2 14.8-18.3 1.4-4.1-0.4-8.6-4.2-10.6l-1.7-1c-2-1-4.4-1.2-6.6-0.5z"/>
			</g>
			<g id="&lt;Group&gt;">
				<path id="&lt;Path&gt;" class="s11" d="m615.5 657.7c3.9 4.1 9.8 5.9 15.4 5.7 5.7-0.1 11.2-2 16.4-4.1 5.2-2.2 11.8-8.2 17.5-8.1 5.2 0.1 11.4-0.5 16.5-1.1 0.5-11.4-2.4-22.4-2.4-22.4l-26.4-0.7c-7.1 9.8-20.9 17.9-31.4 20.9-3.4 1-5.9 3.7-6.5 7q0 0.1 0 0.1c0.3 1.7 0.9 2.7 0.9 2.7z"/>
				<path id="&lt;Path&gt;" class="s19" d="m664.8 651.2c-5.7-0.1-12.3 5.9-17.5 8.1-5.2 2.1-10.7 4-16.4 4.1-5.6 0.2-11.5-1.6-15.4-5.7 0 0-0.6-1-0.9-2.7q0 0 0-0.1c-0.3 1.1-0.3 2.3 0 3.5 0.3 1.7 0.9 2.7 0.9 2.7 3.9 4.1 9.8 5.8 15.4 5.7 5.7-0.2 11.2-2 16.4-4.2 5.2-2.1 11.8-8.1 17.5-8 5.8 0.1 10.8-0.4 16.2-1q0.2-1.7 0.3-3.5c-5.1 0.6-11.3 1.2-16.5 1.1z"/>
			</g>
			<g id="&lt;Group&gt;">
				<path id="&lt;Path&gt;" class="s19" d="m739.3 660.2c0 2.7-0.2 5.4-0.8 8-1 4.6-3.4 9.1-7.3 11.7-3.4 2.2-7.6 2.8-11.7 3.1-3.5 0.2-7.2 0.2-10.6-1.1-2.5-1-4.9-2.8-6.2-5.1q0 0.1 0 0.1c0.8 3.5 3.8 6.2 7.2 7.5 3.3 1.3 7 1.3 10.6 1.1 4.1-0.2 8.3-0.9 11.6-3.1 4-2.6 6.4-7.1 7.4-11.7 0.5-2.6 0.7-5.3 0.8-8 0-3.7 1.5-7.2 4.3-9.8q1-0.9 1.8-1.9c0.9-1 1.3-2.2 1.2-3.5q-0.1-0.7-0.2-1.5c-0.9 1.2-3.2 3.9-3.8 4.4-2.7 2.6-4.3 6.1-4.3 9.8z"/>
				<path id="&lt;Path&gt;" class="s11" d="m719.1 632.3c1 5.4 0 11.1-2.1 16.2-2 5.2-5.2 9.8-8.5 14.2-1.7 2.1-3.4 4.2-4.5 6.5-1.2 2.4-1.9 5.1-1.3 7.6 1.3 2.3 3.7 4.1 6.2 5.1 3.4 1.3 7.1 1.3 10.6 1.1 4.1-0.3 8.3-0.9 11.7-3.1 3.9-2.6 6.3-7.1 7.3-11.7 0.6-2.6 0.8-5.3 0.8-8 0-3.7 1.6-7.2 4.3-9.8 0.6-0.5 2.9-3.2 3.8-4.4-0.9-6.6-3.9-11.3-3.9-11.3z"/>
			</g>
			<g id="&lt;Group&gt;">
				<path id="&lt;Path&gt;" class="s19" d="m641.1 371.5l2.2 150.6 7.1 105.4c18 11.4 31 2.1 31 2.1 6.9-49.9 7.8-80.7 4.1-101.4l3.4-81.3 10.2 84.4 17.2 103.4c18.5 12 31.5 0 31.5 0 0-38.3 3.4-81.1-7.1-108.7 7.4-85.3-5-152.9-5-152.9z"/>
				<path id="&lt;Path&gt;" class="s20" d="m685.1 415.9l3.8 31-1.6 38.1-7-62.6c-16-6.3-18.1-15.1-18.1-15.1 10.5 7.6 22.9 8.6 22.9 8.6z"/>
			</g>
			<g id="&lt;Group&gt;">
				<path id="&lt;Path&gt;" class="s3" d="m675.3 240l-17.6 1.9c-14.4 12.7-21.9 39.4-18.8 68.8 3.1 29.5 2.2 60.8 2.2 60.8 39.1 28.6 88.4 7.8 94.6 1.6l-2.9-36.2c-0.3-4 0.4-8.1 2-11.9 3.7-8.5 10.3-25.4 11.1-38.5 1.3-18.3-7.1-33.6-7.1-33.6l-25.6-11.2z"/>
			</g>
			<g id="&lt;Group&gt;">
				<g id="&lt;Group&gt;">
					<path id="&lt;Path&gt;" class="s11" d="m670.4 265.7c-14.7 33.9-14.5 68.8-14.5 68.8l7.3 15.5 11.3-14.8c-1.6-33.8 1.4-68.5 1.4-68.5z"/>
					<path id="&lt;Path&gt;" class="s11" d="m669.8 252.9c-0.5 6.8 0.6 12.8 0.6 12.8 2 1.3 5.5 1 5.5 1 4.7-3.7 8.8-10.6 8.8-10.6l-8.8-3.2z"/>
				</g>
				<g id="&lt;Group&gt;">
					<path id="&lt;Path&gt;" class="s21" d="m675.9 252.9c7.6 2.8 14.3 16.3 14.3 16.3 19.9-16.9 23-27.5 23-27.5-5.1-7.3-9.6-10.2-9.6-10.2z"/>
					<path id="&lt;Path&gt;" class="s21" d="m675.9 252.9c-5.8 0.1-10.9 8.2-10.9 8.2-0.9-14.1 10.9-25 10.9-25z"/>
				</g>
				<g id="&lt;Group&gt;">
					<path id="&lt;Path&gt;" class="s19" d="m713.2 174.6c-3.8-4.9-10-5.4-10-5.4l-52.4 4.9c-6 13-1.2 21.6-1.2 21.6-0.8 19.8-1.5 32.4 7.1 36.6 4.7 2.3 11.8 3.3 19.1 2.7 6.2-0.4 12.4-2 17.6-4.7l0.2-0.2c3.9-2 6.6-5.7 7.6-10 0.8-3.8 1.5-7.8 1.8-11.7 0.1-2.2 0.2-4.5 0.7-6.7 0.5-2.2 1.4-4.3 2.9-5.9 1.6-1.6 3.9-2.5 6.1-2.1 0.3 0.1 0.7 0.3 1 0.4 1.5-8.8 2-16.4-0.5-19.5z"/>
					<path id="&lt;Path&gt;" class="s17" d="m694 176.1c-1.1 3.6-0.4 7.6 0.7 11.2 1.2 3.6 2.7 7.1 3.4 10.8 0.6 3.7 0.2 7.6-1.5 10.9-1.7 3.3-4.7 6-8.3 6.8-5.7 1.2-11.2-2.1-16.8-3.3-5.2-1-11.1 0.1-15.8 2.9-1.8 1-4-0.2-4.1-2.2-0.7-11.4-0.7-29.3 1-37.7z"/>
					<path id="&lt;Path&gt;" class="s17" d="m699.4 227.1q0 0 0 0 0 0 0 0z"/>
					<path id="&lt;Path&gt;" class="s10" d="m704 214.1c0 0-0.1 4.6-0.3 10.2 2.2-1.8 3.6-4 4.9-7.7-1.8-0.3-3.6-1.1-4.6-2.5z"/>
					<g id="&lt;Group&gt;">
						<path id="&lt;Path&gt;" class="s22" d="m669.9 196.4l-9.5 11.7 8.7 3.1z"/>
						<path id="&lt;Path&gt;" class="s22" d="m677.2 217.1q-3.7 1.1-7.4 2.3c0.7 1.7 3.2 2.8 5 2.3 1.8-0.5 2.6-2.7 2.4-4.6z"/>
						<path id="&lt;Path&gt;" class="s20" d="m677.2 217.1q-3.7 1.1-7.4 2.3c0.7 1.7 3.2 2.8 5 2.3 1.8-0.5 2.6-2.7 2.4-4.6z"/>
						<path id="&lt;Path&gt;" class="s22" d="m672.3 221.6c0.8 0.2 1.7 0.3 2.5 0.1 1.4-0.4 2.2-1.9 2.4-3.4-1-0.1-2 0-2.9 0.5-1 0.6-1.7 1.6-2 2.8z"/>
						<path id="&lt;Path&gt;" class="s19" d="m682.9 198.9c0 1.5-1.3 2.6-2.7 2.5-1.5 0-2.6-1.3-2.5-2.8 0.1-1.4 1.3-2.5 2.8-2.5 1.4 0.1 2.5 1.4 2.4 2.8z"/>
						<path id="&lt;Path&gt;" class="s19" d="m661 196.9c-0.1 1.4-1.3 2.6-2.8 2.5-1.4-0.1-2.5-1.3-2.5-2.8 0.1-1.5 1.3-2.6 2.8-2.5 1.4 0 2.6 1.3 2.5 2.8z"/>
						<path id="&lt;Path&gt;" class="s19" d="m659 186.1q-3 1.9-6 3.8c-0.5-1.4 0.1-3.2 1.3-4.1 1.2-0.9 3.5-0.6 4.7 0.3z"/>
						<path id="&lt;Path&gt;" class="s19" d="m681.4 187.1q2.8 2.1 5.6 4.3c0.7-1.3 0.2-3.2-0.9-4.2-1.1-1-3.4-0.9-4.7-0.1z"/>
					</g>
					<g id="&lt;Group&gt;">
						<path id="&lt;Path&gt;" class="s17" d="m717.4 198c-0.7-1.7-2-3.1-3.7-3.9-0.3-0.1-0.7-0.3-1-0.4-2.2-0.4-4.5 0.5-6.1 2.1-1.5 1.6-2.4 3.7-2.9 5.9-0.5 2.2-0.6 4.5-0.7 6.7-0.3 4-1 8-1.9 12-1 4.2-3.7 7.7-7.5 9.7l-0.2 0.2c-5.2 2.7-11.4 4.3-17.6 4.7v5.3 12.6l24.8-14.7c1.8-1 2.9-2.9 2.9-5 0.1-2.9 0.2-6 0.2-8.9 0.2-5.6 0.3-10.2 0.3-10.2 1 1.4 2.8 2.2 4.6 2.5 0.9 0.1 1.7 0.1 2.5-0.1 2.3-0.7 4.3-2.6 5.4-4.8 1.2-2.2 1.6-4.7 1.8-7.2 0.1-2.2-0.1-4.5-0.9-6.5z"/>
						<path id="&lt;Path&gt;" class="s7" d="m696.9 229.9c1.5-1.9 2.5-4.1 3.1-6.4-1.4 2.8-3.6 5.2-6.4 6.6q-0.1 0.1-0.2 0.2c-5.2 2.7-11.4 4.3-17.6 4.7v4.6c3.6-0.4 7.1-1 10.4-2.2 4.1-1.5 8-4 10.7-7.5z"/>
					</g>
					<path id="&lt;Path&gt;" class="s19" d="m706.5 170.7c-6.2 5.5-16 8-24.2 9-8.1 1.1-16.5 0.1-24.4-2.1-3.4-0.8-6.9-2.1-8.8-5-2.3-3.3-2.4-8-0.8-11.7 1.7-3.7 5.2-6.6 9.2-7.3 7.7-1.4 15.2 4.6 23 4.1 3.4-0.2 6.7-1.6 9.9-2.6 3.3-1.1 6.9-1.7 10.1-0.5 2.7 1.1 4.8 3.6 5.7 6.4 0.9 2.8 1.2 6.9 0.3 9.7z"/>
				</g>
			</g>
			<g id="&lt;Group&gt;">
				<path id="&lt;Path&gt;" class="s11" d="m625.5 372.3l-18-73.4c-0.6-2.3-2-4.3-4.1-5.5l-44.9-25.8q-0.4-0.3-0.8-0.2v-0.1c-2.4-0.2-3.8 2.1-4.1 2.9-0.1 0.3-0.2 0.7-0.1 1.1l18 73.5c0.6 2.3 2 4.3 4.1 5.5l44.9 25.8c0.3 0.2 0.8 0.3 1.1 0.2 1.5-0.1 3.2-1.5 3.8-2.8q0-0.1 0-0.2 0 0 0.1 0h-0.1q0.2-0.5 0.1-1z"/>
				<path id="&lt;Path&gt;" class="s23" d="m623 374.2l-18-73.5c-0.5-2.3-2-4.3-4.1-5.4l-44.8-25.9c-1-0.5-2.1-0.1-2.5 0.8-0.1 0.3-0.2 0.7-0.1 1.1l18 73.5c0.6 2.3 2 4.3 4.1 5.5l44.9 25.8c0.3 0.2 0.8 0.3 1.1 0.2 0.9-0.2 1.7-1.1 1.4-2.1z"/>
			</g>
			<path id="&lt;Path&gt;" class="s12" d="m713.2 241.7c-6.3 14.3-26 24.6-28.5 57-2.6 32.3 4.6 96.3 10 112.9 21.1 8 51.4-5.2 51.4-5.2-5.7-21.2-11.5-79.4-9-109.2 2.6-29.7-5-47.3-5-47.3z"/>
			<path id="&lt;Path&gt;" class="s12" d="m707.9 276.4c1.9-1.5 2.3-4.2 0.8-6.1l-5-6.4 10-1.9c2.5-0.5 4.1-3 3.4-5.4l-3.9-14.9c-6.3 14.3-26 24.6-28.5 57-0.3 3.3-0.4 6.9-0.5 10.7 4.5-9.1 13.6-25.3 23.7-33z"/>
			<path id="&lt;Path&gt;" class="s8" d="m707.9 276.4c1.9-1.5 2.3-4.2 0.8-6.1l-5-6.4 10-1.9c2.5-0.5 4.1-3 3.4-5.4l-3.9-14.9c-6.3 14.3-26 24.6-28.5 57-0.3 3.3-0.4 6.9-0.5 10.7 4.5-9.1 13.6-25.3 23.7-33z"/>
			<path id="&lt;Path&gt;" class="s12" d="m672.3 240.1c-2.6 3-4.4 5.3-6.4 8.5-9 14.5-14.1 29.5-18.1 85.8-2.2 25.4 4.8 63.4 4.8 63.4-4.9-0.5-16.7-14.6-16.7-14.6 3-28.7-5.8-79.6 0-106.3 5.7-26.6 21.8-35 21.8-35z"/>
			<path id="&lt;Path&gt;" class="s12" d="m672.3 240.1l-16.6 9.9c-1.3 0.8-1.4 2.5-0.3 3.5l2.3 2-7.6 3.9c-2.1 1.1-3.5 3.3-3.6 5.7-0.1 12.4 2.5 27.1 4.3 35.9 3.6-29.9 8.2-41.3 15.1-52.4 2-3.2 3.8-5.5 6.4-8.5z"/>
			<path id="&lt;Path&gt;" class="s8" d="m672.3 240.1l-16.6 9.9c-1.3 0.8-1.4 2.5-0.3 3.5l2.3 2-7.6 3.9c-2.1 1.1-3.5 3.3-3.6 5.7-0.1 12.4 2.5 27.1 4.3 35.9 3.6-29.9 8.2-41.3 15.1-52.4 2-3.2 3.8-5.5 6.4-8.5z"/>
			<g id="&lt;Group&gt;">
				<path id="&lt;Path&gt;" class="s17" d="m732.1 249.9c-10.1 10.2-21.8 43.9-26.7 59.2l-10.8 30.4c-15.7 0.8-17.3 2.9-30.1 5.2-4.1 0.7-13.4 2.7-19.6 3.4-1.2 0-2.3 0-3.4-0.1-5.2-0.7-15.8-9-30.4-10.6-1.4 3 0 6.6 3 8l10.2 4.6c-9.3 1.9-25.1-11.4-29.8-9.3-4.8 2.1 1.9 7 1.9 7-1.7 6.1 3.9 9.9 3.9 9.9 0 5.9 5.4 10.8 19 14.1 7.2 1.4 14.9-1.4 21.6-1.4 0.8 0 2.7 0 5.3-0.1l59.9 1.3c7.1 0 13.5-4 16.7-10.3 5.1-10.2 12.4-24.8 14.4-29.5 26-62.4 23.9-75.6-5.1-81.8z"/>
				<path id="&lt;Path&gt;" class="s10" d="m650.6 357h-7.9v-9.5l7.9-1z"/>
				<path id="&lt;Path&gt;" class="s10" d="m650.6 371.4h-7.9v-9.5l7.9-1z"/>
				<g id="&lt;Group&gt;">
					<path id="&lt;Path&gt;" class="s19" d="m654.8 361.8c0-3.5-3.6-6.3-8.2-6.3-4.5 0-8.1 2.8-8.1 6.3v2.1h0.4c1.1 2.5 4.2 4.3 7.7 4.3 3.6 0 6.6-1.8 7.8-4.3h0.4z"/>
					<path id="&lt;Path&gt;" class="s11" d="m654.8 363.9c0 3.5-3.6 6.3-8.2 6.3-4.5 0-8.1-2.8-8.1-6.3 0-3.5 3.6-6.3 8.1-6.3 4.6 0 8.2 2.8 8.2 6.3z"/>
					<g id="&lt;Group&gt;">
						<path id="&lt;Path&gt;" class="s19" d="m646.6 367.7c-3.1 0-5.6-1.9-5.9-4.2q0 0.2 0 0.4c0 2.5 2.6 4.6 5.9 4.6 3.3 0 6-2.1 6-4.6q0-0.2 0-0.4c-0.3 2.3-2.8 4.2-6 4.2z"/>
						<path id="&lt;Path&gt;" class="s10" d="m646.6 367.7c3.2 0 5.7-1.9 6-4.2-0.3-2.4-2.8-4.2-6-4.2-3.1 0-5.6 1.8-5.9 4.2 0.3 2.3 2.8 4.2 5.9 4.2z"/>
					</g>
				</g>
				<path id="&lt;Path&gt;" class="s12" d="m732.1 249.9c-22.2 22.9-32.1 67-32.1 67-4.5 13.5-6.2 20.4-6.2 20.4 0 0-10.2 1.3-18.6 3.4v31.4l28.3 0.9c9.7 0.3 18.6-5.2 22.7-13.9 5.3-11.1 12.1-25.3 14.4-30.5 0 0 10.9-22.8 14.8-41.9 5.3-29.1-5.7-33.4-23.3-36.8z"/>
				<path id="&lt;Path&gt;" class="s8" d="m732.1 249.9c-22.2 22.9-32.1 67-32.1 67-4.5 13.5-6.2 20.4-6.2 20.4 0 0-10.2 1.3-18.6 3.4v31.4l28.3 0.9c9.7 0.3 18.6-5.2 22.7-13.9 5.3-11.1 12.1-25.3 14.4-30.5 0 0 10.9-22.8 14.8-41.9 5.3-29.1-5.7-33.4-23.3-36.8z"/>
				<path id="&lt;Path&gt;" class="s12" d="m664.5 344.7l3.2-0.6c5.8 11.6 1.4 26.6 1.4 26.6h-2.4c0.5 2.5 2.8 4.4 5.4 4.5l6.7 0.2c2.6 0.1 4.9-1.6 5.6-4.1 2.7-9.5 0.9-20.1-1-27.1-1.3-4.4-5.8-7.1-10.3-6l-2.3 0.6c-3 0.7-5.4 2.9-6.3 5.9z"/>
				<path id="&lt;Path&gt;" class="s16" d="m664.5 344.7l3.2-0.6c5.8 11.6 1.4 26.6 1.4 26.6h-2.4c0.5 2.5 2.8 4.4 5.4 4.5l6.7 0.2c2.6 0.1 4.9-1.6 5.6-4.1 2.7-9.5 0.9-20.1-1-27.1-1.3-4.4-5.8-7.1-10.3-6l-2.3 0.6c-3 0.7-5.4 2.9-6.3 5.9z"/>
				<path id="&lt;Path&gt;" class="s18" d="m714.3 340c-3.8-6.8-9.8-11.2-18.1-11.2-1.7 5.6-2.4 8.5-2.4 8.5 12.7-0.9 20.5 2.7 20.5 2.7z"/>
			</g>
		</g>
	</g>
</svg>