<svg version="1.2" xmlns="http://www.w3.org/2000/svg" viewBox="0 0 1008 576" width="1008" height="576">
	<title>12572886_SL-073119-22070-01</title>
	<defs>
		<clipPath clipPathUnits="userSpaceOnUse" id="cp1">
			<path d="m1008 576h-1008v-576h1008z"/>
		</clipPath>
	</defs>
	<style>
		.s0 { fill: #6c247f } 
		.s1 { fill: #9a9da3 } 
		.s2 { fill: #04af73 } 
		.s3 { fill: #fcb712 } 
		.s4 { fill: #dbdbdb } 
		.s5 { fill: #005eff } 
		.s6 { fill: #f16538 } 
		.s7 { fill: #0071d6 } 
		.s8 { fill: #009bf4 } 
		.s9 { fill: #c7c7c7 } 
	</style>
	<g id="Layer 1">
		<g id="&lt;Group&gt;">
			<g id="&lt;Group&gt;">
				<g id="&lt;Clip Group&gt;" clip-path="url(#cp1)">
					<g id="&lt;Group&gt;">
						<path id="&lt;Path&gt;" class="s0" d="m956.5 224.9c0 4.8-3.9 8.7-8.8 8.7-4.8 0-8.7-3.9-8.7-8.7 0-4.9 3.9-8.8 8.7-8.8 4.9 0 8.8 3.9 8.8 8.8z"/>
						<path id="&lt;Path&gt;" class="s1" d="m1027 241.3c0 2.3-1.9 4.3-4.3 4.3-2.4 0-4.3-2-4.3-4.3 0-2.4 1.9-4.3 4.3-4.3 2.4 0 4.3 1.9 4.3 4.3z"/>
						<path id="&lt;Path&gt;" class="s2" d="m842.5 424.3c0 1.6-1.2 2.8-2.8 2.8-1.6 0-2.8-1.2-2.8-2.8 0-1.6 1.2-2.8 2.8-2.8 1.6 0 2.8 1.2 2.8 2.8z"/>
						<path id="&lt;Path&gt;" class="s1" d="m1039.6 320.8c0 2.4-2 4.3-4.4 4.3-2.4 0-4.3-1.9-4.3-4.3 0-2.4 1.9-4.3 4.3-4.3 2.4 0 4.4 1.9 4.4 4.3z"/>
						<path id="&lt;Path&gt;" class="s3" d="m936.4 56c0 3.2-2.6 5.8-5.7 5.8-3.2 0-5.8-2.6-5.8-5.8 0-3.2 2.6-5.8 5.8-5.8 3.1 0 5.7 2.6 5.7 5.8z"/>
						<path id="&lt;Path&gt;" class="s2" d="m509.4 524.8c0 1.4-1.2 2.6-2.6 2.6-1.4 0-2.6-1.2-2.6-2.6 0-1.4 1.2-2.6 2.6-2.6 1.4 0 2.6 1.2 2.6 2.6z"/>
						<path id="&lt;Path&gt;" class="s0" d="m646 457.4c0 3-2.5 5.6-5.6 5.6-3.1 0-5.6-2.6-5.6-5.6 0-3.1 2.5-5.6 5.6-5.6 3.1 0 5.6 2.5 5.6 5.6z"/>
						<path id="&lt;Path&gt;" class="s4" d="m1027.4 156.9c0 4.5-3.7 8.1-8.1 8.1-4.5 0-8.1-3.6-8.1-8.1 0-4.5 3.6-8.1 8.1-8.1 4.4 0 8.1 3.6 8.1 8.1z"/>
						<path id="&lt;Path&gt;" class="s2" d="m791 213.1c0 3.7-3 6.7-6.6 6.7-3.7 0-6.6-3-6.6-6.7 0-3.6 2.9-6.6 6.6-6.6 3.6 0 6.6 3 6.6 6.6z"/>
						<path id="&lt;Path&gt;" class="s4" d="m785.9 571c0 1.5-1.3 2.7-2.8 2.7-1.5 0-2.7-1.2-2.7-2.7 0-1.5 1.2-2.8 2.7-2.8 1.5 0 2.8 1.3 2.8 2.8z"/>
						<path id="&lt;Path&gt;" class="s3" d="m463.8 570.2c0 3.5-2.8 6.3-6.3 6.3-3.4 0-6.2-2.8-6.2-6.3 0-3.4 2.8-6.2 6.2-6.2 3.5 0 6.3 2.8 6.3 6.2z"/>
						<path id="&lt;Path&gt;" class="s3" d="m980.7 527.4c0 2.9-2.3 5.2-5.2 5.2-2.8 0-5.1-2.3-5.1-5.2 0-2.8 2.3-5.1 5.1-5.1 2.9 0 5.2 2.3 5.2 5.1z"/>
						<path id="&lt;Path&gt;" class="s4" d="m748.5 344.6c0 2.1-1.7 3.8-3.8 3.8-2.1 0-3.8-1.7-3.8-3.8 0-2.1 1.7-3.8 3.8-3.8 2.1 0 3.8 1.7 3.8 3.8z"/>
						<path id="&lt;Path&gt;" class="s4" d="m312.6 567.4c0 1.8-1.5 3.3-3.4 3.3-1.8 0-3.3-1.5-3.3-3.3 0-1.8 1.5-3.3 3.3-3.3 1.9 0 3.4 1.5 3.4 3.3z"/>
						<path id="&lt;Path&gt;" class="s5" d="m727.6 272.4c0 1.5-1.3 2.7-2.8 2.7-1.5 0-2.7-1.2-2.7-2.7 0-1.5 1.2-2.7 2.7-2.7 1.5 0 2.8 1.2 2.8 2.7z"/>
						<path id="&lt;Path&gt;" class="s0" d="m944 326.1c0 4.5-3.6 8-8 8-4.4 0-8-3.5-8-8 0-4.4 3.6-8 8-8 4.4 0 8 3.6 8 8z"/>
						<path id="&lt;Path&gt;" class="s0" d="m650 343.3c0 4.1-3.4 7.4-7.5 7.4-4.1 0-7.4-3.3-7.4-7.4 0-4.1 3.3-7.5 7.4-7.5 4.1 0 7.5 3.4 7.5 7.5z"/>
						<path id="&lt;Path&gt;" class="s5" d="m452.7 449.3c0 2-1.6 3.6-3.6 3.6-2 0-3.6-1.6-3.6-3.6 0-2 1.6-3.6 3.6-3.6 2 0 3.6 1.6 3.6 3.6z"/>
						<path id="&lt;Path&gt;" class="s6" d="m869.9 211.2c0 2.4-2 4.5-4.5 4.5-2.5 0-4.5-2.1-4.5-4.5 0-2.5 2-4.5 4.5-4.5 2.5 0 4.5 2 4.5 4.5z"/>
						<path id="&lt;Path&gt;" class="s0" d="m867.1 527.6c0 4.6-3.8 8.4-8.4 8.4-4.7 0-8.4-3.8-8.4-8.4 0-4.7 3.7-8.4 8.4-8.4 4.6 0 8.4 3.7 8.4 8.4z"/>
						<path id="&lt;Path&gt;" class="s5" d="m1046 422.8c0 3-2.4 5.4-5.4 5.4-3 0-5.5-2.4-5.5-5.4 0-3 2.5-5.5 5.5-5.5 3 0 5.4 2.5 5.4 5.5z"/>
						<path id="&lt;Path&gt;" class="s3" d="m962.7 427.9c0 2.3-1.8 4.1-4.1 4.1-2.3 0-4.1-1.8-4.1-4.1 0-2.3 1.8-4.1 4.1-4.1 2.3 0 4.1 1.8 4.1 4.1z"/>
						<path id="&lt;Path&gt;" class="s2" d="m735.1 421.5c0 2.7-2.2 4.9-4.9 4.9-2.7 0-4.9-2.2-4.9-4.9 0-2.7 2.2-4.9 4.9-4.9 2.7 0 4.9 2.2 4.9 4.9z"/>
						<path id="&lt;Path&gt;" class="s0" d="m381.5 539.1c0 4-3.2 7.2-7.2 7.2-4 0-7.2-3.2-7.2-7.2 0-3.9 3.2-7.2 7.2-7.2 4 0 7.2 3.3 7.2 7.2z"/>
						<path id="&lt;Path&gt;" class="s7" d="m700.9 555.5c0 1.7-1.4 3.1-3.1 3.1-1.7 0-3.1-1.4-3.1-3.1 0-1.7 1.4-3.1 3.1-3.1 1.7 0 3.1 1.4 3.1 3.1z"/>
						<path id="&lt;Path&gt;" class="s6" d="m991.7 77.4c0 1.8-1.5 3.2-3.2 3.2-1.8 0-3.2-1.4-3.2-3.2 0-1.8 1.4-3.2 3.2-3.2 1.7 0 3.2 1.4 3.2 3.2z"/>
						<path id="&lt;Path&gt;" class="s0" d="m797.5 132.5c0 2.2-1.9 4.1-4.2 4.1-2.2 0-4.1-1.9-4.1-4.1 0-2.3 1.9-4.2 4.1-4.2 2.3 0 4.2 1.9 4.2 4.2z"/>
						<path id="&lt;Path&gt;" class="s0" d="m564 561c0 4.3-3.5 7.8-7.8 7.8-4.4 0-7.9-3.5-7.9-7.8 0-4.4 3.5-7.9 7.9-7.9 4.3 0 7.8 3.5 7.8 7.9z"/>
						<path id="&lt;Path&gt;" class="s8" d="m551.6 443.2c0 1.5-1.3 2.8-2.9 2.8-1.5 0-2.8-1.3-2.8-2.8 0-1.6 1.3-2.9 2.8-2.9 1.6 0 2.9 1.3 2.9 2.9z"/>
						<path id="&lt;Path&gt;" class="s8" d="m554.7 352.2c0 2.1-1.7 3.9-3.8 3.9-2.2 0-3.9-1.8-3.9-3.9 0-2.1 1.7-3.9 3.9-3.9 2.1 0 3.8 1.8 3.8 3.9z"/>
						<path id="&lt;Path&gt;" class="s3" d="m670.5 237c0 2.8-2.3 5.1-5.1 5.1-2.8 0-5.1-2.3-5.1-5.1 0-2.8 2.3-5.1 5.1-5.1 2.8 0 5.1 2.3 5.1 5.1z"/>
						<path id="&lt;Path&gt;" class="s6" d="m762.8 493.8c0 3.4-2.7 6.1-6 6.1-3.4 0-6.1-2.7-6.1-6.1 0-3.3 2.7-6 6.1-6 3.3 0 6 2.7 6 6z"/>
						<path id="&lt;Path&gt;" class="s8" d="m898.2 133.5c0 1.2-1 2.2-2.2 2.2-1.2 0-2.2-1-2.2-2.2 0-1.2 1-2.2 2.2-2.2 1.2 0 2.2 1 2.2 2.2z"/>
						<path id="&lt;Path&gt;" class="s6" d="m618.4 543.9c0 2.6-2.1 4.7-4.6 4.7-2.6 0-4.7-2.1-4.7-4.7 0-2.6 2.1-4.7 4.7-4.7 2.5 0 4.6 2.1 4.6 4.7z"/>
						<path id="&lt;Path&gt;" class="s6" d="m842.4 327.7c0 2.5-2 4.5-4.4 4.5-2.5 0-4.5-2-4.5-4.5 0-2.4 2-4.4 4.5-4.4 2.4 0 4.4 2 4.4 4.4z"/>
					</g>
					<g id="&lt;Group&gt;" style="mix-blend-mode: multiply">
						<g id="&lt;Group&gt;">
							<path id="&lt;Compound Path&gt;" fill-rule="evenodd" class="s9" d="m1016 50.5q0 0 0 0l-94.2-17.6q-0.2 0-0.2-0.2 0-0.1 0.1-0.2l92.9-79.4q0.2-0.1 0.3 0 0.1 0 0.2 0.2l1.1 96.9q0 0.1 0 0.2-0.1 0.1-0.2 0.1zm-93.6-18l93.3 17.4-1.1-96.1z"/>
						</g>
						<g id="&lt;Group&gt;">
							<path id="&lt;Compound Path&gt;" fill-rule="evenodd" class="s9" d="m831 146q-0.1 0-0.2-0.1-0.1-0.2 0-0.3l34.9-73.3q0-0.2 0.2-0.2 0.1 0 0.2 0.1l46.1 60.8q0.1 0.1 0 0.2 0 0.2-0.2 0.2l-81 12.6q0 0 0 0zm34.9-73.2l-34.5 72.6 80.2-12.4z"/>
						</g>
						<g id="&lt;Group&gt;">
							<path id="&lt;Compound Path&gt;" fill-rule="evenodd" class="s9" d="m912 133.4q-0.1 0-0.2-0.1-0.1-0.1 0-0.2l9.8-100.4q0-0.2 0.2-0.3 0.1 0 0.2 0.1l70.1 91.1q0.1 0.2 0.1 0.3-0.1 0.1-0.2 0.1l-80 9.4q0 0 0 0zm10-100.1l-9.7 99.6 79.2-9.3z"/>
						</g>
						<g id="&lt;Group&gt;">
							<path id="&lt;Compound Path&gt;" fill-rule="evenodd" class="s9" d="m912 133.4q-0.1 0-0.2-0.1l-46.1-60.8q-0.1-0.1-0.1-0.2 0.1-0.1 0.1-0.1l56-39.7q0.1-0.1 0.3 0 0.1 0 0.1 0.2l-9.8 100.5q-0.1 0.1-0.2 0.2-0.1 0-0.1 0zm-45.8-61l45.6 60.1 9.7-99.3z"/>
						</g>
						<g id="&lt;Group&gt;">
							<path id="&lt;Compound Path&gt;" fill-rule="evenodd" class="s9" d="m1054.1 130.5q0 0 0 0l-62.2-6.5q-0.1 0-0.2-0.1 0-0.1 0-0.2l24.1-73.6q0-0.1 0.2-0.1 0.2 0 0.2 0.1l38.1 80q0.1 0.1 0 0.3-0.1 0.1-0.2 0.1zm-61.8-6.9l61.4 6.3-37.7-79z"/>
						</g>
						<g id="&lt;Group&gt;">
							<path id="&lt;Compound Path&gt;" fill-rule="evenodd" class="s9" d="m991.9 124q-0.1 0-0.2 0l-70.1-91.2q-0.1-0.1 0-0.3 0.1-0.1 0.3-0.1l94.1 17.6q0.2 0 0.2 0.1 0.1 0.1 0 0.2l-24 73.6q-0.1 0.1-0.2 0.1 0 0-0.1 0zm-69.5-91l69.4 90.3 23.9-72.9z"/>
						</g>
						<g id="&lt;Group&gt;">
							<path id="&lt;Compound Path&gt;" fill-rule="evenodd" class="s9" d="m859.7 183.5q0 0 0 0l-69.4-14.3q-0.1 0-0.2-0.2 0-0.1 0.2-0.2l40.6-23.3c0.1-0.1 0.2 0 0.3 0.1l28.7 37.5q0.1 0.1 0 0.3 0 0.1-0.2 0.1zm-68.6-14.6l68 14-28.2-36.9z"/>
						</g>
						<g id="&lt;Group&gt;">
							<path id="&lt;Compound Path&gt;" fill-rule="evenodd" class="s9" d="m859.7 183.5q-0.1 0-0.2-0.1-0.1-0.2 0-0.3l52.3-50.1q0.1-0.1 0.3-0.1 0.1 0 0.1 0.1l16.1 40.9q0.1 0.1 0 0.2 0 0.2-0.2 0.2l-68.3 9.2q-0.1 0-0.1 0zm52.2-49.9l-51.5 49.3 67.4-9.1z"/>
						</g>
						<g id="&lt;Group&gt;">
							<path id="&lt;Compound Path&gt;" fill-rule="evenodd" class="s9" d="m859.7 183.5q0 0 0 0-0.1 0-0.2-0.1l-28.7-37.5q-0.1-0.2 0-0.3 0-0.1 0.2-0.1l81-12.6q0.1 0 0.2 0.1c0.1 0.1 0.1 0.2 0 0.3l-52.3 50.1q-0.1 0.1-0.2 0.1zm-28.2-37.6l28.2 37 51.6-49.4z"/>
						</g>
						<g id="&lt;Group&gt;">
							<path id="&lt;Compound Path&gt;" fill-rule="evenodd" class="s9" d="m951.5 184q0 0-0.1 0l-23.4-9.7q-0.1-0.1-0.1-0.2-0.1-0.2 0.1-0.3l63.8-50.2c0.1-0.1 0.2-0.1 0.3 0 0.1 0.1 0.1 0.2 0 0.3l-40.4 60q0 0.1-0.2 0.1zm-22.9-10l22.8 9.4 39.4-58.4z"/>
						</g>
						<g id="&lt;Group&gt;">
							<path id="&lt;Compound Path&gt;" fill-rule="evenodd" class="s9" d="m928.1 174.3q0 0-0.1 0-0.1-0.1-0.1-0.2l-16.1-40.9q-0.1-0.1 0-0.2 0.1-0.1 0.2-0.1l79.9-9.3c0.1-0.1 0.2 0 0.3 0.1 0 0.1 0 0.2-0.1 0.3l-63.8 50.2q-0.1 0.1-0.2 0.1zm-15.7-40.9l15.8 40.2 62.9-49.4z"/>
						</g>
						<g id="&lt;Group&gt;">
							<path id="&lt;Compound Path&gt;" fill-rule="evenodd" class="s9" d="m951.5 184c-0.1 0-0.2-0.1-0.2-0.2 0-0.1 0-0.2 0.1-0.3l102.6-53.5q0.1-0.1 0.3 0 0.1 0.2 0 0.3l-24.2 52.1q-0.1 0.2-0.2 0.2l-78.4 1.4q0 0 0 0zm102.1-53.2l-101 52.7 77.1-1.4z"/>
						</g>
						<g id="&lt;Group&gt;">
							<path id="&lt;Compound Path&gt;" fill-rule="evenodd" class="s9" d="m951.5 184q-0.1 0-0.2-0.1c0-0.1 0-0.2 0-0.3l40.4-59.9q0.1-0.2 0.3-0.1l62.1 6.4c0.1 0 0.2 0.1 0.2 0.2 0.1 0.1 0 0.2-0.1 0.2l-102.6 53.6q0 0-0.1 0zm40.6-59.9l-39.8 59 100.9-52.7z"/>
						</g>
						<g id="&lt;Group&gt;">
							<path id="&lt;Compound Path&gt;" fill-rule="evenodd" class="s9" d="m757.8 274.2q0 0-0.1 0l-71-27q-0.2 0-0.2-0.2 0-0.1 0.1-0.2l103.6-78q0.2-0.1 0.3 0 0.2 0.1 0.1 0.3l-32.6 104.9q0 0.1-0.1 0.1 0 0.1-0.1 0.1zm-70.5-27.3l70.3 26.7 32.3-104z"/>
						</g>
						<g id="&lt;Group&gt;">
							<path id="&lt;Compound Path&gt;" fill-rule="evenodd" class="s9" d="m757.8 274.2q-0.1 0-0.2-0.2c-0.1-0.1-0.1-0.2 0-0.3l102-90.6c0-0.1 0.2-0.1 0.3 0 0.1 0 0.1 0.2 0 0.3l-35.2 69.3q0 0.1-0.1 0.1l-66.7 21.4q-0.1 0-0.1 0zm101.1-89.9l-100 89 65.4-20.9z"/>
						</g>
						<g id="&lt;Group&gt;">
							<path id="&lt;Compound Path&gt;" fill-rule="evenodd" class="s9" d="m757.8 274.2q-0.1 0-0.1-0.1c-0.1 0-0.2-0.1-0.1-0.3l32.5-104.9c0.1-0.1 0.2-0.2 0.3-0.2l69.4 14.3q0.1 0 0.2 0.2 0 0.1-0.1 0.2l-101.9 90.7q-0.1 0.1-0.2 0.1zm32.8-104.9l-32.3 103.8 100.9-89.7z"/>
						</g>
						<g id="&lt;Group&gt;">
							<path id="&lt;Compound Path&gt;" fill-rule="evenodd" class="s9" d="m896.6 258.6q-0.1 0-0.1 0l-72-5.8q-0.2 0-0.2-0.2-0.1-0.1 0.1-0.2l103.6-78.6c0 0 0.2 0 0.3 0 0 0.1 0.1 0.2 0 0.3l-31.5 84.3q-0.1 0.1-0.2 0.2zm-71.4-6.2l71.2 5.6 31.2-83.3z"/>
						</g>
						<g id="&lt;Group&gt;">
							<path id="&lt;Compound Path&gt;" fill-rule="evenodd" class="s9" d="m824.5 252.8q-0.1 0-0.2 0c0-0.1-0.1-0.2 0-0.3l35.2-69.4q0.1-0.1 0.2-0.1l68.4-9.2q0.2 0 0.2 0.1c0.1 0.1 0 0.3 0 0.3l-103.6 78.6q-0.1 0-0.2 0zm35.4-69.3l-34.7 68.2 102-77.3z"/>
						</g>
						<g id="&lt;Group&gt;">
							<path id="&lt;Compound Path&gt;" fill-rule="evenodd" class="s9" d="m937.6 286.4q0 0-0.1-0.1l-41.1-27.8q-0.1 0-0.1-0.2 0-0.1 0-0.1l55-74.6c0.1-0.1 0.2-0.1 0.3-0.1 0.1 0.1 0.2 0.2 0.2 0.3l-13.9 102.4q0 0.1-0.2 0.2 0 0-0.1 0zm-40.7-28.2l40.6 27.5 13.6-101z"/>
						</g>
						<g id="&lt;Group&gt;">
							<path id="&lt;Compound Path&gt;" fill-rule="evenodd" class="s9" d="m896.6 258.6q-0.1 0-0.2-0.1c-0.1 0-0.1-0.2-0.1-0.3l31.6-84.3q0-0.1 0.1-0.1 0.1 0 0.2 0l23.4 9.7q0.1 0.1 0.2 0.2 0 0.1-0.1 0.2l-54.9 74.6q-0.1 0.1-0.2 0.1zm31.7-84.2l-30.9 82.3 53.7-72.8z"/>
						</g>
						<g id="&lt;Group&gt;">
							<path id="&lt;Compound Path&gt;" fill-rule="evenodd" class="s9" d="m937.6 286.4q-0.1 0-0.2-0.1c0-0.1 0-0.2 0.1-0.3l92.2-103.8q0.1-0.1 0.2-0.1 0.1 0 0.2 0.1l40.5 60.8q0 0.1 0 0.2 0 0.2-0.2 0.2l-132.7 43q0 0-0.1 0zm92.2-103.6l-91.4 102.8 131.6-42.6z"/>
						</g>
						<g id="&lt;Group&gt;">
							<path id="&lt;Compound Path&gt;" fill-rule="evenodd" class="s9" d="m937.6 286.4q0 0-0.1 0c-0.1-0.1-0.1-0.2-0.1-0.3l13.9-102.4c0-0.1 0.1-0.2 0.2-0.2l78.4-1.4c0 0 0.1 0 0.2 0.1q0 0.2-0.1 0.3l-92.2 103.8q0 0.1-0.2 0.1zm14.1-102.4l-13.7 101.4 91.3-102.8z"/>
						</g>
						<g id="&lt;Group&gt;">
							<path id="&lt;Compound Path&gt;" fill-rule="evenodd" class="s9" d="m611 377.5q-0.1 0-0.2-0.1c0-0.1-0.1-0.2 0-0.3l75.7-130.2c0.1-0.2 0.2-0.2 0.3-0.2 0.1 0.1 0.2 0.2 0.2 0.3l-8.2 91.8q0 0.2-0.1 0.2l-67.6 38.4q0 0.1-0.1 0.1zm75.4-129.4l-74.7 128.5 66.6-37.9z"/>
						</g>
						<g id="&lt;Group&gt;">
							<path id="&lt;Compound Path&gt;" fill-rule="evenodd" class="s9" d="m741.9 362.9q0 0-0.1 0l-63.3-23.8q-0.2-0.1-0.2-0.2 0-0.2 0.1-0.3l79.2-64.9q0.2-0.1 0.3 0 0.2 0.1 0.1 0.3l-15.8 88.7q-0.1 0.1-0.2 0.1 0 0.1-0.1 0.1zm-62.9-24.2l62.7 23.6 15.7-87.8z"/>
						</g>
						<g id="&lt;Group&gt;">
							<path id="&lt;Compound Path&gt;" fill-rule="evenodd" class="s9" d="m678.5 339.1q0 0-0.1-0.1-0.1 0-0.1-0.2l8.2-91.8q0-0.2 0.1-0.2 0.1-0.1 0.2-0.1l71.1 27q0.1 0 0.1 0.2 0.1 0.1 0 0.2l-79.3 64.9q-0.1 0.1-0.2 0.1zm8.5-91.8l-8.1 90.9 78.4-64.2z"/>
						</g>
						<g id="&lt;Group&gt;">
							<path id="&lt;Compound Path&gt;" fill-rule="evenodd" class="s9" d="m741.9 362.9q-0.1 0-0.2-0.1c0-0.1-0.1-0.2 0-0.3l82.6-110.1c0.1-0.1 0.2-0.1 0.3 0 0.1 0 0.2 0.1 0.1 0.3l-21.3 61.2q-0.1 0-0.1 0.1l-61.2 48.8q-0.1 0.1-0.2 0.1zm81.8-108.9l-80.4 107.2 59.6-47.6z"/>
						</g>
						<g id="&lt;Group&gt;">
							<path id="&lt;Compound Path&gt;" fill-rule="evenodd" class="s9" d="m741.9 362.9q0 0-0.1 0c-0.1-0.1-0.1-0.2-0.1-0.3l15.9-88.7q0-0.2 0.1-0.2l66.7-21.4c0.1 0 0.2 0 0.3 0.1q0.1 0.2 0 0.3l-82.6 110.1q-0.1 0.1-0.2 0.1zm16.1-88.8l-15.6 87.5 81.4-108.5z"/>
						</g>
						<g id="&lt;Group&gt;">
							<path id="&lt;Compound Path&gt;" fill-rule="evenodd" class="s9" d="m916.7 316q0 0 0 0l-113.6-2c-0.1 0-0.2 0-0.2-0.1-0.1-0.2 0-0.3 0.1-0.3l93.4-55.5q0.1-0.1 0.2 0 0.1 0 0.2 0.1l20.1 57.4q0.1 0.2 0 0.3-0.1 0.1-0.2 0.1zm-112.7-2.4l112.3 1.9-19.9-56.8z"/>
						</g>
						<g id="&lt;Group&gt;">
							<path id="&lt;Compound Path&gt;" fill-rule="evenodd" class="s9" d="m803.1 314q-0.1 0-0.1 0-0.2-0.1-0.1-0.3l21.4-61.2q0-0.2 0.2-0.2l72.1 5.8c0.1 0 0.2 0 0.2 0.2q0 0.1-0.1 0.2l-93.5 55.5q0 0-0.1 0zm21.6-61.2l-21.1 60.4 92.1-54.7z"/>
						</g>
						<g id="&lt;Group&gt;">
							<path id="&lt;Compound Path&gt;" fill-rule="evenodd" class="s9" d="m966.2 320.9q0 0 0 0l-49.5-4.9q-0.2 0-0.2-0.2-0.1-0.1 0-0.2l20.9-29.6q0.1-0.1 0.2-0.1 0.2 0 0.2 0.1l28.6 34.4q0.1 0.2 0.1 0.3-0.1 0.1-0.3 0.2zm-49.1-5.4l48.6 4.8-28-33.8z"/>
						</g>
						<g id="&lt;Group&gt;">
							<path id="&lt;Compound Path&gt;" fill-rule="evenodd" class="s9" d="m916.7 316q0 0-0.1 0-0.1 0-0.2-0.2l-20.1-57.4q0-0.2 0.1-0.3c0.1-0.1 0.2-0.1 0.3 0l41.1 27.8q0.1 0.1 0.1 0.2 0 0.1 0 0.2l-21 29.6q-0.1 0.1-0.2 0.1zm-19.7-57.1l19.8 56.3 20.5-29z"/>
						</g>
						<g id="&lt;Group&gt;">
							<path id="&lt;Compound Path&gt;" fill-rule="evenodd" class="s9" d="m966.2 320.9q-0.1-0.1-0.2-0.2c0-0.1 0-0.2 0.1-0.3l104.1-77.4c0.1-0.1 0.2-0.1 0.3 0 0.1 0.1 0.1 0.2 0.1 0.3l-43.5 66.2q0 0.1-0.1 0.1l-60.7 11.2q0 0.1-0.1 0.1zm103.2-76.7l-102.1 76 59.5-11z"/>
						</g>
						<g id="&lt;Group&gt;">
							<path id="&lt;Compound Path&gt;" fill-rule="evenodd" class="s9" d="m966.2 320.9q-0.1 0-0.1-0.1l-28.6-34.5q-0.1-0.1-0.1-0.2 0-0.2 0.2-0.2l132.7-43c0.1 0 0.2 0 0.3 0.2 0 0.1 0 0.2-0.1 0.3l-104.1 77.4q-0.1 0.1-0.2 0.1zm-28.1-34.6l28.2 34 102.7-76.4z"/>
						</g>
						<g id="&lt;Group&gt;">
							<path id="&lt;Compound Path&gt;" fill-rule="evenodd" class="s9" d="m536.9 426.7q-0.2 0-0.3-0.2c0-0.1 0-0.2 0.1-0.3l74.2-49.2c0.1 0 0.2 0 0.3 0.1l34.1 33.7q0.1 0.1 0.1 0.3 0 0.1-0.2 0.2l-108.3 15.4q0 0 0 0zm74.1-49.1l-73.1 48.4 106.7-15.2z"/>
						</g>
						<g id="&lt;Group&gt;">
							<path id="&lt;Compound Path&gt;" fill-rule="evenodd" class="s9" d="m645.2 411.3q-0.1 0-0.2-0.1-0.1-0.2-0.1-0.3l33.4-72.2q0.1-0.1 0.3-0.1 0.1 0 0.2 0.2l16.1 58.4c0.1 0.2 0 0.3-0.1 0.4l-49.6 13.6q0 0.1 0 0.1zm33.3-71.8l-32.9 71.1 48.8-13.5z"/>
						</g>
						<g id="&lt;Group&gt;">
							<path id="&lt;Compound Path&gt;" fill-rule="evenodd" class="s9" d="m645.2 411.3q-0.1 0-0.2-0.1l-34.2-33.8q0-0.1 0-0.2 0-0.1 0.1-0.2l67.5-38.4c0.1-0.1 0.2 0 0.3 0q0.1 0.2 0.1 0.3l-33.4 72.2q-0.1 0.1-0.2 0.2 0 0 0 0zm-33.8-34l33.7 33.3 32.9-71.2z"/>
						</g>
						<g id="&lt;Group&gt;">
							<path id="&lt;Compound Path&gt;" fill-rule="evenodd" class="s9" d="m778.8 414.5q0 0 0 0l-84.2-16.9q-0.1-0.1-0.2-0.2 0-0.2 0.1-0.3l47.3-34.7q0.1 0 0.2 0 0.1 0 0.1 0.1l36.9 51.6q0.1 0.2 0 0.3 0 0.1-0.2 0.1zm-83.5-17.3l83 16.7-36.4-50.9z"/>
						</g>
						<g id="&lt;Group&gt;">
							<path id="&lt;Compound Path&gt;" fill-rule="evenodd" class="s9" d="m694.7 397.6q-0.1 0-0.1-0.1-0.1 0-0.2-0.1l-16.1-58.5q0-0.2 0.1-0.3 0.1-0.1 0.2 0l63.4 23.8q0.1 0.1 0.2 0.2 0 0.1-0.1 0.2l-47.3 34.7q0 0.1-0.1 0.1zm-15.8-58.4l15.9 57.7 46.6-34.2z"/>
						</g>
						<g id="&lt;Group&gt;">
							<path id="&lt;Compound Path&gt;" fill-rule="evenodd" class="s9" d="m778.8 414.5q-0.1 0-0.1 0-0.1-0.1-0.1-0.3l24.3-100.5c0-0.1 0.1-0.2 0.3-0.2 0.1 0.1 0.2 0.2 0.2 0.3l-10.2 95.6q-0.1 0.2-0.2 0.2l-14.1 4.9q0 0-0.1 0zm23.7-96.9l-23.3 96.3 13.5-4.7z"/>
						</g>
						<g id="&lt;Group&gt;">
							<path id="&lt;Compound Path&gt;" fill-rule="evenodd" class="s9" d="m778.8 414.5q-0.1 0-0.2-0.1l-36.9-51.6c-0.1-0.1 0-0.3 0.1-0.4l61.2-48.8q0.1-0.1 0.3 0 0.1 0.1 0.1 0.3l-24.3 100.5q-0.1 0.1-0.2 0.1 0 0-0.1 0zm-36.5-51.8l36.4 51 24-99.3z"/>
						</g>
						<g id="&lt;Group&gt;">
							<path id="&lt;Compound Path&gt;" fill-rule="evenodd" class="s9" d="m902 419.6q0 0 0 0l-109.1-10q-0.2 0-0.2-0.1-0.1-0.2 0.1-0.3l123.7-93.7q0.2-0.1 0.3 0 0.1 0.1 0.1 0.3l-14.7 103.6c0 0.1-0.1 0.2-0.2 0.2zm-108.4-10.4l108.2 9.8 14.5-102.7z"/>
						</g>
						<g id="&lt;Group&gt;">
							<path id="&lt;Compound Path&gt;" fill-rule="evenodd" class="s9" d="m792.9 409.6q0 0-0.1 0-0.1-0.1-0.1-0.2l10.2-95.6c0-0.2 0.1-0.3 0.2-0.3l113.6 2q0.2 0 0.2 0.2 0.1 0.1-0.1 0.2l-123.7 93.7q-0.1 0-0.2 0zm10.4-95.6l-10.1 94.8 122.8-92.8z"/>
						</g>
						<g id="&lt;Group&gt;">
							<path id="&lt;Compound Path&gt;" fill-rule="evenodd" class="s9" d="m902 419.6q-0.2 0-0.2-0.2-0.1-0.1 0-0.2l64.2-98.7c0.1-0.1 0.2-0.2 0.3-0.1 0.1 0 0.2 0.1 0.2 0.2l-8.3 94.4c-0.1 0.1-0.2 0.2-0.3 0.2l-55.9 4.4q0 0 0 0zm63.9-98l-63.4 97.4 55.2-4.3z"/>
						</g>
						<g id="&lt;Group&gt;">
							<path id="&lt;Compound Path&gt;" fill-rule="evenodd" class="s9" d="m902 419.6q-0.1 0-0.1-0.1c-0.1 0-0.2-0.1-0.2-0.2l14.7-103.6c0.1-0.1 0.2-0.2 0.3-0.2l49.6 4.9q0.1 0 0.2 0.1 0 0.1 0 0.2l-64.3 98.8q-0.1 0.1-0.2 0.1zm14.9-103.6l-14.5 102.2 63.4-97.4z"/>
						</g>
						<g id="&lt;Group&gt;">
							<path id="&lt;Compound Path&gt;" fill-rule="evenodd" class="s9" d="m1032.4 431.6q0 0 0 0l-74.5-16.4q-0.2 0-0.2-0.2-0.1-0.1 0-0.2l69-105.5q0.1-0.2 0.3-0.1 0.2 0 0.2 0.2l5.5 122q0 0.1-0.1 0.2-0.1 0-0.2 0zm-74.1-16.8l73.9 16.3-5.5-120.9z"/>
						</g>
						<g id="&lt;Group&gt;">
							<path id="&lt;Compound Path&gt;" fill-rule="evenodd" class="s9" d="m957.9 415.2q0 0-0.1 0c-0.1-0.1-0.2-0.2-0.1-0.3l8.3-94.3c0-0.1 0.1-0.2 0.2-0.2l60.7-11.3q0.2 0 0.2 0.2 0.1 0.1 0 0.2l-69 105.6q-0.1 0.1-0.2 0.1zm8.6-94.4l-8.3 93.2 68.2-104.3z"/>
						</g>
						<g id="&lt;Group&gt;">
							<path id="&lt;Compound Path&gt;" fill-rule="evenodd" class="s9" d="m491.1 492.5q-0.1 0-0.2-0.1-0.1-0.2 0-0.3l45.8-65.8q0-0.1 0.2-0.1 0.1 0 0.2 0.1l33.3 52.8q0 0.1 0 0.2-0.1 0.1-0.2 0.2l-79 13q-0.1 0-0.1 0zm45.8-65.6l-45.2 65 78-12.9z"/>
						</g>
						<g id="&lt;Group&gt;">
							<path id="&lt;Compound Path&gt;" fill-rule="evenodd" class="s9" d="m608.4 481.4q0 0 0 0l-38.3-1.9q-0.1 0-0.2-0.2 0-0.1 0.1-0.3l75-68.2c0.1-0.1 0.2-0.1 0.3 0 0.1 0.1 0.1 0.2 0.1 0.3l-36.8 70.1q-0.1 0.2-0.2 0.2zm-37.6-2.4l37.4 1.9 36.1-68.8z"/>
						</g>
						<g id="&lt;Group&gt;">
							<path id="&lt;Compound Path&gt;" fill-rule="evenodd" class="s9" d="m570.1 479.5q0 0 0 0-0.1 0-0.2-0.1l-33.2-52.9q-0.1-0.1-0.1-0.2 0.1-0.1 0.2-0.1l108.3-15.4c0.1-0.1 0.2 0 0.3 0.1 0 0.1 0 0.2-0.1 0.3l-75 68.2q-0.1 0.1-0.2 0.1zm-32.8-52.9l32.9 52.2 74.2-67.4z"/>
						</g>
						<g id="&lt;Group&gt;">
							<path id="&lt;Compound Path&gt;" fill-rule="evenodd" class="s9" d="m608.4 481.4q-0.2 0-0.3-0.2c0-0.1 0-0.2 0.1-0.3l86.3-83.8q0.1-0.1 0.2 0 0.2 0 0.2 0.1l19.8 59.1q0 0.1 0 0.2-0.1 0.1-0.2 0.1l-106.1 24.8q0 0 0 0zm86.2-83.6l-85.4 82.9 104.9-24.5z"/>
						</g>
						<g id="&lt;Group&gt;">
							<path id="&lt;Compound Path&gt;" fill-rule="evenodd" class="s9" d="m608.4 481.4q-0.1 0-0.2-0.1c-0.1-0.1-0.1-0.2-0.1-0.3l36.8-70.1q0.1-0.1 0.2-0.1l49.5-13.7c0.1-0.1 0.2 0 0.3 0.1 0.1 0.1 0 0.2 0 0.3l-86.4 83.8q0 0.1-0.1 0.1zm36.9-70.2l-36 68.6 84.5-82z"/>
						</g>
						<g id="&lt;Group&gt;">
							<path id="&lt;Compound Path&gt;" fill-rule="evenodd" class="s9" d="m764.5 490.2q-0.1 0-0.2-0.1l-50-33.5q-0.1-0.1-0.1-0.2 0-0.2 0.1-0.2l64.4-42.1q0.1-0.1 0.3 0 0.1 0.1 0.1 0.2l-14.4 75.6q0 0.2-0.1 0.2-0.1 0.1-0.1 0.1zm-49.6-33.8l49.4 33.1 14.2-74.7z"/>
						</g>
						<g id="&lt;Group&gt;">
							<path id="&lt;Compound Path&gt;" fill-rule="evenodd" class="s9" d="m714.5 456.6q-0.1 0-0.1 0-0.1 0-0.2-0.1l-19.7-59.1q-0.1-0.1 0-0.3 0.1-0.1 0.2 0l84.2 16.9q0.1 0.1 0.2 0.2 0 0.2-0.1 0.3l-64.4 42.1q-0.1 0-0.1 0zm-19.4-59l19.5 58.4 63.6-41.6z"/>
						</g>
						<g id="&lt;Group&gt;">
							<path id="&lt;Compound Path&gt;" fill-rule="evenodd" class="s9" d="m851.8 514.4q0 0-0.1-0.1l-87.3-24.2q-0.1 0-0.1-0.1-0.1-0.1-0.1-0.2l28.5-80.5q0-0.1 0.2-0.2 0.2 0 0.2 0.2l58.9 104.7q0.1 0.1 0 0.3-0.1 0-0.2 0.1zm-87-24.7l86.5 24-58.3-103.7z"/>
						</g>
						<g id="&lt;Group&gt;">
							<path id="&lt;Compound Path&gt;" fill-rule="evenodd" class="s9" d="m764.5 490.2q0 0-0.1-0.1c-0.1 0-0.2-0.1-0.2-0.2l14.4-75.7q0-0.1 0.2-0.1l14-5q0.2 0 0.3 0.1 0.1 0.1 0.1 0.3l-28.5 80.5q0 0.1-0.2 0.2zm14.6-75.7l-13.8 72.2 27.2-76.9z"/>
						</g>
						<g id="&lt;Group&gt;">
							<path id="&lt;Compound Path&gt;" fill-rule="evenodd" class="s9" d="m851.8 514.4q-0.1-0.1-0.2-0.1-0.1-0.2 0-0.3l50.2-94.8c0-0.1 0.2-0.2 0.3-0.1 0.1 0 0.2 0.1 0.1 0.3l-11.8 78.6q-0.1 0.1-0.2 0.2l-38.3 16.1q-0.1 0.1-0.1 0.1zm49.7-93.7l-49.2 92.9 37.6-15.8z"/>
						</g>
						<g id="&lt;Group&gt;">
							<path id="&lt;Compound Path&gt;" fill-rule="evenodd" class="s9" d="m851.8 514.4q-0.1-0.1-0.2-0.2l-58.9-104.7q-0.1-0.1 0-0.2 0.1-0.2 0.2-0.2l109.1 10q0.1 0 0.2 0.1 0.1 0.1 0 0.2l-50.2 94.8c0 0.1-0.1 0.2-0.2 0.2zm-58.4-104.7l58.4 103.9 49.8-94.1z"/>
						</g>
						<g id="&lt;Group&gt;">
							<path id="&lt;Compound Path&gt;" fill-rule="evenodd" class="s9" d="m890.1 498.2q-0.1 0-0.2-0.1-0.1-0.1 0-0.3l67.8-83c0.1-0.1 0.1-0.1 0.2-0.1q0.1 0 0.2 0.1l47.8 61.9q0 0.1 0 0.2-0.1 0.1-0.2 0.2l-115.5 21.1q-0.1 0-0.1 0zm67.8-82.8l-67.2 82.2 114.5-21z"/>
						</g>
						<g id="&lt;Group&gt;">
							<path id="&lt;Compound Path&gt;" fill-rule="evenodd" class="s9" d="m890.1 498.2q0 0-0.1 0c-0.1 0-0.2-0.2-0.1-0.3l11.8-78.6c0.1-0.1 0.2-0.2 0.3-0.2l55.9-4.4q0.2 0 0.2 0.1 0.1 0.2 0 0.3l-67.8 83q-0.1 0.1-0.2 0.1zm12.1-78.7l-11.7 77.6 66.8-81.9z"/>
						</g>
						<g id="&lt;Group&gt;">
							<path id="&lt;Compound Path&gt;" fill-rule="evenodd" class="s9" d="m1017.7 485.8q0 0-0.1 0l-12.1-8.8c-0.1-0.1-0.1-0.2-0.1-0.3l26.8-45.4c0.1-0.1 0.2-0.2 0.3-0.1 0.1 0 0.2 0.1 0.2 0.3l-14.7 54.1q-0.1 0.1-0.2 0.2 0 0-0.1 0zm-11.7-9.1l11.6 8.4 14.1-52z"/>
						</g>
						<g id="&lt;Group&gt;">
							<path id="&lt;Compound Path&gt;" fill-rule="evenodd" class="s9" d="m1005.7 477.1q-0.2 0-0.2-0.1l-47.8-61.9q-0.1-0.1 0-0.3c0.1-0.1 0.2-0.1 0.3-0.1l74.5 16.5q0.1 0 0.1 0.1 0.1 0.1 0 0.2l-26.7 45.4q-0.1 0.2-0.2 0.2 0 0 0 0zm-47.2-61.8l47.1 61.1 26.4-44.8z"/>
						</g>
						<g id="&lt;Group&gt;">
							<path id="&lt;Compound Path&gt;" fill-rule="evenodd" class="s9" d="m418.4 553.4q-0.2 0-0.2-0.2c-0.1-0.1 0-0.3 0.1-0.3l151.7-73.9c0.1-0.1 0.3 0 0.3 0.1 0.1 0.1 0.1 0.2 0 0.3l-42.3 52.3q-0.1 0.1-0.2 0.1l-109.4 21.6q0 0 0 0zm150.8-73.5l-149 72.6 107.4-21.2z"/>
						</g>
						<g id="&lt;Group&gt;">
							<path id="&lt;Compound Path&gt;" fill-rule="evenodd" class="s9" d="m418.4 553.4q-0.1 0-0.2-0.1c-0.1-0.2-0.1-0.3 0-0.4l72.8-60.9q0 0 0.1 0l79-13q0.1-0.1 0.2 0.1c0.1 0.1 0.1 0.2 0 0.3q0 0-0.1 0.1l-151.7 73.8q-0.1 0.1-0.1 0.1zm72.8-60.9l-71.1 59.5 148.4-72.3z"/>
						</g>
						<g id="&lt;Group&gt;">
							<path id="&lt;Compound Path&gt;" fill-rule="evenodd" class="s9" d="m629.1 534.9q0 0 0 0l-101.3-3.1c-0.1 0-0.2-0.1-0.3-0.2 0-0.1 0-0.2 0.1-0.3l80.6-50.4q0.1-0.1 0.2 0 0.2 0 0.2 0.1l20.8 53.5q0 0.2-0.1 0.3 0 0.1-0.2 0.1zm-100.5-3.6l100.2 3.1-20.6-52.9z"/>
						</g>
						<g id="&lt;Group&gt;">
							<path id="&lt;Compound Path&gt;" fill-rule="evenodd" class="s9" d="m527.8 531.8q-0.1 0-0.2-0.1c-0.1-0.1-0.1-0.2 0-0.3l42.3-52.3q0.1-0.1 0.3-0.1l38.2 1.9q0.2 0 0.2 0.2c0 0.1 0 0.2-0.1 0.2l-80.6 50.5q-0.1 0-0.1 0zm42.5-52.3l-41.4 51 78.7-49.2z"/>
						</g>
						<g id="&lt;Group&gt;">
							<path id="&lt;Compound Path&gt;" fill-rule="evenodd" class="s9" d="m681 572.8q0 0-0.1-0.1l-51.9-37.9q-0.1 0-0.1-0.1 0-0.2 0.1-0.2l85.3-78.3c0.1-0.1 0.2-0.1 0.3 0 0.1 0 0.1 0.1 0.1 0.2l-33.4 116.2q-0.1 0.1-0.2 0.2 0 0-0.1 0zm-51.5-38.2l51.4 37.5 33.1-114.9z"/>
						</g>
						<g id="&lt;Group&gt;">
							<path id="&lt;Compound Path&gt;" fill-rule="evenodd" class="s9" d="m629.1 534.9q0 0 0 0-0.1 0-0.2-0.2l-20.8-53.5q0-0.1 0-0.2 0.1-0.1 0.2-0.1l106.1-24.8c0.1 0 0.2 0.1 0.3 0.2 0 0.1 0 0.2-0.1 0.3l-85.3 78.2q-0.1 0.1-0.2 0.1zm-20.4-53.6l20.5 52.9 84.4-77.4z"/>
						</g>
						<g id="&lt;Group&gt;">
							<path id="&lt;Compound Path&gt;" fill-rule="evenodd" class="s9" d="m681 572.8q-0.1 0-0.2-0.1c0-0.1 0-0.2 0.1-0.3l83.4-82.7c0.1-0.1 0.2-0.1 0.3 0 0.1 0.1 0.2 0.2 0.1 0.3l-14.8 36.4q0 0-0.1 0.1l-68.6 46.2q-0.1 0.1-0.2 0.1zm82.8-81.9l-80.7 79.9 66.4-44.7z"/>
						</g>
						<g id="&lt;Group&gt;">
							<path id="&lt;Compound Path&gt;" fill-rule="evenodd" class="s9" d="m681 572.8q0 0-0.1 0c-0.1-0.1-0.1-0.2-0.1-0.3l33.4-116.2q0.1-0.1 0.2-0.2 0.1 0 0.2 0.1l50 33.5q0.1 0.1 0.1 0.2 0 0.1 0 0.2l-83.5 82.6q-0.1 0.1-0.2 0.1zm33.6-116l-33.1 114.9 82.6-81.8z"/>
						</g>
						<g id="&lt;Group&gt;">
							<path id="&lt;Compound Path&gt;" fill-rule="evenodd" class="s9" d="m795.4 585.4q0 0 0 0-0.1 0-0.2-0.1l-45.7-58.9q-0.1-0.1-0.1-0.2 0.1-0.2 0.2-0.2l102.2-12.1q0.1-0.1 0.2 0.1 0.1 0.1 0 0.3l-56.4 71q0 0.1-0.2 0.1zm-45.3-58.9l45.3 58.2 55.8-70.3z"/>
						</g>
						<g id="&lt;Group&gt;">
							<path id="&lt;Compound Path&gt;" fill-rule="evenodd" class="s9" d="m749.7 526.5q-0.2 0-0.2-0.1-0.1-0.1-0.1-0.2l14.9-36.4c0-0.1 0.1-0.2 0.3-0.1l87.3 24.2c0.1 0 0.2 0.1 0.1 0.2 0 0.1-0.1 0.2-0.2 0.2l-102.1 12.2q0 0 0 0zm14.9-36.3l-14.5 35.8 100.4-12z"/>
						</g>
						<g id="&lt;Group&gt;">
							<path id="&lt;Compound Path&gt;" fill-rule="evenodd" class="s9" d="m795.4 585.4q-0.1 0-0.2-0.1c0-0.1 0-0.3 0.1-0.3l94.6-87.2q0.1-0.1 0.3-0.1 0.1 0.1 0.2 0.2l17.9 56.6q0 0.1-0.1 0.2 0 0.1-0.1 0.1l-112.6 30.6q0 0-0.1 0zm94.6-87l-93.6 86.2 111.3-30.2z"/>
						</g>
						<g id="&lt;Group&gt;">
							<path id="&lt;Compound Path&gt;" fill-rule="evenodd" class="s9" d="m795.4 585.4q-0.1 0-0.1-0.1c-0.1-0.1-0.1-0.2-0.1-0.3l56.4-71.1q0 0 0.1 0l38.3-16.2c0.1 0 0.3 0 0.3 0.1 0.1 0.1 0.1 0.3 0 0.4l-94.7 87.1q-0.1 0.1-0.2 0.1zm56.6-71.1l-54.4 68.5 91.3-84z"/>
						</g>
						<g id="&lt;Group&gt;">
							<path id="&lt;Compound Path&gt;" fill-rule="evenodd" class="s9" d="m908 554.9q-0.1 0-0.2-0.2c0-0.1 0-0.2 0.1-0.3l97.6-77.8c0.1-0.1 0.2-0.1 0.3 0 0.1 0.1 0.1 0.3 0.1 0.4l-48.7 64.3q-0.1 0.1-0.1 0.1l-49 13.4q0 0.1-0.1 0.1zm96.3-76.7l-95.2 75.8 47.8-13.1z"/>
						</g>
						<g id="&lt;Group&gt;">
							<path id="&lt;Compound Path&gt;" fill-rule="evenodd" class="s9" d="m908 554.9q0 0 0-0.1-0.2 0-0.2-0.1l-17.9-56.7q-0.1-0.1 0-0.2 0.1-0.1 0.2-0.1l115.5-21.1c0.1-0.1 0.2 0 0.3 0.1 0 0.1 0 0.2-0.1 0.3l-97.6 77.8q-0.1 0.1-0.2 0.1zm-17.6-56.7l17.8 56 96.5-77z"/>
						</g>
						<g id="&lt;Group&gt;">
							<path id="&lt;Compound Path&gt;" fill-rule="evenodd" class="s9" d="m957 541.4q-0.2 0-0.2-0.2-0.1-0.1 0-0.2l60.8-55.6q0.1-0.1 0.2-0.1 0.1 0 0.2 0.1l27.9 52.5q0.1 0.2 0 0.3-0.1 0.1-0.2 0.1l-88.7 3.1q0 0 0 0zm60.7-55.4l-60 54.9 87.6-3.1z"/>
						</g>
						<g id="&lt;Group&gt;">
							<path id="&lt;Compound Path&gt;" fill-rule="evenodd" class="s9" d="m957 541.4q-0.1 0-0.2-0.1c-0.1-0.1-0.1-0.2 0-0.3l48.7-64.3c0-0.1 0.2-0.2 0.3-0.1l12.1 8.7q0.1 0.1 0.1 0.2 0 0.2-0.1 0.2l-60.7 55.6q-0.1 0.1-0.2 0.1zm48.7-64.2l-46.8 61.9 58.4-53.5z"/>
						</g>
						<g id="&lt;Group&gt;">
							<path id="&lt;Compound Path&gt;" fill-rule="evenodd" class="s9" d="m445.6 658.8q0 0-0.1 0l-98.7-49.9q-0.1-0.1-0.1-0.2 0-0.1 0.1-0.2l71.4-55.6q0.1-0.1 0.3 0 0.1 0 0.1 0.2l27.3 105.4q0 0.2-0.1 0.3-0.1 0-0.2 0zm-98.2-50.2l97.8 49.5-27-104.6z"/>
						</g>
						<g id="&lt;Group&gt;">
							<path id="&lt;Compound Path&gt;" fill-rule="evenodd" class="s9" d="m445.6 658.8q-0.1 0-0.2-0.1-0.1-0.1 0-0.3l82.2-127q0.1-0.1 0.2-0.1c0.1 0 0.2 0.1 0.2 0.2l3.8 105c0 0.1 0 0.2-0.2 0.2l-85.9 22.1q-0.1 0-0.1 0zm82-126.4l-81.4 125.8 85.1-21.9z"/>
						</g>
						<g id="&lt;Group&gt;">
							<path id="&lt;Compound Path&gt;" fill-rule="evenodd" class="s9" d="m445.6 658.8q0 0 0 0-0.2 0-0.2-0.2l-27.2-105.4q-0.1-0.1 0-0.2 0-0.1 0.1-0.1l109.4-21.6q0.2 0 0.3 0.1 0.1 0.1 0 0.3l-82.2 127q-0.1 0.1-0.2 0.1zm-26.9-105.5l27 104.7 81.5-126.1z"/>
						</g>
						<g id="&lt;Group&gt;">
							<path id="&lt;Compound Path&gt;" fill-rule="evenodd" class="s9" d="m531.6 636.7q-0.2 0-0.2-0.1c-0.1-0.1-0.1-0.2 0-0.3l97.6-101.8q0.1-0.1 0.2-0.1 0.1 0 0.2 0.2l16.1 71.1c0.1 0.1 0 0.3-0.1 0.3l-113.7 30.7q-0.1 0-0.1 0zm97.4-101.6l-96.6 100.9 112.6-30.4z"/>
						</g>
						<g id="&lt;Group&gt;">
							<path id="&lt;Compound Path&gt;" fill-rule="evenodd" class="s9" d="m531.6 636.7q-0.1 0-0.1 0-0.1-0.1-0.2-0.2l-3.8-104.9q0-0.1 0.1-0.2 0.1-0.1 0.2-0.1l101.3 3.1q0.2 0 0.3 0.1 0 0.2-0.1 0.3l-97.5 101.8q-0.1 0.1-0.2 0.1zm-3.6-104.9l3.8 104.1 96.8-101z"/>
						</g>
						<g id="&lt;Group&gt;">
							<path id="&lt;Compound Path&gt;" fill-rule="evenodd" class="s9" d="m658.7 621.6q-0.1 0-0.2-0.1l-13.4-15.6c-0.1-0.1-0.1-0.2 0-0.3l35.8-33.2c0.1-0.1 0.2-0.1 0.3-0.1 0.1 0.1 0.1 0.2 0.1 0.3l-22.4 48.8q-0.1 0.1-0.2 0.2 0 0 0 0zm-13.1-15.8l13 15 21.7-47.2z"/>
						</g>
						<g id="&lt;Group&gt;">
							<path id="&lt;Compound Path&gt;" fill-rule="evenodd" class="s9" d="m645.3 606q0 0-0.1 0-0.1 0-0.1-0.2l-16.2-71.1q0-0.2 0.1-0.3 0.1-0.1 0.3 0l51.9 37.9q0.1 0.1 0.1 0.2 0 0.1-0.1 0.2l-35.7 33.3q-0.1 0-0.2 0zm-15.8-70.8l15.9 70.1 35.2-32.7z"/>
						</g>
						<g id="&lt;Group&gt;">
							<path id="&lt;Compound Path&gt;" fill-rule="evenodd" class="s9" d="m658.7 621.6q-0.2-0.1-0.3-0.2 0-0.1 0.1-0.3l91-95q0.1-0.1 0.2-0.1 0.2 0.1 0.2 0.2l10.8 87.6q0 0.1 0 0.2-0.1 0.1-0.2 0.1l-101.8 7.5q0 0 0 0zm90.8-94.8l-90.2 94.2 100.9-7.4z"/>
						</g>
						<g id="&lt;Group&gt;">
							<path id="&lt;Compound Path&gt;" fill-rule="evenodd" class="s9" d="m658.7 621.6q-0.1 0-0.2-0.1c-0.1-0.1-0.1-0.2-0.1-0.3l22.4-48.8q0 0 0.1-0.1l68.6-46.2c0.1-0.1 0.3-0.1 0.4 0 0 0.1 0 0.3-0.1 0.3l-90.9 95.1q-0.1 0.1-0.2 0.1zm22.5-48.9l-21.7 47.4 88.4-92.3z"/>
						</g>
						<g id="&lt;Group&gt;">
							<path id="&lt;Compound Path&gt;" fill-rule="evenodd" class="s9" d="m809.9 639.5q-0.1 0-0.1-0.1l-49.4-25.3q-0.1-0.1-0.2-0.2 0-0.1 0.1-0.2l35-28.7q0.1-0.1 0.2-0.1 0.1 0.1 0.2 0.2l14.4 54q0.1 0.2-0.1 0.3 0 0.1-0.1 0.1zm-49-25.7l48.6 24.9-14.2-53.1z"/>
						</g>
						<g id="&lt;Group&gt;">
							<path id="&lt;Compound Path&gt;" fill-rule="evenodd" class="s9" d="m760.5 614.1q-0.1 0-0.1 0-0.1-0.1-0.2-0.2l-10.8-87.6c0-0.1 0.1-0.2 0.2-0.3 0.1 0 0.2 0 0.3 0.1l45.7 58.9c0.1 0.1 0.1 0.3 0 0.3l-35 28.8q0 0-0.1 0zm-10.5-87l10.7 86.3 34.4-28.3z"/>
						</g>
						<g id="&lt;Group&gt;">
							<path id="&lt;Compound Path&gt;" fill-rule="evenodd" class="s9" d="m809.9 639.5q-0.2 0-0.3-0.2 0-0.2 0.1-0.3l98.2-84.6q0.1-0.1 0.2 0 0.2 0 0.2 0.2l5.3 82.4q0 0.1-0.1 0.2 0 0.1-0.1 0.1l-103.5 2.2q0 0 0 0zm97.9-84.4l-97.2 83.8 102.5-2.1z"/>
						</g>
						<g id="&lt;Group&gt;">
							<path id="&lt;Compound Path&gt;" fill-rule="evenodd" class="s9" d="m809.9 639.5q-0.1 0-0.1 0-0.1-0.1-0.2-0.2l-14.4-54.1c0-0.1 0-0.3 0.2-0.3l112.6-30.5c0.1-0.1 0.2 0 0.3 0.1 0 0.1 0 0.2-0.1 0.3l-98.2 84.6q0 0.1-0.1 0.1zm-14.2-54.2l14.3 53.5 97-83.7z"/>
						</g>
						<g id="&lt;Group&gt;">
							<path id="&lt;Compound Path&gt;" fill-rule="evenodd" class="s9" d="m913.4 637.3q-0.2 0-0.2-0.1-0.1-0.1-0.1-0.3l43.7-95.9c0-0.1 0.1-0.1 0.2-0.1 0.2 0 0.2 0.1 0.3 0.2l3.2 84.3c0 0.2-0.1 0.3-0.2 0.3l-46.9 11.6q0 0 0 0zm43.4-95.1l-43 94.5 46.2-11.4z"/>
						</g>
						<g id="&lt;Group&gt;">
							<path id="&lt;Compound Path&gt;" fill-rule="evenodd" class="s9" d="m913.4 637.3q-0.1 0-0.1 0c-0.1 0-0.2-0.1-0.2-0.2l-5.3-82.5c0-0.1 0-0.2 0.2-0.2l48.9-13.5q0.2 0 0.3 0.1 0.1 0.1 0 0.2l-43.6 96q-0.1 0.1-0.2 0.1zm-5.1-82.5l5.2 81.2 43.1-94.5z"/>
						</g>
					</g>
				</g>
			</g>
		</g>
	</g>
</svg>