<svg version="1.2" xmlns="http://www.w3.org/2000/svg" viewBox="0 0 1008 576" width="1008" height="576">
	<title>12572886_SL-073119-22070-01</title>
	<defs>
		<clipPath clipPathUnits="userSpaceOnUse" id="cp1">
			<path d="m1008-3v581.65h-1007.44v-581.65z"/>
		</clipPath>
	</defs>
	<style>
		.s0 { fill: #6c247f } 
		.s1 { fill: #9a9da3 } 
		.s2 { fill: #04af73 } 
		.s3 { fill: #fcb712 } 
		.s4 { fill: #dbdbdb } 
		.s5 { fill: #005eff } 
		.s6 { fill: #f16538 } 
		.s7 { fill: #0071d6 } 
		.s8 { fill: #009bf4 } 
		.s9 { mix-blend-mode: multiply;fill: #c7c7c7 } 
	</style>
	<g id="Layer 1">
		<g id="&lt;Group&gt;">
			<g id="&lt;Group&gt;">
				<g id="Clip-Path: &lt;Clip Group&gt;" clip-path="url(#cp1)">
					<g id="&lt;Clip Group&gt;">
						<g id="&lt;Group&gt;">
							<path id="&lt;Path&gt;" fill-rule="evenodd" class="s0" d="m60.8 215.2c4.8 0 8.7 4 8.7 8.9 0 4.8-3.9 8.8-8.7 8.8-4.9 0-8.8-4-8.8-8.8 0-4.9 3.9-8.9 8.8-8.9z"/>
							<path id="&lt;Path&gt;" fill-rule="evenodd" class="s1" d="m-14.1 236.3c2.3 0 4.3 2 4.3 4.4 0 2.4-2 4.3-4.3 4.3-2.4 0-4.3-1.9-4.3-4.3 0-2.4 1.9-4.4 4.3-4.4z"/>
							<path id="&lt;Path&gt;" fill-rule="evenodd" class="s2" d="m168.8 422.6c1.5 0 2.8 1.3 2.8 2.9 0 1.5-1.3 2.8-2.8 2.8-1.6 0-2.8-1.3-2.8-2.8 0-1.6 1.2-2.9 2.8-2.9z"/>
							<path id="&lt;Path&gt;" fill-rule="evenodd" class="s1" d="m-26.7 316.6c2.4 0 4.4 1.9 4.4 4.3 0 2.4-2 4.4-4.4 4.4-2.4 0-4.3-2-4.3-4.4 0-2.4 1.9-4.3 4.3-4.3z"/>
							<path id="&lt;Path&gt;" fill-rule="evenodd" class="s3" d="m77.9 47.7c3.1 0 5.7 2.6 5.7 5.8 0 3.3-2.6 5.9-5.7 5.9-3.2 0-5.8-2.6-5.8-5.9 0-3.2 2.6-5.8 5.8-5.8z"/>
							<path id="&lt;Path&gt;" fill-rule="evenodd" class="s2" d="m501.5 524.3c1.4 0 2.6 1.2 2.6 2.6 0 1.5-1.2 2.7-2.6 2.7-1.5 0-2.6-1.2-2.6-2.7 0-1.4 1.1-2.6 2.6-2.6z"/>
							<path id="&lt;Path&gt;" fill-rule="evenodd" class="s0" d="m368 453.2c3.1 0 5.6 2.6 5.6 5.7 0 3.1-2.5 5.6-5.6 5.6-3.1 0-5.6-2.5-5.6-5.6 0-3.1 2.5-5.7 5.6-5.7z"/>
							<path id="&lt;Path&gt;" fill-rule="evenodd" class="s4" d="m-10.7 147.3c4.4 0 8.1 3.6 8.1 8.1 0 4.6-3.7 8.2-8.1 8.2-4.5 0-8.1-3.6-8.1-8.2 0-4.5 3.6-8.1 8.1-8.1z"/>
							<path id="&lt;Path&gt;" fill-rule="evenodd" class="s2" d="m224 205.5c3.7 0 6.6 3 6.6 6.7 0 3.8-2.9 6.8-6.6 6.8-3.6 0-6.6-3-6.6-6.8 0-3.7 3-6.7 6.6-6.7z"/>
							<path id="&lt;Path&gt;" fill-rule="evenodd" class="s4" d="m225.3 570.8c1.5 0 2.7 1.2 2.7 2.8 0 1.5-1.2 2.7-2.7 2.7-1.5 0-2.8-1.2-2.8-2.7 0-1.6 1.3-2.8 2.8-2.8z"/>
							<path id="&lt;Path&gt;" fill-rule="evenodd" class="s3" d="m550.7 566.5c3.5 0 6.3 2.9 6.3 6.3 0 3.5-2.8 6.4-6.3 6.4-3.4 0-6.2-2.9-6.2-6.4 0-3.4 2.8-6.3 6.2-6.3z"/>
							<path id="&lt;Path&gt;" fill-rule="evenodd" class="s3" d="m33 524.4c2.8 0 5.1 2.3 5.1 5.2 0 2.9-2.3 5.2-5.1 5.2-2.8 0-5.2-2.3-5.2-5.2 0-2.9 2.4-5.2 5.2-5.2z"/>
							<path id="&lt;Path&gt;" fill-rule="evenodd" class="s4" d="m263.7 341.1c2.1 0 3.8 1.8 3.8 3.9 0 2.1-1.7 3.8-3.8 3.8-2.1 0-3.8-1.7-3.8-3.8 0-2.1 1.7-3.9 3.8-3.9z"/>
							<path id="&lt;Path&gt;" fill-rule="evenodd" class="s4" d="m698.9 566.6c1.9 0 3.4 1.5 3.4 3.4 0 1.8-1.5 3.3-3.4 3.3-1.8 0-3.3-1.5-3.3-3.3 0-1.9 1.5-3.4 3.3-3.4z"/>
							<path id="&lt;Path&gt;" fill-rule="evenodd" class="s5" d="m283.6 269.3c1.5 0 2.7 1.3 2.7 2.8 0 1.5-1.2 2.7-2.7 2.7-1.6 0-2.8-1.2-2.8-2.7 0-1.5 1.2-2.8 2.8-2.8z"/>
							<path id="&lt;Path&gt;" fill-rule="evenodd" class="s0" d="m72.5 318.2c4.4 0 8 3.6 8 8.1 0 4.5-3.6 8.1-8 8.1-4.4 0-8-3.6-8-8.1 0-4.5 3.6-8.1 8-8.1z"/>
							<path id="&lt;Path&gt;" fill-rule="evenodd" class="s0" d="m365.8 336.1c4.1 0 7.5 3.4 7.5 7.5 0 4.2-3.4 7.5-7.5 7.5-4.1 0-7.4-3.3-7.4-7.5 0-4.1 3.3-7.5 7.4-7.5z"/>
							<path id="&lt;Path&gt;" fill-rule="evenodd" class="s5" d="m559.2 447.1c1.9 0 3.5 1.6 3.5 3.6 0 2-1.6 3.6-3.5 3.6-2 0-3.6-1.6-3.6-3.6 0-2 1.6-3.6 3.6-3.6z"/>
							<path id="&lt;Path&gt;" fill-rule="evenodd" class="s6" d="m143.1 205.7c2.5 0 4.5 2.1 4.5 4.6 0 2.5-2 4.5-4.5 4.5-2.5 0-4.5-2-4.5-4.5 0-2.5 2-4.6 4.5-4.6z"/>
							<path id="&lt;Path&gt;" fill-rule="evenodd" class="s0" d="m149.8 521.3c4.6 0 8.4 3.8 8.4 8.5 0 4.7-3.8 8.5-8.4 8.5-4.7 0-8.4-3.8-8.4-8.5 0-4.7 3.7-8.5 8.4-8.5z"/>
							<path id="&lt;Path&gt;" fill-rule="evenodd" class="s5" d="m-32 418.4c3 0 5.5 2.5 5.5 5.5 0 3-2.5 5.5-5.5 5.5-3 0-5.4-2.5-5.4-5.5 0-3 2.4-5.5 5.4-5.5z"/>
							<path id="&lt;Path&gt;" fill-rule="evenodd" class="s3" d="m49.9 425c2.3 0 4.1 1.8 4.1 4.1 0 2.3-1.8 4.1-4.1 4.1-2.2 0-4.1-1.8-4.1-4.1 0-2.3 1.9-4.1 4.1-4.1z"/>
							<path id="&lt;Path&gt;" fill-rule="evenodd" class="s2" d="m278.2 417.7c2.7 0 4.9 2.2 4.9 4.9 0 2.8-2.2 5-4.9 5-2.7 0-4.9-2.2-4.9-5 0-2.7 2.2-4.9 4.9-4.9z"/>
							<path id="&lt;Path&gt;" fill-rule="evenodd" class="s0" d="m633.9 534.1c4 0 7.2 3.3 7.2 7.3 0 4-3.2 7.3-7.2 7.3-4 0-7.2-3.3-7.2-7.3 0-4 3.2-7.3 7.2-7.3z"/>
							<path id="&lt;Path&gt;" fill-rule="evenodd" class="s7" d="m310.6 554.8c1.7 0 3.1 1.4 3.1 3.2 0 1.7-1.4 3.1-3.1 3.1-1.7 0-3.1-1.4-3.1-3.1 0-1.8 1.4-3.2 3.1-3.2z"/>
							<path id="&lt;Path&gt;" fill-rule="evenodd" class="s6" d="m20.1 71.9c1.7 0 3.2 1.5 3.2 3.3 0 1.7-1.5 3.2-3.2 3.2-1.8 0-3.2-1.5-3.2-3.2 0-1.8 1.4-3.3 3.2-3.3z"/>
							<path id="&lt;Path&gt;" fill-rule="evenodd" class="s0" d="m215.1 126.6c2.3 0 4.1 1.8 4.1 4.1 0 2.4-1.8 4.2-4.1 4.2-2.3 0-4.2-1.8-4.2-4.2 0-2.3 1.9-4.1 4.2-4.1z"/>
							<path id="&lt;Path&gt;" fill-rule="evenodd" class="s0" d="m452.2 555.5c4.3 0 7.8 3.6 7.8 8 0 4.3-3.5 7.9-7.8 7.9-4.4 0-7.9-3.6-7.9-7.9 0-4.4 3.5-8 7.9-8z"/>
							<path id="&lt;Path&gt;" fill-rule="evenodd" class="s8" d="m459.6 441.6c1.5 0 2.8 1.3 2.8 2.9 0 1.6-1.3 2.9-2.8 2.9-1.6 0-2.9-1.3-2.9-2.9 0-1.6 1.3-2.9 2.9-2.9z"/>
							<path id="&lt;Path&gt;" fill-rule="evenodd" class="s8" d="m457.5 348.7c2.1 0 3.8 1.8 3.8 4 0 2.1-1.7 3.9-3.8 3.9-2.2 0-3.9-1.8-3.9-3.9 0-2.2 1.7-4 3.9-4z"/>
							<path id="&lt;Path&gt;" fill-rule="evenodd" class="s3" d="m343 231.2c2.8 0 5.1 2.3 5.1 5.1 0 2.9-2.3 5.2-5.1 5.2-2.8 0-5.1-2.3-5.1-5.2 0-2.8 2.3-5.1 5.1-5.1z"/>
							<path id="&lt;Path&gt;" fill-rule="evenodd" class="s6" d="m251.7 489.6c3.3 0 6 2.7 6 6.1 0 3.4-2.7 6.1-6 6.1-3.4 0-6.1-2.7-6.1-6.1 0-3.4 2.7-6.1 6.1-6.1z"/>
							<path id="&lt;Path&gt;" fill-rule="evenodd" class="s8" d="m112.5 129.6c1.2 0 2.2 1 2.2 2.2 0 1.2-1 2.2-2.2 2.2-1.2 0-2.2-1-2.2-2.2 0-1.2 1-2.2 2.2-2.2z"/>
							<path id="&lt;Path&gt;" fill-rule="evenodd" class="s6" d="m394.6 541.5c2.6 0 4.6 2.1 4.6 4.7 0 2.7-2 4.8-4.6 4.8-2.6 0-4.7-2.1-4.7-4.8 0-2.6 2.1-4.7 4.7-4.7z"/>
							<path id="&lt;Path&gt;" fill-rule="evenodd" class="s6" d="m170.5 323.5c2.5 0 4.5 2 4.5 4.5 0 2.4-2 4.5-4.5 4.5-2.4 0-4.4-2.1-4.4-4.5 0-2.5 2-4.5 4.4-4.5z"/>
						</g>
						<g id="&lt;Group&gt;">
							<g id="&lt;Group&gt;">
								<path id="&lt;Compound Path&gt;" fill-rule="evenodd" class="s9" d="m-7.6 47.9q0-0.1 0-0.2l1.1-97.9q0.1-0.2 0.2-0.2 0.1-0.1 0.3 0l92.8 80.2q0.1 0.1 0.1 0.2 0 0.2-0.2 0.2l-94.1 17.8q-0.1 0-0.2-0.1zm1.6-97.6l-1.1 97.1 93.2-17.6z"/>
							</g>
							<g id="&lt;Group&gt;">
								<path id="&lt;Compound Path&gt;" fill-rule="evenodd" class="s9" d="m177.5 144.4l-81-12.7q-0.2 0-0.2-0.2-0.1-0.1 0-0.2l46.1-61.4q0.1-0.1 0.2-0.1 0.2 0 0.2 0.2l34.9 74q0.1 0.1 0 0.3-0.1 0.1-0.2 0.1zm-80.6-13.1l80.2 12.5-34.5-73.3z"/>
							</g>
							<g id="&lt;Group&gt;">
								<path id="&lt;Compound Path&gt;" fill-rule="evenodd" class="s9" d="m96.5 131.7l-79.9-9.5q-0.1 0-0.2-0.1 0-0.1 0.1-0.3l70-92q0.1-0.1 0.2-0.1 0.2 0.1 0.2 0.3l9.8 101.4q0.1 0.1 0 0.2-0.1 0.1-0.2 0.1zm-79.4-9.9l79.1 9.4-9.7-100.6z"/>
							</g>
							<g id="&lt;Group&gt;">
								<path id="&lt;Compound Path&gt;" fill-rule="evenodd" class="s9" d="m96.4 131.7q-0.1-0.1-0.2-0.2l-9.8-101.5q0-0.2 0.1-0.2 0.2-0.1 0.3 0l56 40.1q0 0 0.1 0.1 0 0.1-0.1 0.2l-46.1 61.4q-0.1 0.1-0.2 0.1 0 0-0.1 0zm-9.4-101.2l9.7 100.3 45.6-60.7z"/>
							</g>
							<g id="&lt;Group&gt;">
								<path id="&lt;Compound Path&gt;" fill-rule="evenodd" class="s9" d="m-45.7 128.7q-0.1-0.2 0-0.3l38.1-80.8q0-0.1 0.2-0.1 0.2 0 0.2 0.1l24.1 74.3q0 0.1 0 0.2-0.1 0.1-0.2 0.1l-62.2 6.6q-0.1 0-0.2-0.1zm38.3-80.3l-37.7 79.8 61.4-6.4z"/>
							</g>
							<g id="&lt;Group&gt;">
								<path id="&lt;Compound Path&gt;" fill-rule="evenodd" class="s9" d="m16.6 122.2q-0.1 0-0.2-0.1l-24-74.3q-0.1-0.1 0-0.2 0-0.1 0.2-0.1l94-17.8q0.2 0 0.3 0.1 0.1 0.2 0 0.3l-70 92.1q-0.1 0-0.2 0-0.1 0-0.1 0zm-23.7-74.3l23.9 73.6 69.3-91.2z"/>
							</g>
							<g id="&lt;Group&gt;">
								<path id="&lt;Compound Path&gt;" fill-rule="evenodd" class="s9" d="m148.6 182.2q-0.1-0.2 0-0.3l28.7-37.9c0.1-0.1 0.2-0.2 0.3-0.1l40.5 23.6q0.2 0.1 0.2 0.2-0.1 0.2-0.2 0.2l-69.3 14.4q-0.2 0-0.2-0.1zm29-37.8l-28.2 37.3 67.9-14.1z"/>
							</g>
							<g id="&lt;Group&gt;">
								<path id="&lt;Compound Path&gt;" fill-rule="evenodd" class="s9" d="m148.7 182.3l-68.3-9.3q-0.2 0-0.2-0.2-0.1-0.1 0-0.2l16.1-41.3q0-0.1 0.1-0.1 0.2 0 0.3 0.1l52.3 50.6q0.1 0.1 0 0.3-0.1 0.1-0.2 0.1 0 0-0.1 0zm-68-9.8l67.4 9.2-51.5-49.8z"/>
							</g>
							<g id="&lt;Group&gt;">
								<path id="&lt;Compound Path&gt;" fill-rule="evenodd" class="s9" d="m148.6 182.2l-52.3-50.6q-0.1-0.1 0-0.3 0.1-0.1 0.2-0.1l81 12.7q0.2 0 0.2 0.1 0.1 0.1 0 0.3l-28.7 37.9q-0.1 0.1-0.2 0.1-0.1 0-0.2-0.1zm-51.4-50.4l51.6 49.9 28.2-37.4z"/>
							</g>
							<g id="&lt;Group&gt;">
								<path id="&lt;Compound Path&gt;" fill-rule="evenodd" class="s9" d="m56.8 182.7l-40.3-60.6q-0.2-0.1 0-0.3 0.1-0.1 0.3 0l63.7 50.7q0.2 0.1 0.1 0.3 0 0.1-0.1 0.2l-23.4 9.8q-0.1 0-0.1 0-0.2 0-0.2-0.1zm-39-59.5l39.3 59 22.8-9.5z"/>
							</g>
							<g id="&lt;Group&gt;">
								<path id="&lt;Compound Path&gt;" fill-rule="evenodd" class="s9" d="m80.2 172.9l-63.7-50.7c-0.1-0.1-0.1-0.2-0.1-0.3 0.1-0.1 0.2-0.2 0.3-0.1l79.8 9.4q0.1 0 0.2 0.1 0.1 0.1 0 0.2l-16.1 41.3q0 0.1-0.1 0.2-0.1 0-0.1 0-0.1 0-0.2-0.1zm-62.7-50.5l62.8 49.9 15.8-40.6z"/>
							</g>
							<g id="&lt;Group&gt;">
								<path id="&lt;Compound Path&gt;" fill-rule="evenodd" class="s9" d="m57 182.8l-78.3-1.4q-0.1 0-0.2-0.2l-24.2-52.6q-0.1-0.1 0-0.3 0.2-0.1 0.3 0l102.5 54c0.1 0.1 0.1 0.2 0.1 0.3 0 0.1-0.1 0.2-0.2 0.2zm-78.1-1.9l77 1.4-100.9-53.2z"/>
							</g>
							<g id="&lt;Group&gt;">
								<path id="&lt;Compound Path&gt;" fill-rule="evenodd" class="s9" d="m56.9 182.8l-102.5-54.1c-0.1 0-0.2-0.1-0.1-0.2 0-0.1 0.1-0.2 0.2-0.2l62.1-6.5q0.2-0.1 0.3 0.1l40.3 60.5q0 0.2 0 0.3-0.1 0.1-0.2 0.1-0.1 0-0.1 0zm-101.5-54.1l100.8 53.2-39.7-59.6z"/>
							</g>
							<g id="&lt;Group&gt;">
								<path id="&lt;Compound Path&gt;" fill-rule="evenodd" class="s9" d="m250.5 273.8q-0.1 0-0.1-0.1l-32.6-105.9q-0.1-0.2 0.1-0.3 0.1-0.1 0.3 0l103.6 78.7q0.1 0.1 0.1 0.2 0 0.2-0.2 0.2l-71 27.3q-0.1 0-0.1 0-0.1 0-0.1-0.1zm-32-105.5l32.3 105 70.3-27z"/>
							</g>
							<g id="&lt;Group&gt;">
								<path id="&lt;Compound Path&gt;" fill-rule="evenodd" class="s9" d="m250.5 273.9l-66.6-21.6q-0.1 0-0.1-0.1l-35.2-70c-0.1-0.1-0.1-0.3 0-0.3 0.1-0.1 0.3-0.1 0.3 0l101.9 91.5q0.2 0.1 0 0.3-0.1 0.2-0.2 0.2 0 0-0.1 0zm-66.3-22l65.3 21.1-99.9-89.9z"/>
							</g>
							<g id="&lt;Group&gt;">
								<path id="&lt;Compound Path&gt;" fill-rule="evenodd" class="s9" d="m250.4 273.8l-101.8-91.6q-0.1-0.1-0.1-0.2 0.1-0.2 0.2-0.2l69.3-14.4c0.1 0 0.2 0.1 0.3 0.2l32.5 105.9c0.1 0.2 0 0.3-0.1 0.3q0 0.1-0.1 0.1-0.1 0-0.2-0.1zm-101.1-91.6l100.8 90.6-32.3-104.8z"/>
							</g>
							<g id="&lt;Group&gt;">
								<path id="&lt;Compound Path&gt;" fill-rule="evenodd" class="s9" d="m111.7 257.9l-31.5-85.1c-0.1-0.1 0-0.2 0-0.3 0.1 0 0.3 0 0.3 0l103.6 79.4q0.2 0.1 0.1 0.2 0 0.2-0.2 0.2l-72 5.8q0 0-0.1 0-0.1-0.1-0.2-0.2zm-30.8-84.5l31.2 84.1 71.2-5.6z"/>
							</g>
							<g id="&lt;Group&gt;">
								<path id="&lt;Compound Path&gt;" fill-rule="evenodd" class="s9" d="m183.8 252.3l-103.6-79.4c0 0-0.1-0.2 0-0.3q0-0.1 0.2-0.1l68.4 9.3q0.1 0 0.2 0.1l35.2 70.1c0.1 0.1 0 0.2 0 0.3q-0.1 0-0.2 0-0.1 0-0.2 0zm-102.5-79.2l102 78.1-34.7-68.9z"/>
							</g>
							<g id="&lt;Group&gt;">
								<path id="&lt;Compound Path&gt;" fill-rule="evenodd" class="s9" d="m70.8 286.2q-0.2-0.1-0.2-0.2l-13.9-103.4c0-0.1 0.1-0.2 0.2-0.3 0.1 0 0.2 0 0.3 0.1l55 75.3q0 0 0 0.1 0 0.2-0.1 0.2l-41.1 28.1q-0.1 0.1-0.1 0.1-0.1 0-0.1 0zm-13.4-102.7l13.6 102 40.6-27.8z"/>
							</g>
							<g id="&lt;Group&gt;">
								<path id="&lt;Compound Path&gt;" fill-rule="evenodd" class="s9" d="m111.7 258l-54.9-75.3q-0.1-0.1-0.1-0.2 0.1-0.1 0.2-0.2l23.4-9.8q0.1 0 0.2 0 0.1 0 0.1 0.1l31.6 85.1c0 0.1 0 0.3-0.1 0.3q-0.1 0.1-0.2 0.1-0.1 0-0.2-0.1zm-54.3-75.3l53.7 73.5-30.9-83.1z"/>
							</g>
							<g id="&lt;Group&gt;">
								<path id="&lt;Compound Path&gt;" fill-rule="evenodd" class="s9" d="m70.8 286.2l-132.6-43.4q-0.2 0-0.2-0.2 0-0.1 0-0.2l40.5-61.4q0.1-0.1 0.2-0.1 0.1 0 0.2 0.1l92.1 104.8c0.1 0.1 0.1 0.2 0.1 0.3q-0.1 0.1-0.2 0.1-0.1 0-0.1 0zm-132.2-43.8l131.5 43-91.3-103.8z"/>
							</g>
							<g id="&lt;Group&gt;">
								<path id="&lt;Compound Path&gt;" fill-rule="evenodd" class="s9" d="m70.7 286.1l-92.1-104.8q-0.1-0.1-0.1-0.3c0.1-0.1 0.2-0.1 0.2-0.1l78.3 1.4c0.1 0 0.2 0.1 0.2 0.2l13.9 103.4c0 0.1 0 0.2-0.1 0.3q-0.1 0-0.1 0-0.2 0-0.2-0.1zm-91.4-104.7l91.2 103.8-13.7-102.4z"/>
							</g>
							<g id="&lt;Group&gt;">
								<path id="&lt;Compound Path&gt;" fill-rule="evenodd" class="s9" d="m397.2 378.1l-67.5-38.8q-0.1 0-0.1-0.2l-8.2-92.7c0-0.1 0.1-0.2 0.2-0.3 0.1 0 0.2 0 0.3 0.2l75.6 131.5c0.1 0.1 0 0.2 0 0.3q-0.1 0.1-0.2 0.1-0.1 0-0.1-0.1zm-67.1-39.1l66.5 38.3-74.6-129.8z"/>
							</g>
							<g id="&lt;Group&gt;">
								<path id="&lt;Compound Path&gt;" fill-rule="evenodd" class="s9" d="m266.4 363.4q-0.1 0-0.2-0.1l-15.8-89.6q-0.1-0.2 0.1-0.3 0.1-0.1 0.3 0l79.2 65.5q0.1 0.1 0.1 0.3 0 0.1-0.2 0.2l-63.3 24.1q-0.1 0-0.1 0-0.1 0-0.1-0.1zm-15.4-89.2l15.7 88.7 62.7-23.9z"/>
							</g>
							<g id="&lt;Group&gt;">
								<path id="&lt;Compound Path&gt;" fill-rule="evenodd" class="s9" d="m329.7 339.3l-79.3-65.5q-0.1-0.1 0-0.2 0-0.2 0.1-0.2l71.1-27.3q0.1 0 0.2 0.1 0.1 0 0.1 0.2l8.2 92.7q0 0.2-0.1 0.2-0.1 0.1-0.1 0.1-0.1 0-0.2-0.1zm-78.6-65.6l78.4 64.8-8.1-91.8z"/>
							</g>
							<g id="&lt;Group&gt;">
								<path id="&lt;Compound Path&gt;" fill-rule="evenodd" class="s9" d="m266.3 363.4l-61.1-49.3q0-0.1-0.1-0.1l-21.3-61.8c-0.1-0.2 0-0.3 0.1-0.3q0.1-0.2 0.3 0l82.5 111.2c0.1 0.1 0 0.2 0 0.3q-0.1 0.1-0.2 0.1-0.1 0-0.2-0.1zm-60.8-49.7l59.6 48-80.3-108.2z"/>
							</g>
							<g id="&lt;Group&gt;">
								<path id="&lt;Compound Path&gt;" fill-rule="evenodd" class="s9" d="m266.3 363.4l-82.5-111.2q-0.1-0.1 0-0.3c0.1-0.1 0.2-0.1 0.3-0.1l66.6 21.6q0.1 0 0.1 0.2l15.9 89.6c0 0.1 0 0.2-0.1 0.3q-0.1 0-0.1 0-0.1 0-0.2-0.1zm-81.6-110.8l81.3 109.5-15.6-88.3z"/>
							</g>
							<g id="&lt;Group&gt;">
								<path id="&lt;Compound Path&gt;" fill-rule="evenodd" class="s9" d="m91.6 316q-0.1-0.1 0-0.3l20.1-58q0.1-0.1 0.2-0.1 0.1-0.1 0.2 0l93.4 56.1c0 0 0.1 0.1 0 0.3 0 0.1 0 0.1-0.1 0.1l-113.6 2q-0.1 0-0.2-0.1zm20.5-57.8l-19.9 57.4 112.3-1.9z"/>
							</g>
							<g id="&lt;Group&gt;">
								<path id="&lt;Compound Path&gt;" fill-rule="evenodd" class="s9" d="m205.3 314.1l-93.5-56.1q-0.1-0.1-0.1-0.2c0-0.2 0.1-0.2 0.2-0.2l72.1-5.8q0.2 0 0.2 0.2l21.3 61.8q0.1 0.2 0 0.3 0 0-0.1 0-0.1 0-0.1 0zm-92.5-56.1l92.1 55.3-21.1-61z"/>
							</g>
							<g id="&lt;Group&gt;">
								<path id="&lt;Compound Path&gt;" fill-rule="evenodd" class="s9" d="m42 320.8q0-0.1 0.1-0.3l28.6-34.7q0-0.1 0.2-0.1 0.1 0 0.2 0.1l20.9 29.9q0.1 0.1 0 0.2 0 0.2-0.2 0.2l-49.5 4.9q-0.2-0.1-0.3-0.2zm28.8-34.5l-28 34.1 48.6-4.8z"/>
							</g>
							<g id="&lt;Group&gt;">
								<path id="&lt;Compound Path&gt;" fill-rule="evenodd" class="s9" d="m91.6 316l-21-29.9q0-0.1 0-0.2 0-0.1 0.1-0.2l41.1-28.1q0.2-0.1 0.3 0 0.1 0.1 0.1 0.3l-20.1 58q-0.1 0.2-0.2 0.2-0.1 0-0.1 0-0.1 0-0.2-0.1zm-20.4-30l20.5 29.3 19.8-56.9z"/>
							</g>
							<g id="&lt;Group&gt;">
								<path id="&lt;Compound Path&gt;" fill-rule="evenodd" class="s9" d="m42.2 320.9l-60.6-11.3q-0.1 0-0.1-0.1l-43.5-66.8c0-0.1 0-0.2 0.1-0.3q0.1-0.2 0.3 0l104 78.1c0.1 0.1 0.1 0.2 0.1 0.3q-0.1 0.1-0.2 0.2-0.1 0-0.1-0.1zm-60.4-11.7l59.4 11.1-102-76.7z"/>
							</g>
							<g id="&lt;Group&gt;">
								<path id="&lt;Compound Path&gt;" fill-rule="evenodd" class="s9" d="m42.1 320.9l-104-78.1c-0.1-0.1-0.1-0.2-0.1-0.3 0.1-0.2 0.2-0.2 0.3-0.2l132.6 43.4q0.2 0 0.2 0.2 0 0.1-0.1 0.2l-28.6 34.8q0 0.1-0.1 0.1-0.1 0-0.2-0.1zm-102.5-77.6l102.6 77.1 28.2-34.3z"/>
							</g>
							<g id="&lt;Group&gt;">
								<path id="&lt;Compound Path&gt;" fill-rule="evenodd" class="s9" d="m471.4 427.9l-108.2-15.6q-0.2-0.1-0.2-0.2 0-0.2 0.1-0.3l34-34c0.1-0.1 0.2-0.1 0.3-0.1l74.2 49.7c0.1 0.1 0.1 0.2 0.1 0.3q-0.1 0.2-0.3 0.2zm-107.6-16.1l106.6 15.4-73.1-48.9z"/>
							</g>
							<g id="&lt;Group&gt;">
								<path id="&lt;Compound Path&gt;" fill-rule="evenodd" class="s9" d="m363.2 412.2l-49.6-13.7c-0.1-0.1-0.2-0.2-0.1-0.4l16.1-59q0.1-0.2 0.2-0.2 0.2 0 0.3 0.1l33.4 72.9q0 0.1-0.1 0.3-0.1 0.1-0.2 0.1 0 0 0-0.1zm-49.2-14.2l48.8 13.6-32.9-71.8z"/>
							</g>
							<g id="&lt;Group&gt;">
								<path id="&lt;Compound Path&gt;" fill-rule="evenodd" class="s9" d="m363.2 412.3q-0.1-0.1-0.2-0.2l-33.4-72.9q0-0.1 0.1-0.3c0.1 0 0.2-0.1 0.3 0l67.4 38.8q0.1 0.1 0.1 0.2 0 0.1 0 0.2l-34.1 34.1q-0.1 0.1-0.2 0.1zm-32.8-72.6l32.9 71.9 33.6-33.6z"/>
							</g>
							<g id="&lt;Group&gt;">
								<path id="&lt;Compound Path&gt;" fill-rule="evenodd" class="s9" d="m229.4 415.5q-0.1-0.1 0-0.3l36.9-52.1q0-0.1 0.1-0.1 0.1 0 0.2 0l47.3 35q0.1 0.1 0.1 0.3-0.1 0.1-0.2 0.2l-84.2 17.1q-0.2 0-0.2-0.1zm37.1-51.9l-36.4 51.4 83-16.9z"/>
							</g>
							<g id="&lt;Group&gt;">
								<path id="&lt;Compound Path&gt;" fill-rule="evenodd" class="s9" d="m313.6 398.4l-47.3-35q-0.1-0.1-0.1-0.2 0.1-0.1 0.2-0.2l63.4-24.1q0.1-0.1 0.2 0 0.1 0.1 0.1 0.3l-16.1 59.1q-0.1 0.1-0.2 0.1 0 0.1-0.1 0.1-0.1 0-0.1-0.1zm-46.6-35.1l46.6 34.5 15.9-58.3z"/>
							</g>
							<g id="&lt;Group&gt;">
								<path id="&lt;Compound Path&gt;" fill-rule="evenodd" class="s9" d="m229.5 415.6l-14.1-5q-0.1 0-0.2-0.2l-10.1-96.5c0-0.1 0.1-0.2 0.2-0.3 0.2 0 0.2 0.1 0.2 0.2l24.3 101.5q0 0.2-0.1 0.3 0 0-0.1 0-0.1 0-0.1 0zm-13.8-5.4l13.5 4.8-23.3-97.3z"/>
							</g>
							<g id="&lt;Group&gt;">
								<path id="&lt;Compound Path&gt;" fill-rule="evenodd" class="s9" d="m229.5 415.6q-0.1 0-0.2-0.1l-24.2-101.5q0-0.2 0.1-0.3 0.2-0.1 0.3 0l61.1 49.3c0.1 0.1 0.2 0.3 0.1 0.4l-36.9 52.1q-0.1 0.1-0.2 0.1-0.1 0-0.1 0zm-23.8-101.1l24 100.3 36.4-51.5z"/>
							</g>
							<g id="&lt;Group&gt;">
								<path id="&lt;Compound Path&gt;" fill-rule="evenodd" class="s9" d="m106.3 420.5l-14.7-104.6q0-0.2 0.1-0.3 0.1-0.1 0.3 0l123.6 94.6q0.2 0.1 0.1 0.3 0 0.1-0.2 0.1l-109 10.1c-0.1 0-0.2-0.1-0.2-0.2zm-14.1-104.1l14.5 103.7 108.1-9.9z"/>
							</g>
							<g id="&lt;Group&gt;">
								<path id="&lt;Compound Path&gt;" fill-rule="evenodd" class="s9" d="m215.3 410.6l-123.6-94.6q-0.2-0.1-0.1-0.2 0-0.2 0.2-0.2l113.6-2c0.1 0 0.1 0.1 0.1 0.3l10.2 96.5q0 0.1-0.1 0.2-0.1 0-0.1 0-0.1 0-0.2 0zm-122.8-94.5l122.7 93.7-10-95.7z"/>
							</g>
							<g id="&lt;Group&gt;">
								<path id="&lt;Compound Path&gt;" fill-rule="evenodd" class="s9" d="m106.5 420.7l-55.9-4.4c-0.1 0-0.2-0.1-0.3-0.2l-8.3-95.4c0-0.1 0.1-0.2 0.2-0.2 0.1-0.1 0.2 0 0.3 0.1l64.2 99.7q0.1 0.1 0 0.2 0 0.2-0.2 0.2zm-55.7-4.9l55.2 4.3-63.4-98.3z"/>
							</g>
							<g id="&lt;Group&gt;">
								<path id="&lt;Compound Path&gt;" fill-rule="evenodd" class="s9" d="m106.3 420.6l-64.3-99.8q0-0.1 0-0.2 0.1-0.1 0.2-0.1l49.6-4.9c0.1 0 0.2 0.1 0.3 0.2l14.7 104.6c0 0.1-0.1 0.2-0.2 0.2q0 0.1-0.1 0.1-0.1 0-0.2-0.1zm-63.6-99.7l63.4 98.4-14.5-103.2z"/>
							</g>
							<g id="&lt;Group&gt;">
								<path id="&lt;Compound Path&gt;" fill-rule="evenodd" class="s9" d="m-24 432.8q-0.1-0.1-0.1-0.2l5.5-123.2q0-0.2 0.2-0.2 0.2-0.1 0.3 0.1l68.9 106.6q0.1 0.1 0 0.2 0 0.2-0.2 0.2l-74.4 16.5q-0.1 0-0.2 0zm5.9-122.6l-5.5 122.1 73.8-16.4z"/>
							</g>
							<g id="&lt;Group&gt;">
								<path id="&lt;Compound Path&gt;" fill-rule="evenodd" class="s9" d="m50.4 416.2l-68.9-106.7q-0.1-0.1 0-0.2 0-0.2 0.2-0.2l60.6 11.4c0.1 0 0.2 0.1 0.2 0.2l8.3 95.3c0.1 0.1 0 0.2-0.1 0.3q-0.1 0-0.1 0-0.1 0-0.2-0.1zm-68.2-106.5l68.1 105.4-8.3-94.2z"/>
							</g>
							<g id="&lt;Group&gt;">
								<path id="&lt;Compound Path&gt;" fill-rule="evenodd" class="s9" d="m517.1 494.3l-79-13.1q-0.1-0.1-0.2-0.2 0-0.1 0-0.2l33.3-53.3q0.1-0.1 0.2-0.1 0.2 0 0.2 0.1l45.8 66.4q0.1 0.1 0 0.3-0.1 0.1-0.2 0.1 0 0-0.1 0zm-78.5-13.6l78 13-45.2-65.6z"/>
							</g>
							<g id="&lt;Group&gt;">
								<path id="&lt;Compound Path&gt;" fill-rule="evenodd" class="s9" d="m399.7 482.9l-36.7-70.8c0-0.1 0-0.2 0.1-0.3q0.1-0.1 0.3 0l74.9 68.9q0.1 0.2 0.1 0.3-0.1 0.2-0.2 0.2l-38.3 1.9q-0.1 0-0.2-0.2zm-35.6-69.8l36 69.5 37.4-1.9z"/>
							</g>
							<g id="&lt;Group&gt;">
								<path id="&lt;Compound Path&gt;" fill-rule="evenodd" class="s9" d="m438 481.1l-74.9-68.9c-0.1-0.1-0.1-0.2-0.1-0.3 0.1-0.1 0.2-0.2 0.3-0.1l108.2 15.6q0.1 0 0.2 0.1 0 0.1-0.1 0.2l-33.2 53.4q-0.1 0.1-0.2 0.1-0.1 0-0.2-0.1zm-74-68.7l74.1 68.1 32.9-52.7z"/>
							</g>
							<g id="&lt;Group&gt;">
								<path id="&lt;Compound Path&gt;" fill-rule="evenodd" class="s9" d="m399.9 483.1l-106-25q-0.1 0-0.2-0.1 0-0.1 0-0.2l19.8-59.7q0-0.1 0.2-0.1 0.1-0.1 0.2 0l86.2 84.6c0.1 0.1 0.1 0.2 0.1 0.3q-0.1 0.2-0.3 0.2zm-105.6-25.4l104.8 24.7-85.3-83.7z"/>
							</g>
							<g id="&lt;Group&gt;">
								<path id="&lt;Compound Path&gt;" fill-rule="evenodd" class="s9" d="m399.8 483l-86.3-84.6c0-0.1-0.1-0.2 0-0.3 0.1-0.1 0.2-0.2 0.3-0.1l49.5 13.8q0.1 0 0.2 0.1l36.7 70.8c0 0.1 0 0.2-0.1 0.3q-0.1 0.1-0.2 0.1-0.1 0-0.1-0.1zm-85.2-84.3l84.4 82.8-35.9-69.3z"/>
							</g>
							<g id="&lt;Group&gt;">
								<path id="&lt;Compound Path&gt;" fill-rule="evenodd" class="s9" d="m243.8 491.9q-0.1 0-0.1-0.2l-14.4-76.3q0-0.1 0.1-0.2 0.2-0.1 0.3 0l64.4 42.5q0.1 0 0.1 0.2 0 0.1-0.1 0.2l-50 33.8q-0.1 0.1-0.2 0.1 0 0-0.1-0.1zm-13.9-76l14.2 75.4 49.4-33.4z"/>
							</g>
							<g id="&lt;Group&gt;">
								<path id="&lt;Compound Path&gt;" fill-rule="evenodd" class="s9" d="m293.8 458.1l-64.4-42.5q-0.1-0.1-0.1-0.3 0.1-0.1 0.2-0.2l84.2-17.1q0.1-0.1 0.2 0 0.1 0.2 0 0.3l-19.7 59.7q-0.1 0.1-0.2 0.1 0 0-0.1 0 0 0-0.1 0zm-63.6-42.6l63.6 42 19.5-59z"/>
							</g>
							<g id="&lt;Group&gt;">
								<path id="&lt;Compound Path&gt;" fill-rule="evenodd" class="s9" d="m156.5 516.3q-0.1-0.2 0-0.3l58.8-105.7q0-0.2 0.2-0.2 0.2 0.1 0.2 0.2l28.5 81.3q0 0.1-0.1 0.2 0 0.1-0.1 0.1l-87.2 24.4q-0.1 0.1-0.1 0.1-0.1-0.1-0.2-0.1zm58.9-105.3l-58.2 104.7 86.4-24.2z"/>
							</g>
							<g id="&lt;Group&gt;">
								<path id="&lt;Compound Path&gt;" fill-rule="evenodd" class="s9" d="m243.7 491.8l-28.5-81.3q0-0.2 0.1-0.3 0.1-0.1 0.3-0.1l14 5.1q0.2 0 0.2 0.1l14.4 76.4c0 0.1-0.1 0.2-0.2 0.2q-0.1 0.1-0.1 0.1-0.2-0.1-0.2-0.2zm-27.8-81l27.2 77.7-13.8-72.9z"/>
							</g>
							<g id="&lt;Group&gt;">
								<path id="&lt;Compound Path&gt;" fill-rule="evenodd" class="s9" d="m156.6 516.3l-38.3-16.2q-0.1-0.1-0.2-0.2l-11.8-79.4c-0.1-0.2 0-0.3 0.1-0.3 0.1-0.1 0.3 0 0.3 0.1l50.2 95.7q0.1 0.1 0 0.3-0.1 0-0.2 0.1 0 0-0.1-0.1zm-38-16.6l37.6 15.9-49.2-93.8z"/>
							</g>
							<g id="&lt;Group&gt;">
								<path id="&lt;Compound Path&gt;" fill-rule="evenodd" class="s9" d="m156.5 516.2l-50.2-95.7q-0.1-0.1 0-0.2 0.1-0.1 0.2-0.1l109-10.1q0.1 0 0.2 0.2 0.1 0.1 0 0.2l-58.8 105.7q-0.1 0.1-0.2 0.2c-0.1 0-0.2-0.1-0.2-0.2zm-49.6-95.6l49.8 95 58.3-104.9z"/>
							</g>
							<g id="&lt;Group&gt;">
								<path id="&lt;Compound Path&gt;" fill-rule="evenodd" class="s9" d="m118.3 500.1l-115.4-21.3q-0.1-0.1-0.2-0.2 0-0.1 0-0.2l47.7-62.5q0.1-0.1 0.2-0.1c0.1 0 0.1 0 0.2 0.1l67.8 83.8q0.1 0.2 0 0.3-0.1 0.1-0.2 0.1 0 0-0.1 0zm-114.9-21.8l114.4 21.2-67.2-83z"/>
							</g>
							<g id="&lt;Group&gt;">
								<path id="&lt;Compound Path&gt;" fill-rule="evenodd" class="s9" d="m118.2 500l-67.8-83.8q-0.1-0.1 0-0.3 0-0.1 0.2-0.1l55.9 4.4c0.1 0 0.2 0.1 0.3 0.2l11.8 79.4c0.1 0.1 0 0.3-0.1 0.3q-0.1 0-0.1 0-0.1 0-0.2-0.1zm-67-83.7l66.8 82.7-11.7-78.4z"/>
							</g>
							<g id="&lt;Group&gt;">
								<path id="&lt;Compound Path&gt;" fill-rule="evenodd" class="s9" d="m-9.2 487.6q-0.1-0.1-0.2-0.2l-14.7-54.7c0-0.2 0.1-0.3 0.2-0.3 0.1-0.1 0.2 0 0.3 0.1l26.8 45.9c0 0.1 0 0.2-0.1 0.3l-12.1 8.9q-0.1 0-0.1 0-0.1 0-0.1 0zm-13.9-53.3l14.1 52.6 11.6-8.5z"/>
							</g>
							<g id="&lt;Group&gt;">
								<path id="&lt;Compound Path&gt;" fill-rule="evenodd" class="s9" d="m2.9 478.8q-0.1 0-0.2-0.2l-26.7-45.9q-0.1-0.1 0-0.2 0-0.1 0.1-0.1l74.4-16.6c0.1 0 0.2 0 0.3 0.1q0.1 0.2 0 0.3l-47.7 62.5q0 0.1-0.2 0.1zm-26.3-46l26.4 45.3 47-61.7z"/>
							</g>
							<g id="&lt;Group&gt;">
								<path id="&lt;Compound Path&gt;" fill-rule="evenodd" class="s9" d="m589.8 555.8l-109.3-21.8q-0.1 0-0.2-0.1l-42.3-52.8q-0.1-0.1 0-0.3c0-0.1 0.2-0.2 0.3-0.1l151.6 74.6c0.1 0 0.2 0.2 0.1 0.3q0 0.2-0.2 0.2zm-109.1-22.3l107.3 21.4-148.9-73.3z"/>
							</g>
							<g id="&lt;Group&gt;">
								<path id="&lt;Compound Path&gt;" fill-rule="evenodd" class="s9" d="m589.7 555.7l-151.6-74.5q-0.1-0.1-0.1-0.1-0.1-0.1 0-0.3 0.1-0.2 0.2-0.1l79 13.1q0.1 0 0.1 0l72.7 61.5c0.1 0.1 0.1 0.2 0 0.4q-0.1 0.1-0.2 0.1 0 0-0.1-0.1zm-149.9-74.3l148.3 73-71-60.1z"/>
							</g>
							<g id="&lt;Group&gt;">
								<path id="&lt;Compound Path&gt;" fill-rule="evenodd" class="s9" d="m379.1 537q-0.1-0.1-0.1-0.3l20.7-54q0-0.1 0.2-0.1 0.1-0.1 0.2 0l80.6 50.9c0.1 0.1 0.1 0.2 0.1 0.3-0.1 0.1-0.2 0.2-0.3 0.2l-101.2 3.1q-0.2 0-0.2-0.1zm21-53.8l-20.5 53.4 100.1-3.1z"/>
							</g>
							<g id="&lt;Group&gt;">
								<path id="&lt;Compound Path&gt;" fill-rule="evenodd" class="s9" d="m480.4 534l-80.6-51c-0.1 0-0.1-0.1-0.1-0.2q0-0.2 0.2-0.2l38.2-1.9q0.2 0 0.3 0.1l42.3 52.8q0.1 0.2 0 0.3-0.1 0.1-0.2 0.1 0 0-0.1 0zm-79.7-51l78.7 49.7-41.4-51.5z"/>
							</g>
							<g id="&lt;Group&gt;">
								<path id="&lt;Compound Path&gt;" fill-rule="evenodd" class="s9" d="m327.3 575.4q-0.1-0.1-0.2-0.2l-33.4-117.3c0-0.1 0-0.2 0.1-0.2q0.2-0.2 0.3 0l85.3 79q0.1 0 0.1 0.2 0 0.1-0.1 0.1l-51.9 38.3q-0.1 0.1-0.1 0.1-0.1 0-0.1 0zm-32.9-116.7l33.1 116 51.4-37.9z"/>
							</g>
							<g id="&lt;Group&gt;">
								<path id="&lt;Compound Path&gt;" fill-rule="evenodd" class="s9" d="m379.1 537l-85.3-78.9c-0.1-0.1-0.1-0.2-0.1-0.3 0.1-0.1 0.2-0.2 0.3-0.2l106 25q0.1 0 0.2 0.1 0 0.1 0 0.2l-20.7 54q-0.1 0.2-0.2 0.2-0.1 0-0.2-0.1zm-84.3-78.7l84.4 78.1 20.4-53.4z"/>
							</g>
							<g id="&lt;Group&gt;">
								<path id="&lt;Compound Path&gt;" fill-rule="evenodd" class="s9" d="m327.2 575.3l-68.6-46.6q-0.1-0.1-0.1-0.1l-14.8-36.8c-0.1-0.1 0-0.2 0.1-0.3q0.2-0.1 0.3 0l83.4 83.5c0.1 0.1 0.1 0.2 0.1 0.3q-0.1 0.1-0.2 0.1-0.1 0-0.2-0.1zm-68.3-47l66.4 45.1-80.7-80.7z"/>
							</g>
							<g id="&lt;Group&gt;">
								<path id="&lt;Compound Path&gt;" fill-rule="evenodd" class="s9" d="m327.2 575.3l-83.5-83.4q0-0.1 0-0.2 0-0.1 0.1-0.2l50-33.8q0.1-0.1 0.2-0.1 0.1 0.1 0.2 0.2l33.4 117.3c0 0.1 0 0.2-0.1 0.3q-0.1 0-0.1 0-0.1 0-0.2-0.1zm-82.9-83.6l82.6 82.6-33.1-116z"/>
							</g>
							<g id="&lt;Group&gt;">
								<path id="&lt;Compound Path&gt;" fill-rule="evenodd" class="s9" d="m212.8 588l-56.3-71.7q-0.1-0.2 0-0.3 0.1-0.2 0.2-0.1l102.1 12.3q0.1 0 0.2 0.2 0 0.1-0.1 0.2l-45.7 59.4q-0.1 0.1-0.2 0.1-0.2 0-0.2-0.1zm-55.5-71.6l55.7 71 45.3-58.7z"/>
							</g>
							<g id="&lt;Group&gt;">
								<path id="&lt;Compound Path&gt;" fill-rule="evenodd" class="s9" d="m258.7 528.7l-102-12.4c-0.1 0-0.2-0.1-0.2-0.2-0.1-0.1 0-0.2 0.1-0.2l87.2-24.4c0.2-0.1 0.3 0 0.3 0.1l14.9 36.8q0 0.1-0.1 0.2 0 0.1-0.2 0.1zm-100.7-12.7l100.3 12.2-14.5-36.2z"/>
							</g>
							<g id="&lt;Group&gt;">
								<path id="&lt;Compound Path&gt;" fill-rule="evenodd" class="s9" d="m212.9 588.1l-112.5-30.9q-0.1 0-0.1-0.1-0.1-0.1-0.1-0.2l17.9-57.1q0.1-0.1 0.2-0.2 0.2 0 0.3 0.1l94.5 88c0.1 0 0.1 0.2 0.1 0.3q-0.1 0.1-0.2 0.1-0.1 0-0.1 0zm-112.1-31.3l111.2 30.5-93.5-87z"/>
							</g>
							<g id="&lt;Group&gt;">
								<path id="&lt;Compound Path&gt;" fill-rule="evenodd" class="s9" d="m212.8 588l-94.6-87.9c-0.1-0.1-0.1-0.3 0-0.4 0-0.1 0.2-0.1 0.3-0.1l38.3 16.3q0.1 0 0.1 0l56.3 71.8c0 0.1 0 0.2-0.1 0.3q0 0.1-0.1 0.1-0.1 0-0.2-0.1zm-93.2-87.3l91.2 84.8-54.3-69.2z"/>
							</g>
							<g id="&lt;Group&gt;">
								<path id="&lt;Compound Path&gt;" fill-rule="evenodd" class="s9" d="m100.4 557.2l-49-13.5q0 0-0.1-0.1l-48.6-64.9c0-0.1 0-0.3 0.1-0.4q0.1-0.2 0.3 0l97.5 78.5c0.1 0.1 0.1 0.2 0.1 0.3q-0.1 0.2-0.2 0.2-0.1 0-0.1-0.1zm-48.8-14l47.8 13.2-95.1-76.5z"/>
							</g>
							<g id="&lt;Group&gt;">
								<path id="&lt;Compound Path&gt;" fill-rule="evenodd" class="s9" d="m100.3 557.2l-97.5-78.5c-0.1-0.1-0.1-0.2-0.1-0.3 0.1-0.1 0.2-0.2 0.3-0.1l115.4 21.3q0.1 0 0.2 0.1 0.1 0.1 0 0.2l-17.9 57.2q0 0.1-0.2 0.1 0 0.1 0 0.1-0.1 0-0.2-0.1zm-96.4-78.3l96.4 77.7 17.8-56.5z"/>
							</g>
							<g id="&lt;Group&gt;">
								<path id="&lt;Compound Path&gt;" fill-rule="evenodd" class="s9" d="m51.5 543.7l-88.6-3.1q-0.1 0-0.2-0.1-0.1-0.1 0-0.3l27.9-53q0.1-0.1 0.2-0.1 0.1 0 0.2 0.1l60.7 56.1q0.1 0.1 0 0.2 0 0.2-0.2 0.2zm-88.2-3.6l87.5 3.1-59.9-55.4z"/>
							</g>
							<g id="&lt;Group&gt;">
								<path id="&lt;Compound Path&gt;" fill-rule="evenodd" class="s9" d="m51.3 543.6l-60.6-56.1q-0.1 0-0.1-0.2 0-0.1 0.1-0.2l12.1-8.8c0.1-0.1 0.3 0 0.3 0.1l48.6 64.9q0.2 0.2 0 0.3-0.1 0.1-0.2 0.1-0.1 0-0.2-0.1zm-60-56.2l58.3 54-46.7-62.5z"/>
							</g>
							<g id="&lt;Group&gt;">
								<path id="&lt;Compound Path&gt;" fill-rule="evenodd" class="s9" d="m562.4 662.3q-0.1-0.1-0.1-0.3l27.3-106.5q0-0.2 0.1-0.2 0.2-0.1 0.3 0l71.4 56.2q0.1 0.1 0.1 0.2 0 0.1-0.1 0.2l-98.7 50.4q-0.1 0-0.1 0-0.1 0-0.2 0zm27.6-106.4l-27 105.7 97.8-50z"/>
							</g>
							<g id="&lt;Group&gt;">
								<path id="&lt;Compound Path&gt;" fill-rule="evenodd" class="s9" d="m562.5 662.3l-85.8-22.4c-0.2 0-0.2-0.1-0.2-0.2l3.8-106c0-0.1 0.1-0.2 0.2-0.2q0.1 0 0.2 0.1l82.1 128.3q0.1 0.2 0 0.3-0.1 0.1-0.2 0.1 0 0-0.1 0zm-85.5-22.8l85.1 22.2-81.4-127.1z"/>
							</g>
							<g id="&lt;Group&gt;">
								<path id="&lt;Compound Path&gt;" fill-rule="evenodd" class="s9" d="m562.4 662.2l-82.1-128.3q-0.1-0.2 0-0.3 0.1-0.1 0.3-0.1l109.3 21.8q0.1 0 0.1 0.1 0.1 0.1 0 0.2l-27.2 106.5q0 0.2-0.2 0.2-0.1 0-0.2-0.1zm-81.3-128.1l81.4 127.4 27-105.8z"/>
							</g>
							<g id="&lt;Group&gt;">
								<path id="&lt;Compound Path&gt;" fill-rule="evenodd" class="s9" d="m476.6 639.9l-113.6-31c-0.1 0-0.2-0.2-0.1-0.3l16.1-71.8q0.1-0.2 0.2-0.2 0.1 0 0.2 0.1l97.5 102.8q0.1 0.2 0 0.3 0 0.1-0.2 0.1 0 0-0.1 0zm-113.2-31.4l112.5 30.7-96.5-101.8z"/>
							</g>
							<g id="&lt;Group&gt;">
								<path id="&lt;Compound Path&gt;" fill-rule="evenodd" class="s9" d="m476.5 639.8l-97.4-102.8q-0.1-0.1-0.1-0.3 0.1-0.1 0.3-0.1l101.2-3.1q0.1 0 0.2 0.1 0.1 0.1 0.1 0.2l-3.8 105.9q-0.1 0.1-0.2 0.2 0 0-0.1 0-0.1 0-0.2-0.1zm-96.7-102.7l96.7 102 3.8-105.1z"/>
							</g>
							<g id="&lt;Group&gt;">
								<path id="&lt;Compound Path&gt;" fill-rule="evenodd" class="s9" d="m349.7 624.7q-0.1-0.1-0.2-0.2l-22.4-49.3c0-0.1 0-0.2 0.1-0.3 0.1 0 0.2 0 0.3 0.1l35.8 33.5q0.1 0.2 0 0.3l-13.4 15.8q-0.1 0.1-0.2 0.1zm-21.6-48.5l21.7 47.7 13-15.2z"/>
							</g>
							<g id="&lt;Group&gt;">
								<path id="&lt;Compound Path&gt;" fill-rule="evenodd" class="s9" d="m362.9 608.9l-35.7-33.6q-0.1-0.1-0.1-0.2 0-0.1 0.1-0.2l51.9-38.3q0.2-0.1 0.3 0 0.1 0.1 0.1 0.3l-16.2 71.8q0 0.2-0.1 0.2-0.1 0-0.1 0-0.1 0-0.2 0zm-35.1-33.7l35.2 33 15.9-70.7z"/>
							</g>
							<g id="&lt;Group&gt;">
								<path id="&lt;Compound Path&gt;" fill-rule="evenodd" class="s9" d="m349.7 624.7l-101.8-7.6q-0.1 0-0.2-0.1 0-0.1 0-0.2l10.8-88.4q0-0.1 0.2-0.2 0.1 0 0.2 0.1l91 95.9q0.1 0.2 0.1 0.3-0.1 0.1-0.3 0.2zm-101.5-8.1l100.9 7.5-90.2-95.1z"/>
							</g>
							<g id="&lt;Group&gt;">
								<path id="&lt;Compound Path&gt;" fill-rule="evenodd" class="s9" d="m349.5 624.6l-90.9-96c-0.1 0-0.1-0.2-0.1-0.3 0.1-0.1 0.3-0.1 0.4 0l68.6 46.6q0.1 0.1 0.1 0.1l22.4 49.3c0 0.1 0 0.2-0.1 0.3q-0.1 0.1-0.2 0.1-0.1 0-0.2-0.1zm-89-94.6l88.4 93.2-21.7-47.9z"/>
							</g>
							<g id="&lt;Group&gt;">
								<path id="&lt;Compound Path&gt;" fill-rule="evenodd" class="s9" d="m198.5 642.7q-0.2-0.1-0.1-0.3l14.3-54.6q0.1-0.1 0.2-0.2 0.1 0 0.2 0.1l35 29q0.1 0.1 0.1 0.2-0.1 0.1-0.2 0.2l-49.3 25.6q0 0.1-0.1 0.1-0.1 0-0.1-0.1zm14.6-54.4l-14.1 53.7 48.5-25.2z"/>
							</g>
							<g id="&lt;Group&gt;">
								<path id="&lt;Compound Path&gt;" fill-rule="evenodd" class="s9" d="m247.8 617.1l-35-29.1c-0.1 0-0.1-0.2 0-0.3l45.7-59.4c0.1-0.1 0.2-0.1 0.3-0.1 0.1 0.1 0.2 0.2 0.2 0.3l-10.8 88.4q-0.1 0.1-0.2 0.2 0 0-0.1 0-0.1 0-0.1 0zm-34.5-29.3l34.4 28.6 10.7-87.1z"/>
							</g>
							<g id="&lt;Group&gt;">
								<path id="&lt;Compound Path&gt;" fill-rule="evenodd" class="s9" d="m198.6 642.8l-103.5-2.2q-0.1 0-0.1-0.1-0.1-0.1-0.1-0.2l5.3-83.3q0-0.2 0.2-0.2 0.1-0.1 0.2 0l98.2 85.5q0.1 0.1 0.1 0.3-0.1 0.2-0.3 0.2zm-103.2-2.8l102.5 2.2-97.2-84.7z"/>
							</g>
							<g id="&lt;Group&gt;">
								<path id="&lt;Compound Path&gt;" fill-rule="evenodd" class="s9" d="m198.5 642.7l-98.2-85.5c-0.1-0.1-0.1-0.2-0.1-0.3 0.1-0.1 0.2-0.2 0.3-0.1l112.5 30.8c0.2 0 0.2 0.2 0.2 0.3l-14.3 54.7q-0.1 0.1-0.2 0.2 0 0-0.1 0-0.1 0-0.1-0.1zm-97-85.2l97 84.6 14.2-54.1z"/>
							</g>
							<g id="&lt;Group&gt;">
								<path id="&lt;Compound Path&gt;" fill-rule="evenodd" class="s9" d="m95.1 640.6l-46.9-11.8c-0.1 0-0.2-0.1-0.2-0.3l3.2-85.1c0.1-0.1 0.1-0.2 0.3-0.2 0.1 0 0.2 0 0.2 0.1l43.7 96.9q0 0.2-0.1 0.3 0 0.1-0.2 0.1zm-46.6-12.2l46.2 11.5-43-95.4z"/>
							</g>
							<g id="&lt;Group&gt;">
								<path id="&lt;Compound Path&gt;" fill-rule="evenodd" class="s9" d="m94.9 640.5l-43.6-97q-0.1-0.1 0-0.2 0.1-0.1 0.3-0.1l48.9 13.6c0.2 0 0.2 0.1 0.2 0.2l-5.3 83.4c0 0.1-0.1 0.2-0.2 0.2q0 0-0.1 0-0.1 0-0.2-0.1zm-43-96.7l43.1 95.4 5.2-82z"/>
							</g>
						</g>
					</g>
				</g>
			</g>
		</g>
	</g>
</svg>