<svg version="1.2" xmlns="http://www.w3.org/2000/svg" viewBox="0 0 3000 2874" width="3000" height="2874">
	<title>10782629_19197169</title>
	<defs>
		<linearGradient id="g1" x2="1" gradientUnits="userSpaceOnUse" gradientTransform="matrix(-3455.912,-4292.025,4345.308,-3498.815,2400.562,5686.99)">
			<stop offset="0" stop-color="#b37cff"/>
			<stop offset="1" stop-color="#f895e7"/>
		</linearGradient>
		<linearGradient id="g2" x2="1" gradientUnits="userSpaceOnUse" gradientTransform="matrix(736.535,0,0,363.437,1916.608,113.291)">
			<stop offset="0" stop-color="#b37cff"/>
			<stop offset="1" stop-color="#f895e7"/>
		</linearGradient>
		<linearGradient id="g3" x2="1" gradientUnits="userSpaceOnUse" gradientTransform="matrix(35.093,11.508,-9.971,30.407,2676.327,267.958)">
			<stop offset="0" stop-color="#b37cff"/>
			<stop offset="1" stop-color="#f895e7"/>
		</linearGradient>
		<linearGradient id="g4" x2="1" gradientUnits="userSpaceOnUse" gradientTransform="matrix(24.081,7.897,-12.347,37.652,2771.724,592.23)">
			<stop offset="0" stop-color="#b37cff"/>
			<stop offset="1" stop-color="#f895e7"/>
		</linearGradient>
		<linearGradient id="g5" x2="1" gradientUnits="userSpaceOnUse" gradientTransform="matrix(742.73,0,0,328.562,2031.507,670.11)">
			<stop offset="0" stop-color="#b37cff"/>
			<stop offset="1" stop-color="#f895e7"/>
		</linearGradient>
		<linearGradient id="g6" x2="1" gradientUnits="userSpaceOnUse" gradientTransform="matrix(34.645,11.361,-10.178,31.037,1986.639,786.289)">
			<stop offset="0" stop-color="#b37cff"/>
			<stop offset="1" stop-color="#f895e7"/>
		</linearGradient>
		<linearGradient id="g7" x2="1" gradientUnits="userSpaceOnUse" gradientTransform="matrix(-587.394,1112.486,-1112.485,-587.393,3010.911,240.975)">
			<stop offset="0" stop-color="#ba68c8"/>
			<stop offset=".442" stop-color="#ba68c8"/>
			<stop offset="1" stop-color="#3840f7"/>
		</linearGradient>
		<linearGradient id="g8" x2="1" gradientUnits="userSpaceOnUse" gradientTransform="matrix(17.126,5.616,-9.428,28.75,1472.505,603.654)">
			<stop offset="0" stop-color="#b37cff"/>
			<stop offset="1" stop-color="#f895e7"/>
		</linearGradient>
		<linearGradient id="g9" x2="1" gradientUnits="userSpaceOnUse" gradientTransform="matrix(432.82,0,0,241.291,1475.463,342.665)">
			<stop offset="0" stop-color="#b37cff"/>
			<stop offset="1" stop-color="#f895e7"/>
		</linearGradient>
		<linearGradient id="g10" x2="1" gradientUnits="userSpaceOnUse" gradientTransform="matrix(423.635,0,0,99.016,1552.876,835.268)">
			<stop offset="0" stop-color="#b37cff"/>
			<stop offset="1" stop-color="#f895e7"/>
		</linearGradient>
		<linearGradient id="g11" x2="1" gradientUnits="userSpaceOnUse" gradientTransform="matrix(26.201,8.592,-7.381,22.508,1521.947,793.167)">
			<stop offset="0" stop-color="#b37cff"/>
			<stop offset="1" stop-color="#f895e7"/>
		</linearGradient>
		<linearGradient id="g12" x2="1" gradientUnits="userSpaceOnUse" gradientTransform="matrix(-161.189,604.46,-604.459,-161.189,2117.26,346.931)">
			<stop offset="0" stop-color="#ba68c8"/>
			<stop offset=".442" stop-color="#ba68c8"/>
			<stop offset="1" stop-color="#3840f7"/>
		</linearGradient>
		<linearGradient id="g13" x2="1" gradientUnits="userSpaceOnUse" gradientTransform="matrix(1275.273,-2706.414,3083.044,1452.743,275.776,2053.422)">
			<stop offset="0" stop-color="#2162ae"/>
			<stop offset="1" stop-color="#2162ae"/>
		</linearGradient>
		<linearGradient id="g14" x2="1" gradientUnits="userSpaceOnUse" gradientTransform="matrix(-2532.445,3971.822,-4292.283,-2736.772,3323.407,527.985)">
			<stop offset="0" stop-color="#ba68c8"/>
			<stop offset=".442" stop-color="#ba68c8"/>
			<stop offset="1" stop-color="#3840f7"/>
		</linearGradient>
		<linearGradient id="g15" x2="1" gradientUnits="userSpaceOnUse" gradientTransform="matrix(957.705,1022.055,-1563.46,1465.021,2154.953,2460.878)">
			<stop offset="0" stop-color="#2b3582"/>
			<stop offset="1" stop-color="#150e42"/>
		</linearGradient>
		<linearGradient id="g16" x2="1" gradientUnits="userSpaceOnUse" gradientTransform="matrix(-54.09,.514,-0.521,-54.85,2469.905,2531.721)">
			<stop offset="0" stop-color="#f9b776"/>
			<stop offset="1" stop-color="#f47960"/>
		</linearGradient>
		<linearGradient id="g17" x2="1" gradientUnits="userSpaceOnUse" gradientTransform="matrix(603.333,801.686,-736.772,554.48,785.42,2782.726)">
			<stop offset="0" stop-color="#fdf53f"/>
			<stop offset="1" stop-color="#d93c65"/>
		</linearGradient>
		<linearGradient id="g18" x2="1" gradientUnits="userSpaceOnUse" gradientTransform="matrix(812.819,867.435,-950.857,890.989,2288.284,2341.569)">
			<stop offset="0" stop-color="#2b3582"/>
			<stop offset="1" stop-color="#150e42"/>
		</linearGradient>
		<linearGradient id="g19" x2="1" gradientUnits="userSpaceOnUse" gradientTransform="matrix(-46.7,.444,-0.682,-71.778,2664.741,2518.623)">
			<stop offset="0" stop-color="#f9b776"/>
			<stop offset="1" stop-color="#f47960"/>
		</linearGradient>
		<linearGradient id="g20" x2="1" gradientUnits="userSpaceOnUse" gradientTransform="matrix(547.831,727.937,-499.703,376.066,1186.63,2532.591)">
			<stop offset="0" stop-color="#fdf53f"/>
			<stop offset="1" stop-color="#d93c65"/>
		</linearGradient>
		<linearGradient id="g21" x2="1" gradientUnits="userSpaceOnUse" gradientTransform="matrix(576.193,-596.958,837.128,808.009,1959.968,1329.054)">
			<stop offset="0" stop-color="#6c2c8b"/>
			<stop offset="1" stop-color="#6c2c8b"/>
		</linearGradient>
		<linearGradient id="g22" x2="1" gradientUnits="userSpaceOnUse" gradientTransform="matrix(-276.349,2.625,-3.083,-324.575,2232.578,987.82)">
			<stop offset="0" stop-color="#f9b776"/>
			<stop offset="1" stop-color="#f47960"/>
		</linearGradient>
		<linearGradient id="g23" x2="1" gradientUnits="userSpaceOnUse" gradientTransform="matrix(198.928,441.18,-186.882,84.265,2165.466,1053.005)">
			<stop offset="0" stop-color="#f9b776"/>
			<stop offset="1" stop-color="#f47960"/>
		</linearGradient>
		<linearGradient id="g24" x2="1" gradientUnits="userSpaceOnUse" gradientTransform="matrix(-97.578,-146.953,87.863,-58.342,2020.433,935.215)">
			<stop offset="0" stop-color="#f9b776"/>
			<stop offset="1" stop-color="#f47960"/>
		</linearGradient>
		<linearGradient id="g25" x2="1" gradientUnits="userSpaceOnUse" gradientTransform="matrix(816.395,-845.815,1463.221,1412.325,2095.452,1765.847)">
			<stop offset="0" stop-color="#6c2c8b"/>
			<stop offset="1" stop-color="#6c2c8b"/>
		</linearGradient>
		<linearGradient id="g26" x2="1" gradientUnits="userSpaceOnUse" gradientTransform="matrix(-349.706,3.322,-1.695,-178.468,2841.692,1446.495)">
			<stop offset="0" stop-color="#f9b776"/>
			<stop offset="1" stop-color="#f47960"/>
		</linearGradient>
		<linearGradient id="g27" x2="1" gradientUnits="userSpaceOnUse" gradientTransform="matrix(-138.269,1.314,-1.417,-149.138,2569.742,1089.892)">
			<stop offset="0" stop-color="#f9b776"/>
			<stop offset="1" stop-color="#f47960"/>
		</linearGradient>
		<linearGradient id="g28" x2="1" gradientUnits="userSpaceOnUse" gradientTransform="matrix(176.393,-109.898,91.297,146.538,2460.605,1206.923)">
			<stop offset="0" stop-color="#f9b776"/>
			<stop offset="1" stop-color="#f47960"/>
		</linearGradient>
		<linearGradient id="g29" x2="1" gradientUnits="userSpaceOnUse" gradientTransform="matrix(-251.788,202.78,-292.125,-362.726,2611.795,805.199)">
			<stop offset="0" stop-color="#2b3582"/>
			<stop offset="1" stop-color="#150e42"/>
		</linearGradient>
		<linearGradient id="g30" x2="1" gradientUnits="userSpaceOnUse" gradientTransform="matrix(146.613,-91.344,45.072,72.344,2459.741,1156.557)">
			<stop offset="0" stop-color="#f9b776"/>
			<stop offset="1" stop-color="#f47960"/>
		</linearGradient>
		<linearGradient id="g31" x2="1" gradientUnits="userSpaceOnUse" gradientTransform="matrix(-240.389,1001.622,-1356.722,-325.612,2241.672,1230.519)">
			<stop offset="0" stop-color="#2b3582"/>
			<stop offset="1" stop-color="#150e42"/>
		</linearGradient>
		<linearGradient id="g32" x2="1" gradientUnits="userSpaceOnUse" gradientTransform="matrix(-109.328,0,0,-98.227,2531.284,1477.148)">
			<stop offset="0" stop-color="#f9b776"/>
			<stop offset="1" stop-color="#f47960"/>
		</linearGradient>
		<linearGradient id="g33" x2="1" gradientUnits="userSpaceOnUse" gradientTransform="matrix(34.765,144.856,-144.854,34.765,2348.208,1387.006)">
			<stop offset="0" stop-color="#53d8ff"/>
			<stop offset="1" stop-color="#3840f7"/>
		</linearGradient>
		<linearGradient id="g34" x2="1" gradientUnits="userSpaceOnUse" gradientTransform="matrix(-803.194,777.561,-663.546,-685.42,1813.392,687.583)">
			<stop offset="0" stop-color="#04af73"/>
			<stop offset=".721" stop-color="#5cb495"/>
			<stop offset="1" stop-color="#5cb495"/>
		</linearGradient>
		<linearGradient id="g35" x2="1" gradientUnits="userSpaceOnUse" gradientTransform="matrix(126.866,462.157,-321.631,88.291,420.671,1233.057)">
			<stop offset="0" stop-color="#f9b776"/>
			<stop offset="1" stop-color="#f47960"/>
		</linearGradient>
		<linearGradient id="g36" x2="1" gradientUnits="userSpaceOnUse" gradientTransform="matrix(-402.173,603.259,-845.659,-563.773,889.301,2240.162)">
			<stop offset="0" stop-color="#cb236d"/>
			<stop offset="1" stop-color="#4c246d"/>
		</linearGradient>
		<linearGradient id="g37" x2="1" gradientUnits="userSpaceOnUse" gradientTransform="matrix(-517.858,406.623,-318.232,-405.287,863.61,2436.251)">
			<stop offset="0" stop-color="#2b3582"/>
			<stop offset="1" stop-color="#150e42"/>
		</linearGradient>
		<linearGradient id="g38" x2="1" gradientUnits="userSpaceOnUse" gradientTransform="matrix(-26.923,234.968,-188.689,-21.62,597.098,2447.209)">
			<stop offset="0" stop-color="#f9b776"/>
			<stop offset="1" stop-color="#f47960"/>
		</linearGradient>
		<linearGradient id="g39" x2="1" gradientUnits="userSpaceOnUse" gradientTransform="matrix(-503.46,395.318,-323.724,-412.281,939.311,2553.614)">
			<stop offset="0" stop-color="#2b3582"/>
			<stop offset="1" stop-color="#150e42"/>
		</linearGradient>
		<linearGradient id="g40" x2="1" gradientUnits="userSpaceOnUse" gradientTransform="matrix(-431.366,647.049,-1076.636,-717.758,1018.536,2366.032)">
			<stop offset="0" stop-color="#cb236d"/>
			<stop offset="1" stop-color="#4c246d"/>
		</linearGradient>
		<linearGradient id="g41" x2="1" gradientUnits="userSpaceOnUse" gradientTransform="matrix(-26.296,229.497,-154.45,-17.697,823.047,2476.757)">
			<stop offset="0" stop-color="#f9b776"/>
			<stop offset="1" stop-color="#f47960"/>
		</linearGradient>
		<linearGradient id="g42" x2="1" gradientUnits="userSpaceOnUse" gradientTransform="matrix(-908.053,1409.049,-1224.215,-788.938,2224.792,1575.704)">
			<stop offset="0" stop-color="#2b3582"/>
			<stop offset="1" stop-color="#150e42"/>
		</linearGradient>
		<linearGradient id="g43" x2="1" gradientUnits="userSpaceOnUse" gradientTransform="matrix(-974.582,1451.617,-1371.829,-921.014,1158.472,1341.642)">
			<stop offset="0" stop-color="#6c2c8b"/>
			<stop offset="1" stop-color="#6c2c8b"/>
		</linearGradient>
		<linearGradient id="g44" x2="1" gradientUnits="userSpaceOnUse" gradientTransform="matrix(-106.94,462.132,-419.37,-97.044,684.636,1028.698)">
			<stop offset="0" stop-color="#f9b776"/>
			<stop offset="1" stop-color="#f47960"/>
		</linearGradient>
		<linearGradient id="g45" x2="1" gradientUnits="userSpaceOnUse" gradientTransform="matrix(59.007,347.229,-285.068,48.443,734.69,904.374)">
			<stop offset="0" stop-color="#f9b776"/>
			<stop offset="1" stop-color="#f47960"/>
		</linearGradient>
		<linearGradient id="g46" x2="1" gradientUnits="userSpaceOnUse" gradientTransform="matrix(141.629,-150.452,195.798,184.316,437.356,980.738)">
			<stop offset="0" stop-color="#2b3582"/>
			<stop offset="1" stop-color="#150e42"/>
		</linearGradient>
		<linearGradient id="g47" x2="1" gradientUnits="userSpaceOnUse" gradientTransform="matrix(-11.584,-269.113,275.105,-11.842,494.322,1320.132)">
			<stop offset="0" stop-color="#f9b776"/>
			<stop offset="1" stop-color="#f47960"/>
		</linearGradient>
		<linearGradient id="g48" x2="1" gradientUnits="userSpaceOnUse" gradientTransform="matrix(-1494.146,1600.179,-1815.517,-1695.214,1799.38,414.974)">
			<stop offset="0" stop-color="#cb236d"/>
			<stop offset="1" stop-color="#4c246d"/>
		</linearGradient>
		<linearGradient id="g49" x2="1" gradientUnits="userSpaceOnUse" gradientTransform="matrix(-223.429,397.628,-1277.903,-718.059,764.435,1592.774)">
			<stop offset="0" stop-color="#2b3582"/>
			<stop offset="1" stop-color="#150e42"/>
		</linearGradient>
		<linearGradient id="g50" x2="1" gradientUnits="userSpaceOnUse" gradientTransform="matrix(-1654.943,2464.998,-5721.497,-3841.281,1054.985,1247.396)">
			<stop offset="0" stop-color="#6c2c8b"/>
			<stop offset="1" stop-color="#6c2c8b"/>
		</linearGradient>
		<linearGradient id="g51" x2="1" gradientUnits="userSpaceOnUse" gradientTransform="matrix(-628.308,803.866,-412.369,-322.311,1469.664,1070.721)">
			<stop offset="0" stop-color="#f9b776"/>
			<stop offset="1" stop-color="#f47960"/>
		</linearGradient>
		<linearGradient id="g52" x2="1" gradientUnits="userSpaceOnUse" gradientTransform="matrix(-917.528,1173.896,-1499.026,-1171.652,1580.046,982.543)">
			<stop offset="0" stop-color="#f9b776"/>
			<stop offset="1" stop-color="#f47960"/>
		</linearGradient>
		<linearGradient id="g53" x2="1" gradientUnits="userSpaceOnUse" gradientTransform="matrix(-5.511,-508.851,1137.6,-12.32,446.747,2337.803)">
			<stop offset="0" stop-color="#cb236d"/>
			<stop offset="1" stop-color="#4c246d"/>
		</linearGradient>
		<linearGradient id="g54" x2="1" gradientUnits="userSpaceOnUse" gradientTransform="matrix(-2.574,-62.407,177.443,-7.317,397.857,1868.968)">
			<stop offset="0" stop-color="#cb236d"/>
			<stop offset="1" stop-color="#4c246d"/>
		</linearGradient>
		<linearGradient id="g55" x2="1" gradientUnits="userSpaceOnUse" gradientTransform="matrix(0,-278.237,117.976,0,352.368,2212.337)">
			<stop offset="0" stop-color="#cb236d"/>
			<stop offset="1" stop-color="#4c246d"/>
		</linearGradient>
		<linearGradient id="g56" x2="1" gradientUnits="userSpaceOnUse" gradientTransform="matrix(-2.574,-62.407,177.443,-7.317,562.945,1861.799)">
			<stop offset="0" stop-color="#cb236d"/>
			<stop offset="1" stop-color="#4c246d"/>
		</linearGradient>
		<linearGradient id="g57" x2="1" gradientUnits="userSpaceOnUse" gradientTransform="matrix(-245.448,228.521,-236.234,-253.733,694.026,1762.264)">
			<stop offset="0" stop-color="#cb236d"/>
			<stop offset="1" stop-color="#4c246d"/>
		</linearGradient>
		<linearGradient id="g58" x2="1" gradientUnits="userSpaceOnUse" gradientTransform="matrix(198.071,-223.629,220.832,195.594,333.599,1901.956)">
			<stop offset="0" stop-color="#cb236d"/>
			<stop offset="1" stop-color="#4c246d"/>
		</linearGradient>
		<linearGradient id="g59" x2="1" gradientUnits="userSpaceOnUse" gradientTransform="matrix(-69.935,652.729,-1510.833,-161.875,545.183,1767.003)">
			<stop offset="0" stop-color="#cb236d"/>
			<stop offset="1" stop-color="#4c246d"/>
		</linearGradient>
		<linearGradient id="g60" x2="1" gradientUnits="userSpaceOnUse" gradientTransform="matrix(-24.942,197.613,-214.711,-27.1,545.065,1846.415)">
			<stop offset="0" stop-color="#a737d5"/>
			<stop offset="1" stop-color="#ef497a"/>
		</linearGradient>
		<linearGradient id="g61" x2="1" gradientUnits="userSpaceOnUse" gradientTransform="matrix(69.281,0,0,59.547,452.984,1966.203)">
			<stop offset="0" stop-color="#ffffff"/>
			<stop offset="1" stop-color="#ffffff"/>
		</linearGradient>
		<linearGradient id="g62" x2="1" gradientUnits="userSpaceOnUse" gradientTransform="matrix(122.059,444.644,-306.717,84.197,452.211,1239.156)">
			<stop offset="0" stop-color="#f9b776"/>
			<stop offset="1" stop-color="#f47960"/>
		</linearGradient>
	</defs>
	<style>
		.s0 { opacity: .3;fill: url(#g1) } 
		.s1 { fill: url(#g2) } 
		.s2 { fill: url(#g3) } 
		.s3 { fill: url(#g4) } 
		.s4 { fill: url(#g5) } 
		.s5 { fill: url(#g6) } 
		.s6 { fill: url(#g7) } 
		.s7 { opacity: .56;fill: #ffffff } 
		.s8 { fill: url(#g8) } 
		.s9 { fill: url(#g9) } 
		.s10 { fill: url(#g10) } 
		.s11 { fill: url(#g11) } 
		.s12 { fill: url(#g12) } 
		.s13 { fill: url(#g13) } 
		.s14 { fill: url(#g14) } 
		.s15 { fill: #ffffff } 
		.s16 { fill: #fcb712 } 
		.s17 { fill: url(#g15) } 
		.s18 { fill: url(#g16) } 
		.s19 { fill: url(#g17) } 
		.s20 { fill: url(#g18) } 
		.s21 { fill: url(#g19) } 
		.s22 { fill: url(#g20) } 
		.s23 { fill: url(#g21) } 
		.s24 { fill: url(#g22) } 
		.s25 { fill: url(#g23) } 
		.s26 { fill: url(#g24) } 
		.s27 { fill: url(#g25) } 
		.s28 { fill: url(#g26) } 
		.s29 { fill: url(#g27) } 
		.s30 { fill: url(#g28) } 
		.s31 { fill: url(#g29) } 
		.s32 { fill: url(#g30) } 
		.s33 { fill: url(#g31) } 
		.s34 { fill: url(#g32) } 
		.s35 { fill: url(#g33) } 
		.s36 { fill: url(#g34) } 
		.s37 { fill: url(#g35) } 
		.s38 { fill: url(#g36) } 
		.s39 { fill: url(#g37) } 
		.s40 { fill: url(#g38) } 
		.s41 { fill: url(#g39) } 
		.s42 { fill: url(#g40) } 
		.s43 { fill: url(#g41) } 
		.s44 { fill: url(#g42) } 
		.s45 { fill: url(#g43) } 
		.s46 { fill: url(#g44) } 
		.s47 { fill: url(#g45) } 
		.s48 { fill: url(#g46) } 
		.s49 { fill: url(#g47) } 
		.s50 { fill: url(#g48) } 
		.s51 { fill: url(#g49) } 
		.s52 { fill: url(#g50) } 
		.s53 { fill: url(#g51) } 
		.s54 { fill: url(#g52) } 
		.s55 { fill: url(#g53) } 
		.s56 { fill: url(#g54) } 
		.s57 { fill: url(#g55) } 
		.s58 { fill: url(#g56) } 
		.s59 { fill: url(#g57) } 
		.s60 { fill: url(#g58) } 
		.s61 { fill: url(#g59) } 
		.s62 { fill: url(#g60) } 
		.s63 { opacity: .32;fill: url(#g61) } 
		.s64 { fill: url(#g62) } 
	</style>
	<g id="_Artboards_">
	</g>
	<g id="Background">
		<g id="&lt;Group&gt;">
			<g id="&lt;Group&gt;">
			</g>
		</g>
	</g>
	<g id="Illustration">
		<g id="&lt;Group&gt;">
			<path id="&lt;Path&gt;" class="s0" d="m2580 2442.1c-57.6 60.3-112.1 99.1-155.2 129.8-506.1 360.9-1105 255.7-1232.3 230-187.9-37.9-551.3-111.2-813.9-418.2-397.4-464.3-335.5-1195.8-27.3-1678.7 56.4-88.4 354.2-578.6 959.6-657.3 366.3-47.5 793.3 48.4 1102.6 305.9 649.1 540.3 602.9 1632 166.5 2088.5z"/>
			<g id="&lt;Group&gt;">
				<g id="&lt;Group&gt;">
					<g id="&lt;Group&gt;" style="opacity: .3">
						<path id="&lt;Compound Path&gt;" class="s1" d="m1924.2 476.2c-5.3-1.8-8.6-7.3-7.3-12.9 2.6-12.2 5.8-24.5 9.5-36.6 1.8-5.8 8-9.1 13.9-7.3q0.1 0 0.2 0c5.7 1.9 8.9 8 7.1 13.8-3.5 11.5-6.6 23.1-9.1 34.8-1.3 6-7.2 9.8-13.1 8.5q-0.6-0.1-1.2-0.3zm30.8-91.6q-0.6-0.2-1.2-0.5c-5.6-2.5-8-9.1-5.4-14.7 5.3-11.4 11.1-22.7 17.3-33.6 3.1-5.3 9.8-7.1 15.2-4.1 5.3 3.1 7.1 9.8 4.1 15.2-5.9 10.3-11.5 21-16.5 31.9-2.4 5.1-8.2 7.5-13.5 5.8zm50.2-82.5q-1.8-0.6-3.4-1.7c-4.8-3.8-5.7-10.8-1.9-15.6 7.6-9.9 15.9-19.6 24.4-28.9 4.1-4.5 11.1-4.7 15.6-0.6 4.5 4.2 4.8 11.2 0.7 15.7-8.1 8.7-15.9 18-23.2 27.4-3 3.8-7.9 5.1-12.2 3.7zm67.3-69.2c-1.9-0.6-3.7-1.8-5.1-3.5-3.8-4.7-3.2-11.7 1.6-15.6 9.7-8 19.9-15.6 30.2-22.7 5.1-3.4 12-2.2 15.4 2.9 3.5 5 2.2 11.9-2.8 15.4-9.9 6.7-19.5 14-28.8 21.6-3 2.4-7 3-10.5 1.9zm81.2-52.5c-2.8-0.8-5.1-2.8-6.5-5.5-2.7-5.5-0.5-12.2 5-14.9 11.2-5.6 22.8-10.8 34.5-15.4 5.7-2.3 12.1 0.5 14.4 6.2 2.2 5.7-0.6 12.1-6.2 14.4-11.2 4.4-22.2 9.3-32.8 14.6-2.8 1.4-5.8 1.5-8.4 0.6zm90.6-33.2c-3.5-1.1-6.3-4-7.3-7.9-1.4-5.9 2.2-11.9 8.2-13.4 12.2-2.9 24.6-5.4 37-7.4 6.1-0.9 11.7 3.2 12.7 9.3 0.9 6-3.2 11.7-9.3 12.6-11.7 1.9-23.6 4.2-35.2 7.1-2.1 0.5-4.2 0.4-6.1-0.3zm394.3 101.6c-1.5-0.5-2.8-1.3-4-2.4-8.8-8.1-18.1-15.9-27.5-23.2-4.9-3.7-5.8-10.7-2-15.5 3.7-4.9 10.7-5.8 15.5-2 10 7.7 19.7 15.9 29 24.4 4.5 4.1 4.8 11.1 0.6 15.6-3 3.3-7.6 4.4-11.6 3.1zm-298.5-113.8c-4.4-1.5-7.6-5.5-7.6-10.4-0.1-6.1 4.7-11.2 10.9-11.3 12.5-0.1 25.2 0.2 37.7 1.1 6.1 0.5 10.8 5.7 10.3 11.8-0.4 6.1-5.7 10.7-11.8 10.3-11.9-0.8-24-1.2-35.9-1q-1.9 0-3.6-0.5zm220.5 56.8q-1.1-0.3-2.1-0.9c-10.3-5.9-21.1-11.4-31.9-16.4-5.6-2.6-8-9.2-5.4-14.7 2.5-5.6 9.1-8 14.7-5.4 11.4 5.2 22.7 11 33.6 17.3 5.3 3 7.2 9.8 4.2 15.1-2.7 4.6-8.2 6.6-13.1 5zm-124.4-47.4c-5.4-1.8-8.6-7.3-7.4-12.9 1.3-6 7.2-9.8 13.1-8.5 12.3 2.6 24.6 5.8 36.6 9.5q0.1 0 0.3 0.1c5.7 1.8 8.9 7.9 7.1 13.7-1.8 5.9-8 9.2-13.8 7.4-11.5-3.5-23.1-6.5-34.8-9q-0.6-0.1-1.1-0.3z"/>
						<path id="&lt;Path&gt;" class="s2" d="m2690.9 306.4c-2.1-0.7-4-2-5.4-3.8-3.4-4.6-7-9.2-10.7-13.6-3.8-4.8-3.2-11.7 1.6-15.6 4.7-3.9 11.7-3.2 15.6 1.5 3.8 4.7 7.6 9.5 11.2 14.3 3.7 4.9 2.7 11.8-2.2 15.5-3 2.3-6.8 2.8-10.1 1.7z"/>
					</g>
					<g id="&lt;Group&gt;" style="opacity: .3">
						<path id="&lt;Path&gt;" class="s3" d="m2772.9 634.3c-5.1-1.6-8.3-6.8-7.5-12.3 0.9-5.6 1.7-11.4 2.4-17.1 0.7-6.1 6.2-10.4 12.3-9.7 6.1 0.7 10.4 6.2 9.7 12.3-0.7 6-1.5 12.1-2.5 18-0.9 6.1-6.6 10.2-12.7 9.2q-0.9-0.1-1.7-0.4z"/>
						<path id="&lt;Compound Path&gt;" class="s4" d="m2212.3 977.1q-7.3-2.4-14.5-5c-5.8-2.1-8.7-8.5-6.6-14.2 2.1-5.8 8.5-8.8 14.2-6.6 11.1 4 22.4 7.6 33.7 10.7 5.9 1.7 9.4 7.7 7.7 13.6-1.6 6-7.7 9.4-13.6 7.8-6.9-1.9-14-4-20.9-6.3zm-68-28.8q-0.9-0.3-1.7-0.8c-11-5.7-21.8-12.1-32.2-18.7-5.1-3.3-6.6-10.2-3.3-15.3 3.3-5.2 10.2-6.7 15.3-3.4 9.9 6.3 20.1 12.3 30.5 17.8 5.5 2.9 7.5 9.6 4.7 15-2.6 4.9-8.2 7-13.3 5.4zm146.1 46.6c-5-1.6-8.2-6.6-7.5-12 0.8-6 6.3-10.3 12.4-9.5 11.6 1.5 23.5 2.6 35.2 3.1 6.1 0.3 10.8 5.5 10.6 11.6-0.3 6.1-5.5 10.8-11.6 10.6-12.4-0.6-24.9-1.7-37.1-3.3q-1-0.2-2-0.5zm-224.7-100c-1.4-0.5-2.6-1.2-3.8-2.2-9.4-8-18.5-16.5-27.2-25.3-4.3-4.4-4.3-11.4 0.1-15.7 4.4-4.3 11.4-4.2 15.7 0.1 8.2 8.4 16.9 16.5 25.8 24.1 4.7 4 5.2 11 1.3 15.6-3.1 3.5-7.8 4.7-11.9 3.4zm319.7 101.9c-4.1-1.3-7.2-5-7.6-9.5-0.6-6.1 3.9-11.5 10-12.1 11.7-1 23.4-2.6 35-4.7 6-1 11.8 3 12.9 9 1 6-3 11.8-9 12.9-12.2 2.1-24.6 3.8-36.9 4.9-1.5 0.1-3 0-4.4-0.5zm93.1-19c-3.3-1.1-6-3.6-7.2-7.1-1.8-5.9 1.4-12.1 7.2-14 11.2-3.6 22.3-7.7 33.2-12.2 5.6-2.4 12.1 0.3 14.5 6 2.3 5.6-0.4 12.1-6 14.5-11.4 4.7-23.1 9-34.9 12.8-2.3 0.8-4.7 0.7-6.8 0zm86.7-38.8c-2.5-0.9-4.7-2.5-6.1-5-3.1-5.2-1.4-12 3.9-15.1 10.2-6 20.2-12.4 29.7-19.2 5-3.5 12-2.3 15.5 2.7 3.5 5 2.3 11.9-2.7 15.4-10.1 7.1-20.6 13.9-31.2 20.2-2.9 1.7-6.2 1.9-9.1 1zm76.2-56.9c-1.7-0.5-3.3-1.5-4.7-2.9-4.1-4.5-3.9-11.5 0.6-15.7 8.6-8 16.9-16.5 24.7-25.2 4.2-4.5 11.2-4.9 15.7-0.8 4.6 4.1 4.9 11.1 0.8 15.7-8.3 9.1-17.1 18.1-26.1 26.5-3.1 2.9-7.3 3.7-11 2.4zm61.8-72.2q-1.4-0.4-2.7-1.3c-5.1-3.5-6.4-10.4-3-15.4 6.6-9.7 12.9-19.8 18.6-30.1 3.1-5.3 9.8-7.2 15.1-4.2 5.4 3 7.3 9.8 4.3 15.1-6.1 10.8-12.7 21.4-19.6 31.6-2.9 4.2-8.1 5.8-12.7 4.3zm44.5-83.9q-0.3-0.1-0.6-0.3c-5.7-2.2-8.5-8.7-6.2-14.4 3.2-8 6.1-16.2 8.8-24.4q1.5-4.5 2.8-8.9c1.8-5.9 8-9.2 13.9-7.4 5.9 1.7 9.1 8 7.3 13.8q-1.4 4.7-2.9 9.4c-2.8 8.6-6 17.3-9.3 25.7-2.2 5.5-8.3 8.3-13.8 6.5z"/>
						<path id="&lt;Path&gt;" class="s5" d="m2000.6 825.2c-2.1-0.7-4-2-5.5-3.9-3.6-4.8-7.1-9.8-10.5-14.8-3.5-5-2.2-11.9 2.9-15.4 5-3.4 11.9-2.1 15.4 2.9 3.2 4.8 6.6 9.5 10 14.1 3.7 4.9 2.7 11.8-2.2 15.5-3.1 2.2-6.8 2.7-10.1 1.6z"/>
					</g>
					<g id="&lt;Group&gt;">
						<path id="&lt;Compound Path&gt;" class="s6" d="m2054.9 707.7c0.7 2.1 2.8 3.4 5 3.3l63-2.2c16.6 24.3 37.1 46.2 61.3 64.5l-5.4 62.8c-0.2 2.2 1 4.3 3.1 5.2l69.1 30.7c2 0.9 4.4 0.4 5.9-1.2l43-46.1c29.7 5.6 59.8 6.2 88.9 2.2l40.6 48.2c1.5 1.7 3.8 2.3 5.9 1.5l70.6-27.2c2-0.8 3.4-2.8 3.3-5l-2.3-63c24.4-16.6 46.3-37.2 64.6-61.3l62.8 5.4c2.2 0.2 4.2-1.1 5.1-3.1l30.7-69.1c0.9-2 0.4-4.4-1.2-5.9l-46.1-43c5.7-29.8 6.3-59.8 2.2-89l48.3-40.6c1.7-1.4 2.3-3.7 1.5-5.8l-27.2-70.6c-0.8-2-2.8-3.4-5-3.3l-63.1 2.2c-16.5-24.3-37.1-46.2-61.3-64.5l5.4-62.8c0.2-2.2-1-4.3-3-5.2l-69.2-30.6c-2-0.9-4.4-0.5-5.9 1.2l-42.9 46.1c-29.8-5.7-59.8-6.3-89-2.2l-40.6-48.3c-1.4-1.7-3.8-2.3-5.8-1.5l-70.6 27.2c-2.1 0.8-3.4 2.8-3.3 5l2.2 63c-24.4 16.6-46.2 37.2-64.5 61.4l-62.8-5.5c-2.2-0.1-4.3 1.1-5.2 3.1l-30.7 69.1c-0.9 2.1-0.4 4.4 1.2 5.9l46.1 43c-5.6 29.8-6.2 59.8-2.2 89l-48.2 40.6c-1.7 1.4-2.3 3.7-1.5 5.8z"/>
						<path id="&lt;Compound Path&gt;" fill-rule="evenodd" class="s7" d="m2327.5 625.3c-35.2-11.5-57.7-47.6-51.2-85.1 7.1-41.4 46.5-69.2 87.8-62.1 20 3.5 37.5 14.5 49.2 31.1 11.7 16.6 16.3 36.8 12.9 56.8-7.2 41.3-46.6 69.1-87.9 62q-5.6-1-10.8-2.7zm42-127.6q-4.1-1.3-8.4-2.1c-31.7-5.4-61.9 15.9-67.3 47.6-5.5 31.6 15.8 61.9 47.5 67.3 31.7 5.5 61.9-15.9 67.4-47.5 2.6-15.4-0.9-30.8-9.9-43.6-7.3-10.3-17.5-17.8-29.3-21.7z"/>
						<path id="&lt;Path&gt;" class="s7" d="m2294.7 730.1q-9.1-2.9-17.9-6.9-2.8-1.2-5.5-2.5c-9.1-4.4-17.7-9.4-25.9-15.1q-0.1-0.2-0.3-0.3-0.5-0.3-1-0.6-0.9-0.7-1.8-1.4c-1.6-1.1-2.2-3.1-1.6-4.9q0.2-0.7 0.7-1.3c1.4-1.9 4.2-2.4 6.1-0.9 10.2 7.4 21.3 13.8 32.9 18.9 57.7 25.7 121.8 18 170.9-14.5 27.3-18.1 49.9-43.9 64.1-76q3.8-8.4 6.6-17.1c12.8-38.8 11.8-80.5-3.1-119.1-17.1-44.4-50.5-79.5-94-98.8-89.8-39.9-195.2 0.7-235 90.5q-3.7 8.3-6.5 16.9c-8.1 24.7-10.7 51-7.6 76.9q0.2 1-0.1 1.9c-0.6 1.6-1.9 2.8-3.7 3.1-2.4 0.2-4.7-1.5-5-3.9-3.3-27.2-0.6-54.8 8-80.8q2.9-9 6.8-17.7c41.8-94.2 152.5-136.8 246.7-95 45.7 20.2 80.7 57.1 98.6 103.7 15.7 40.6 16.7 84.3 3.4 125.1q-3 9.1-7 17.9c-20.2 45.7-57 80.7-103.7 98.6-40.5 15.7-84.3 16.7-125.1 3.3z"/>
					</g>
				</g>
				<g id="&lt;Group&gt;">
					<g id="&lt;Group&gt;" style="opacity: .3">
						<path id="&lt;Path&gt;" class="s8" d="m1473.7 635.9c-2.8-0.9-4.8-3.6-4.7-6.7 0.2-5.8 0.5-11.7 1.1-17.5 0.3-3.8 3.6-6.6 7.4-6.2 3.8 0.3 6.5 3.7 6.2 7.4-0.5 5.5-0.9 11.2-1 16.7-0.1 3.8-3.3 6.7-7.1 6.6q-1 0-1.9-0.3z"/>
						<path id="&lt;Compound Path&gt;" class="s9" d="m1480.2 583.6c-3.3-1.1-5.3-4.5-4.6-8 2.2-9.7 4.8-19.5 7.9-29q1-3 2.1-6c1.2-3.6 5.3-5.3 8.7-4.2 3.6 1.2 5.5 5.1 4.2 8.7q-1 2.9-1.9 5.7c-3 9.1-5.6 18.4-7.6 27.8-0.8 3.7-4.5 6-8.2 5.2q-0.3-0.1-0.6-0.2zm23.6-67.1q-0.5-0.1-1-0.3c-3.4-1.7-4.7-5.8-3.1-9.2 5.4-10.9 11.5-21.5 18.2-31.6 2.1-3.2 6.3-4 9.5-2 3.1 2.1 4 6.4 1.9 9.5-6.3 9.7-12.2 19.8-17.3 30.2-1.5 3.1-5.1 4.5-8.2 3.4zm39.1-59.3q-1.3-0.4-2.3-1.3c-2.9-2.5-3.2-6.8-0.8-9.7 7.9-9.2 16.4-18 25.4-26.2 2.8-2.5 7.1-2.3 9.7 0.5 2.5 2.8 2.3 7.1-0.5 9.7-8.5 7.7-16.7 16.1-24.2 24.9-1.8 2.2-4.8 2.9-7.3 2.1zm52.5-47.9c-1.3-0.5-2.5-1.3-3.4-2.6-2.2-3.1-1.5-7.3 1.6-9.5 9.9-7 20.4-13.5 31-19.2 3.4-1.8 7.5-0.5 9.3 2.8 1.8 3.3 0.5 7.5-2.8 9.3-10.2 5.4-20.1 11.6-29.6 18.3-1.8 1.3-4.1 1.5-6.1 0.9zm62.7-33.7c-1.9-0.6-3.5-2-4.3-4-1.3-3.5 0.4-7.5 3.9-8.9 11.3-4.3 23-8.1 34.7-11 3.7-1 7.4 1.3 8.4 4.9 0.9 3.7-1.3 7.4-5 8.4-11.2 2.8-22.3 6.3-33.1 10.5-1.6 0.6-3.2 0.6-4.6 0.1zm68.9-17.4c-2.5-0.8-4.3-2.9-4.7-5.6-0.5-3.8 2.2-7.2 6-7.7 12-1.5 24.2-2.2 36.3-2.2 3.8 0 6.9 3 6.9 6.8 0 3.8-3.1 6.9-6.9 6.9-11.5 0-23.2 0.7-34.6 2.1-1.1 0.2-2.1 0-3-0.3zm71 0c-3-1-5-4-4.6-7.3 0.4-3.8 3.9-6.5 7.6-6 12 1.5 24 3.8 35.8 6.7 3.7 1 5.9 4.7 5 8.4-0.9 3.6-4.7 5.8-8.3 4.9-11.3-2.8-22.8-5-34.2-6.4q-0.7-0.1-1.3-0.3zm101.3 32.3q-0.6-0.2-1.1-0.5c-8.8-4.7-18-9-27.4-12.8q-2.1-0.9-4.2-1.7c-3.5-1.4-5.3-5.3-3.9-8.8 1.4-3.6 5.4-5.4 8.8-4q2.3 0.9 4.5 1.8c9.8 4 19.4 8.5 28.7 13.5 3.3 1.8 4.6 5.9 2.8 9.2-1.6 3-5.1 4.3-8.2 3.3z"/>
					</g>
					<g id="&lt;Group&gt;" style="opacity: .3">
						<path id="&lt;Compound Path&gt;" class="s10" d="m1676.3 920.7c-3.5-1.1-5.5-4.9-4.4-8.5 1.2-3.6 5-5.6 8.6-4.5 10.9 3.4 22 6.2 33.2 8.2 3.7 0.7 6.2 4.3 5.5 8-0.7 3.7-4.3 6.2-8 5.5-11.7-2.2-23.4-5.1-34.8-8.6q0-0.1-0.1-0.1zm-32.7-12.4q-0.4-0.2-0.7-0.3c-10.9-4.9-21.6-10.5-31.7-16.7-3.3-2-4.3-6.2-2.4-9.4 2-3.2 6.2-4.3 9.4-2.3 9.8 5.9 20 11.2 30.3 15.9 3.5 1.6 5 5.6 3.5 9.1-1.5 3.2-5.1 4.7-8.4 3.7zm101.5 25.1c-2.9-0.9-4.9-3.7-4.7-6.9 0.2-3.8 3.4-6.6 7.2-6.4 11.4 0.7 22.9 0.7 34.2 0 3.8-0.3 7 2.6 7.3 6.4 0.2 3.7-2.7 7-6.4 7.2-11.9 0.8-24 0.8-35.9 0.1q-0.9-0.1-1.7-0.4zm-161.3-61.4q-1.2-0.4-2.1-1.1c-9.4-7.4-18.4-15.4-26.8-23.9-2.7-2.7-2.7-7 0-9.7 2.7-2.6 7-2.6 9.7 0.1 8 8 16.6 15.7 25.5 22.7 3 2.4 3.5 6.7 1.2 9.6-1.9 2.4-4.9 3.2-7.5 2.3zm231.1 57.1c-2.3-0.7-4.2-2.7-4.7-5.2-0.6-3.8 1.8-7.3 5.5-8 11.2-2.1 22.4-4.9 33.2-8.3 3.6-1.1 7.5 0.9 8.6 4.5 1.1 3.6-0.9 7.5-4.5 8.6-11.4 3.6-23.1 6.5-34.8 8.7-1.1 0.2-2.3 0.1-3.3-0.3zm66.7-20.9c-1.8-0.6-3.3-1.9-4.1-3.7-1.6-3.4-0.1-7.5 3.4-9 10.4-4.7 20.5-10.1 30.2-16 3.3-1.9 7.5-0.9 9.4 2.3 2 3.3 1 7.5-2.3 9.4-10.1 6.2-20.8 11.8-31.7 16.7-1.6 0.8-3.4 0.8-4.9 0.3zm59.8-36.3c-1.3-0.4-2.4-1.2-3.3-2.3-2.3-2.9-1.8-7.2 1.2-9.6 8.9-7 17.5-14.7 25.5-22.7 2.7-2.7 7-2.7 9.7 0 2.7 2.6 2.7 7 0 9.6-8.4 8.5-17.4 16.5-26.8 23.9-1.8 1.5-4.2 1.8-6.3 1.1z"/>
						<path id="&lt;Path&gt;" class="s11" d="m1534.3 822.1c-1.3-0.4-2.4-1.2-3.3-2.3-3.6-4.6-7.1-9.4-10.3-14.1-2.2-3.2-1.4-7.4 1.8-9.6 3.1-2.1 7.3-1.3 9.5 1.8 3.1 4.6 6.4 9.1 9.8 13.5 2.3 3 1.8 7.3-1.2 9.6-1.9 1.5-4.3 1.8-6.3 1.1z"/>
					</g>
					<g id="&lt;Group&gt;">
						<path id="&lt;Compound Path&gt;" class="s12" d="m1567.2 739.9c0.6 1.3 1.9 2.2 3.4 2.2l42.2-1.5c11.1 16.3 24.8 30.9 41 43.1l-3.6 42.1c-0.2 1.4 0.7 2.8 2 3.4l46.3 20.6c1.3 0.6 2.9 0.2 3.9-0.8l28.8-30.9c19.9 3.8 40 4.2 59.5 1.5l27.2 32.3c0.9 1.1 2.5 1.5 3.9 1l47.2-18.2c1.4-0.5 2.3-1.9 2.2-3.4l-1.5-42.1c16.3-11.1 31-24.9 43.2-41.1l42 3.6c1.5 0.2 2.9-0.7 3.5-2l20.5-46.3c0.6-1.3 0.3-2.9-0.8-3.9l-30.8-28.8c3.8-19.9 4.2-40 1.5-59.5l32.2-27.2c1.2-0.9 1.6-2.5 1-3.9l-18.1-47.2c-0.6-1.4-1.9-2.3-3.4-2.2l-42.2 1.5c-11.1-16.3-24.8-31-41-43.2l3.6-42c0.1-1.5-0.7-2.9-2-3.5l-46.3-20.5c-1.3-0.6-2.9-0.3-3.9 0.8l-28.8 30.8c-19.9-3.7-40-4.1-59.5-1.4l-27.2-32.3c-0.9-1.2-2.5-1.6-3.9-1l-47.2 18.2c-1.4 0.5-2.3 1.8-2.3 3.3l1.5 42.2c-16.2 11.1-30.9 24.8-43.1 41l-42-3.6c-1.5-0.1-2.9 0.7-3.5 2l-20.6 46.3c-0.6 1.4-0.2 2.9 0.8 4l30.9 28.7c-3.8 19.9-4.2 40-1.5 59.5l-32.3 27.2c-1.1 1-1.5 2.5-1 3.9z"/>
						<path id="&lt;Compound Path&gt;" fill-rule="evenodd" class="s7" d="m1749.3 685.6c-10.5-3.5-19.6-10.2-26.1-19.4-7.9-11.3-11-25-8.7-38.6 4.8-28.2 31.7-47.1 59.8-42.3 28.2 4.9 47.1 31.7 42.3 59.9-2.4 13.6-9.9 25.5-21.2 33.5-11.3 8-25 11.1-38.7 8.7q-3.8-0.6-7.4-1.8zm28.1-85.4q-2.6-0.9-5.4-1.4c-20.7-3.5-40.4 10.4-44 31.1-1.7 10 0.5 20.1 6.4 28.4 5.9 8.4 14.6 13.9 24.7 15.6 10 1.7 20.1-0.5 28.4-6.4 8.3-5.9 13.9-14.6 15.6-24.7 3.2-18.8-8-36.8-25.7-42.6z"/>
						<path id="&lt;Path&gt;" class="s7" d="m1726.4 758.5q-6.2-2-12.2-4.7c-8.1-3.6-15.7-7.9-22.9-13q-0.4-0.4-0.9-0.7c-2.5-1.8-3.4-4.9-2.5-7.7q0.3-1 1-1.9c2.2-3.1 6.5-3.7 9.6-1.5 6.6 4.8 13.7 8.9 21.2 12.3q0.6 0.2 1.3 0.5c17.8 7.7 36.9 10.7 55.7 9 10.2-0.9 20.4-3.2 30.3-6.9q0.1-0.1 0.2-0.1 0.4-0.2 0.7-0.3c28.8-11.1 51.5-32.7 64-60.8q2.4-5.5 4.3-11.1c8.2-25.1 7.5-52.1-2.1-77.1-11.1-28.8-32.7-51.5-60.8-64-28.1-12.4-59.5-13.3-88.2-2.2-28.8 11.1-51.5 32.7-64 60.8q-2.4 5.4-4.2 10.9c-5.2 16.1-6.9 33.1-4.9 49.9q0.2 1.5-0.2 2.9c-0.8 2.5-3 4.4-5.7 4.7-3.8 0.4-7.2-2.2-7.6-6-2.4-18.7-0.5-37.8 5.4-55.7q2.1-6.2 4.7-12.2c14-31.5 39.4-55.7 71.6-68.1 32.1-12.3 67.2-11.5 98.7 2.5 31.4 14 55.6 39.4 68 71.6 10.8 27.9 11.5 58.1 2.3 86.3q-2.1 6.2-4.8 12.3c-27.1 61-95.9 90.7-158 70.3z"/>
					</g>
				</g>
			</g>
			<g id="&lt;Group&gt;">
				<g id="&lt;Group&gt;">
					<path id="&lt;Path&gt;" class="s13" d="m250.3 724.5l2499.8-42.3c100.6-1.7 181.4 84.7 175.4 187.5l-86 1479.7c-4.7 81-69.9 144.4-149.1 145.2l-2402.9 23.8c-59.4 0.6-108.4-47.3-110.7-108l-57.5-1544.3c-2.8-76.5 56.3-140.4 131-141.6z"/>
					<path id="&lt;Path&gt;" class="s14" d="m288.6 762.2l2434.5-40.2c98.1-1.6 176.7 80.5 170.9 178.4l-83.8 1407.7c-4.6 77.1-68 137.4-145.2 138.2l-2340.2 22.6c-57.8 0.6-105.5-45-107.8-102.7l-55.9-1469.3c-2.8-72.7 54.7-133.5 127.5-134.7z"/>
				</g>
				<g id="&lt;Group&gt;" style="opacity: .57">
					<path id="&lt;Path&gt;" class="s15" d="m1071.3 2380.3h-146.6v-333.4h146.6z"/>
					<path id="&lt;Path&gt;" class="s15" d="m1316.4 2380.3h-146.7v-477.5h146.7z"/>
					<path id="&lt;Path&gt;" class="s15" d="m1561.4 2380.3h-146.6v-633.3h146.6z"/>
					<path id="&lt;Path&gt;" class="s15" d="m1806.5 2380.3h-146.7v-738.9h146.7z"/>
					<path id="&lt;Path&gt;" class="s15" d="m2051.6 2380.3h-146.7v-913.7h146.7z"/>
					<path id="&lt;Path&gt;" class="s15" d="m2296.6 2380.3h-146.7v-1119.7h146.7z"/>
				</g>
				<g id="&lt;Group&gt;">
					<path id="&lt;Path&gt;" class="s16" d="m2253.1 1067.8c-11.6 0-21.3-10.1-21.9-23.2l-4.9-108.4-94.4 68c-10.5 7.5-24.6 4.3-31.4-7.2-6.9-11.6-3.9-27.1 6.7-34.7l159.6-114 8.7 193.4c0.7 13.6-8.7 25.3-21 26.1q-0.7 0-1.4 0z"/>
					<path id="&lt;Path&gt;" class="s16" d="m878.8 1902.5c-6.6 0-12.7-4.3-14.7-11-2.4-8.1 2.3-16.6 10.4-18.9 281.2-82.3 569.4-218.9 811.6-384.8 259.5-177.7 441.5-370.6 526.3-557.9 3.5-7.7 12.5-11.1 20.2-7.6 7.7 3.5 11.1 12.5 7.6 20.2-87 192.4-272.7 389.7-536.8 570.6-244.8 167.6-536.1 305.7-820.3 388.8q-2.2 0.6-4.3 0.6z"/>
				</g>
				<g id="&lt;Group&gt;" style="opacity: .58">
					<g id="&lt;Group&gt;">
						<path id="&lt;Path&gt;" class="s15" d="m1392.2 1082.3h-905.5c-7.1 0-12.9-5.8-12.9-12.9v-63.2c0-7.2 5.8-13 12.9-13h905.5c7.1 0 12.9 5.8 12.9 13v63.2c0 7.1-5.8 12.9-12.9 12.9z"/>
						<path id="&lt;Path&gt;" class="s15" d="m408.3 1037.5c0 29.8-24.1 54-54 54-29.8 0-54-24.2-54-54 0-29.8 24.2-54 54-54 29.9 0 54 24.2 54 54z"/>
					</g>
					<g id="&lt;Group&gt;">
						<path id="&lt;Path&gt;" class="s15" d="m1392.2 1249.5h-905.5c-7.1 0-12.9-5.8-12.9-13v-63.2c0-7.1 5.8-12.9 12.9-12.9h905.5c7.1 0 12.9 5.8 12.9 12.9v63.2c0 7.2-5.8 13-12.9 13z"/>
						<path id="&lt;Path&gt;" class="s15" d="m408.3 1204.7c0 29.8-24.1 54-54 54-29.8 0-54-24.2-54-54 0-29.9 24.2-54 54-54 29.9 0 54 24.1 54 54z"/>
					</g>
					<g id="&lt;Group&gt;">
						<path id="&lt;Path&gt;" class="s15" d="m1392.2 1416.7h-905.5c-7.1 0-12.9-5.9-12.9-13v-63.2c0-7.1 5.8-12.9 12.9-12.9h905.5c7.1 0 12.9 5.8 12.9 12.9v63.2c0 7.1-5.8 13-12.9 13z"/>
						<path id="&lt;Path&gt;" class="s15" d="m408.3 1371.8c0 29.9-24.1 54.1-54 54.1-29.8 0-54-24.2-54-54.1 0-29.8 24.2-54 54-54 29.9 0 54 24.2 54 54z"/>
					</g>
					<g id="&lt;Group&gt;">
						<path id="&lt;Path&gt;" class="s15" d="m1392.2 1583.8h-905.5c-7.1 0-12.9-5.8-12.9-12.9v-63.2c0-7.1 5.8-13 12.9-13h905.5c7.1 0 12.9 5.9 12.9 13v63.2c0 7.1-5.8 12.9-12.9 12.9z"/>
						<path id="&lt;Path&gt;" class="s15" d="m408.3 1539c0 29.8-24.1 54-54 54-29.8 0-54-24.2-54-54 0-29.8 24.2-54 54-54 29.9 0 54 24.2 54 54z"/>
					</g>
				</g>
			</g>
			<g id="&lt;Group&gt;">
				<path id="&lt;Path&gt;" class="s17" d="m2465 2559.3c0 0 6.6 35.7 10.1 71 1.3 13.8-9.2 25.9-23.1 26.6-47 2.4-147.6 7.2-183.8 5.9-5.4-0.2-9-5.7-7.1-10.8 1.7-4.2 4.9-7.7 9-9.6l165.6-78z"/>
				<path id="&lt;Path&gt;" class="s18" d="m2470 2538.3l-4.7 42.8c0 0-29 13.8-49-1.3l11.6-47.7z"/>
				<path id="&lt;Path&gt;" class="s19" d="m2458.5 1735.5c2.3 11.1 17.1 556.4-38.9 801.3-0.9 4 1.1 8.1 5 9.6 8.9 3.6 26.5 8.7 47.5 9.2 6.5 0.2 12.3-4.1 14.1-10.3 16.1-56.9 93.3-341.8 101.1-613.3 8.7-303.3-0.1-10.3-0.1-10.3l-8.6-187.4z"/>
				<path id="&lt;Path&gt;" class="s20" d="m2656.5 2576.1c0 0 10.2 18 20.4 65.8 1.8 8.6-4.2 16.9-12.9 17.9-15.6 1.7-39.5 3.9-58.6 3.9-8.9 0-15.8-7.6-14.9-16.4 2-17.5 8.3-46.2 28.5-68.8z"/>
				<path id="&lt;Path&gt;" class="s21" d="m2664.8 2521.1l-11.3 64.7c0 0-11.6 8.8-34.8 2.8l5-69.6z"/>
				<path id="&lt;Path&gt;" class="s22" d="m2689.4 1750c50.4 287.3-3.6 711.3-22.3 794.4-1.2 5-5.2 9-10.4 9.9-8.7 1.5-23.1 2.8-37.3-1.2-4.9-1.3-8.4-5.7-8.6-10.8-3.3-67-2.5-478.3-48.4-640.5-2.4-8.2-7.5-15.3-14.5-20.2l-86.8-60.5-7.6-99z"/>
				<g id="&lt;Group&gt;">
					<path id="&lt;Path&gt;" class="s23" d="m2380.4 1207.7c142.8-3.7 300.9 34.7 300.9 34.7 44.9 248.1 12.5 535 12.5 535-110.3 30.1-235.5-15.5-235.5-15.5-19.4-103.7-108-395.2-108-395.2-69.9-8-127.6-27.6-175.2-53.7 35.7-42.2 52.3-95.7 59.4-127.3 50.6 15.3 101.8 23.2 145.9 22z"/>
					<path id="&lt;Path&gt;" class="s24" d="m1956.3 1001.3c13.9-17.1 31.7-9.3 31.7-9.3 21.9 88.7 132.9 159.6 246.5 193.7-7.1 31.6-23.7 85.1-59.4 127.3-189-103.9-218.8-311.7-218.8-311.7z"/>
				</g>
				<g id="&lt;Group&gt;">
					<path id="&lt;Path&gt;" class="s25" d="m1959.8 1005.6c-1.4 4.6 15.6 11.6 25.5-7.6 0.2-9.2 5.4-48.4-0.1-55.8-29.5-39.5-86.5-88.7-86.5-88.7-9.4 9.5-1.5 18.7-1.5 18.7l27.7 28.3c-5.6 10.4-12.5 19.2-15.7 31.7-2.4 9.5-0.8 19.7 4.1 28.3 4.9 8.6 11.6 19.8 17.8 28.5 11.9 16.6 28.7 16.6 28.7 16.6z"/>
					<path id="&lt;Path&gt;" class="s26" d="m1937.1 918.9l25.1 20.9 8.1 21-22.1 24.9c0 0-7.8-41.7-13.5-50.7-5.6-9-2.8-13.4 2.4-16.1z"/>
				</g>
				<path id="&lt;Path&gt;" class="s27" d="m2627.8 1381.2l53.5-138.8c0 0 134.3 89.4 157.4 204.1-25.2 2.1-71.1 9.1-115.8 32.2-10.4-54.2-95.1-97.5-95.1-97.5z"/>
				<path id="&lt;Path&gt;" class="s28" d="m2512.4 1512.5c0 0 150.7 83.3 200.5 10.5 10.4-15.1 12.8-30.1 10-44.3 44.7-23.1 90.6-30.1 115.8-32.2 6.9 34.6 3.8 71.5-16.3 109-87 162.8-329.5-5.8-329.5-5.8z"/>
				<path id="&lt;Path&gt;" class="s29" d="m2524 1090.3l46.7 131.1c0.8 2.1-0.1 4.6-2.1 5.7-12.3 7-56.8 27.2-110.9-6.4-5.6-3.5-9.5-9.3-10.4-15.8l-15.8-113.7z"/>
				<g id="&lt;Group&gt;">
					<path id="&lt;Path&gt;" class="s30" d="m2423.9 969.5c0 0-49 94.5-42.2 132.4 6.7 37.9 68.6 34.6 122.3 3.2l36.8-101.8z"/>
					<path id="&lt;Path&gt;" class="s31" d="m2501.1 1055.3c-2.2-1-3-3.6-1.7-5.7 3.9-6.1 11.3-18.6 13.6-29.6 0 0 8.9-5.8-23-13.1-31.9-7.3-79.4-18.7-89.6-45.7-10-26.3 14.9-92.9 56.2-40.4 1.5 2 4.6 2 6.1 0 6.6-8.8 24-27 48.5-16.3 22.9 10 25.6 26.7 25.4 35.1-0.1 2.5 2.2 4.4 4.6 3.9 11.5-2.3 39.2-4.4 52.4 23.9 10.9 23.3 4.1 36.6-2.2 43.1-2 2.1-1.1 5.6 1.7 6.4 7.6 2.3 17.5 8.6 16.7 26.4-1.1 24.5-28.6 22.6-36.4 21.6-1.3-0.2-2.6 0.3-3.5 1.2-6.6 7.5-36.5 39.3-69.2 43.4-2.8 0.4-5-2.4-4.1-5.1l13.7-41.3c0.7-1.9-0.3-4-2.1-4.8z"/>
					<path id="&lt;Path&gt;" class="s32" d="m2495.5 1061.2c0 0 35.3-24.7 38.1-4.2 2.8 20.5-31.7 30-48.9 22.5z"/>
				</g>
				<g id="&lt;Group&gt;">
					<g id="&lt;Group&gt;">
						<path id="&lt;Path&gt;" class="s33" d="m2543.2 1644.1l-82.1-286.6c-0.9-3.2-3.7-5.6-7-6-14.9-1.7-58-6.6-107.7-10.8-60-5.1-129.5-9.2-171.1-5.7-5.9 0.5-9.5 6.7-6.9 12.1 23.7 47.8 120.9 242.4 169.6 306.1 1.7 2.2 4.2 3.4 6.8 3.4l190.4-1.8c5.6-0.1 9.5-5.4 8-10.7z"/>
						<path id="&lt;Path&gt;" class="s34" d="m2523.4 1574.9c0 0 11.4-47 6.8-63.7-4.6-16.7-13.6-38.1-43.3-33.4-29.8 4.8-64.9 17.3-64.9 17.3 0 0 1.7 21.8 24.4 14.7l-14.1 10.9c0 0 2 17.4 21.2 8.1l-13.1 14.4c0 0 8.2 14.3 22.3 5.1 14-9.1 20.8 32.2 60.7 26.6z"/>
					</g>
					<path id="&lt;Path&gt;" class="s35" d="m2351.8 1426.2c0 13.3-10.7 24.1-24 24.1-13.4 0-24.1-10.8-24.1-24.1 0-13.3 10.7-24.1 24.1-24.1 13.3 0 24 10.8 24 24.1z"/>
					<path id="&lt;Path&gt;" class="s15" d="m2451.6 1442.2l-16.7-56.7c-2-6.9-7.5-12-14.4-13.5-52.3-10.9-195.7-13.2-197.1-13.2l0.1-6.9c5.9 0.1 145.4 2.4 198.4 13.4 9.3 2 16.8 9 19.6 18.3l16.7 56.6z"/>
				</g>
			</g>
			<g id="&lt;Group&gt;">
				<path id="&lt;Path&gt;" class="s36" d="m1169.7 451.6c-199.7 0-361.6 123.4-361.6 275.7 0 42.2 12.4 82.2 34.7 118 11 17.6 14.7 39.1 9.6 59.3-10 39.3-4.7 90.2 40.1 150.5 8.5 11.4 26.6 7.1 29.2-6.9 3.3-17.6 9-39.4 18.6-60.4 9-19.6 32-28.9 51.8-20.3 52.5 22.5 113.1 35.4 177.6 35.4 199.7 0 361.7-123.4 361.7-275.6 0-152.3-162-275.7-361.7-275.7z"/>
				<g id="&lt;Group&gt;" style="opacity: .68">
					<path id="&lt;Path&gt;" class="s15" d="m1081 743.9c0 18.8-15.3 34.1-34.1 34.1-18.8 0-34.1-15.3-34.1-34.1 0-18.9 15.3-34.1 34.1-34.1 18.8 0 34.1 15.2 34.1 34.1z"/>
					<g id="&lt;Group&gt;">
						<path id="&lt;Path&gt;" class="s15" d="m1203.8 743.9c0 18.8-15.2 34.1-34.1 34.1-18.8 0-34.1-15.3-34.1-34.1 0-18.9 15.3-34.1 34.1-34.1 18.9 0 34.1 15.2 34.1 34.1z"/>
					</g>
					<path id="&lt;Path&gt;" class="s15" d="m1326.7 743.9c0 18.8-15.3 34.1-34.2 34.1-18.8 0-34.1-15.3-34.1-34.1 0-18.9 15.3-34.1 34.1-34.1 18.9 0 34.2 15.2 34.2 34.1z"/>
				</g>
			</g>
			<g id="&lt;Group&gt;">
				<g id="&lt;Group&gt;">
					<path id="&lt;Path&gt;" class="s37" d="m401.7 1585.3c-8.2 21.6-49.1 40.5-72.6 50 42 50.2 74.1 67.9 117.3 104.4l14.5 32.5 33.6-49.2c0 0-79.9-105.6-92.8-137.7z"/>
					<path id="&lt;Path&gt;" class="s38" d="m642 2645.2c0.1-1 0-2-0.3-3-15-59.7-89.8-96.9-89.8-96.9l-29.6 2.4c-17 52.6-14.8 84.9-12.1 99.2 0.1 0.4 0.2 0.8 0.3 1.2 24.5 2.2 74.7 3.6 131.5-2.9z"/>
					<path id="&lt;Path&gt;" class="s39" d="m510.5 2648.1c1.3 4.8 4.9 8.5 9.4 9.5 34.8 7.3 90 1.4 113.2-1.6 5.1-0.7 8.9-5.4 8.9-10.8-56.8 6.5-107 5.1-131.5 2.9z"/>
					<path id="&lt;Path&gt;" class="s40" d="m510.4 2503.6l12.6 60.3c0.9 4.5 4.3 7.8 8.4 8.2 5 0.4 12.2 0.7 19.4-0.4 6.5-0.9 11-7.5 9.9-14.5l-8.8-53.6z"/>
					<path id="&lt;Path&gt;" class="s41" d="m770.3 2647.5c-32.7-0.9-49.6-4.8-58.4-8.3 0 3.2 0 6.5 0.1 9.9 0.2 3.7 2.9 6.6 6.2 6.6l179.6-1.1c5.7-0.1 9.1-6.7 6.6-12-23.6 2-83.5 6.3-134.1 4.9z"/>
					<path id="&lt;Path&gt;" class="s42" d="m904.4 2642.6c-0.2-0.4-0.4-0.9-0.7-1.3-15.9-22.2-56.3-66.3-136.1-85.5l-38.3-1.2c0 0-17 29.7-17.4 84.6 8.8 3.5 25.7 7.4 58.4 8.3 50.6 1.4 110.5-2.9 134.1-4.9z"/>
					<path id="&lt;Path&gt;" class="s43" d="m722.2 2496.6c0.4 2.8 5.7 46.2 7.7 63 0.5 4 3.4 7.1 7 7.6 6.6 0.7 17.1 1.5 26.3-0.4 5-1.1 8.6-5.8 8.6-11.4v-68.1z"/>
					<path id="&lt;Path&gt;" class="s44" d="m691.5 1704.9c0 0 92.3 351 90.7 792.7-0.1 8-5.7 15-13.6 16.7-11.6 2.4-28.7 5.3-42.8 4.9-7.5-0.2-13.9-5.8-15.1-13.2-13-76-87.3-503.8-129.6-573.3 0 0-27.9 381.1-19 578.8 0.2 4.9-3.4 9.1-8.3 9.7-7.4 0.9-19.2 1.5-34.3-0.1-5.8-0.6-10.4-4.9-11.2-10.6-9.2-64.3-62.3-446.9-60.1-722.5 0.2-15.5 41.1-83.1 41.1-83.1z"/>
					<path id="&lt;Path&gt;" class="s45" d="m819.9 1280.1c-15-18.8-28.1-38.9-39.1-59.7-15.3-29-1.2 18.8-5.4-14-114.9-82.9-287.9-40.9-354.8-32.5-21.9 2.8-42 13.6-56.5 30.3-57.3 66.4-137 229.1-35 431.1 13.4 3.8 66.3-23.7 72.6-50-7.2-45.7-7.8-104.6 8.2-174.5q1.7 8.7 4.3 17c47.4 150 49.9 274.8 49.8 303.5 0 3.9 2.3 7.4 6 8.9 62.2 25 182.1 10.1 222.4 4.1 7.4-1.1 12.3-8 11.3-15.4-19.7-143.1 81.6-378.5 108.4-437.5 2-4.2 4.6-8 7.8-11.3z"/>
					<path id="&lt;Path&gt;" class="s46" d="m528.3 1053.4l-12 122.7c0 0 69 20.8 119.1-14.7l-35.2-111.4z"/>
					<g id="&lt;Group&gt;">
						<path id="&lt;Path&gt;" class="s47" d="m608.3 913.6c1.7 1.6 70.1 136 70.1 136l-77.5 37.4-83.8-117.7c0 0 63.4-81.8 91.2-55.7z"/>
						<path id="&lt;Path&gt;" class="s48" d="m551.4 972.5c-1.4 3.6-1 7.6 0.9 10.9l38.7 64.5q0.9 1.5 2.1 2.6c4.6 4.3 20.4 16.8 32.6-0.2 10.4-14.5 20.1-27.6 30.5-33 6.1-3.2 13.6-0.7 16.7 5.5 6.4 12.6 18.7 38.3 26.5 62.7 1.9 6.2-1.2 12.7-7.2 15.1-15.7 6.4-46.7 17.9-74.3 21.7-4.5 0.6-9-1.3-11.7-5-11.8-16.2-45.2-61.6-56.6-72.9-10.6-10.6-30.1-6.6-38.9-4-3.4 0.9-6.9 0.5-9.9-1.3-9-5.4-24.6-18.8-10.3-41.5 3.6-5.7 1.8-13.2-3.8-16.8-10-6.6-20.8-18.9-10.5-38.9 10.4-20.2 29.1-22 41.8-20.4 5.6 0.7 11.3-2.3 13.5-7.5 0.9-2.3 2.8-4.3 6.3-5 6.7-1.4 11.1-7.5 9.8-14.1-2.3-11.5-0.6-26.3 17.7-36.3 33.4-18.4 62.7 11.5 70.2 36.8 7.4 25.3-30 43.2-53.5 46.2-17.3 2.2-26.8 21.1-30.6 30.9z"/>
						<path id="&lt;Path&gt;" class="s49" d="m564.1 1068.1c0 0-14.9-43.6-33.9-42-19 1.6-34 20.6-10.4 41.9 29.3 26.6 44.3 0.1 44.3 0.1z"/>
					</g>
					<path id="&lt;Path&gt;" class="s50" d="m403.6 1399.6c-25.1-68.7-16-151.6-15.9-152.5l6.9 0.8c-0.1 0.8-9 82.2 15.5 149.3z"/>
					<path id="&lt;Path&gt;" class="s51" d="m577.7 1923.8c-1.6 0-3-1.1-3.4-2.6-7.7-29.6-65-62-65.6-62.4-1.7-0.9-2.3-3-1.3-4.7 0.9-1.7 3-2.3 4.7-1.3 2.5 1.3 60.5 34.2 68.9 66.6 0.5 1.9-0.6 3.8-2.5 4.3q-0.4 0.1-0.8 0.1z"/>
					<g id="&lt;Group&gt;">
						<path id="&lt;Path&gt;" class="s52" d="m1053.1 1318.7c-129.9 19.5-214.6-62.5-277.7-112.3-83.3-65.6-148.2-33.7-148.2-33.7l88.9 169.6c132.7 125.1 268.7 97.3 354.5 56.8 1.3-32.8-7.4-60.2-17.5-80.4z"/>
						<path id="&lt;Path&gt;" class="s53" d="m1235.8 1241.1l-43.1 23.2c-51.7 31.5-97.9 48.1-139.6 54.4 10.1 20.2 18.8 47.6 17.5 80.4 54.6-25.8 88.8-56.8 88.8-56.8 97.7-58.2 76.4-101.2 76.4-101.2z"/>
					</g>
					<path id="&lt;Path&gt;" class="s54" d="m1362.7 1301.9c-2.8-9.3-9.6-16.8-18.6-20.4l-87.4-35.1c0 0-1.3-11.2 18.5-18.9 19.8-7.6 15.1-29.8 15.1-29.8 0 0-27 12.4-66.6 31.9-22.7 11.2-35.4 31-42.1 45.9l22.5 29.6c53.9 16.2 108.4 19.3 163.4 12.8z"/>
				</g>
				<g id="&lt;Group&gt;">
					<path id="&lt;Path&gt;" class="s55" d="m273.5 1940.6l4.5 138.9c0.8 24.3 20.7 43.5 45 43.7l332.7 1.9c16.3 0.1 30.2-11.7 32.6-27.7 5.2-35.1 11.8-97.9 4.3-156.8z"/>
					<path id="&lt;Compound Path&gt;" class="s15" d="m644 2116.6h-0.1-2.4c-0.2 0-0.4-0.2-0.4-0.4 0-0.2 0.2-0.4 0.4-0.4h2.5c0.2 0 0.4 0.2 0.4 0.4 0 0.2-0.2 0.4-0.4 0.4zm5.6 0c-0.2 0-0.4-0.2-0.4-0.4 0-0.2 0.2-0.4 0.4-0.4q1.2-0.1 2.4-0.3c0.2 0 0.4 0.1 0.4 0.4 0 0.2-0.1 0.4-0.3 0.4q-1.2 0.2-2.5 0.3 0 0 0 0zm-13.7 0q0 0 0 0l-2.5-0.1c-0.2 0-0.4-0.1-0.4-0.4 0-0.2 0.2-0.4 0.4-0.4q0.1 0 0.1 0h2.4c0.2 0 0.4 0.2 0.4 0.5 0 0.2-0.2 0.4-0.4 0.4zm-8.1-0.1h-2.4c-0.3 0-0.4-0.2-0.4-0.4 0-0.2 0.1-0.4 0.4-0.4h2.4c0.2 0 0.4 0.2 0.4 0.4 0 0.2-0.2 0.4-0.4 0.4zm-8.1 0l-2.4-0.1c-0.2 0-0.4-0.1-0.4-0.4 0-0.2 0.2-0.4 0.4-0.4h2.4c0.2 0.1 0.4 0.2 0.4 0.5 0 0.2-0.2 0.4-0.4 0.4zm-8.1-0.1h-2.4c-0.2 0-0.4-0.2-0.4-0.4 0-0.2 0.2-0.4 0.4-0.4h2.4c0.3 0 0.4 0.2 0.4 0.4 0 0.2-0.1 0.4-0.4 0.4zm-8 0l-2.5-0.1c-0.2 0-0.4-0.1-0.4-0.4 0-0.2 0.2-0.4 0.4-0.4l2.5 0.1c0.2 0 0.4 0.1 0.4 0.4 0 0.2-0.2 0.4-0.4 0.4zm-8.1-0.1h-2.4c-0.3 0-0.4-0.2-0.4-0.4 0-0.2 0.1-0.4 0.4-0.4h2.4c0.2 0 0.4 0.2 0.4 0.4 0 0.2-0.2 0.4-0.4 0.4zm-8.1 0h-2.4c-0.2 0-0.4-0.2-0.4-0.5 0-0.2 0.2-0.4 0.4-0.4l2.4 0.1c0.2 0 0.4 0.1 0.4 0.4 0 0.2-0.2 0.4-0.4 0.4zm-8.1-0.1h-2.4c-0.2 0-0.4-0.2-0.4-0.4 0-0.2 0.2-0.4 0.4-0.4q0 0 0 0h2.4c0.3 0 0.4 0.2 0.4 0.4 0 0.2-0.2 0.4-0.4 0.4zm-8.1 0h-2.4c-0.2 0-0.4-0.2-0.4-0.4 0-0.3 0.2-0.5 0.4-0.5l2.5 0.1c0.2 0 0.4 0.1 0.4 0.4 0 0.2-0.2 0.4-0.5 0.4zm-8-0.1q0 0 0 0h-2.5c-0.2 0-0.4-0.2-0.4-0.4 0-0.2 0.2-0.4 0.4-0.4h2.5c0.2 0 0.4 0.2 0.4 0.4 0 0.2-0.2 0.4-0.4 0.4zm-8.1 0q0 0 0 0h-2.4c-0.3 0-0.4-0.2-0.4-0.4 0-0.3 0.1-0.4 0.4-0.4q0 0 0 0h2.4c0.2 0 0.4 0.2 0.4 0.4 0 0.2-0.2 0.4-0.4 0.4zm-8.1-0.1q0 0 0 0h-2.4c-0.2 0-0.4-0.2-0.4-0.4 0-0.2 0.2-0.4 0.4-0.4q0 0 0 0h2.4c0.2 0 0.4 0.2 0.4 0.4 0 0.3-0.2 0.4-0.4 0.4zm-8.1 0q0 0 0 0h-2.4c-0.2 0-0.4-0.2-0.4-0.4 0-0.3 0.2-0.4 0.4-0.4h2.4c0.3 0 0.4 0.2 0.4 0.4 0 0.2-0.1 0.4-0.4 0.4zm-8-0.1q0 0 0 0h-2.5c-0.2 0-0.4-0.2-0.4-0.4 0-0.2 0.2-0.4 0.4-0.4q0 0 0 0h2.5c0.2 0 0.4 0.2 0.4 0.4 0 0.3-0.2 0.4-0.4 0.4zm-8.1 0h-2.4c-0.3 0-0.5-0.2-0.4-0.4 0-0.3 0.2-0.4 0.4-0.4h2.4c0.2 0 0.4 0.2 0.4 0.4 0 0.2-0.2 0.4-0.4 0.4zm-8.1-0.1h-2.4c-0.2 0-0.4-0.2-0.4-0.4 0-0.2 0.2-0.4 0.4-0.4h2.4c0.2 0 0.4 0.2 0.4 0.4 0 0.3-0.2 0.4-0.4 0.4zm-8.1 0h-2.4c-0.2 0-0.4-0.2-0.4-0.4 0-0.3 0.2-0.4 0.4-0.4h2.4c0.2 0 0.4 0.2 0.4 0.4 0 0.2-0.2 0.4-0.4 0.4zm-8.1-0.1h-2.4c-0.2 0-0.4-0.2-0.4-0.4 0-0.2 0.2-0.4 0.4-0.4h2.4c0.3 0 0.4 0.2 0.4 0.4 0 0.3-0.1 0.4-0.4 0.4zm-8 0h-2.5c-0.2 0-0.4-0.2-0.4-0.4 0-0.2 0.2-0.4 0.4-0.4h2.5c0.2 0 0.4 0.2 0.4 0.4 0 0.2-0.2 0.4-0.4 0.4zm-8.1-0.1h-2.4c-0.3 0-0.4-0.1-0.4-0.4 0-0.2 0.1-0.4 0.4-0.4h2.4c0.2 0 0.4 0.2 0.4 0.4 0 0.3-0.2 0.4-0.4 0.4zm-8.1 0h-2.4c-0.2 0-0.4-0.2-0.4-0.4 0-0.2 0.2-0.4 0.4-0.4h2.4c0.2 0 0.4 0.2 0.4 0.4 0 0.2-0.2 0.4-0.4 0.4zm-8.1 0q0 0 0 0l-2.4-0.1c-0.2 0-0.4-0.1-0.4-0.4 0-0.2 0.2-0.4 0.4-0.4h2.4c0.3 0 0.4 0.2 0.4 0.5 0 0.2-0.1 0.4-0.4 0.4zm-8-0.1h-2.5c-0.2 0-0.4-0.2-0.4-0.4 0-0.2 0.2-0.4 0.4-0.4h2.5c0.2 0 0.4 0.2 0.4 0.4 0 0.2-0.2 0.4-0.4 0.4zm-8.1 0q0 0 0 0l-2.5-0.1c-0.2 0-0.4-0.1-0.4-0.4 0-0.2 0.2-0.4 0.5-0.4q0 0 0 0h2.4c0.2 0.1 0.4 0.2 0.4 0.5 0 0.2-0.2 0.4-0.4 0.4zm-8.1-0.1q0 0 0 0h-2.4c-0.3 0-0.4-0.2-0.4-0.4 0-0.2 0.2-0.4 0.4-0.4q0 0 0 0h2.4c0.2 0 0.4 0.2 0.4 0.4 0 0.2-0.2 0.4-0.4 0.4zm-8.1 0q0 0 0 0l-2.4-0.1c-0.2 0-0.4-0.1-0.4-0.4 0-0.2 0.2-0.4 0.4-0.4l2.4 0.1c0.2 0 0.4 0.1 0.4 0.4 0 0.2-0.2 0.4-0.4 0.4zm-8.1-0.1q0 0 0 0h-2.4c-0.2 0-0.4-0.2-0.4-0.4 0-0.2 0.2-0.4 0.4-0.4q0 0 0 0h2.4c0.3 0 0.4 0.2 0.4 0.4 0 0.2-0.1 0.4-0.4 0.4zm-8 0h-2.5c-0.2 0-0.4-0.2-0.4-0.5 0-0.2 0.2-0.4 0.4-0.4q0 0 0 0l2.5 0.1c0.2 0 0.4 0.1 0.4 0.4 0 0.2-0.2 0.4-0.4 0.4zm-8.1-0.1q0 0 0 0h-2.4c-0.3 0-0.4-0.2-0.4-0.4 0-0.2 0.2-0.4 0.4-0.4h2.4c0.2 0 0.4 0.2 0.4 0.4 0 0.2-0.2 0.4-0.4 0.4zm-8.1 0h-2.4c-0.2 0-0.4-0.2-0.4-0.4 0-0.3 0.2-0.5 0.4-0.5l2.4 0.1c0.2 0 0.4 0.1 0.4 0.4 0 0.2-0.2 0.4-0.4 0.4zm-8.1-0.1h-2.4c-0.2 0-0.4-0.2-0.4-0.4 0-0.2 0.2-0.4 0.4-0.4h2.4c0.3 0 0.4 0.2 0.4 0.4 0 0.2-0.2 0.4-0.4 0.4zm-8.1 0h-2.4c-0.2 0-0.4-0.2-0.4-0.4 0-0.3 0.2-0.4 0.4-0.4h2.5c0.2 0 0.4 0.2 0.4 0.4 0 0.2-0.2 0.4-0.5 0.4zm272.1-0.1c-0.2 0-0.3-0.1-0.4-0.2 0-0.3 0.1-0.5 0.3-0.6q1.1-0.3 2.2-0.8c0.2-0.1 0.5 0 0.6 0.2 0 0.2-0.1 0.5-0.3 0.5q-1.1 0.5-2.3 0.9 0 0-0.1 0zm-280.1 0h-2.5c-0.2 0-0.4-0.2-0.4-0.4 0-0.2 0.2-0.4 0.4-0.4h2.5c0.2 0 0.4 0.2 0.4 0.4 0 0.2-0.2 0.4-0.4 0.4zm-8.1 0h-2.4c-0.3 0-0.4-0.2-0.4-0.4 0-0.3 0.1-0.4 0.4-0.4h2.4c0.2 0 0.4 0.2 0.4 0.4 0 0.2-0.2 0.4-0.4 0.4zm-8.1-0.1h-2.4c-0.2 0-0.4-0.2-0.4-0.4 0-0.2 0.2-0.4 0.4-0.4h2.4c0.2 0 0.4 0.2 0.4 0.4 0 0.3-0.2 0.4-0.4 0.4zm-8.1 0h-2.4c-0.2 0-0.4-0.2-0.4-0.4 0-0.3 0.2-0.4 0.4-0.4h2.4c0.3 0 0.4 0.2 0.4 0.4 0 0.2-0.1 0.4-0.4 0.4zm-8-0.1h-2.5c-0.2 0-0.4-0.2-0.4-0.4 0-0.2 0.2-0.4 0.4-0.4h2.5c0.2 0 0.4 0.2 0.4 0.4 0 0.3-0.2 0.4-0.4 0.4zm-8.1 0h-2.4c-0.3 0-0.4-0.2-0.4-0.4 0-0.3 0.1-0.4 0.4-0.4q0 0 0 0h2.4c0.2 0 0.4 0.2 0.4 0.4 0 0.2-0.2 0.4-0.4 0.4zm-8.1-0.1q0 0 0 0-1.2-0.1-2.5-0.2c-0.2 0-0.3-0.2-0.3-0.4 0-0.3 0.2-0.4 0.4-0.4q1.2 0.1 2.4 0.2c0.2 0 0.4 0.2 0.4 0.4 0 0.2-0.2 0.4-0.4 0.4zm-8-1.1q0 0-0.1-0.1-1.2-0.2-2.3-0.6c-0.2-0.1-0.4-0.3-0.3-0.5 0.1-0.2 0.3-0.3 0.5-0.3q1.1 0.4 2.3 0.7c0.2 0 0.4 0.2 0.3 0.4 0 0.2-0.2 0.4-0.4 0.4zm343.9-2.1q-0.2 0-0.4-0.2c-0.1-0.1 0-0.4 0.1-0.5q1-0.7 2-1.4c0.2-0.1 0.4-0.1 0.6 0.1 0.1 0.1 0.1 0.4-0.1 0.5q-1 0.8-2 1.5-0.1 0-0.2 0zm-351.5-0.6q-0.1 0-0.2 0-1.1-0.5-2.2-1.1c-0.2-0.1-0.2-0.3-0.1-0.5 0.1-0.2 0.3-0.3 0.5-0.2q1.1 0.6 2.2 1.1c0.2 0.1 0.3 0.3 0.2 0.5-0.1 0.1-0.3 0.2-0.4 0.2zm-7-4q-0.1 0-0.2 0-1-0.7-2-1.5c-0.2-0.1-0.2-0.4-0.1-0.6 0.2-0.1 0.4-0.2 0.6 0q0.9 0.7 1.9 1.4c0.2 0.1 0.3 0.4 0.1 0.6q-0.1 0.1-0.3 0.1zm364.6-0.6q-0.2 0-0.3-0.1c-0.2-0.2-0.2-0.4 0-0.6q0.8-0.9 1.5-1.8c0.1-0.2 0.4-0.2 0.6-0.1 0.1 0.1 0.2 0.4 0 0.6q-0.7 0.9-1.5 1.8-0.2 0.2-0.3 0.2zm-370.7-4.6q-0.2 0-0.3-0.1-0.9-0.9-1.7-1.8c-0.1-0.2-0.1-0.4 0-0.6 0.2-0.1 0.5-0.1 0.6 0.1q0.8 0.9 1.6 1.7c0.2 0.2 0.2 0.4 0 0.6q-0.1 0.1-0.2 0.1zm375.2-2.1q-0.1 0-0.2 0c-0.2-0.1-0.2-0.4-0.1-0.6q0.5-1 1-2.1c0-0.2 0.3-0.3 0.5-0.2 0.2 0 0.3 0.3 0.2 0.5q-0.5 1.1-1 2.2c-0.1 0.2-0.2 0.2-0.4 0.2zm-380.3-4.2q-0.2 0-0.4-0.1-0.6-1.1-1.2-2.1c-0.2-0.2-0.1-0.5 0.1-0.6 0.2-0.1 0.4 0 0.6 0.2q0.6 1 1.2 2c0.1 0.2 0.1 0.5-0.1 0.6q-0.1 0-0.2 0zm383-3.4q0 0-0.1 0c-0.2 0-0.3-0.2-0.3-0.5q0.2-0.8 0.3-1.8l0.1-0.5c0-0.2 0.2-0.4 0.5-0.4 0.2 0.1 0.3 0.3 0.3 0.5l-0.1 0.6q-0.1 0.9-0.3 1.8c-0.1 0.2-0.2 0.3-0.4 0.3zm-386.8-3.7c-0.2 0-0.3-0.1-0.4-0.2q-0.5-1.2-0.9-2.3c0-0.2 0.1-0.5 0.3-0.5 0.2-0.1 0.4 0 0.5 0.2q0.4 1.2 0.9 2.3c0 0.2-0.1 0.4-0.3 0.5q0 0-0.1 0zm388-4.3q0 0-0.1 0c-0.2 0-0.3-0.2-0.3-0.4q0.2-1.2 0.3-2.4c0.1-0.2 0.3-0.4 0.5-0.4 0.2 0.1 0.4 0.3 0.3 0.5q-0.1 1.2-0.3 2.4c0 0.2-0.2 0.3-0.4 0.3zm-390.4-3.4c-0.2 0-0.4-0.1-0.4-0.3q-0.3-1.2-0.4-2.4c-0.1-0.2 0.1-0.4 0.3-0.5 0.2 0 0.4 0.1 0.5 0.4q0.1 1.1 0.4 2.3c0 0.2-0.1 0.5-0.3 0.5q-0.1 0-0.1 0zm391.5-4.6q-0.1 0-0.1 0c-0.2 0-0.4-0.2-0.3-0.4l0.3-2.4c0-0.2 0.2-0.4 0.4-0.4 0.2 0.1 0.4 0.3 0.4 0.5l-0.3 2.4c-0.1 0.2-0.2 0.3-0.4 0.3zm-392.4-3.4c-0.2 0-0.4-0.2-0.4-0.4l-0.1-2.4c0-0.2 0.2-0.4 0.4-0.4 0.2 0 0.4 0.1 0.4 0.4l0.1 2.4c0 0.2-0.2 0.4-0.4 0.4q0 0 0 0zm393.3-4.6q0 0 0 0c-0.2 0-0.4-0.2-0.4-0.4q0.2-1.2 0.3-2.4c0-0.3 0.2-0.4 0.5-0.4 0.2 0 0.3 0.2 0.3 0.5q-0.1 1.2-0.3 2.4c0 0.2-0.1 0.3-0.4 0.3zm-393.6-3.5c-0.2 0-0.4-0.1-0.4-0.4l-0.1-2.4c0-0.2 0.2-0.4 0.4-0.4 0.3 0 0.4 0.2 0.5 0.4v2.4c0 0.2-0.1 0.4-0.4 0.4q0 0 0 0zm394.5-4.5q0 0 0 0c-0.2 0-0.4-0.2-0.4-0.5q0.2-1.2 0.3-2.4c0-0.2 0.2-0.4 0.4-0.3 0.2 0 0.4 0.2 0.4 0.4q-0.1 1.2-0.3 2.4c0 0.2-0.2 0.4-0.4 0.4zm-394.7-3.5c-0.2 0-0.4-0.2-0.4-0.4l-0.1-2.5c0-0.2 0.2-0.4 0.4-0.4 0.2 0 0.4 0.2 0.4 0.4l0.1 2.4c0 0.3-0.2 0.4-0.4 0.5q0 0 0 0zm395.5-4.6q0 0 0 0c-0.2 0-0.4-0.2-0.4-0.4q0.1-1.2 0.2-2.4c0.1-0.2 0.3-0.4 0.5-0.4 0.2 0 0.4 0.2 0.3 0.5q-0.1 1.2-0.2 2.4c0 0.2-0.2 0.3-0.4 0.3zm-395.8-3.5c-0.2 0-0.4-0.2-0.4-0.4l-0.1-2.4c0-0.3 0.2-0.4 0.4-0.5 0.2 0 0.4 0.2 0.4 0.4l0.1 2.5c0 0.2-0.2 0.4-0.4 0.4q0 0 0 0zm396.5-4.5q0 0 0 0c-0.2 0-0.4-0.2-0.4-0.4l0.2-2.5c0-0.2 0.2-0.3 0.4-0.3 0.3 0 0.4 0.2 0.4 0.4l-0.2 2.4c0 0.2-0.2 0.4-0.4 0.4zm-396.8-3.6c-0.2 0-0.3-0.2-0.4-0.4v-2.4c0-0.2 0.1-0.4 0.4-0.4 0.2 0 0.4 0.1 0.4 0.4l0.1 2.4c0 0.2-0.2 0.4-0.4 0.4q0 0-0.1 0zm397.4-4.5q0 0 0 0c-0.2 0-0.4-0.2-0.4-0.4l0.2-2.4c0-0.2 0.2-0.4 0.4-0.4 0.2 0 0.4 0.2 0.4 0.4l-0.2 2.5c0 0.2-0.2 0.3-0.4 0.3zm-397.6-3.6c-0.2 0-0.4-0.1-0.4-0.4l-0.1-2.4c0-0.2 0.2-0.4 0.4-0.4 0.2 0 0.4 0.2 0.4 0.4l0.1 2.4c0 0.2-0.2 0.4-0.4 0.4q0 0 0 0zm398.1-4.4q0 0 0 0c-0.2 0-0.4-0.2-0.4-0.5q0.1-1.2 0.2-2.4c0-0.2 0.2-0.4 0.4-0.4 0.2 0.1 0.4 0.2 0.4 0.5q-0.1 1.2-0.2 2.4c0 0.2-0.2 0.4-0.4 0.4zm-398.4-3.6c-0.2 0-0.4-0.2-0.4-0.4l-0.1-2.5c0-0.2 0.2-0.4 0.4-0.4 0.3 0 0.4 0.2 0.5 0.4v2.4c0 0.3-0.1 0.4-0.4 0.5q0 0 0 0zm398.8-4.5q0 0 0 0c-0.2 0-0.4-0.2-0.4-0.4q0.1-1.2 0.1-2.4c0-0.3 0.2-0.4 0.4-0.4 0.3 0 0.4 0.2 0.4 0.4q0 1.2-0.1 2.4c0 0.2-0.2 0.4-0.4 0.4zm-399-3.6c-0.2 0-0.4-0.2-0.4-0.4l-0.1-2.4c0-0.3 0.2-0.4 0.4-0.4 0.2-0.1 0.4 0.1 0.4 0.3l0.1 2.5c0 0.2-0.2 0.4-0.4 0.4q0 0 0 0zm399.3-4.5q0 0 0 0c-0.2 0-0.4-0.2-0.4-0.4q0-1.2 0.1-2.4c0-0.2 0.2-0.4 0.4-0.4 0.2 0 0.4 0.2 0.4 0.4q0 1.2-0.1 2.4c0 0.3-0.2 0.4-0.4 0.4zm-399.6-3.6c-0.2 0-0.4-0.2-0.4-0.4l-0.1-2.4c0-0.2 0.2-0.4 0.4-0.4 0.2 0 0.4 0.1 0.4 0.4l0.1 2.4c0 0.2-0.2 0.4-0.4 0.4q0 0 0 0zm399.8-4.4c-0.2-0.1-0.4-0.2-0.4-0.5q0-1.2 0-2.4c0-0.2 0.2-0.4 0.4-0.4 0.3 0 0.4 0.2 0.4 0.4q0 1.2 0 2.5c0 0.2-0.2 0.4-0.4 0.4zm-400-3.7c-0.3 0-0.4-0.1-0.5-0.4v-2.4c0-0.2 0.1-0.4 0.4-0.4 0.2 0 0.4 0.2 0.4 0.4l0.1 2.4c0 0.2-0.2 0.4-0.4 0.4q0 0 0 0zm400.1-4.4c-0.3 0-0.4-0.2-0.4-0.4v-0.2q0-1.1 0-2.2c0-0.3 0.1-0.5 0.4-0.5 0.2 0 0.4 0.2 0.4 0.4q0 1.2 0 2.3v0.2c0 0.2-0.2 0.4-0.4 0.4zm-400.4-3.6c-0.2 0-0.4-0.2-0.4-0.4l-0.1-2.5c0-0.2 0.2-0.4 0.4-0.4 0.2 0 0.4 0.2 0.4 0.4l0.1 2.4c0 0.3-0.2 0.5-0.4 0.5q0 0 0 0zm400.3-4.5c-0.2 0-0.4-0.2-0.4-0.4q0-1.2 0-2.4c-0.1-0.2 0.1-0.4 0.3-0.4 0.2 0 0.5 0.1 0.5 0.4q0 1.2 0 2.4c0 0.2-0.2 0.4-0.4 0.4zm-400.6-3.6c-0.2 0-0.4-0.2-0.4-0.4v-2.4c0-0.2 0.1-0.4 0.3-0.4 0.2-0.1 0.5 0.1 0.5 0.3v2.5c0.1 0.2-0.1 0.4-0.3 0.4q-0.1 0-0.1 0zm400.4-4.5c-0.2 0-0.4-0.1-0.4-0.4q0-1.2-0.1-2.4c0-0.2 0.2-0.4 0.4-0.4 0.2 0 0.4 0.2 0.4 0.4q0.1 1.2 0.1 2.4c0 0.2-0.1 0.4-0.4 0.4q0 0 0 0zm-400.6-3.6c-0.2 0-0.4-0.2-0.4-0.4l-0.1-2.4c0-0.2 0.2-0.4 0.4-0.4 0.2 0 0.4 0.2 0.4 0.4l0.1 2.4c0 0.2-0.2 0.4-0.4 0.4q0 0 0 0zm400.3-4.4c-0.2 0-0.4-0.2-0.4-0.4q-0.1-1.2-0.1-2.4c-0.1-0.3 0.1-0.5 0.3-0.5 0.3 0 0.5 0.2 0.5 0.4q0 1.2 0.1 2.4c0 0.3-0.2 0.4-0.4 0.5q0 0 0 0zm-400.6-3.7c-0.2 0-0.4-0.1-0.4-0.4l-0.1-2.4c0-0.2 0.2-0.4 0.4-0.4 0.3 0 0.4 0.2 0.4 0.4l0.1 2.4c0 0.2-0.1 0.4-0.4 0.4q0 0 0 0zm400.1-4.4c-0.2 0-0.4-0.2-0.4-0.4q-0.1-1.2-0.2-2.4c0-0.2 0.2-0.4 0.4-0.4 0.3 0 0.4 0.1 0.5 0.3q0 1.2 0.1 2.5c0 0.2-0.1 0.4-0.4 0.4q0 0 0 0zm-400.3-3.6c-0.3 0-0.4-0.2-0.4-0.4l-0.1-2.4c0-0.3 0.1-0.5 0.4-0.5 0.2 0 0.4 0.2 0.4 0.4l0.1 2.4c0 0.3-0.2 0.5-0.4 0.5q0 0 0 0zm399.7-4.5c-0.2 0-0.4-0.1-0.4-0.3q-0.1-1.2-0.2-2.4c0-0.3 0.1-0.5 0.3-0.5 0.3 0 0.5 0.2 0.5 0.4q0.1 1.2 0.2 2.4c0 0.2-0.1 0.4-0.4 0.4q0 0 0 0zm-400-3.6c-0.2 0-0.4-0.2-0.4-0.4l-0.1-2.4c0-0.2 0.2-0.4 0.4-0.4 0.2-0.1 0.4 0.1 0.4 0.4l0.1 2.4c0 0.2-0.2 0.4-0.4 0.4q0 0 0 0zm399.2-4.4c-0.2 0-0.4-0.2-0.4-0.4q-0.1-1.2-0.3-2.4c0-0.2 0.2-0.4 0.4-0.4 0.2 0 0.4 0.1 0.4 0.3q0.2 1.2 0.3 2.4c0 0.3-0.1 0.5-0.4 0.5q0 0 0 0zm-399.5-3.7c-0.2 0-0.4-0.2-0.4-0.4l-0.1-2.8h1.5c0.2 0 0.4 0.2 0.4 0.4 0 0.2-0.2 0.4-0.4 0.4h-0.6v2c0.1 0.2-0.1 0.4-0.3 0.4q-0.1 0-0.1 0zm396.9-2.4h-2.5c-0.2 0-0.4-0.2-0.4-0.4 0-0.2 0.2-0.4 0.4-0.4h2.5c0.2 0 0.4 0.2 0.4 0.4 0 0.2-0.2 0.4-0.4 0.4zm-8.1 0h-2.5c-0.2 0-0.4-0.2-0.4-0.4 0-0.2 0.2-0.4 0.4-0.4h2.5c0.2 0 0.4 0.2 0.4 0.4 0 0.2-0.2 0.4-0.4 0.4zm-8.1 0h-2.4c-0.3 0-0.4-0.2-0.4-0.4 0-0.2 0.1-0.4 0.4-0.4h2.4c0.2 0 0.4 0.2 0.4 0.4 0 0.2-0.2 0.4-0.4 0.4zm-8.1 0h-2.4c-0.2 0-0.4-0.2-0.4-0.4 0-0.2 0.2-0.4 0.4-0.4h2.4c0.2 0 0.4 0.2 0.4 0.4 0 0.2-0.2 0.4-0.4 0.4zm-8.1 0h-2.4c-0.2 0-0.4-0.2-0.4-0.4 0-0.2 0.2-0.4 0.4-0.4h2.4c0.3 0 0.4 0.2 0.4 0.4 0 0.2-0.1 0.4-0.4 0.4zm-8 0h-2.5c-0.2 0-0.4-0.2-0.4-0.4 0-0.2 0.2-0.4 0.4-0.4h2.5c0.2 0 0.4 0.2 0.4 0.4 0 0.2-0.2 0.4-0.4 0.4zm-8.1 0h-2.4c-0.3 0-0.4-0.2-0.4-0.4 0-0.2 0.1-0.4 0.4-0.4h2.4c0.2 0 0.4 0.2 0.4 0.4 0 0.2-0.2 0.4-0.4 0.4zm-8.1 0h-2.4c-0.2 0-0.4-0.2-0.4-0.4 0-0.2 0.2-0.4 0.4-0.4h2.4c0.2 0 0.4 0.2 0.4 0.4 0 0.2-0.2 0.4-0.4 0.4zm-8.1 0h-2.4c-0.2 0-0.4-0.2-0.4-0.4 0-0.2 0.2-0.4 0.4-0.4h2.4c0.2 0 0.4 0.2 0.4 0.4 0 0.2-0.2 0.4-0.4 0.4zm-8.1 0h-2.4c-0.2 0-0.4-0.2-0.4-0.4 0-0.2 0.2-0.4 0.4-0.4h2.4c0.3 0 0.4 0.2 0.4 0.4 0 0.2-0.1 0.4-0.4 0.4zm-8 0h-2.5c-0.2 0-0.4-0.2-0.4-0.4 0-0.2 0.2-0.4 0.4-0.4h2.5c0.2 0 0.4 0.2 0.4 0.4 0 0.2-0.2 0.4-0.4 0.4zm-8.1 0h-2.4c-0.3 0-0.4-0.2-0.4-0.4 0-0.2 0.1-0.4 0.4-0.4h2.4c0.2 0 0.4 0.2 0.4 0.4 0 0.2-0.2 0.4-0.4 0.4zm-8.1 0h-2.4c-0.2 0-0.4-0.2-0.4-0.4 0-0.2 0.2-0.4 0.4-0.4h2.4c0.2 0 0.4 0.2 0.4 0.4 0 0.2-0.2 0.4-0.4 0.4zm-8.1 0h-2.4c-0.2 0-0.4-0.2-0.4-0.4 0-0.2 0.2-0.4 0.4-0.4h2.4c0.3 0 0.4 0.2 0.4 0.4 0 0.2-0.1 0.4-0.4 0.4zm-8 0h-2.5c-0.2 0-0.4-0.2-0.4-0.4 0-0.2 0.2-0.4 0.4-0.4h2.5c0.2 0 0.4 0.2 0.4 0.4 0 0.2-0.2 0.4-0.4 0.4zm-8.1 0h-2.4c-0.3 0-0.5-0.2-0.5-0.4 0-0.2 0.2-0.4 0.5-0.4h2.4c0.2 0 0.4 0.2 0.4 0.4 0 0.2-0.2 0.4-0.4 0.4zm-8.1 0h-2.4c-0.2 0-0.4-0.2-0.4-0.4 0-0.2 0.2-0.4 0.4-0.4h2.4c0.2 0 0.4 0.2 0.4 0.4 0 0.2-0.2 0.4-0.4 0.4zm-8.1 0h-2.4c-0.2 0-0.4-0.2-0.4-0.4 0-0.2 0.2-0.4 0.4-0.4h2.4c0.2 0 0.4 0.2 0.4 0.4 0 0.2-0.2 0.4-0.4 0.4zm-8.1 0h-2.4c-0.2 0-0.4-0.2-0.4-0.4 0-0.2 0.2-0.4 0.4-0.4h2.4c0.3 0 0.4 0.2 0.4 0.4 0 0.2-0.1 0.4-0.4 0.4zm-8 0h-2.5c-0.2 0-0.4-0.2-0.4-0.4 0-0.2 0.2-0.4 0.4-0.4h2.5c0.2 0 0.4 0.2 0.4 0.4 0 0.2-0.2 0.4-0.4 0.4zm-8.1 0h-2.4c-0.3 0-0.4-0.2-0.4-0.4 0-0.2 0.1-0.4 0.4-0.4h2.4c0.2 0 0.4 0.2 0.4 0.4 0 0.2-0.2 0.4-0.4 0.4zm-8.1 0h-2.4c-0.2 0-0.4-0.2-0.4-0.4 0-0.2 0.2-0.4 0.4-0.4h2.4c0.2 0 0.4 0.2 0.4 0.4 0 0.2-0.2 0.4-0.4 0.4zm-8.1 0h-2.4c-0.2 0-0.4-0.2-0.4-0.4 0-0.2 0.2-0.4 0.4-0.4h2.4c0.3 0 0.4 0.2 0.4 0.4 0 0.2-0.1 0.4-0.4 0.4zm-8.1 0h-2.4c-0.2 0-0.4-0.2-0.4-0.4 0-0.2 0.2-0.4 0.4-0.4h2.4c0.3 0 0.5 0.2 0.5 0.4 0 0.2-0.2 0.4-0.5 0.4zm-8 0h-2.5c-0.2 0-0.4-0.2-0.4-0.4 0-0.2 0.2-0.4 0.4-0.4h2.5c0.2 0 0.4 0.2 0.4 0.4 0 0.2-0.2 0.4-0.4 0.4zm-8.1 0h-2.4c-0.3 0-0.4-0.2-0.4-0.4 0-0.2 0.1-0.4 0.4-0.4h2.4c0.2 0 0.4 0.2 0.4 0.4 0 0.2-0.2 0.4-0.4 0.4zm-8.1 0h-2.4c-0.2 0-0.4-0.2-0.4-0.4 0-0.2 0.2-0.4 0.4-0.4h2.4c0.2 0 0.4 0.2 0.4 0.4 0 0.2-0.2 0.4-0.4 0.4zm-8.1 0h-2.4c-0.2 0-0.4-0.2-0.4-0.4 0-0.2 0.2-0.4 0.4-0.4h2.4c0.3 0 0.4 0.2 0.4 0.4 0 0.2-0.1 0.4-0.4 0.4zm-8 0h-2.5c-0.2 0-0.4-0.2-0.4-0.4 0-0.2 0.2-0.4 0.4-0.4h2.5c0.2 0 0.4 0.2 0.4 0.4 0 0.2-0.2 0.4-0.4 0.4zm-8.1 0h-2.4c-0.3 0-0.4-0.2-0.4-0.4 0-0.2 0.1-0.4 0.4-0.4h2.4c0.2 0 0.4 0.2 0.4 0.4 0 0.2-0.2 0.4-0.4 0.4zm-8.1 0h-2.4c-0.2 0-0.4-0.2-0.4-0.4 0-0.2 0.2-0.4 0.4-0.4h2.4c0.2 0 0.4 0.2 0.4 0.4 0 0.2-0.2 0.4-0.4 0.4zm-8.1 0h-2.4c-0.2 0-0.4-0.2-0.4-0.4 0-0.2 0.2-0.4 0.4-0.4h2.4c0.2 0 0.4 0.2 0.4 0.4 0 0.2-0.2 0.4-0.4 0.4zm-8.1 0h-2.4c-0.2 0-0.4-0.2-0.4-0.4 0-0.2 0.2-0.4 0.4-0.4h2.4c0.3 0 0.4 0.2 0.4 0.4 0 0.2-0.1 0.4-0.4 0.4zm-8 0h-2.5c-0.2 0-0.4-0.2-0.4-0.4 0-0.2 0.2-0.4 0.4-0.4h2.5c0.2 0 0.4 0.2 0.4 0.4 0 0.2-0.2 0.4-0.4 0.4zm-8.1 0h-2.4c-0.3 0-0.4-0.2-0.4-0.4 0-0.2 0.1-0.4 0.4-0.4h2.4c0.2 0 0.4 0.2 0.4 0.4 0 0.2-0.2 0.4-0.4 0.4zm-8.1 0h-2.4c-0.2 0-0.4-0.2-0.4-0.4 0-0.2 0.2-0.4 0.4-0.4h2.4c0.2 0 0.4 0.2 0.4 0.4 0 0.2-0.2 0.4-0.4 0.4zm-8.1 0h-2.4c-0.2 0-0.4-0.2-0.4-0.4 0-0.2 0.2-0.4 0.4-0.4h2.4c0.3 0 0.4 0.2 0.4 0.4 0 0.2-0.1 0.4-0.4 0.4zm-8 0h-2.5c-0.2 0-0.4-0.2-0.4-0.4 0-0.2 0.2-0.4 0.4-0.4h2.5c0.2 0 0.4 0.2 0.4 0.4 0 0.2-0.2 0.4-0.4 0.4zm-8.1 0h-2.4c-0.3 0-0.5-0.2-0.5-0.4 0-0.2 0.2-0.4 0.5-0.4h2.4c0.2 0 0.4 0.2 0.4 0.4 0 0.2-0.2 0.4-0.4 0.4zm-8.1 0h-2.4c-0.3 0-0.4-0.2-0.4-0.4 0-0.2 0.1-0.4 0.4-0.4h2.4c0.2 0 0.4 0.2 0.4 0.4 0 0.2-0.2 0.4-0.4 0.4zm-8.1 0h-2.4c-0.2 0-0.4-0.2-0.4-0.4 0-0.2 0.2-0.4 0.4-0.4h2.4c0.2 0 0.4 0.2 0.4 0.4 0 0.2-0.2 0.4-0.4 0.4zm-8.1 0h-2.4c-0.2 0-0.4-0.2-0.4-0.4 0-0.2 0.2-0.4 0.4-0.4h2.4c0.3 0 0.4 0.2 0.4 0.4 0 0.2-0.1 0.4-0.4 0.4zm-8 0h-2.5c-0.2 0-0.4-0.2-0.4-0.4 0-0.2 0.2-0.4 0.4-0.4h2.5c0.2 0 0.4 0.2 0.4 0.4 0 0.2-0.2 0.4-0.4 0.4zm-8.1 0h-2.4c-0.3 0-0.4-0.2-0.4-0.4 0-0.2 0.1-0.4 0.4-0.4h2.4c0.2 0 0.4 0.2 0.4 0.4 0 0.2-0.2 0.4-0.4 0.4zm-8.1 0h-2.4c-0.2 0-0.4-0.2-0.4-0.4 0-0.2 0.2-0.4 0.4-0.4h2.4c0.2 0 0.4 0.2 0.4 0.4 0 0.2-0.2 0.4-0.4 0.4zm-8.1 0h-2.4c-0.2 0-0.4-0.2-0.4-0.4 0-0.2 0.2-0.4 0.4-0.4h2.4c0.2 0 0.4 0.2 0.4 0.4 0 0.2-0.2 0.4-0.4 0.4zm-8.1 0h-2.4c-0.2 0-0.4-0.2-0.4-0.4 0-0.2 0.2-0.4 0.4-0.4h2.4c0.3 0 0.5 0.2 0.5 0.4 0 0.2-0.2 0.4-0.5 0.4zm-8 0h-2.5c-0.2 0-0.4-0.2-0.4-0.4 0-0.2 0.2-0.4 0.4-0.4h2.5c0.2 0 0.4 0.2 0.4 0.4 0 0.2-0.2 0.4-0.4 0.4zm-8.1 0h-2.4c-0.3 0-0.4-0.2-0.4-0.4 0-0.2 0.1-0.4 0.4-0.4h2.4c0.2 0 0.4 0.2 0.4 0.4 0 0.2-0.2 0.4-0.4 0.4z"/>
					<path id="&lt;Path&gt;" class="s56" d="m371.1 1839.7l1-10.7c1.1-2.5 3.4-4.4 6.2-4.8 10.4-1.6 36.1-4.5 48.5 4.7l1.8 12.5z"/>
					<path id="&lt;Path&gt;" class="s57" d="m403.4 1829.4q-3.5 0.9-7.1 0c-2.9-0.7-5-3.3-5-6.3v-33.5h17.1v33.5c0 3-2.1 5.6-5 6.3z"/>
					<path id="&lt;Path&gt;" class="s58" d="m536.4 1839.7l1-10.7c1.2-2.5 3.5-4.4 6.3-4.8 10.4-1.6 36.1-4.5 48.4 4.7l1.9 12.5z"/>
					<path id="&lt;Path&gt;" class="s59" d="m568.8 1829.4q-3.6 0.9-7.2 0c-2.9-0.7-4.9-3.3-4.9-6.3v-37.1h17.1v37.1c0 3-2.1 5.6-5 6.3z"/>
					<path id="&lt;Path&gt;" class="s60" d="m389.6 1797.8l183.6-6.1c4.2-0.1 7.8-3.1 8.5-7.2 1-5.8 1.9-14.4 0.5-23.3-1.5-10.2-10.2-17.7-20.5-17.9-34.2-0.9-121.5-0.8-169.5 18.2-5.1 2-8.9 6.3-10.2 11.6-1.2 5.1-2 11.8-0.4 18.7 0.9 3.6 4.2 6.1 8 6z"/>
					<path id="&lt;Path&gt;" class="s15" d="m386.4 1788.3c-0.4 0-0.8-0.3-0.8-0.8 0-0.3-0.7-7.2 1.1-13.8 1.4-5.1 5.4-9.1 10.4-10.6 10.3-3 29.8-8.1 45.8-8.6 0.4 0 0.8 0.4 0.8 0.8 0 0.5-0.3 0.9-0.8 0.9-15.8 0.4-35.2 5.5-45.3 8.5-4.5 1.3-8.1 4.9-9.3 9.4-1.8 6.4-1.1 13.2-1.1 13.3 0.1 0.4-0.3 0.8-0.7 0.9q-0.1 0-0.1 0z"/>
					<path id="&lt;Path&gt;" class="s61" d="m285.9 1835.6c59.3-0.8 315.9-3.5 390.5 5.5 6.4 0.8 11.6 5.5 13 11.7 4.4 20 13.3 66.2 12.2 112.1-0.1 6.2-4.7 11.5-10.9 12.7l-170.1 32.1h-60.5l-181.3-36c-6.4-1.3-11.1-6.7-11.4-13.2-1.2-23-3-77.2 3.2-112 1.3-7.4 7.7-12.8 15.3-12.9z"/>
					<path id="&lt;Compound Path&gt;" class="s15" d="m519.2 1995.5h-2.4c-0.3 0-0.4-0.2-0.4-0.4 0-0.2 0.1-0.4 0.4-0.4h2.4c0.2 0 0.4 0.2 0.4 0.4 0 0.2-0.2 0.4-0.4 0.4zm-8.1 0h-2.4c-0.2 0-0.4-0.2-0.4-0.4 0-0.2 0.2-0.4 0.4-0.4h2.4c0.2 0 0.4 0.2 0.4 0.4 0 0.2-0.2 0.4-0.4 0.4zm-8.1 0h-2.4c-0.2 0-0.4-0.2-0.4-0.4 0-0.2 0.2-0.4 0.4-0.4h2.4c0.2 0 0.4 0.2 0.4 0.4 0 0.2-0.2 0.4-0.4 0.4zm-8.1 0h-2.4c-0.2 0-0.4-0.2-0.4-0.4 0-0.2 0.2-0.4 0.4-0.4h2.4c0.3 0 0.5 0.2 0.5 0.4 0 0.2-0.2 0.4-0.5 0.4zm-8 0h-2.5c-0.2 0-0.4-0.2-0.4-0.4 0-0.2 0.2-0.4 0.4-0.4h2.5c0.2 0 0.4 0.2 0.4 0.4 0 0.2-0.2 0.4-0.4 0.4zm-8.1 0h-2.4c-0.3 0-0.4-0.2-0.4-0.4 0-0.2 0.1-0.4 0.4-0.4h2.4c0.2 0 0.4 0.2 0.4 0.4 0 0.2-0.2 0.4-0.4 0.4zm-8.1 0h-2.4c-0.2 0-0.4-0.2-0.4-0.4 0-0.2 0.2-0.4 0.4-0.4h2.4c0.2 0 0.4 0.2 0.4 0.4 0 0.2-0.2 0.4-0.4 0.4zm-8.1 0h-1l-2.5-0.5c-0.2 0-0.3-0.3-0.3-0.5 0-0.2 0.3-0.3 0.5-0.3l2.4 0.5h0.9c0.3 0 0.4 0.2 0.4 0.4 0 0.2-0.1 0.4-0.4 0.4zm62.1-1.1c-0.2 0-0.3-0.1-0.4-0.3 0-0.2 0.1-0.4 0.4-0.5l2.3-0.4c0.3-0.1 0.5 0.1 0.5 0.3 0.1 0.2-0.1 0.4-0.3 0.5l-2.4 0.4q0 0-0.1 0zm-71-0.5q-0.1 0-0.1 0l-2.4-0.5c-0.2 0-0.4-0.2-0.3-0.4 0-0.3 0.2-0.4 0.5-0.4l2.3 0.5c0.3 0.1 0.4 0.3 0.4 0.5-0.1 0.2-0.3 0.3-0.4 0.3zm79-1c-0.2 0-0.4-0.1-0.4-0.3-0.1-0.2 0.1-0.4 0.3-0.5l2.4-0.4c0.2-0.1 0.4 0.1 0.5 0.3 0 0.2-0.1 0.4-0.4 0.5l-2.3 0.4q-0.1 0-0.1 0zm-87-0.6q0 0 0 0l-2.4-0.4c-0.2-0.1-0.4-0.3-0.3-0.5 0-0.2 0.2-0.4 0.4-0.3l2.4 0.4c0.2 0.1 0.4 0.3 0.3 0.5 0 0.2-0.2 0.3-0.4 0.3zm94.9-0.9c-0.2 0-0.3-0.1-0.4-0.3 0-0.2 0.1-0.4 0.3-0.5l2.4-0.4c0.2-0.1 0.5 0.1 0.5 0.3 0 0.2-0.1 0.4-0.3 0.5l-2.4 0.4q0 0-0.1 0zm-102.8-0.6q0 0-0.1 0l-2.3-0.5c-0.3-0.1-0.4-0.3-0.4-0.5 0.1-0.2 0.3-0.4 0.5-0.3l2.4 0.5c0.2 0 0.3 0.2 0.3 0.4 0 0.2-0.2 0.4-0.4 0.4zm110.8-0.9c-0.2 0-0.4-0.1-0.4-0.3-0.1-0.2 0.1-0.4 0.3-0.5l2.4-0.4c0.2-0.1 0.4 0.1 0.4 0.3 0.1 0.2-0.1 0.4-0.3 0.5l-2.4 0.4q0 0 0 0zm-118.7-0.7q-0.1 0-0.1 0l-2.4-0.5c-0.2 0-0.3-0.3-0.3-0.5 0.1-0.2 0.3-0.3 0.5-0.3l2.4 0.5c0.2 0 0.3 0.2 0.3 0.5-0.1 0.2-0.2 0.3-0.4 0.3zm126.6-0.8c-0.2 0-0.4-0.1-0.4-0.3 0-0.2 0.1-0.4 0.3-0.5l2.4-0.4c0.2-0.1 0.4 0.1 0.5 0.3 0 0.2-0.1 0.4-0.4 0.5l-2.3 0.4q-0.1 0-0.1 0zm-134.5-0.8q-0.1 0-0.1 0l-2.4-0.5c-0.2 0-0.4-0.2-0.3-0.4 0-0.3 0.2-0.4 0.5-0.4l2.3 0.5c0.3 0.1 0.4 0.3 0.4 0.5-0.1 0.2-0.2 0.3-0.4 0.3zm142.4-0.7c-0.2 0-0.3-0.1-0.4-0.3 0-0.2 0.1-0.4 0.4-0.5l2.3-0.4c0.3-0.1 0.5 0.1 0.5 0.3 0 0.2-0.1 0.4-0.3 0.5l-2.4 0.4q0 0-0.1 0zm-150.4-0.9q0 0 0 0l-2.4-0.4c-0.2-0.1-0.4-0.3-0.3-0.5 0-0.2 0.2-0.4 0.4-0.3l2.4 0.4c0.2 0.1 0.4 0.3 0.3 0.5 0 0.2-0.2 0.3-0.4 0.3zm158.4-0.6c-0.2 0-0.4-0.1-0.4-0.3-0.1-0.2 0.1-0.4 0.3-0.5l2.4-0.4c0.2-0.1 0.4 0.1 0.4 0.3 0.1 0.2-0.1 0.4-0.3 0.5l-2.4 0.4q0 0 0 0zm-166.3-0.9q0 0-0.1 0l-2.3-0.5c-0.3-0.1-0.4-0.3-0.4-0.5 0.1-0.2 0.3-0.4 0.5-0.3l2.4 0.5c0.2 0 0.4 0.2 0.3 0.4 0 0.2-0.2 0.4-0.4 0.4zm174.2-0.6c-0.2 0-0.4-0.1-0.4-0.3 0-0.2 0.1-0.4 0.3-0.5l2.4-0.4c0.2-0.1 0.4 0.1 0.5 0.3 0 0.2-0.1 0.4-0.3 0.5l-2.4 0.4q-0.1 0-0.1 0zm-182.1-1q0 0-0.1 0l-2.4-0.5c-0.2 0-0.3-0.3-0.3-0.5 0.1-0.2 0.3-0.3 0.5-0.3l2.4 0.5c0.2 0 0.3 0.2 0.3 0.5-0.1 0.2-0.2 0.3-0.4 0.3zm190-0.5c-0.2 0-0.3-0.1-0.4-0.3 0-0.2 0.1-0.4 0.4-0.5l2.3-0.4c0.3-0.1 0.5 0.1 0.5 0.3 0.1 0.2-0.1 0.4-0.3 0.5l-2.4 0.4q0 0-0.1 0zm-197.9-1.1q-0.1 0-0.1 0l-2.4-0.5c-0.2 0-0.3-0.2-0.3-0.4 0-0.3 0.2-0.4 0.5-0.4l2.3 0.5c0.3 0.1 0.4 0.3 0.4 0.5-0.1 0.2-0.2 0.3-0.4 0.3zm205.9-0.4c-0.2 0-0.4-0.1-0.4-0.3-0.1-0.2 0.1-0.4 0.3-0.5l2.4-0.4c0.2-0.1 0.4 0.1 0.5 0.3 0 0.2-0.1 0.4-0.4 0.5l-2.3 0.4q-0.1 0-0.1 0zm-213.9-1.2q0 0 0 0l-2.4-0.4c-0.2-0.1-0.4-0.3-0.3-0.5 0-0.2 0.2-0.4 0.4-0.3l2.4 0.4c0.2 0.1 0.4 0.3 0.3 0.5 0 0.2-0.2 0.3-0.4 0.3zm221.8-0.3c-0.2 0-0.3-0.1-0.4-0.3 0-0.2 0.1-0.4 0.3-0.5l2.4-0.4c0.2-0.1 0.5 0.1 0.5 0.3 0 0.2-0.1 0.4-0.3 0.5l-2.4 0.4q0 0-0.1 0zm-229.7-1.2q0 0-0.1 0l-2.3-0.5c-0.3-0.1-0.4-0.3-0.4-0.5 0.1-0.2 0.3-0.4 0.5-0.3l2.4 0.5c0.2 0 0.4 0.2 0.3 0.4 0 0.2-0.2 0.4-0.4 0.4zm237.7-0.3c-0.2 0-0.4-0.1-0.4-0.3-0.1-0.2 0.1-0.4 0.3-0.5l2.4-0.4c0.2-0.1 0.4 0.1 0.4 0.3 0.1 0.2-0.1 0.4-0.3 0.5l-2.4 0.4q0 0 0 0zm-245.6-1.3q0 0-0.1 0l-2.4-0.5c-0.2 0-0.3-0.3-0.3-0.5 0.1-0.2 0.3-0.3 0.5-0.3l2.4 0.5c0.2 0 0.3 0.2 0.3 0.5 0 0.2-0.2 0.3-0.4 0.3zm253.5-0.2c-0.2 0-0.4-0.1-0.4-0.3 0-0.2 0.1-0.4 0.3-0.5l2.4-0.4c0.2-0.1 0.4 0.1 0.5 0.3 0 0.2-0.1 0.4-0.4 0.5l-2.3 0.4q-0.1 0-0.1 0zm-261.4-1.4q-0.1 0-0.1 0l-2.4-0.5c-0.2 0-0.3-0.2-0.3-0.4 0-0.3 0.3-0.4 0.5-0.4l2.4 0.5c0.2 0.1 0.3 0.3 0.3 0.5-0.1 0.2-0.2 0.3-0.4 0.3zm269.3-0.1c-0.2 0-0.3-0.1-0.4-0.3 0-0.2 0.1-0.4 0.4-0.5l2.3-0.4c0.3-0.1 0.5 0.1 0.5 0.3 0 0.2-0.1 0.4-0.3 0.5l-2.4 0.4q0 0-0.1 0zm-277.2-1.5q-0.1 0-0.1 0l-2.4-0.4c-0.2-0.1-0.4-0.3-0.3-0.5 0-0.2 0.2-0.4 0.5-0.3l2.3 0.4c0.2 0.1 0.4 0.3 0.3 0.5 0 0.2-0.2 0.3-0.3 0.3zm285.2 0c-0.2 0-0.4-0.1-0.4-0.3-0.1-0.2 0.1-0.4 0.3-0.5l2.4-0.4c0.2-0.1 0.4 0.1 0.4 0.3 0.1 0.2-0.1 0.4-0.3 0.5l-2.4 0.4q0 0 0 0zm7.9-1.5c-0.2 0-0.4-0.1-0.4-0.3 0-0.2 0.1-0.4 0.3-0.5l2.4-0.4c0.2-0.1 0.4 0.1 0.5 0.3 0 0.2-0.1 0.4-0.3 0.5l-2.4 0.4q-0.1 0-0.1 0zm-301.1 0q0 0-0.1 0l-2.3-0.5c-0.2-0.1-0.4-0.3-0.3-0.5 0-0.2 0.2-0.4 0.4-0.3l2.4 0.5c0.2 0 0.4 0.2 0.3 0.4 0 0.2-0.2 0.4-0.4 0.4zm309-1.5c-0.2 0-0.3-0.1-0.4-0.3 0-0.2 0.1-0.4 0.4-0.5l2.3-0.4c0.3-0.1 0.5 0.1 0.5 0.3 0.1 0.2-0.1 0.4-0.3 0.5l-2.4 0.4q0 0-0.1 0zm-316.9-0.1q0 0-0.1 0l-2.4-0.5c-0.2 0-0.3-0.3-0.3-0.5 0.1-0.2 0.3-0.3 0.5-0.3l2.4 0.5c0.2 0 0.3 0.2 0.3 0.5 0 0.2-0.2 0.3-0.4 0.3zm324.9-1.4c-0.2 0-0.4-0.1-0.4-0.3-0.1-0.2 0.1-0.4 0.3-0.5l2.4-0.4c0.2-0.1 0.4 0.1 0.5 0.3 0 0.2-0.1 0.4-0.4 0.5l-2.3 0.4q-0.1 0-0.1 0zm-332.8-0.2q-0.1 0-0.1 0l-2.4-0.5c-0.2 0-0.3-0.2-0.3-0.4 0.1-0.3 0.3-0.4 0.5-0.4l2.4 0.5c0.2 0.1 0.3 0.3 0.3 0.5-0.1 0.2-0.2 0.3-0.4 0.3zm340.7-1.3c-0.2 0-0.3-0.1-0.4-0.3 0-0.2 0.1-0.5 0.3-0.5l2.4-0.4c0.2-0.1 0.5 0.1 0.5 0.3 0 0.2-0.1 0.4-0.3 0.5l-2.4 0.4q0 0-0.1 0zm-348.6-0.3q-0.1 0-0.1 0l-2.4-0.4c-0.2-0.1-0.4-0.3-0.3-0.5 0-0.2 0.2-0.4 0.5-0.3l2.3 0.4c0.3 0.1 0.4 0.3 0.4 0.5-0.1 0.2-0.3 0.3-0.4 0.3zm356.6-1.2c-0.2 0-0.4-0.1-0.4-0.3-0.1-0.2 0.1-0.5 0.3-0.5l2.4-0.4c0.2-0.1 0.4 0.1 0.4 0.3 0.1 0.2-0.1 0.4-0.3 0.4l-2.4 0.5q0 0 0 0zm-364.6-0.3q0 0 0 0l-2.4-0.5c-0.2-0.1-0.4-0.3-0.3-0.5 0-0.2 0.2-0.4 0.4-0.3l2.4 0.5c0.2 0 0.4 0.2 0.3 0.4 0 0.2-0.2 0.4-0.4 0.4zm372.5-1.2c-0.2 0-0.4-0.1-0.4-0.3 0-0.2 0.1-0.5 0.3-0.5l2.4-0.4c0.2-0.1 0.4 0.1 0.5 0.3 0 0.2-0.1 0.4-0.4 0.4l-2.3 0.5q-0.1 0-0.1 0zm-380.4-0.4q0 0-0.1 0l-2.3-0.5c-0.3 0-0.4-0.3-0.4-0.5 0.1-0.2 0.3-0.3 0.5-0.3l2.4 0.5c0.2 0 0.4 0.2 0.3 0.5 0 0.2-0.2 0.3-0.4 0.3zm-7.9-1.6q-0.1 0-0.1 0l-2.4-0.5c-0.2 0-0.3-0.2-0.3-0.4 0.1-0.3 0.3-0.4 0.5-0.4l2.4 0.5c0.2 0.1 0.3 0.3 0.3 0.5-0.1 0.2-0.2 0.3-0.4 0.3zm-7.9-1.6q-0.1 0-0.1 0l-2.4-0.4c-0.2-0.1-0.4-0.3-0.3-0.5 0-0.2 0.2-0.4 0.5-0.3l2.3 0.4c0.3 0.1 0.4 0.3 0.4 0.5-0.1 0.2-0.2 0.3-0.4 0.3zm399.7-1.6q0 0 0 0c-0.2 0-0.4-0.2-0.4-0.4v-1.4-1c0-0.2 0.2-0.4 0.4-0.4 0.3 0 0.5 0.2 0.5 0.4v1l-0.1 1.4c0 0.3-0.1 0.4-0.4 0.4zm-405.1-2.1c-0.2 0-0.4-0.2-0.4-0.4q-0.1-1.2-0.1-2.4c0-0.3 0.1-0.4 0.3-0.5 0.3 0 0.5 0.2 0.5 0.4q0 1.3 0.1 2.4c0 0.3-0.2 0.5-0.4 0.5q0 0 0 0zm405.1-5.9c-0.2 0-0.4-0.2-0.4-0.4q0-1.3-0.1-2.5c0-0.2 0.2-0.4 0.4-0.4 0.3 0 0.4 0.2 0.4 0.4q0.1 1.2 0.1 2.4c0 0.3-0.2 0.4-0.4 0.5q0 0 0 0zm-405.5-2.2c-0.2 0-0.4-0.2-0.4-0.4l-0.1-2.4c0-0.2 0.2-0.4 0.4-0.4 0.2 0 0.4 0.1 0.4 0.4l0.1 2.4c0 0.2-0.1 0.4-0.4 0.4q0 0 0 0zm405.2-5.9c-0.2 0-0.4-0.2-0.4-0.4q0-1.2-0.1-2.4c0-0.2 0.2-0.4 0.4-0.4 0.2-0.1 0.4 0.1 0.4 0.3q0.1 1.3 0.1 2.5c0.1 0.2-0.1 0.4-0.3 0.4q-0.1 0-0.1 0zm-405.4-2.2c-0.3 0-0.4-0.1-0.5-0.4v-2.4c0-0.2 0.1-0.4 0.4-0.4 0.2 0 0.4 0.2 0.4 0.4l0.1 2.4c0 0.2-0.2 0.4-0.4 0.4q0 0 0 0zm405-5.9c-0.2 0-0.4-0.1-0.4-0.4q-0.1-1.2-0.1-2.4c-0.1-0.2 0.1-0.4 0.3-0.4 0.3 0 0.5 0.1 0.5 0.4q0.1 1.2 0.1 2.4c0 0.2-0.1 0.4-0.4 0.4q0 0 0 0zm-405.3-2.2c-0.2 0-0.4-0.1-0.4-0.3v-2.5c0-0.2 0.2-0.4 0.4-0.4 0.2 0 0.4 0.2 0.4 0.4v2.4c0.1 0.3-0.1 0.4-0.3 0.4q-0.1 0-0.1 0zm404.8-5.8c-0.3 0-0.4-0.2-0.5-0.4q0-1.2-0.2-2.4c0-0.2 0.2-0.4 0.4-0.5 0.2 0 0.4 0.2 0.5 0.4q0.1 1.2 0.2 2.4c0 0.2-0.2 0.4-0.4 0.5q0 0 0 0zm-404.9-2.2c-0.2 0-0.4-0.2-0.4-0.4v-2.5c0-0.2 0.2-0.4 0.4-0.4 0.2 0 0.4 0.2 0.4 0.4v2.5c0 0.2-0.2 0.4-0.4 0.4q0 0 0 0zm404.1-5.9c-0.2 0-0.3-0.1-0.4-0.4q-0.1-1.2-0.2-2.4c0-0.2 0.1-0.4 0.3-0.4 0.3 0 0.5 0.1 0.5 0.4q0.1 1.2 0.2 2.4c0.1 0.2-0.1 0.4-0.3 0.4q0 0-0.1 0zm-404.1-2.2c-0.3 0-0.5-0.2-0.5-0.4v-1.4-1c0-0.3 0.2-0.4 0.5-0.4 0.2 0 0.4 0.1 0.4 0.4v1 1.4c0 0.2-0.2 0.4-0.4 0.4zm403.3-5.8c-0.2 0-0.4-0.2-0.4-0.4q-0.2-1.2-0.3-2.4c0-0.2 0.1-0.4 0.3-0.4 0.3-0.1 0.5 0.1 0.5 0.3q0.1 1.2 0.3 2.4c0 0.2-0.2 0.4-0.4 0.5q0 0 0 0zm-403.3-2.3q0 0 0 0c-0.2 0-0.4-0.2-0.4-0.4q0-1.2 0-2.4c0-0.2 0.2-0.4 0.4-0.4q0 0 0 0c0.2 0 0.4 0.2 0.4 0.4q0 1.2 0 2.4c0 0.2-0.2 0.4-0.4 0.4zm402.3-5.7c-0.2 0-0.4-0.2-0.4-0.4q-0.2-1.2-0.3-2.4c-0.1-0.2 0.1-0.4 0.3-0.5 0.2 0 0.4 0.2 0.5 0.4q0.1 1.2 0.3 2.4c0 0.2-0.1 0.4-0.4 0.4q0 0.1 0 0.1zm-402.2-2.4q0 0 0 0c-0.2 0-0.4-0.2-0.4-0.4q0-1.2 0.1-2.4c0-0.2 0.1-0.4 0.4-0.4 0.2 0 0.4 0.2 0.4 0.4q-0.1 1.2-0.1 2.4c0 0.3-0.2 0.4-0.4 0.4zm401.1-5.7c-0.2 0-0.4-0.1-0.4-0.3q-0.2-1.2-0.4-2.4c0-0.2 0.2-0.4 0.4-0.5 0.2 0 0.4 0.2 0.4 0.4q0.2 1.2 0.4 2.4c0 0.2-0.1 0.4-0.4 0.4q0 0 0 0zm-400.9-2.3q0 0 0 0c-0.2 0-0.4-0.2-0.4-0.5q0.1-1.2 0.1-2.4c0-0.2 0.2-0.4 0.5-0.4 0.2 0 0.3 0.2 0.3 0.4q0 1.3-0.1 2.5c0 0.2-0.1 0.4-0.4 0.4zm399.7-5.6c-0.2 0-0.4-0.2-0.4-0.4q-0.2-1.2-0.4-2.4c-0.1-0.2 0.1-0.4 0.3-0.4 0.2-0.1 0.4 0.1 0.5 0.3q0.2 1.2 0.4 2.4c0 0.2-0.1 0.4-0.4 0.5q0 0 0 0zm-399.3-2.5q0 0 0 0c-0.2 0-0.4-0.2-0.4-0.4q0.1-1.3 0.1-2.5c0-0.2 0.2-0.4 0.5-0.3 0.2 0 0.4 0.2 0.3 0.4q0 1.2-0.1 2.4c0 0.2-0.2 0.4-0.4 0.4zm397.9-5.5c-0.2 0-0.3-0.2-0.4-0.3q-0.2-1.3-0.4-2.4c0-0.3 0.1-0.5 0.3-0.5 0.3 0 0.5 0.1 0.5 0.3q0.2 1.2 0.4 2.4c0.1 0.2-0.1 0.4-0.3 0.5q0 0-0.1 0zm-397.4-2.6q0 0 0 0c-0.2 0-0.4-0.2-0.4-0.4q0.1-1.2 0.2-2.4c0-0.3 0.2-0.4 0.4-0.4 0.2 0 0.4 0.2 0.4 0.4q-0.1 1.2-0.2 2.4c0 0.3-0.2 0.4-0.4 0.4zm396-5.4c-0.2 0-0.4-0.1-0.4-0.3q-0.3-1.2-0.5-2.4c0-0.2 0.1-0.4 0.3-0.4 0.3-0.1 0.5 0.1 0.5 0.3q0.2 1.1 0.5 2.4c0 0.2-0.1 0.4-0.4 0.4q0 0 0 0zm-395.3-2.6q0 0 0 0c-0.3-0.1-0.4-0.3-0.4-0.5q0.1-1.2 0.2-2.4c0.1-0.2 0.3-0.4 0.5-0.4 0.2 0.1 0.4 0.3 0.3 0.5q-0.1 1.2-0.2 2.4c0 0.2-0.2 0.4-0.4 0.4zm393.7-5.3c-0.2 0-0.4-0.1-0.4-0.3q-0.3-1.3-0.5-2.4c0-0.2 0.1-0.4 0.3-0.5 0.2 0 0.5 0.1 0.5 0.3q0.2 1.2 0.5 2.4c0 0.2-0.1 0.5-0.3 0.5q-0.1 0-0.1 0zm-392.8-2.8q0 0-0.1 0c-0.2 0-0.3-0.2-0.3-0.4q0.2-1.2 0.3-2.4c0.1-0.2 0.3-0.4 0.5-0.4 0.2 0.1 0.4 0.3 0.3 0.5q-0.1 1.2-0.3 2.4c0 0.2-0.2 0.3-0.4 0.3zm390.2-4.2q0 0 0 0-1.2-0.2-2.4-0.3c-0.3 0-0.4-0.2-0.4-0.5 0-0.2 0.2-0.3 0.4-0.3q1.3 0.1 2.5 0.3c0.2 0 0.3 0.2 0.3 0.4 0 0.2-0.2 0.4-0.4 0.4zm-8-0.9q0 0-0.1 0-1.1-0.1-2.4-0.2c-0.2 0-0.4-0.2-0.3-0.4 0-0.2 0.2-0.4 0.4-0.4q1.2 0.1 2.4 0.2c0.2 0 0.4 0.2 0.4 0.5 0 0.2-0.2 0.3-0.4 0.3zm-8.1-0.6q0 0 0 0-1.2-0.1-2.4-0.2c-0.2 0-0.4-0.2-0.4-0.5 0-0.2 0.2-0.3 0.4-0.3q1.3 0.1 2.5 0.1c0.2 0.1 0.3 0.3 0.3 0.5 0 0.2-0.2 0.4-0.4 0.4zm-8-0.6q0 0-0.1 0l-2.4-0.2c-0.2 0-0.4-0.2-0.4-0.4 0.1-0.2 0.2-0.4 0.5-0.4l2.4 0.2c0.2 0 0.4 0.2 0.4 0.4 0 0.2-0.2 0.4-0.4 0.4zm-8.1-0.5q0 0 0 0l-2.4-0.1c-0.3-0.1-0.4-0.2-0.4-0.5 0-0.2 0.2-0.4 0.4-0.3l2.4 0.1c0.2 0 0.4 0.2 0.4 0.4 0 0.2-0.2 0.4-0.4 0.4zm-8.1-0.4q0 0 0 0l-2.4-0.2c-0.2 0-0.4-0.2-0.4-0.4 0-0.2 0.2-0.4 0.4-0.4l2.5 0.2c0.2 0 0.3 0.2 0.3 0.4 0 0.2-0.2 0.4-0.4 0.4zm-8-0.4q0 0-0.1 0l-2.4-0.1c-0.2 0-0.4-0.2-0.4-0.4 0-0.3 0.2-0.4 0.5-0.4l2.4 0.1c0.2 0 0.4 0.2 0.4 0.4 0 0.2-0.2 0.4-0.4 0.4zm-8.1-0.3q0 0 0 0l-2.4-0.1c-0.3-0.1-0.4-0.2-0.4-0.5 0-0.2 0.2-0.4 0.4-0.4l2.4 0.1c0.2 0.1 0.4 0.2 0.4 0.5 0 0.2-0.2 0.4-0.4 0.4zm-332.6-0.1q0 0-0.1 0c-0.2 0-0.3-0.2-0.3-0.4l0.1-0.8c0.2-0.7 0.7-1.2 1.4-1.2h0.2c0.3 0 0.5 0.2 0.5 0.4 0 0.2-0.2 0.4-0.4 0.4h-0.2c-0.4 0-0.6 0.2-0.7 0.6l-0.1 0.7c0 0.2-0.2 0.3-0.4 0.3zm324.5-0.3q0 0 0 0h-2.4c-0.2 0-0.4-0.2-0.4-0.5 0-0.2 0.2-0.4 0.4-0.3h2.4c0.3 0 0.4 0.2 0.4 0.5 0 0.2-0.2 0.3-0.4 0.3zm-8.1-0.2q0 0 0 0l-2.4-0.1c-0.2 0-0.4-0.2-0.4-0.4 0-0.2 0.2-0.4 0.4-0.4l2.5 0.1c0.2 0 0.4 0.2 0.3 0.4 0 0.2-0.1 0.4-0.4 0.4zm-8-0.3q0 0 0 0h-2.5c-0.2 0-0.4-0.2-0.4-0.5 0-0.2 0.2-0.4 0.5-0.3h2.4c0.2 0 0.4 0.2 0.4 0.4 0 0.3-0.2 0.4-0.4 0.4zm-8.1-0.2q0 0 0 0h-2.4c-0.3-0.1-0.4-0.2-0.4-0.5 0-0.2 0.1-0.4 0.4-0.4l2.4 0.1c0.2 0 0.4 0.2 0.4 0.4 0 0.2-0.2 0.4-0.4 0.4zm-8.1-0.2q0 0 0 0h-2.4c-0.2 0-0.4-0.2-0.4-0.5 0-0.2 0.1-0.4 0.4-0.4l2.4 0.1c0.2 0 0.4 0.2 0.4 0.4 0 0.2-0.2 0.4-0.4 0.4zm-8.1-0.2q0 0 0 0h-2.4c-0.2 0-0.4-0.2-0.4-0.4 0-0.3 0.2-0.4 0.4-0.4h2.4c0.3 0 0.4 0.2 0.4 0.4 0 0.3-0.1 0.4-0.4 0.4zm-8-0.1q0 0 0 0l-2.5-0.1c-0.2 0-0.4-0.2-0.4-0.4 0-0.2 0.2-0.4 0.4-0.4l2.5 0.1c0.2 0 0.4 0.2 0.4 0.4 0 0.2-0.2 0.4-0.4 0.4zm-269.1-0.2c-0.2 0-0.4-0.1-0.4-0.4 0-0.2 0.2-0.4 0.4-0.4h2.4c0.2 0 0.4 0.2 0.4 0.4 0 0.2-0.1 0.4-0.4 0.4h-2.4q0 0 0 0zm261 0q0 0 0 0h-2.4c-0.3 0-0.4-0.2-0.4-0.4 0-0.2 0.1-0.4 0.4-0.4q0 0 0 0h2.4c0.2 0 0.4 0.2 0.4 0.4 0 0.2-0.2 0.4-0.4 0.4zm-252.9 0c-0.2 0-0.4-0.2-0.4-0.4 0-0.3 0.2-0.5 0.4-0.5h2.4c0.2 0 0.4 0.2 0.4 0.4 0 0.2-0.2 0.4-0.4 0.4l-2.4 0.1q0 0 0 0zm244.8-0.1h-2.4c-0.2 0-0.4-0.2-0.4-0.5 0-0.2 0.1-0.4 0.4-0.4l2.4 0.1c0.2 0 0.4 0.2 0.4 0.4 0 0.2-0.2 0.4-0.4 0.4zm-236.7 0c-0.2 0-0.4-0.2-0.4-0.4 0-0.3 0.2-0.4 0.4-0.4l2.4-0.1c0.2 0 0.4 0.2 0.4 0.4 0 0.3-0.2 0.4-0.4 0.4l-2.4 0.1zm8.1-0.1c-0.3 0-0.4-0.2-0.4-0.4 0-0.2 0.1-0.4 0.4-0.4l2.4-0.1c0.2 0.1 0.4 0.2 0.4 0.4 0 0.3-0.2 0.5-0.4 0.5h-2.4zm220.5 0l-2.4-0.1c-0.2 0-0.4-0.1-0.4-0.4 0-0.2 0.2-0.4 0.4-0.4l2.4 0.1c0.3 0 0.4 0.2 0.4 0.4 0 0.2-0.1 0.4-0.4 0.4zm-212.4-0.1c-0.3 0-0.5-0.2-0.5-0.4 0-0.2 0.2-0.4 0.4-0.4h2.5c0.2 0 0.4 0.1 0.4 0.4 0 0.2-0.2 0.4-0.4 0.4h-2.4zm204.4 0q0 0 0 0l-2.5-0.1c-0.2 0-0.4-0.1-0.4-0.4 0-0.2 0.2-0.4 0.4-0.4l2.5 0.1c0.2 0 0.4 0.1 0.4 0.4 0 0.2-0.2 0.4-0.4 0.4zm-196.4-0.1c-0.2 0-0.4-0.2-0.4-0.4 0-0.2 0.2-0.4 0.4-0.4h2.5c0.2 0 0.4 0.2 0.4 0.4 0 0.2-0.2 0.4-0.4 0.4h-2.5zm188.3 0q0 0 0 0l-2.4-0.1c-0.3 0-0.4-0.1-0.4-0.4 0-0.2 0.2-0.4 0.4-0.4l2.4 0.1c0.2 0 0.4 0.1 0.4 0.4 0 0.2-0.2 0.4-0.4 0.4zm-180.2 0c-0.2 0-0.4-0.2-0.4-0.4 0-0.3 0.2-0.4 0.4-0.5h2.4q0 0 0 0c0.3 0 0.4 0.2 0.4 0.4 0.1 0.3-0.1 0.4-0.4 0.4l-2.4 0.1zm8.1-0.1c-0.2 0-0.4-0.2-0.4-0.4 0-0.2 0.2-0.4 0.4-0.4h2.4q0 0 0 0c0.3 0 0.4 0.1 0.4 0.4 0 0.2-0.1 0.4-0.4 0.4h-2.4q0 0 0 0zm164 0q0 0 0 0h-2.4c-0.2 0-0.4-0.2-0.4-0.4 0-0.3 0.2-0.4 0.4-0.4q0 0 0 0h2.4c0.2 0 0.4 0.2 0.4 0.4 0 0.2-0.2 0.4-0.4 0.4zm-155.9-0.1c-0.2 0-0.4-0.1-0.4-0.4 0-0.2 0.2-0.4 0.4-0.4h2.4c0.2 0 0.4 0.2 0.4 0.4 0 0.2-0.2 0.4-0.4 0.4h-2.4zm147.8 0q0 0 0 0h-2.4c-0.2 0-0.4-0.2-0.4-0.4 0-0.2 0.2-0.4 0.4-0.4h2.4c0.3 0 0.4 0.2 0.4 0.4 0 0.2-0.1 0.4-0.4 0.4zm-139.7 0c-0.3 0-0.4-0.2-0.4-0.4 0-0.2 0.1-0.4 0.4-0.4h2.4c0.2 0 0.4 0.1 0.4 0.4 0 0.2-0.2 0.4-0.4 0.4h-2.4q0 0 0 0zm131.7 0l-2.5-0.1c-0.2 0-0.4-0.1-0.4-0.4 0-0.2 0.2-0.4 0.4-0.4h2.5c0.2 0 0.4 0.2 0.4 0.5 0 0.2-0.2 0.4-0.4 0.4zm-123.6-0.1c-0.3 0-0.5-0.1-0.5-0.4 0-0.2 0.2-0.4 0.4-0.4h2.5q0 0 0 0c0.2 0 0.4 0.2 0.4 0.4 0 0.2-0.2 0.4-0.4 0.4h-2.4zm115.5 0h-2.4c-0.3 0-0.4-0.2-0.4-0.4 0-0.2 0.1-0.4 0.4-0.4h2.4c0.2 0 0.4 0.2 0.4 0.4 0 0.2-0.2 0.4-0.4 0.4zm-107.5 0c-0.2 0-0.4-0.2-0.4-0.4 0-0.2 0.2-0.4 0.4-0.4h2.5c0.2 0 0.4 0.2 0.4 0.4 0 0.2-0.2 0.4-0.4 0.4h-2.5zm99.4 0q0 0 0 0l-2.4-0.1c-0.2 0-0.4-0.1-0.4-0.4 0-0.2 0.2-0.4 0.4-0.4h2.4c0.2 0 0.4 0.2 0.4 0.5 0 0.2-0.2 0.4-0.4 0.4zm-91.3 0c-0.2 0-0.4-0.2-0.4-0.4 0-0.3 0.2-0.5 0.4-0.5h2.4c0.3 0 0.4 0.2 0.4 0.4 0 0.3-0.1 0.4-0.4 0.4l-2.4 0.1zm8.1-0.1c-0.2 0-0.4-0.2-0.4-0.4 0-0.2 0.2-0.4 0.4-0.4h2.4c0.2 0 0.4 0.2 0.4 0.4 0 0.2-0.2 0.4-0.4 0.4h-2.4zm75.1 0h-2.4c-0.2 0-0.4-0.2-0.4-0.4 0-0.2 0.2-0.4 0.4-0.4h2.4c0.3 0 0.4 0.2 0.4 0.4 0 0.2-0.1 0.4-0.4 0.4zm-67 0c-0.2 0-0.4-0.2-0.4-0.4 0-0.2 0.2-0.4 0.4-0.4h2.4c0.2 0 0.4 0.2 0.4 0.4 0 0.2-0.2 0.4-0.4 0.4h-2.4zm59 0h-2.5c-0.2 0-0.4-0.2-0.4-0.4 0-0.2 0.2-0.4 0.4-0.4h2.5c0.2 0 0.4 0.2 0.4 0.4 0 0.2-0.2 0.4-0.4 0.4zm-50.9 0c-0.3 0-0.4-0.2-0.4-0.4 0-0.3 0.1-0.4 0.4-0.4h2.4c0.2 0 0.4 0.1 0.4 0.4 0 0.2-0.2 0.4-0.4 0.4h-2.4zm42.8 0h-2.4c-0.3 0-0.4-0.2-0.4-0.4 0-0.3 0.1-0.4 0.4-0.4h2.4c0.2 0 0.4 0.1 0.4 0.4 0 0.2-0.2 0.4-0.4 0.4zm-34.8 0c-0.2 0-0.4-0.2-0.4-0.4 0-0.3 0.2-0.4 0.4-0.4l2.5-0.1c0.2 0 0.4 0.2 0.4 0.5 0 0.2-0.2 0.4-0.4 0.4h-2.5zm26.7 0h-2.4c-0.2 0-0.4-0.2-0.4-0.5 0-0.2 0.2-0.4 0.4-0.4h2.4c0.2 0 0.4 0.2 0.4 0.5 0 0.2-0.2 0.4-0.4 0.4zm-18.6 0c-0.2 0-0.4-0.2-0.4-0.5 0-0.2 0.2-0.4 0.4-0.4h2.4c0.3 0 0.4 0.2 0.4 0.4 0 0.3-0.1 0.5-0.4 0.5zm10.5-0.1h-2.4c-0.2 0-0.4-0.1-0.4-0.4 0-0.2 0.2-0.4 0.4-0.4h2.4c0.3 0 0.4 0.2 0.4 0.4 0 0.3-0.1 0.4-0.4 0.4z"/>
					<path id="&lt;Path&gt;" class="s62" d="m514.9 2035.1h-53c-6.9 0-12.7-5.1-13.6-12l-6.1-51c-1-8.1 5.4-15.2 13.6-15.2h63.6c8.1 0 14.4 6.9 13.7 14.8l-4.6 51c-0.6 7-6.5 12.4-13.6 12.4z"/>
					<path id="&lt;Path&gt;" class="s63" d="m508.4 2025.7h-40.3c-5.3 0-9.8-3.9-10.4-9.1l-4.6-38.8c-0.8-6.2 4.1-11.6 10.3-11.6h48.4c6.2 0 11 5.2 10.4 11.3l-3.4 38.8c-0.5 5.3-5 9.4-10.4 9.4z"/>
				</g>
				<path id="&lt;Path&gt;" class="s64" d="m446.3 1739.8c-8.6 16.3-12.2 33.4-12.2 51.1 0 4.4 2.6 8.4 6.6 10.2 21.5 9.5 43.8 8.4 66.7 1.1 5.6-1.8 7.8-8.5 4.3-13.2-7.7-10-13.7-20.9-17.2-33.1-1.7-5.9 2.7-11.8 8.8-12.1l9.6-0.4c-10.7-21.3-29.3-41.7-54.3-61.3z"/>
			</g>
		</g>
	</g>
</svg>